<svg width="222" height="221" viewBox="0 0 222 221" fill="none" xmlns="http://www.w3.org/2000/svg">
<path d="M105.849 150.956H20.1173C19.4452 150.955 18.8011 150.689 18.3259 150.216C17.8507 149.743 17.5832 149.101 17.582 148.432V28.4602C17.589 27.7951 17.8591 27.1594 18.3337 26.6912C18.8082 26.2229 19.4491 25.9596 20.1173 25.9585H105.849C106.521 25.9597 107.165 26.2261 107.639 26.6993C108.114 27.1724 108.38 27.8137 108.38 28.4823V148.432C108.38 149.101 108.114 149.742 107.639 150.215C107.165 150.688 106.521 150.955 105.849 150.956ZM20.1173 26.0469C19.4747 26.0481 18.8588 26.3027 18.4044 26.755C17.95 27.2074 17.6942 27.8205 17.693 28.4602V148.432C17.6942 149.072 17.95 149.685 18.4044 150.137C18.8588 150.59 19.4747 150.844 20.1173 150.846H105.849C106.491 150.844 107.107 150.59 107.561 150.137C108.014 149.685 108.269 149.072 108.269 148.432V28.4602C108.269 27.8209 108.014 27.2078 107.561 26.7553C107.107 26.3028 106.491 26.0481 105.849 26.0469H20.1173Z" fill="#E6E6E6"/>
<path d="M201.886 150.956H116.15C115.478 150.955 114.835 150.688 114.36 150.215C113.886 149.742 113.619 149.101 113.619 148.432V28.4602C113.625 27.7955 113.894 27.1598 114.368 26.6914C114.842 26.223 115.482 25.9596 116.15 25.9585H201.886C202.554 25.9596 203.194 26.223 203.668 26.6914C204.142 27.1598 204.411 27.7955 204.417 28.4602V148.432C204.417 149.101 204.151 149.742 203.676 150.215C203.202 150.688 202.558 150.955 201.886 150.956ZM116.15 26.0469C115.508 26.0481 114.892 26.3028 114.439 26.7553C113.985 27.2078 113.73 27.8209 113.73 28.4602V148.432C113.73 149.072 113.985 149.685 114.439 150.137C114.892 150.59 115.508 150.844 116.15 150.846H201.886C202.529 150.844 203.146 150.59 203.601 150.138C204.056 149.685 204.313 149.072 204.315 148.432V28.4602C204.313 27.8201 204.056 27.207 203.601 26.7548C203.146 26.3026 202.529 26.0481 201.886 26.0469H116.15Z" fill="#E6E6E6"/>
<path d="M92.241 87.2774L91.6328 139.23C89.4838 156.517 58.7013 170.241 58.7013 170.241C58.7013 170.241 27.9143 156.53 25.752 139.23L25.126 87.2774L58.0264 76.4971L92.241 87.2774Z" fill="#F5F5F5"/>
<path d="M87.9476 90.5659L87.4192 137.215C85.5455 152.291 58.6968 164.261 58.6968 164.261C58.6968 164.261 31.8482 152.291 29.9789 137.215L29.415 90.5659L58.1108 81.1646L87.9476 90.5659Z" fill="#E0E0E0"/>
<path d="M86.0649 93.5093L85.5676 136.335C83.7916 150.479 58.639 161.688 58.639 161.688C58.639 161.688 33.4687 150.465 31.7149 136.335L31.1865 93.5093L58.0885 84.6958L86.0649 93.5093Z" stroke="white" stroke-width="3" stroke-linecap="round" stroke-linejoin="round"/>
<path d="M195.502 69.7432H136.281V173.189H195.502V69.7432Z" fill="#F5F5F5"/>
<path d="M191.209 73.8096H140.659V173.189H191.209V73.8096Z" fill="#E0E0E0"/>
<path d="M142.08 173.631C141.991 173.631 141.904 173.613 141.823 173.578C141.742 173.546 141.67 173.498 141.609 173.436C141.545 173.376 141.495 173.302 141.463 173.22C141.431 173.14 141.414 173.054 141.414 172.968C141.414 172.87 141.436 172.773 141.478 172.685C141.52 172.597 141.581 172.518 141.657 172.456C141.733 172.394 141.822 172.35 141.918 172.326C142.013 172.302 142.112 172.299 142.209 172.318L142.333 172.354L142.449 172.415C142.485 172.441 142.519 172.469 142.551 172.499C142.582 172.529 142.609 172.563 142.631 172.601C142.657 172.636 142.677 172.675 142.693 172.716C142.711 172.756 142.724 172.797 142.733 172.84C142.737 172.882 142.737 172.925 142.733 172.968C142.733 173.055 142.715 173.141 142.679 173.22C142.648 173.301 142.599 173.375 142.537 173.436C142.415 173.557 142.252 173.626 142.08 173.631Z" fill="white"/>
<path d="M141.404 156.685C141.405 156.597 141.423 156.511 141.457 156.43C141.491 156.35 141.541 156.277 141.604 156.216C141.667 156.154 141.741 156.106 141.823 156.074C141.904 156.041 141.991 156.025 142.079 156.026C142.256 156.026 142.425 156.096 142.55 156.22C142.675 156.345 142.745 156.513 142.745 156.689C142.745 156.865 142.675 157.034 142.55 157.158C142.425 157.282 142.256 157.352 142.079 157.352C141.991 157.353 141.903 157.337 141.821 157.304C141.738 157.271 141.664 157.222 141.601 157.16C141.538 157.097 141.488 157.023 141.455 156.942C141.421 156.86 141.404 156.773 141.404 156.685ZM141.404 140.406C141.404 140.23 141.474 140.061 141.599 139.937C141.724 139.813 141.894 139.743 142.07 139.743C142.247 139.743 142.416 139.813 142.541 139.937C142.666 140.061 142.736 140.23 142.736 140.406C142.736 140.582 142.666 140.75 142.541 140.875C142.416 140.999 142.247 141.069 142.07 141.069C141.894 141.069 141.724 140.999 141.599 140.875C141.474 140.75 141.404 140.582 141.404 140.406ZM141.404 124.123C141.404 123.947 141.474 123.778 141.599 123.654C141.724 123.529 141.894 123.46 142.07 123.46C142.247 123.46 142.416 123.529 142.541 123.654C142.666 123.778 142.736 123.947 142.736 124.123C142.736 124.298 142.666 124.467 142.541 124.591C142.416 124.716 142.247 124.786 142.07 124.786C141.983 124.786 141.896 124.768 141.815 124.735C141.735 124.702 141.661 124.653 141.599 124.591C141.538 124.53 141.488 124.457 141.455 124.376C141.422 124.296 141.404 124.21 141.404 124.123ZM141.404 107.839C141.404 107.663 141.474 107.495 141.599 107.371C141.724 107.246 141.894 107.176 142.07 107.176C142.247 107.176 142.416 107.246 142.541 107.371C142.666 107.495 142.736 107.663 142.736 107.839C142.736 108.015 142.666 108.184 142.541 108.308C142.416 108.432 142.247 108.502 142.07 108.502C141.895 108.502 141.727 108.434 141.602 108.311C141.478 108.189 141.407 108.022 141.404 107.848V107.839ZM141.404 91.5605C141.404 91.3846 141.474 91.216 141.599 91.0917C141.724 90.9673 141.894 90.8975 142.07 90.8975C142.247 90.8975 142.416 90.9673 142.541 91.0917C142.666 91.216 142.736 91.3846 142.736 91.5605C142.736 91.7363 142.666 91.9049 142.541 92.0293C142.416 92.1536 142.247 92.2235 142.07 92.2235C141.983 92.2235 141.896 92.2063 141.815 92.173C141.735 92.1397 141.661 92.0908 141.599 92.0293C141.538 91.9677 141.488 91.8946 141.455 91.8142C141.422 91.7337 141.404 91.6475 141.404 91.5605Z" fill="white"/>
<path d="M142.08 75.9402C141.992 75.9406 141.906 75.9236 141.825 75.8902C141.744 75.8568 141.671 75.8077 141.609 75.7457C141.577 75.716 141.548 75.6818 141.525 75.6441C141.502 75.6088 141.481 75.5718 141.463 75.5336C141.445 75.4929 141.433 75.4497 141.427 75.4054C141.423 75.3628 141.423 75.3198 141.427 75.2772C141.428 75.1016 141.499 74.9335 141.623 74.8087C141.652 74.7773 141.685 74.7492 141.72 74.7247C141.756 74.7012 141.795 74.6819 141.836 74.6673C141.876 74.65 141.917 74.6367 141.96 74.6275C142.047 74.6099 142.136 74.6099 142.222 74.6275C142.265 74.6367 142.306 74.65 142.346 74.6673C142.387 74.6819 142.426 74.7012 142.462 74.7247C142.498 74.7503 142.532 74.7783 142.564 74.8087C142.688 74.9335 142.758 75.1016 142.759 75.2772C142.764 75.3198 142.764 75.3628 142.759 75.4054C142.75 75.4493 142.737 75.4922 142.719 75.5336C142.703 75.5727 142.682 75.6098 142.657 75.6441C142.636 75.6817 142.609 75.7159 142.577 75.7457C142.512 75.8101 142.434 75.8606 142.349 75.8941C142.263 75.9275 142.172 75.9432 142.08 75.9402Z" fill="white"/>
<path d="M173.107 75.2768C173.107 75.1009 173.177 74.9323 173.302 74.808C173.427 74.6836 173.596 74.6138 173.773 74.6138C173.949 74.6138 174.119 74.6836 174.244 74.808C174.369 74.9323 174.439 75.1009 174.439 75.2768C174.439 75.4526 174.369 75.6212 174.244 75.7456C174.119 75.8699 173.949 75.9398 173.773 75.9398C173.596 75.9398 173.427 75.8699 173.302 75.7456C173.177 75.6212 173.107 75.4526 173.107 75.2768ZM157.256 75.2768C157.256 75.1009 157.326 74.9323 157.451 74.808C157.576 74.6836 157.745 74.6138 157.922 74.6138C158.098 74.6138 158.268 74.6836 158.393 74.808C158.518 74.9323 158.588 75.1009 158.588 75.2768C158.588 75.4526 158.518 75.6212 158.393 75.7456C158.268 75.8699 158.098 75.9398 157.922 75.9398C157.745 75.9398 157.576 75.8699 157.451 75.7456C157.326 75.6212 157.256 75.4526 157.256 75.2768Z" fill="white"/>
<path d="M189.623 75.9401C189.58 75.9445 189.537 75.9445 189.494 75.9401L189.37 75.9048L189.255 75.8429C189.219 75.8173 189.184 75.7893 189.152 75.7589C189.027 75.6347 188.957 75.4662 188.957 75.2904C188.958 75.1148 189.028 74.9466 189.152 74.8219C189.183 74.7916 189.218 74.7649 189.255 74.7423C189.289 74.7158 189.328 74.6949 189.37 74.6804C189.41 74.6626 189.451 74.6492 189.494 74.6407C189.581 74.623 189.67 74.623 189.756 74.6407L189.881 74.6804C189.921 74.695 189.958 74.7159 189.992 74.7423C190.029 74.7637 190.064 74.7905 190.094 74.8219C190.218 74.9466 190.288 75.1148 190.289 75.2904C190.289 75.4662 190.219 75.6347 190.094 75.7589C190.063 75.7903 190.028 75.8185 189.992 75.8429C189.956 75.8661 189.919 75.8868 189.881 75.9048L189.756 75.9401C189.712 75.9445 189.667 75.9445 189.623 75.9401Z" fill="white"/>
<path d="M188.957 156.685C188.957 156.509 189.027 156.34 189.152 156.216C189.277 156.092 189.446 156.022 189.623 156.022C189.8 156.022 189.969 156.092 190.094 156.216C190.219 156.34 190.289 156.509 190.289 156.685C190.289 156.861 190.219 157.029 190.094 157.154C189.969 157.278 189.8 157.348 189.623 157.348C189.446 157.348 189.277 157.278 189.152 157.154C189.027 157.029 188.957 156.861 188.957 156.685ZM188.957 140.406C188.957 140.23 189.027 140.061 189.152 139.937C189.277 139.813 189.446 139.743 189.623 139.743C189.8 139.743 189.969 139.813 190.094 139.937C190.219 140.061 190.289 140.23 190.289 140.406C190.289 140.582 190.219 140.75 190.094 140.875C189.969 140.999 189.8 141.069 189.623 141.069C189.446 141.069 189.277 140.999 189.152 140.875C189.027 140.75 188.957 140.582 188.957 140.406ZM188.957 124.123C188.957 123.947 189.027 123.778 189.152 123.654C189.277 123.529 189.446 123.46 189.623 123.46C189.8 123.46 189.969 123.529 190.094 123.654C190.219 123.778 190.289 123.947 190.289 124.123C190.289 124.298 190.219 124.467 190.094 124.591C189.969 124.716 189.8 124.786 189.623 124.786C189.536 124.786 189.449 124.768 189.368 124.735C189.287 124.702 189.214 124.653 189.152 124.591C189.09 124.53 189.041 124.457 189.008 124.376C188.974 124.296 188.957 124.21 188.957 124.123ZM188.957 107.839C188.957 107.663 189.027 107.495 189.152 107.371C189.277 107.246 189.446 107.176 189.623 107.176C189.8 107.176 189.969 107.246 190.094 107.371C190.219 107.495 190.289 107.663 190.289 107.839C190.289 108.015 190.219 108.184 190.094 108.308C189.969 108.432 189.8 108.502 189.623 108.502C189.448 108.502 189.28 108.434 189.155 108.311C189.031 108.189 188.959 108.022 188.957 107.848V107.839ZM188.957 91.5605C188.957 91.3846 189.027 91.216 189.152 91.0917C189.277 90.9673 189.446 90.8975 189.623 90.8975C189.8 90.8975 189.969 90.9673 190.094 91.0917C190.219 91.216 190.289 91.3846 190.289 91.5605C190.289 91.7363 190.219 91.9049 190.094 92.0293C189.969 92.1536 189.8 92.2235 189.623 92.2235C189.536 92.2235 189.449 92.2063 189.368 92.173C189.287 92.1397 189.214 92.0908 189.152 92.0293C189.09 91.9677 189.041 91.8946 189.008 91.8142C188.974 91.7337 188.957 91.6475 188.957 91.5605Z" fill="white"/>
<path d="M189.623 173.631C189.492 173.631 189.363 173.592 189.254 173.519C189.144 173.446 189.059 173.342 189.009 173.221C188.958 173.1 188.945 172.967 188.971 172.838C188.996 172.71 189.06 172.592 189.153 172.499C189.185 172.469 189.219 172.441 189.255 172.415L189.37 172.353L189.495 172.318C189.581 172.3 189.67 172.3 189.757 172.318L189.881 172.353C189.919 172.371 189.956 172.392 189.992 172.415C190.029 172.44 190.063 172.468 190.094 172.499C190.219 172.623 190.289 172.792 190.289 172.968C190.29 173.055 190.274 173.141 190.24 173.222C190.206 173.302 190.157 173.375 190.094 173.436C189.969 173.561 189.8 173.63 189.623 173.631Z" fill="white"/>
<path d="M42.1801 173.357H23.8828V173.467H42.1801V173.357Z" fill="#E0E0E0"/>
<path d="M79.4755 172.473H61.125V172.583H79.4755V172.473Z" fill="#E0E0E0"/>
<path d="M103.354 172.473H98.9141V172.583H103.354V172.473Z" fill="#E0E0E0"/>
<path d="M58.9764 176.248H38.4414V176.358H58.9764V176.248Z" fill="#E0E0E0"/>
<path d="M130.002 173.299H120.412V173.41H130.002V173.299Z" fill="#E0E0E0"/>
<path d="M146.355 173.299H133.954V173.41H146.355V173.299Z" fill="#E0E0E0"/>
<path d="M206.162 175.169H178.438V175.279H206.162V175.169Z" fill="#E0E0E0"/>
<path d="M103.634 38.7411H83.1787L84.2976 26.0513H104.748L103.634 38.7411Z" fill="#EBEBEB"/>
<path d="M104.047 24.3276L103.487 30.9532L102.928 38.9181H83.2588L84.3777 24.3276H104.047Z" fill="#FAFAFA"/>
<path d="M102.169 26.0514L103.283 38.7412H82.8327L81.7139 26.0514H83.4544L84.0582 25.0967H89.5682L90.3585 26.0514H102.169Z" fill="#E0E0E0"/>
<path d="M135.335 41.5747H113.57V63.2415H135.335V41.5747Z" fill="#EBEBEB"/>
<path d="M135.89 41.5747H135.335V63.2415H135.89V41.5747Z" fill="#E0E0E0"/>
<path d="M133.319 43.5811H115.577V61.2434H133.319V43.5811Z" fill="#F5F5F5"/>
<path d="M115.746 43.5811H115.582V61.2434H115.746V43.5811Z" fill="#E0E0E0"/>
<path d="M124.617 54.9626C126.527 54.9626 128.076 52.9996 128.076 50.578C128.076 48.1564 126.527 46.1934 124.617 46.1934C122.707 46.1934 121.158 48.1564 121.158 50.578C121.158 52.9996 122.707 54.9626 124.617 54.9626Z" fill="#E0E0E0"/>
<path d="M126.455 53.5483H122.81V57.1772H126.455V53.5483Z" fill="#E0E0E0"/>
<path d="M117.837 55.7451H131.193V56.9827C131.193 58.1128 130.742 59.1965 129.939 59.9956C129.136 60.7947 128.048 61.2436 126.912 61.2436H122.099C120.964 61.2436 119.876 60.7947 119.073 59.9956C118.27 59.1965 117.819 58.1128 117.819 56.9827V55.7451H117.837Z" fill="#E0E0E0"/>
<path d="M117.5 53.8709C117.5 54.5914 118.832 55.1969 118.832 55.1969C118.832 55.1969 120.164 54.6091 120.164 53.8709C120.164 53.5262 119.685 53.3317 119.369 53.4289C119.249 53.4708 119.137 53.5362 119.042 53.6211C118.947 53.7061 118.869 53.809 118.814 53.924C118.644 53.696 118.42 53.5137 118.162 53.3936C118.086 53.3671 118.005 53.3594 117.925 53.3709C117.846 53.3825 117.77 53.413 117.705 53.4599C117.64 53.5069 117.588 53.5687 117.552 53.6403C117.516 53.7119 117.498 53.791 117.5 53.8709Z" fill="#E0E0E0"/>
<path d="M129.319 50.6488C129.319 51.5991 131.046 52.3682 131.046 52.3682C131.046 52.3682 132.773 51.5991 132.773 50.6488C132.773 50.2068 132.134 49.946 131.73 50.061C131.425 50.1821 131.18 50.4168 131.046 50.7151C130.821 50.4173 130.527 50.1778 130.189 50.0168C130.089 49.9815 129.982 49.971 129.877 49.9863C129.772 50.0016 129.672 50.0421 129.586 50.1043C129.501 50.1666 129.431 50.2487 129.385 50.3436C129.338 50.4385 129.315 50.5432 129.319 50.6488Z" fill="#E0E0E0"/>
<path d="M91.3353 158.819C91.5395 160.097 92.4675 161.197 92.5385 162.488C92.5962 163.5 92.1211 164.45 91.8858 165.436C91.6505 166.422 91.7659 167.646 92.6317 168.168C92.9468 168.327 93.2987 168.4 93.6514 168.379C94.0042 168.358 94.3449 168.244 94.6386 168.048C95.2185 167.649 95.6972 167.121 96.0372 166.506C97.3991 164.314 98.143 161.798 98.1906 159.222C98.1906 158.139 98.0796 156.989 97.4403 156.128C95.46 153.374 90.8291 155.637 91.3353 158.819Z" fill="#F5F5F5"/>
<path d="M89.6877 155.438C89.8787 155.646 90.1276 155.792 90.4026 155.858C90.5689 155.912 90.7462 155.923 90.9179 155.89C91.0896 155.856 91.2499 155.78 91.3838 155.668C91.4858 155.538 91.5584 155.387 91.5967 155.226C91.635 155.065 91.6381 154.898 91.6058 154.735C91.5786 154.328 91.4388 153.937 91.2018 153.604C91.0827 153.44 90.9247 153.308 90.7419 153.219C90.5591 153.13 90.3571 153.088 90.1539 153.096C89.9511 153.112 89.7602 153.198 89.6131 153.338C89.466 153.478 89.3716 153.664 89.3459 153.865C89.2965 154.412 89.4157 154.961 89.6877 155.438Z" fill="#F5F5F5"/>
<path d="M93.3772 152.782C93.2864 152.642 93.1564 152.532 93.0032 152.465C92.8501 152.398 92.6806 152.378 92.5158 152.406C92.3528 152.442 92.2046 152.527 92.0906 152.648C91.9765 152.77 91.9019 152.922 91.8764 153.087C91.8693 153.194 91.8693 153.302 91.8764 153.409C91.8781 153.583 91.8974 153.756 91.9342 153.926C91.9713 154.09 92.0491 154.242 92.1606 154.368C92.313 154.516 92.5063 154.614 92.7156 154.651C92.8451 154.682 92.9801 154.681 93.1092 154.649C93.2383 154.617 93.3577 154.554 93.4571 154.466C93.5454 154.359 93.6114 154.235 93.651 154.102C93.6907 153.969 93.7032 153.83 93.6879 153.692C93.6778 153.365 93.5696 153.048 93.3772 152.782Z" fill="#F5F5F5"/>
<path d="M95.4331 152.671C95.3604 152.538 95.2418 152.435 95.0992 152.381C94.9565 152.328 94.7992 152.327 94.6561 152.38C94.5165 152.437 94.3932 152.529 94.2972 152.645C94.2012 152.761 94.1354 152.899 94.1056 153.047C94.1056 153.144 94.0789 153.242 94.0745 153.339C94.0718 153.499 94.0897 153.66 94.1278 153.816C94.1597 153.97 94.2406 154.11 94.3586 154.214C94.4845 154.319 94.6393 154.383 94.8026 154.4C94.909 154.413 95.017 154.402 95.119 154.369C95.221 154.337 95.3145 154.282 95.3932 154.209C95.5658 154.014 95.6605 153.762 95.6596 153.502C95.679 153.208 95.5993 152.916 95.4331 152.671Z" fill="#F5F5F5"/>
<path d="M97.2665 153.095C97.049 152.773 96.8225 152.751 96.5739 152.888C96.3529 153.049 96.1958 153.282 96.1299 153.546C96.1049 153.632 96.0871 153.719 96.0766 153.807C96.0526 153.953 96.0526 154.103 96.0766 154.249C96.1055 154.391 96.1882 154.516 96.3075 154.598C96.4175 154.667 96.5468 154.698 96.676 154.687C96.844 154.672 97.0013 154.598 97.12 154.479C97.2834 154.305 97.3874 154.083 97.4175 153.847C97.4626 153.586 97.4088 153.319 97.2665 153.095Z" fill="#F5F5F5"/>
<path d="M97.6266 154.886C97.6023 154.99 97.6023 155.099 97.6266 155.204C97.6356 155.258 97.6577 155.308 97.691 155.351C97.7243 155.395 97.7677 155.429 97.8175 155.451C97.9083 155.472 98.0031 155.465 98.09 155.432C98.1769 155.399 98.2521 155.341 98.3059 155.266C98.4372 155.132 98.5333 154.968 98.5856 154.788C98.6115 154.699 98.619 154.605 98.6076 154.512C98.5961 154.419 98.566 154.33 98.519 154.249C98.1239 153.608 97.6799 154.567 97.6266 154.886Z" fill="#F5F5F5"/>
<path d="M97.9862 188.341C98.2837 187.298 98.4569 186.153 98.0617 185.141C96.8407 181.989 91.7969 182.993 91.4639 186.201L97.9862 188.341Z" fill="#F5F5F5"/>
<path d="M90.7626 182.515C90.8944 182.765 91.0986 182.97 91.3486 183.103C91.4951 183.197 91.6632 183.253 91.8373 183.264C92.0113 183.276 92.1854 183.243 92.3432 183.169C92.4729 183.067 92.5795 182.94 92.6561 182.794C92.7326 182.649 92.7773 182.489 92.7872 182.325C92.8656 181.926 92.8318 181.513 92.6895 181.131C92.6159 180.941 92.4964 180.772 92.3415 180.638C92.1867 180.505 92.0012 180.412 91.8015 180.367C91.6018 180.331 91.396 180.365 91.2183 180.462C91.0406 180.56 90.9017 180.715 90.8247 180.901C90.6409 181.421 90.6192 181.983 90.7626 182.515Z" fill="#F5F5F5"/>
<path d="M95.0161 180.884C94.9634 180.726 94.8657 180.587 94.7348 180.483C94.6039 180.38 94.4456 180.316 94.2791 180.301C94.1122 180.295 93.9474 180.339 93.8058 180.427C93.6642 180.516 93.5523 180.644 93.4843 180.796C93.4452 180.897 93.4126 181 93.3866 181.105C93.3417 181.273 93.3149 181.445 93.3067 181.618C93.2955 181.79 93.3308 181.963 93.4088 182.117C93.5141 182.294 93.6683 182.437 93.8528 182.528C93.9697 182.59 94.1001 182.623 94.2325 182.623C94.3648 182.623 94.4952 182.59 94.6121 182.528C94.7285 182.45 94.8278 182.349 94.9041 182.231C94.9804 182.113 95.0321 181.981 95.0561 181.843C95.1357 181.526 95.1219 181.193 95.0161 180.884Z" fill="#F5F5F5"/>
<path d="M97.0138 181.304C96.9776 181.158 96.8909 181.03 96.7691 180.942C96.6472 180.854 96.4981 180.811 96.3478 180.822C96.1976 180.843 96.0549 180.901 95.9319 180.989C95.8089 181.078 95.7094 181.195 95.6419 181.33C95.6018 181.418 95.5662 181.508 95.5353 181.6C95.4853 181.75 95.4555 181.906 95.4465 182.064C95.4377 182.22 95.4781 182.374 95.5619 182.506C95.6603 182.644 95.8002 182.748 95.9615 182.802C96.0613 182.842 96.1688 182.86 96.2763 182.854C96.3838 182.848 96.4886 182.818 96.5831 182.767C96.8011 182.624 96.9591 182.407 97.0272 182.157C97.1172 181.879 97.1126 181.579 97.0138 181.304Z" fill="#F5F5F5"/>
<path d="M98.6745 182.184C98.5502 181.812 98.3148 181.742 98.0618 181.804C97.8031 181.899 97.5863 182.082 97.449 182.321C97.4046 182.398 97.3646 182.478 97.3292 182.559C97.2748 182.692 97.2418 182.832 97.2315 182.975C97.223 183.117 97.269 183.258 97.3602 183.368C97.4482 183.463 97.5652 183.527 97.6932 183.549C97.8594 183.582 98.0317 183.552 98.1772 183.465C98.3774 183.337 98.5326 183.151 98.6212 182.931C98.7296 182.696 98.7485 182.431 98.6745 182.184Z" fill="#F5F5F5"/>
<path d="M98.568 184.004C98.5137 184.097 98.4818 184.202 98.4748 184.309C98.4704 184.363 98.4789 184.417 98.4998 184.467C98.5206 184.517 98.5532 184.562 98.5946 184.597C98.6768 184.64 98.77 184.658 98.8624 184.648C98.9549 184.639 99.0425 184.602 99.1141 184.544C99.2748 184.447 99.4102 184.314 99.5093 184.155C99.5572 184.074 99.5886 183.985 99.6016 183.893C99.6146 183.8 99.6088 183.706 99.5847 183.615C99.3539 182.895 98.7101 183.717 98.568 184.004Z" fill="#F5F5F5"/>
<path d="M80.4831 169.578C80.6473 170.864 80.0391 172.177 80.3499 173.436C80.5763 174.422 81.3 175.204 81.7973 176.088C82.2946 176.972 82.5299 178.175 81.8373 178.917C81.5801 179.158 81.2629 179.326 80.9187 179.403C80.5744 179.481 80.2155 179.466 79.8792 179.359C79.211 179.131 78.6037 178.755 78.1032 178.259C76.1856 176.528 74.7715 174.316 74.0095 171.854C73.6899 170.815 73.4945 169.679 73.8675 168.658C75.0352 165.48 80.0879 166.382 80.4831 169.578Z" fill="#F5F5F5"/>
<path d="M81.1095 165.882C80.9848 166.134 80.7867 166.342 80.5412 166.479C80.3971 166.578 80.2298 166.638 80.0556 166.653C79.8814 166.669 79.7061 166.639 79.5467 166.568C79.4115 166.471 79.299 166.346 79.2169 166.202C79.1349 166.058 79.0853 165.897 79.0716 165.732C78.9859 165.334 79.0105 164.92 79.1426 164.534C79.2144 164.342 79.3332 164.17 79.4881 164.034C79.6431 163.898 79.8295 163.803 80.0306 163.756C80.2297 163.716 80.4365 163.745 80.6167 163.839C80.7969 163.932 80.9395 164.084 81.0208 164.269C81.1451 164.68 81.3005 165.48 81.1095 165.882Z" fill="#F5F5F5"/>
<path d="M76.8426 164.34C76.8915 164.181 76.986 164.039 77.1146 163.932C77.2431 163.825 77.4001 163.758 77.5663 163.739C77.7333 163.73 77.8989 163.772 78.0421 163.858C78.1853 163.943 78.2995 164.07 78.37 164.221C78.4129 164.32 78.4485 164.422 78.4765 164.526C78.5244 164.691 78.5542 164.862 78.5653 165.034C78.5814 165.207 78.5492 165.382 78.4721 165.538C78.3734 165.727 78.2184 165.882 78.0281 165.98C77.9138 166.047 77.7848 166.084 77.6524 166.09C77.52 166.095 77.3883 166.068 77.2689 166.011C77.1529 165.933 77.0539 165.832 76.9776 165.715C76.9014 165.598 76.8494 165.467 76.8249 165.33C76.7284 165.006 76.7347 164.66 76.8426 164.34Z" fill="#F5F5F5"/>
<path d="M74.8355 164.799C74.8682 164.651 74.9535 164.519 75.0758 164.428C75.1981 164.337 75.3492 164.293 75.5015 164.304C75.6516 164.323 75.795 164.377 75.9195 164.462C76.0439 164.548 76.1458 164.662 76.2163 164.795C76.259 164.882 76.2961 164.973 76.3273 165.065C76.3817 165.214 76.416 165.37 76.4295 165.529C76.4384 165.684 76.3997 165.838 76.3185 165.971C76.2238 166.111 76.087 166.218 75.9277 166.276C75.829 166.318 75.722 166.338 75.6144 166.335C75.5069 166.331 75.4016 166.303 75.3061 166.254C75.089 166.114 74.931 165.9 74.8621 165.652C74.7591 165.379 74.7497 165.079 74.8355 164.799Z" fill="#F5F5F5"/>
<path d="M73.1928 165.715C73.3127 165.343 73.5436 165.273 73.8011 165.321C74.0617 165.413 74.2816 165.593 74.4227 165.83C74.4692 165.905 74.5108 165.983 74.547 166.064C74.6068 166.193 74.6429 166.333 74.6536 166.475C74.6676 166.618 74.6246 166.761 74.5337 166.873C74.4478 166.969 74.3323 167.034 74.2052 167.058C74.0391 167.095 73.8654 167.07 73.7168 166.988C73.5107 166.864 73.3478 166.681 73.2505 166.462C73.1411 166.228 73.1206 165.962 73.1928 165.715Z" fill="#F5F5F5"/>
<path d="M73.3443 167.518C73.3993 167.611 73.434 167.715 73.4464 167.823C73.4513 167.877 73.4434 167.932 73.4234 167.982C73.4034 168.033 73.3717 168.078 73.3309 168.115C73.2486 168.158 73.1554 168.177 73.0624 168.169C72.9695 168.162 72.8808 168.127 72.807 168.07C72.6444 167.978 72.5072 167.848 72.4074 167.69C72.357 167.611 72.3235 167.522 72.309 167.429C72.2945 167.337 72.2993 167.242 72.3231 167.151C72.5317 166.439 73.1933 167.248 73.3443 167.518Z" fill="#F5F5F5"/>
<path d="M69.5878 63.4668C68.566 63.6098 67.5246 63.448 66.5952 63.0017C65.6658 62.5555 64.8902 61.8449 64.3665 60.9598C63.8427 60.0748 63.5944 59.055 63.6529 58.0294C63.7114 57.0039 64.0741 56.0186 64.6951 55.1983C65.3161 54.3779 66.1675 53.7593 67.1417 53.4207C68.1159 53.0821 69.169 53.0386 70.168 53.2959C71.167 53.5531 72.0669 54.0995 72.7539 54.8659C73.441 55.6322 73.8843 56.5842 74.0278 57.6015C74.2178 58.965 73.8572 60.3479 73.025 61.4473C72.1928 62.5467 70.9568 63.2729 69.5878 63.4668ZM68.5311 55.9086C68.0517 55.9744 67.6026 56.1803 67.2407 56.5002C66.8788 56.8201 66.6204 57.2397 66.4981 57.7059C66.3758 58.172 66.3952 58.6638 66.5537 59.119C66.7123 59.5742 67.0029 59.9724 67.3888 60.2631C67.7747 60.5539 68.2386 60.7242 68.7217 60.7524C69.2048 60.7807 69.6855 60.6657 70.103 60.4219C70.5204 60.1781 70.8559 59.8166 71.0669 59.383C71.2779 58.9494 71.3549 58.4632 71.2883 57.986C71.198 57.3472 70.8572 56.77 70.3405 56.3807C69.8238 55.9914 69.1732 55.8217 68.5311 55.9086Z" fill="#E0E0E0"/>
<path d="M68.5174 42.9136H66.5371V55.5946H68.5174V42.9136Z" fill="#E0E0E0"/>
<path d="M69.4008 41.4683H65.6846V43.4396H69.4008V41.4683Z" fill="#E0E0E0"/>
<path d="M69.7521 43.9614H66.2578V45.9327H69.7521V43.9614Z" fill="#E0E0E0"/>
<path d="M70.2534 47.4707H67.2031V49.442H70.2534V47.4707Z" fill="#E0E0E0"/>
<path d="M111 195.625C158.545 195.625 197.087 193.384 197.087 190.621C197.087 187.858 158.545 185.618 111 185.618C63.4556 185.618 24.9131 187.858 24.9131 190.621C24.9131 193.384 63.4556 195.625 111 195.625Z" fill="#F5F5F5"/>
<path d="M57.0277 111.119C62.9472 111.119 67.7459 105.907 67.7459 99.4767C67.7459 93.0469 62.9472 87.8345 57.0277 87.8345C51.1083 87.8345 46.3096 93.0469 46.3096 99.4767C46.3096 105.907 51.1083 111.119 57.0277 111.119Z" fill="#FF725E"/>
<g opacity="0.8">
<g opacity="0.8">
<path opacity="0.8" d="M57.0277 111.119C62.9472 111.119 67.7459 105.907 67.7459 99.4767C67.7459 93.0469 62.9472 87.8345 57.0277 87.8345C51.1083 87.8345 46.3096 93.0469 46.3096 99.4767C46.3096 105.907 51.1083 111.119 57.0277 111.119Z" fill="white"/>
</g>
</g>
<path d="M51.8112 92.4841C51.718 92.4841 51.6272 92.4549 51.5516 92.4007C51.476 92.3464 51.4194 92.2699 51.39 92.1819C51.3605 92.0938 51.3596 91.9988 51.3874 91.9103C51.4152 91.8217 51.4702 91.7441 51.5448 91.6885C53.0399 90.6203 54.8419 90.0621 56.6819 90.0973C56.7996 90.0973 56.9126 90.1438 56.9958 90.2267C57.0791 90.3096 57.1259 90.422 57.1259 90.5393C57.1259 90.6565 57.0791 90.7689 56.9958 90.8518C56.9126 90.9347 56.7996 90.9813 56.6819 90.9813C55.0339 90.9451 53.4185 91.4414 52.0776 92.3957C52.0007 92.4531 51.9073 92.4841 51.8112 92.4841Z" fill="#FF725E"/>
<path d="M53.9105 107.689C53.8376 107.689 53.7659 107.671 53.7018 107.636C52.3411 106.912 51.1604 105.894 50.2462 104.656C49.332 103.419 48.7074 101.994 48.4182 100.485C48.1361 99.1795 48.1491 97.8282 48.4562 96.5286C48.7634 95.229 49.3571 94.0137 50.1942 92.9707C50.2695 92.8804 50.3778 92.8237 50.4952 92.8129C50.6126 92.8021 50.7295 92.8382 50.8202 92.9132C50.9109 92.9883 50.9679 93.0961 50.9787 93.213C50.9896 93.3298 50.9533 93.4462 50.8779 93.5365C50.1217 94.4806 49.5863 95.5805 49.3106 96.7564C49.0349 97.9323 49.0258 99.1546 49.284 100.334C49.55 101.714 50.1216 103.017 50.9573 104.148C51.7929 105.28 52.8716 106.212 54.1147 106.876C54.2015 106.923 54.2702 106.997 54.3101 107.087C54.3499 107.176 54.3585 107.277 54.3346 107.372C54.3106 107.467 54.2555 107.552 54.1779 107.613C54.1003 107.673 54.0047 107.707 53.906 107.707L53.9105 107.689Z" fill="#FF725E"/>
<path d="M58.3552 108.843C57.3614 108.839 56.3743 108.681 55.4293 108.374C55.3736 108.356 55.322 108.328 55.2775 108.29C55.2329 108.252 55.1963 108.206 55.1697 108.154C55.1431 108.102 55.1271 108.045 55.1225 107.987C55.1179 107.929 55.1248 107.871 55.1429 107.815C55.1609 107.76 55.1898 107.708 55.2278 107.664C55.2658 107.62 55.3122 107.583 55.3644 107.557C55.4165 107.53 55.4734 107.514 55.5318 107.51C55.5902 107.505 55.6489 107.512 55.7045 107.53C58.4351 108.414 61.1613 107.919 63.1815 106.204C64.2064 105.304 64.9809 104.155 65.4304 102.87C65.8799 101.585 65.9892 100.206 65.7478 98.867C65.729 98.7497 65.7577 98.6299 65.8276 98.5337C65.8976 98.4376 66.003 98.373 66.1208 98.3543C66.2385 98.3355 66.359 98.3641 66.4555 98.4337C66.5521 98.5033 66.617 98.6083 66.6358 98.7255C66.905 100.214 66.7827 101.746 66.2809 103.174C65.7791 104.601 64.9148 105.875 63.772 106.872C62.2664 108.161 60.3412 108.862 58.3552 108.843Z" fill="#FF725E"/>
<path d="M65.8233 97.7353C65.7292 97.7349 65.6375 97.7047 65.5617 97.6491C65.4859 97.5935 65.4298 97.5153 65.4015 97.4259C64.9932 96.1707 64.3245 95.0149 63.4387 94.0334C62.553 93.052 61.4701 92.2667 60.26 91.7285C60.1517 91.6816 60.0665 91.5938 60.0232 91.4843C59.9799 91.3749 59.982 91.2529 60.0291 91.145C60.0762 91.0372 60.1644 90.9524 60.2744 90.9093C60.3843 90.8662 60.5069 90.8683 60.6152 90.9152C61.9404 91.5049 63.1263 92.3652 64.0961 93.4404C65.066 94.5155 65.7981 95.7815 66.2451 97.1562C66.2816 97.2676 66.2721 97.3888 66.2188 97.4932C66.1655 97.5976 66.0728 97.6767 65.961 97.7132C65.9163 97.7266 65.87 97.734 65.8233 97.7353Z" fill="#FF725E"/>
<path d="M58.8263 91.2291C58.7924 91.2337 58.758 91.2337 58.7242 91.2291C58.056 91.0742 57.3722 90.9956 56.6862 90.9948C56.5684 90.9948 56.4555 90.9483 56.3722 90.8654C56.289 90.7825 56.2422 90.6701 56.2422 90.5528C56.2422 90.4356 56.289 90.3232 56.3722 90.2403C56.4555 90.1574 56.5684 90.1108 56.6862 90.1108C57.4338 90.1131 58.1786 90.2006 58.9062 90.3716C59.0239 90.3851 59.1315 90.4446 59.2052 90.537C59.2789 90.6294 59.3127 90.7472 59.2991 90.8644C59.2856 90.9817 59.2258 91.0887 59.133 91.1621C59.0401 91.2355 58.9218 91.2691 58.8041 91.2556L58.8263 91.2291Z" fill="#FF725E"/>
<path d="M50.9937 101.788C50.903 101.788 50.8144 101.761 50.7397 101.71C50.6651 101.658 50.6081 101.586 50.5764 101.501C50.1602 100.431 50.0138 99.2766 50.15 98.1377C50.2863 96.9988 50.701 95.9105 51.3578 94.9681C51.9787 94.0755 52.8103 93.3482 53.7795 92.8504C54.7488 92.3525 55.8261 92.0992 56.9167 92.1128C57.0344 92.1128 57.1474 92.1594 57.2306 92.2423C57.3139 92.3252 57.3607 92.4376 57.3607 92.5548C57.3607 92.672 57.3139 92.7845 57.2306 92.8674C57.1474 92.9503 57.0344 92.9968 56.9167 92.9968C55.9691 92.9857 55.0332 93.2055 54.1904 93.6369C53.3477 94.0683 52.6237 94.6983 52.0815 95.472C51.5055 96.3019 51.1431 97.2598 51.0262 98.2618C50.9093 99.2637 51.0415 100.279 51.4111 101.218C51.4513 101.328 51.4463 101.449 51.3972 101.555C51.3482 101.661 51.259 101.743 51.1491 101.784C51.0979 101.794 51.0454 101.795 50.9937 101.788Z" fill="#FF725E"/>
<path d="M58.0352 106.836C56.7043 106.792 55.4039 106.428 54.2444 105.777C53.0849 105.125 52.1006 104.204 51.3752 103.092C51.3213 102.995 51.3064 102.88 51.3336 102.772C51.3607 102.664 51.4279 102.57 51.5216 102.509C51.6154 102.448 51.7287 102.425 51.8391 102.444C51.9494 102.463 52.0485 102.522 52.1167 102.611C52.7614 103.599 53.6358 104.419 54.666 105.001C55.6961 105.582 56.8517 105.909 58.0352 105.952C58.1529 105.952 58.2659 105.999 58.3491 106.082C58.4324 106.164 58.4792 106.277 58.4792 106.394C58.4792 106.511 58.4324 106.624 58.3491 106.707C58.2659 106.789 58.1529 106.836 58.0352 106.836Z" fill="#FF725E"/>
<path d="M59.6957 106.646C59.5943 106.649 59.4949 106.617 59.4142 106.556C59.3334 106.495 59.2761 106.408 59.2517 106.31C59.2236 106.196 59.2419 106.076 59.3027 105.976C59.3634 105.875 59.4617 105.803 59.5759 105.775C63.1767 104.891 64.1091 101.748 63.8116 99.3351C63.4253 96.188 60.9301 93.0012 56.903 92.9968C56.7852 92.9968 56.6723 92.9502 56.589 92.8673C56.5058 92.7844 56.459 92.672 56.459 92.5548C56.459 92.4376 56.5058 92.3251 56.589 92.2423C56.6723 92.1594 56.7852 92.1128 56.903 92.1128C61.4451 92.1128 64.2601 95.693 64.6952 99.229C65.1392 102.875 63.2167 105.784 59.789 106.632C59.7585 106.64 59.7272 106.645 59.6957 106.646Z" fill="#FF725E"/>
<path d="M55.1009 95.4369C55.0167 95.4363 54.9344 95.4119 54.8637 95.3665C54.7929 95.3211 54.7366 95.2566 54.7013 95.1806C54.6512 95.0745 54.6456 94.953 54.6855 94.8427C54.7255 94.7325 54.8078 94.6426 54.9144 94.5927C55.5951 94.293 56.3324 94.1423 57.0767 94.1507C57.1944 94.1507 57.3074 94.1973 57.3906 94.2802C57.4739 94.3631 57.5207 94.4755 57.5207 94.5927C57.5207 94.7099 57.4739 94.8224 57.3906 94.9053C57.3074 94.9882 57.1944 95.0347 57.0767 95.0347C56.4639 95.0351 55.8583 95.1663 55.3007 95.4193C55.2363 95.4403 55.1679 95.4463 55.1009 95.4369Z" fill="#FF725E"/>
<path d="M57.9556 104.776C56.8311 104.758 55.7353 104.42 54.7981 103.801C53.8609 103.182 53.1215 102.309 52.6675 101.284C51.7484 99.2909 52.0193 97.2091 53.3912 95.7063C53.4709 95.6204 53.5814 95.5693 53.6988 95.5644C53.8161 95.5594 53.9306 95.6009 54.0173 95.6798C54.1036 95.7591 54.1549 95.8691 54.1599 95.9859C54.1649 96.1027 54.1232 96.2168 54.0439 96.303C53.4922 96.9242 53.1426 97.6973 53.0411 98.5203C52.9397 99.3432 53.0912 100.178 53.4756 100.913C53.868 101.806 54.5153 102.564 55.337 103.094C56.1588 103.624 57.1188 103.901 58.0977 103.892C58.8382 103.887 59.5613 103.668 60.1798 103.263C60.7983 102.857 61.2856 102.282 61.583 101.607C61.9175 100.811 62.0182 99.936 61.8736 99.0848C61.729 98.2337 61.345 97.4408 60.7661 96.7981C60.7282 96.7539 60.6994 96.7028 60.6813 96.6476C60.6633 96.5924 60.6563 96.5343 60.6609 96.4764C60.6654 96.4185 60.6813 96.3621 60.7078 96.3104C60.7342 96.2586 60.7706 96.2126 60.8149 96.1748C60.8592 96.1371 60.9106 96.1084 60.966 96.0905C61.0215 96.0725 61.0799 96.0656 61.1381 96.0701C61.1962 96.0746 61.2529 96.0905 61.3048 96.1168C61.3568 96.1431 61.4031 96.1793 61.441 96.2235C62.1302 96.993 62.5858 97.9415 62.7548 98.9587C62.9237 99.9759 62.7992 101.02 62.3956 101.969C62.0312 102.798 61.4343 103.504 60.6766 104.002C59.9189 104.501 59.0326 104.771 58.1243 104.781L57.9556 104.776Z" fill="#FF725E"/>
<path d="M59.8252 95.8257C59.7414 95.8262 59.6594 95.8015 59.5898 95.755C58.8401 95.2746 57.9684 95.017 57.0768 95.0124C56.9591 95.0124 56.8461 94.9659 56.7629 94.883C56.6796 94.8001 56.6328 94.6876 56.6328 94.5704C56.6328 94.4532 56.6796 94.3408 56.7629 94.2579C56.8461 94.175 56.9591 94.1284 57.0768 94.1284C58.1373 94.1324 59.1744 94.4392 60.0649 95.0124C60.1453 95.0641 60.2068 95.1403 60.2402 95.2297C60.2735 95.319 60.277 95.4167 60.25 95.5082C60.2231 95.5996 60.1671 95.68 60.0906 95.7372C60.014 95.7944 59.9209 95.8255 59.8252 95.8257Z" fill="#FF725E"/>
<path d="M57.7201 102.783C57.2013 102.779 56.6896 102.663 56.2209 102.441C55.7522 102.22 55.338 101.899 55.0073 101.501C54.5805 101.015 54.3034 100.417 54.2089 99.7779C54.1144 99.1391 54.2066 98.4868 54.4745 97.8987C54.7136 97.365 55.1048 96.9129 55.5997 96.5986C56.0947 96.2843 56.6714 96.1216 57.2584 96.1307C57.3761 96.1307 57.489 96.1773 57.5723 96.2602C57.6556 96.3431 57.7024 96.4555 57.7024 96.5727C57.7024 96.69 57.6556 96.8024 57.5723 96.8853C57.489 96.9682 57.3761 97.0147 57.2584 97.0147C56.8432 97.0071 56.4349 97.1207 56.0837 97.3414C55.7326 97.5621 55.4541 97.8803 55.2826 98.2568C55.0873 98.6908 55.0216 99.1716 55.0933 99.6418C55.1649 100.112 55.3709 100.552 55.6866 100.909C56.0009 101.292 56.4182 101.579 56.8898 101.735C57.3614 101.892 57.868 101.912 58.3506 101.793C58.7432 101.705 59.1022 101.506 59.3847 101.221C59.6673 100.936 59.8616 100.576 59.9446 100.184C59.97 100.07 60.04 99.9702 60.139 99.9072C60.238 99.8442 60.3581 99.8229 60.4729 99.8479C60.5301 99.86 60.5844 99.8832 60.6325 99.9162C60.6807 99.9492 60.7219 99.9914 60.7536 100.04C60.7854 100.089 60.8072 100.144 60.8176 100.201C60.8281 100.258 60.8272 100.317 60.8148 100.374C60.6972 100.927 60.4233 101.435 60.0252 101.839C59.6272 102.242 59.1216 102.523 58.5682 102.65C58.2918 102.728 58.0071 102.772 57.7201 102.783Z" fill="#FF725E"/>
<path d="M60.3048 99.2822C60.2069 99.2867 60.1102 99.2588 60.0299 99.2028C59.9496 99.1468 59.8901 99.066 59.8608 98.9728C59.6836 98.419 59.3373 97.9341 58.8701 97.5855C58.403 97.2369 57.8382 97.042 57.2545 97.028C57.1368 97.028 57.0239 96.9815 56.9406 96.8986C56.8573 96.8157 56.8105 96.7033 56.8105 96.586C56.8105 96.4688 56.8573 96.3564 56.9406 96.2735C57.0239 96.1906 57.1368 96.144 57.2545 96.144C58.0265 96.1612 58.7739 96.4172 59.393 96.8766C60.012 97.3361 60.472 97.976 60.7089 98.7076C60.7268 98.7631 60.7336 98.8215 60.7288 98.8795C60.7239 98.9375 60.7077 98.9941 60.6808 99.0458C60.654 99.0976 60.6172 99.1435 60.5725 99.1811C60.5278 99.2186 60.476 99.247 60.4203 99.2646C60.3827 99.2755 60.3439 99.2814 60.3048 99.2822Z" fill="#FF725E"/>
<path d="M57.8407 100.944C57.7229 100.944 57.61 100.897 57.5267 100.815C57.4435 100.732 57.3967 100.619 57.3967 100.502C57.3967 100.385 57.4435 100.272 57.5267 100.189C57.61 100.107 57.7229 100.06 57.8407 100.06C57.9013 100.06 57.9613 100.048 58.017 100.024C58.0727 100 58.1228 99.9652 58.1644 99.9213C58.206 99.8774 58.2382 99.8255 58.2589 99.7688C58.2795 99.712 58.2883 99.6517 58.2847 99.5915C58.287 99.5054 58.2722 99.4197 58.241 99.3394C58.2098 99.2591 58.1629 99.1858 58.103 99.1237C58.0431 99.0616 57.9714 99.012 57.8921 98.9777C57.8127 98.9434 57.7274 98.9252 57.6409 98.924C57.5758 98.9258 57.5116 98.9403 57.4522 98.9669C57.3927 98.9934 57.3391 99.0314 57.2946 99.0787C57.2491 99.1322 57.2147 99.1941 57.1933 99.2608C57.172 99.3276 57.1641 99.3979 57.1702 99.4677C57.1737 99.5257 57.1657 99.5839 57.1466 99.6389C57.1276 99.6938 57.0978 99.7445 57.059 99.788C57.0203 99.8315 56.9733 99.867 56.9208 99.8924C56.8682 99.9179 56.8112 99.9327 56.7529 99.9362C56.6946 99.9397 56.6362 99.9317 56.5809 99.9127C56.5257 99.8937 56.4748 99.8641 56.4311 99.8255C56.3874 99.7869 56.3518 99.7402 56.3262 99.6879C56.3007 99.6356 56.2857 99.5788 56.2822 99.5207C56.2665 99.3353 56.2889 99.1485 56.3482 98.972C56.4076 98.7955 56.5025 98.6329 56.6273 98.4942C56.752 98.3556 56.9039 98.2438 57.0736 98.1656C57.2434 98.0875 57.4273 98.0448 57.6142 98.04C57.8175 98.0406 58.0186 98.0813 58.2059 98.1598C58.3933 98.2383 58.5631 98.353 58.7056 98.4973C58.848 98.6416 58.9603 98.8126 59.036 99.0004C59.1116 99.1883 59.149 99.3892 59.146 99.5915C59.1496 99.7678 59.1178 99.9431 59.0524 100.107C58.987 100.271 58.8895 100.42 58.7654 100.546C58.6414 100.672 58.4934 100.772 58.33 100.841C58.1666 100.909 57.9912 100.944 57.814 100.944H57.8407Z" fill="#FF725E"/>
<path d="M69.2643 99.4724C69.8059 105.629 65.2283 110.62 59.0523 110.62H58.5727C64.4602 110.319 68.7359 105.448 68.212 99.4856C67.9094 96.567 66.5798 93.849 64.4583 91.8123C62.3367 89.7755 59.56 88.5513 56.6191 88.3561C56.7745 88.3561 56.9344 88.3561 57.0942 88.3561C63.288 88.3295 68.7403 93.3197 69.2643 99.4724Z" fill="#FF725E"/>
<g opacity="0.4">
<path opacity="0.4" d="M69.2643 99.4724C69.8059 105.629 65.2283 110.62 59.0523 110.62H58.5727C64.4602 110.319 68.7359 105.448 68.212 99.4856C67.9094 96.567 66.5798 93.849 64.4583 91.8123C62.3367 89.7755 59.56 88.5513 56.6191 88.3561C56.7745 88.3561 56.9344 88.3561 57.0942 88.3561C63.288 88.3295 68.7403 93.3197 69.2643 99.4724Z" fill="white"/>
</g>
<path d="M78.3307 45.1457C78.3416 45.2777 78.3594 45.409 78.384 45.5391C78.5515 46.3907 78.9906 47.1658 79.6361 47.7491C80.3674 48.4308 81.3293 48.8141 82.3311 48.8231H119.845C120.283 48.8319 120.718 48.754 121.125 48.5938C121.533 48.4335 121.904 48.1943 122.217 47.8899C122.531 47.5856 122.781 47.2222 122.952 46.8208C123.123 46.4195 123.212 45.9883 123.215 45.5523C123.221 45.4213 123.221 45.29 123.215 45.159C123.11 44.1693 122.647 43.2516 121.911 42.5779C121.175 41.9042 120.218 41.5206 119.219 41.4992H81.6962C81.2258 41.4897 80.7588 41.58 80.3262 41.764C79.8935 41.948 79.5052 42.2215 79.1869 42.5664C78.8686 42.9113 78.6276 43.3196 78.48 43.7643C78.3324 44.209 78.2815 44.6799 78.3307 45.1457Z" fill="#FF725E"/>
<path opacity="0.8" d="M78.3307 45.1457C78.3416 45.2777 78.3594 45.409 78.384 45.5391C78.5515 46.3907 78.9906 47.1658 79.6361 47.7491C80.3674 48.4308 81.3293 48.8141 82.3311 48.8231H119.845C120.283 48.8319 120.718 48.754 121.125 48.5938C121.533 48.4335 121.904 48.1943 122.217 47.8899C122.531 47.5856 122.781 47.2222 122.952 46.8208C123.123 46.4195 123.212 45.9883 123.215 45.5523C123.221 45.4213 123.221 45.29 123.215 45.159C123.11 44.1693 122.647 43.2516 121.911 42.5779C121.175 41.9042 120.218 41.5206 119.219 41.4992H81.6962C81.2258 41.4897 80.7588 41.58 80.3262 41.764C79.8935 41.948 79.5052 42.2215 79.1869 42.5664C78.8686 42.9113 78.6276 43.3196 78.48 43.7643C78.3324 44.209 78.2815 44.6799 78.3307 45.1457Z" fill="white"/>
<path d="M123.215 45.5261C123.215 45.6444 123.206 45.7626 123.188 45.8797C123.056 44.9124 122.58 44.0243 121.847 43.3757C121.114 42.7272 120.173 42.3611 119.192 42.3437L79.3076 42.4321C79.6238 42.1259 79.9975 41.8848 80.4074 41.7225C80.8173 41.5602 81.2553 41.4799 81.6963 41.4862H119.21C120.209 41.5076 121.166 41.8911 121.902 42.5649C122.638 43.2386 123.101 44.1563 123.206 45.1459C123.215 45.2724 123.218 45.3993 123.215 45.5261Z" fill="#FF725E"/>
<path opacity="0.5" d="M123.215 45.5261C123.215 45.6444 123.206 45.7626 123.188 45.8797C123.056 44.9124 122.58 44.0243 121.847 43.3757C121.114 42.7272 120.173 42.3611 119.192 42.3437L79.3076 42.4321C79.6238 42.1259 79.9975 41.8848 80.4074 41.7225C80.8173 41.5602 81.2553 41.4799 81.6963 41.4862H119.21C120.209 41.5076 121.166 41.8911 121.902 42.5649C122.638 43.2386 123.101 44.1563 123.206 45.1459C123.215 45.2724 123.218 45.3993 123.215 45.5261Z" fill="white"/>
<path d="M116.772 43.254L116.932 45.022L118.601 44.4032L118.997 45.2872L117.292 45.853L118.517 47.3514L117.749 47.9127L116.555 46.3569L115.667 47.9127L114.827 47.3514L115.773 45.853L113.997 45.2872L114.237 44.4032L116.035 44.9999L115.875 43.2319L116.772 43.254Z" fill="#FF725E"/>
<path d="M106.493 43.254L106.653 45.022L108.323 44.4032L108.722 45.2872L107.004 45.8662L108.229 47.3646L107.466 47.9259L106.271 46.3701L105.383 47.9259L104.54 47.3646L105.49 45.8662L103.714 45.3004L103.954 44.4164L105.752 45.0131L105.596 43.2451L106.493 43.254Z" fill="#FF725E"/>
<path d="M96.2372 43.254L96.3926 45.022L98.062 44.4032L98.4616 45.2872L96.7522 45.8529L97.9776 47.3513L97.2362 47.9259L96.0418 46.3701L95.1538 47.9259L94.3147 47.3646L95.2604 45.8662L93.4844 45.3004L93.7286 44.4164L95.5046 45.0131L95.3492 43.2451L96.2372 43.254Z" fill="#FF725E"/>
<path d="M85.9762 43.254L86.1316 45.022L87.8054 44.4032L88.2006 45.2872L86.4912 45.853L87.7211 47.3514L86.953 47.9127L85.7586 46.3569L84.8706 47.9127L84.0314 47.3514L84.9772 45.853L83.2012 45.2872L83.4409 44.4032L85.2169 44.9999L85.0615 43.2319L85.9762 43.254Z" fill="#FF725E"/>
<path d="M110.845 39.7534H109.096V40.1954H110.845V39.7534Z" fill="#FF725E"/>
<path d="M118.362 39.7534H112.656V40.1954H118.362V39.7534Z" fill="#FF725E"/>
<path opacity="0.8" d="M176.619 56.2402L174.803 76.9081C174.733 77.5678 174.424 78.1794 173.933 78.6285C173.443 79.0776 172.805 79.3334 172.139 79.348H157.722C157.41 79.3496 157.101 79.2858 156.816 79.1607C156.53 79.0355 156.274 78.8519 156.065 78.6216C155.855 78.3914 155.697 78.1198 155.6 77.8246C155.503 77.5293 155.47 77.2171 155.502 76.9081L157.318 56.2358C157.385 55.575 157.694 54.9618 158.185 54.5122C158.676 54.0625 159.315 53.8077 159.982 53.7959H174.399C174.711 53.7942 175.021 53.8581 175.307 53.9835C175.592 54.1089 175.849 54.293 176.058 54.5237C176.268 54.7544 176.426 55.0266 176.523 55.3224C176.619 55.6182 176.652 55.9309 176.619 56.2402Z" fill="#FF725E"/>
<path opacity="0.8" d="M176.619 56.2402L174.803 76.9081C174.733 77.5678 174.424 78.1794 173.933 78.6285C173.443 79.0776 172.805 79.3334 172.139 79.348H157.722C157.41 79.3496 157.101 79.2858 156.816 79.1607C156.53 79.0355 156.274 78.8519 156.065 78.6216C155.855 78.3914 155.697 78.1198 155.6 77.8246C155.503 77.5293 155.47 77.2171 155.502 76.9081L157.318 56.2358C157.385 55.575 157.694 54.9618 158.185 54.5122C158.676 54.0625 159.315 53.8077 159.982 53.7959H174.399C174.711 53.7942 175.021 53.8581 175.307 53.9835C175.592 54.1089 175.849 54.293 176.058 54.5237C176.268 54.7544 176.426 55.0266 176.523 55.3224C176.619 55.6182 176.652 55.9309 176.619 56.2402Z" fill="white"/>
<path d="M158.632 59.5731H158.592C158.475 59.563 158.367 59.507 158.291 59.4176C158.215 59.3281 158.178 59.2123 158.188 59.0957L158.357 57.204C158.367 57.0938 158.418 56.9913 158.5 56.9169C158.582 56.8424 158.69 56.8013 158.801 56.8018H160.808C160.925 56.8018 161.038 56.8483 161.122 56.9312C161.205 57.0141 161.252 57.1265 161.252 57.2438C161.252 57.361 161.205 57.4734 161.122 57.5563C161.038 57.6392 160.925 57.6858 160.808 57.6858H159.209L159.076 59.1709C159.066 59.2811 159.015 59.3835 158.933 59.458C158.851 59.5325 158.743 59.5735 158.632 59.5731Z" fill="#FF725E"/>
<path d="M174.776 59.5731H174.736C174.619 59.563 174.511 59.5071 174.435 59.4176C174.359 59.3281 174.322 59.2123 174.332 59.0957L174.457 57.6858H172.938C172.82 57.6858 172.707 57.6392 172.624 57.5563C172.541 57.4734 172.494 57.361 172.494 57.2438C172.494 57.1265 172.541 57.0141 172.624 56.9312C172.707 56.8483 172.82 56.8018 172.938 56.8018H174.936C174.998 56.8015 175.059 56.8141 175.116 56.8388C175.172 56.8634 175.223 56.8996 175.265 56.945C175.307 56.9903 175.339 57.0439 175.359 57.1022C175.378 57.1605 175.386 57.2222 175.38 57.2835L175.211 59.1709C175.202 59.2796 175.152 59.3808 175.071 59.4551C174.991 59.5293 174.886 59.5714 174.776 59.5731Z" fill="#FF725E"/>
<path d="M159.396 73.8362H157.389C157.328 73.836 157.268 73.8233 157.213 73.799C157.157 73.7747 157.107 73.7392 157.065 73.6947C157.024 73.6497 156.992 73.5967 156.972 73.5388C156.952 73.481 156.945 73.4197 156.95 73.3588L157.114 71.4671C157.124 71.3498 157.18 71.2414 157.271 71.1655C157.361 71.0897 157.478 71.0527 157.596 71.0626C157.714 71.0726 157.823 71.1287 157.899 71.2187C157.975 71.3086 158.012 71.425 158.002 71.5422L157.878 72.9522H159.396C159.514 72.9522 159.627 72.9988 159.71 73.0816C159.793 73.1645 159.84 73.277 159.84 73.3942C159.84 73.5114 159.793 73.6238 159.71 73.7067C159.627 73.7896 159.514 73.8362 159.396 73.8362Z" fill="#FF725E"/>
<path d="M173.52 73.8364H171.517C171.399 73.8364 171.287 73.7898 171.203 73.7069C171.12 73.624 171.073 73.5116 171.073 73.3944C171.073 73.2771 171.12 73.1647 171.203 73.0818C171.287 72.9989 171.399 72.9524 171.517 72.9524H173.116L173.244 71.4673C173.255 71.3507 173.311 71.2429 173.401 71.1675C173.491 71.0921 173.607 71.0552 173.724 71.065C173.841 71.0752 173.949 71.1311 174.025 71.2206C174.101 71.3101 174.138 71.4258 174.128 71.5424L173.964 73.4341C173.954 73.5443 173.903 73.6468 173.82 73.7213C173.738 73.7957 173.631 73.8368 173.52 73.8364Z" fill="#FF725E"/>
<path d="M166.327 71.0695C170.341 71.0695 173.595 68.4652 173.595 65.2528C173.595 62.0403 170.341 59.436 166.327 59.436C162.313 59.436 159.059 62.0403 159.059 65.2528C159.059 68.4652 162.313 71.0695 166.327 71.0695Z" fill="white"/>
<path d="M168.076 76.2586H162.326L162.828 70.5347H168.578L168.076 76.2586Z" fill="white"/>
<path d="M174.803 76.908C174.733 77.5677 174.424 78.1793 173.933 78.6284C173.443 79.0775 172.805 79.3333 172.139 79.3479H157.722C157.41 79.3496 157.101 79.2857 156.816 79.1606C156.53 79.0354 156.274 78.8518 156.065 78.6216C155.855 78.3913 155.697 78.1197 155.6 77.8245C155.503 77.5292 155.47 77.217 155.502 76.908C155.502 76.908 162.127 74.8218 162.944 74.8218H168.063L174.803 76.908Z" fill="white"/>
<path d="M181.418 66.1323H173.235V66.5743H181.418V66.1323Z" fill="#FF725E"/>
<path d="M178.87 59.1572H177.263V59.5992H178.87V59.1572Z" fill="#FF725E"/>
<path d="M162.451 107.879H160.701V108.321H162.451V107.879Z" fill="#FF725E"/>
<path d="M169.968 107.879H164.263V108.321H169.968V107.879Z" fill="#FF725E"/>
<path d="M180.411 100.334L179.305 112.931C179.248 113.488 178.988 114.004 178.574 114.383C178.16 114.762 177.621 114.977 177.059 114.987C176.794 114.991 176.532 114.94 176.289 114.836C176.046 114.732 175.828 114.577 175.649 114.383C175.471 114.188 175.336 113.958 175.254 113.708C175.171 113.458 175.143 113.193 175.172 112.931L176.268 100.334C176.37 99.3947 176.271 98.4443 175.976 97.5461C175.681 96.6479 175.197 95.8223 174.557 95.1243C173.917 94.4263 173.136 93.8717 172.264 93.4973C171.393 93.1229 170.451 92.9373 169.502 92.9528H164.991C162.973 92.9908 161.039 93.7625 159.554 95.1223C158.069 96.4821 157.134 98.336 156.928 100.334L156.484 105.479H152.354L152.798 100.334C153.353 93.996 158.988 88.8422 165.35 88.8422H169.879C171.357 88.818 172.823 89.1069 174.18 89.6897C175.537 90.2726 176.753 91.1361 177.749 92.2229C178.745 93.3098 179.498 94.5951 179.957 95.9936C180.416 97.392 180.57 98.8717 180.411 100.334Z" fill="#FF725E"/>
<g opacity="0.5">
<path opacity="0.5" d="M180.411 100.334L179.305 112.931C179.248 113.488 178.988 114.004 178.574 114.383C178.16 114.762 177.621 114.977 177.059 114.987C176.794 114.991 176.532 114.94 176.289 114.836C176.046 114.732 175.828 114.577 175.649 114.383C175.471 114.188 175.336 113.958 175.254 113.708C175.171 113.458 175.143 113.193 175.172 112.931L176.268 100.334C176.37 99.3947 176.271 98.4443 175.976 97.5461C175.681 96.6479 175.197 95.8223 174.557 95.1243C173.917 94.4263 173.136 93.8717 172.264 93.4973C171.393 93.1229 170.451 92.9373 169.502 92.9528H164.991C162.973 92.9908 161.039 93.7625 159.554 95.1223C158.069 96.4821 157.134 98.336 156.928 100.334L156.484 105.479H152.354L152.798 100.334C153.353 93.996 158.988 88.8422 165.35 88.8422H169.879C171.357 88.818 172.823 89.1069 174.18 89.6897C175.537 90.2726 176.753 91.1361 177.749 92.2229C178.745 93.3098 179.498 94.5951 179.957 95.9936C180.416 97.392 180.57 98.8717 180.411 100.334Z" fill="white"/>
</g>
<path d="M180.708 112.471L178.555 137.02C178.477 137.781 178.121 138.487 177.554 139.005C176.988 139.522 176.251 139.815 175.482 139.827H150.823C150.461 139.833 150.103 139.763 149.771 139.621C149.439 139.479 149.142 139.268 148.898 139.003C148.654 138.737 148.47 138.423 148.358 138.081C148.246 137.739 148.208 137.378 148.247 137.02L150.405 112.471C150.455 111.982 150.62 111.511 150.887 111.097C151.154 110.683 151.515 110.338 151.941 110.089C152.404 109.807 152.935 109.654 153.478 109.647H178.133C178.637 109.644 179.131 109.784 179.558 110.049C179.957 110.307 180.276 110.67 180.479 111.098C180.682 111.525 180.762 112.001 180.708 112.471Z" fill="#FF725E"/>
<path d="M155.067 123.194L161.474 133.011L182.604 111.976C182.637 111.937 182.654 111.888 182.654 111.837C182.653 111.787 182.634 111.738 182.6 111.7C182.566 111.662 182.52 111.637 182.469 111.63C182.419 111.624 182.367 111.635 182.325 111.663L162.189 127.376L158.384 121.272L155.067 123.194Z" fill="white"/>
<path d="M54.1685 75.7186H38.1046C37.3613 75.7052 36.6487 75.4212 36.1014 74.9204C35.5541 74.4195 35.2101 73.7365 35.1342 73.0003L33.7445 57.0176C33.7059 56.6715 33.7419 56.3212 33.8501 55.99C33.9583 55.6589 34.1363 55.3545 34.372 55.0973C34.6077 54.84 34.8959 54.6358 35.2172 54.4982C35.5385 54.3605 35.8856 54.2927 36.2353 54.2993H52.2815C53.022 54.316 53.7308 54.6015 54.2745 55.1022C54.8183 55.6028 55.1596 56.284 55.2341 57.0176L56.6371 72.9914C56.6768 73.3363 56.6424 73.6857 56.5361 74.0163C56.4298 74.347 56.2541 74.6514 56.0206 74.9092C55.7872 75.1671 55.5013 75.3727 55.182 75.5122C54.8627 75.6517 54.5172 75.7221 54.1685 75.7186Z" fill="#FF725E"/>
<path opacity="0.8" d="M54.1685 75.7186H38.1046C37.3613 75.7052 36.6487 75.4212 36.1014 74.9204C35.5541 74.4195 35.2101 73.7365 35.1342 73.0003L33.7445 57.0176C33.7059 56.6715 33.7419 56.3212 33.8501 55.99C33.9583 55.6589 34.1363 55.3545 34.372 55.0973C34.6077 54.84 34.8959 54.6358 35.2172 54.4982C35.5385 54.3605 35.8856 54.2927 36.2353 54.2993H52.2815C53.022 54.316 53.7308 54.6015 54.2745 55.1022C54.8183 55.6028 55.1596 56.284 55.2341 57.0176L56.6371 72.9914C56.6768 73.3363 56.6424 73.6857 56.5361 74.0163C56.4298 74.347 56.2541 74.6514 56.0206 74.9092C55.7872 75.1671 55.5013 75.3727 55.182 75.5122C54.8627 75.6517 54.5172 75.7221 54.1685 75.7186Z" fill="white"/>
<path d="M35.1426 66.6225C35.1426 66.6225 40.848 58.7151 45.0482 58.9184C49.2485 59.1217 56.2281 66.4324 56.2281 66.4324C56.2281 66.4324 45.9407 71.8115 35.1426 66.6225Z" fill="white"/>
<path d="M35.3245 66.7417L34.9648 66.4854C35.1957 66.1627 40.6347 58.6841 44.8882 58.6841H45.0614C49.306 58.8874 56.0992 65.9682 56.3878 66.2688L56.0682 66.5738C55.9971 66.5031 49.1062 59.3206 45.0392 59.1261H44.8882C40.8478 59.1349 35.3778 66.6754 35.3245 66.7417Z" fill="#263238"/>
<path d="M34.5523 66.9009C33.691 66.9009 32.5721 66.5827 32.1769 65.3716C32.1587 65.3159 32.1634 65.2553 32.1901 65.2031C32.2167 65.1509 32.2631 65.1113 32.319 65.0931C32.3467 65.0835 32.376 65.0796 32.4052 65.0815C32.4345 65.0835 32.463 65.0913 32.4891 65.1045C32.5152 65.1177 32.5384 65.1361 32.5572 65.1584C32.5761 65.1808 32.5902 65.2067 32.5987 65.2346C33.1093 66.7992 35.0185 66.4235 35.0984 66.4059C35.156 66.3953 35.2155 66.4074 35.2643 66.4395C35.3132 66.4716 35.3476 66.5214 35.3604 66.5782C35.3662 66.6067 35.3664 66.636 35.3608 66.6645C35.3553 66.693 35.3442 66.7201 35.3281 66.7443C35.312 66.7686 35.2913 66.7894 35.2671 66.8056C35.243 66.8219 35.2158 66.8332 35.1872 66.839C34.9781 66.8802 34.7655 66.9009 34.5523 66.9009Z" fill="#263238"/>
<path d="M37.94 63.5065C37.8904 63.5074 37.842 63.4919 37.8023 63.4623C37.7357 63.4092 36.1595 62.1981 35.7599 60.965C35.7417 60.9093 35.7465 60.8487 35.7731 60.7965C35.7997 60.7443 35.8461 60.7047 35.902 60.6865C35.958 60.6696 36.0183 60.6748 36.0705 60.7012C36.1226 60.7276 36.1625 60.773 36.1817 60.828C36.5414 61.9285 38.0554 63.0998 38.0732 63.1087C38.1196 63.1445 38.1499 63.1972 38.1573 63.2551C38.1648 63.3131 38.1489 63.3717 38.1131 63.4181C38.0929 63.4449 38.0668 63.4668 38.0368 63.4822C38.0068 63.4975 37.9737 63.5058 37.94 63.5065Z" fill="#263238"/>
<path d="M41.1987 60.4961C41.1405 60.4928 41.0858 60.4677 41.0455 60.4259C41.0051 60.3841 40.9821 60.3286 40.9811 60.2707C40.7218 59.308 40.4 58.363 40.0176 57.4419C39.9066 57.1502 39.8267 56.938 39.8089 56.885C39.8001 56.8568 39.797 56.8272 39.7998 56.7978C39.8027 56.7685 39.8114 56.74 39.8255 56.7141C39.8395 56.6881 39.8587 56.6652 39.8818 56.6467C39.9048 56.6283 39.9314 56.6146 39.9599 56.6065C39.9879 56.5984 40.0172 56.5958 40.0462 56.599C40.0752 56.6021 40.1032 56.6109 40.1288 56.6249C40.1544 56.6388 40.1769 56.6577 40.1952 56.6803C40.2134 56.7029 40.227 56.7289 40.2352 56.7568C40.2352 56.8098 40.3284 57.0043 40.4305 57.2828C41.0521 58.9049 41.434 59.9701 41.4251 60.2795C41.4251 60.3087 41.4192 60.3376 41.4077 60.3645C41.3963 60.3914 41.3794 60.4157 41.3583 60.4359C41.3371 60.4561 41.3121 60.4719 41.2846 60.4822C41.2572 60.4926 41.228 60.4973 41.1987 60.4961Z" fill="#263238"/>
<path d="M45.0483 59.1393C44.993 59.1376 44.9401 59.1161 44.8994 59.0787C44.8586 59.0414 44.8327 58.9907 44.8263 58.936L44.5155 55.4C44.5102 55.3414 44.5286 55.2831 44.5664 55.2379C44.6043 55.1927 44.6587 55.1644 44.7176 55.1591C44.7764 55.1538 44.835 55.172 44.8804 55.2098C44.9258 55.2475 44.9542 55.3016 44.9595 55.3602L45.2703 58.9227C45.2742 58.9804 45.2555 59.0374 45.2184 59.0818C45.1812 59.1262 45.1282 59.1547 45.0705 59.1614L45.0483 59.1393Z" fill="#263238"/>
<path d="M56.8943 66.6577C56.677 66.6588 56.4601 66.641 56.246 66.6047C56.2174 66.5989 56.1903 66.5875 56.1661 66.5713C56.142 66.5551 56.1212 66.5342 56.1052 66.51C56.0891 66.4858 56.078 66.4587 56.0724 66.4302C56.0669 66.4017 56.067 66.3724 56.0729 66.3439C56.0776 66.3154 56.0881 66.2881 56.1038 66.2637C56.1195 66.2394 56.1401 66.2185 56.1642 66.2024C56.1883 66.1862 56.2155 66.1751 56.2441 66.1698C56.2727 66.1645 56.302 66.1651 56.3304 66.1715C56.3304 66.1715 57.4182 66.3793 58.0842 65.9107C58.2267 65.8075 58.3455 65.6753 58.4327 65.5229C58.52 65.3705 58.5737 65.2014 58.5903 65.0267C58.5947 64.9977 58.6048 64.9698 58.62 64.9447C58.6352 64.9196 58.6552 64.8976 58.6789 64.8802C58.7026 64.8627 58.7295 64.8501 58.7582 64.843C58.7868 64.8359 58.8165 64.8345 58.8456 64.8389C58.8748 64.8433 58.9028 64.8533 58.9281 64.8684C58.9533 64.8835 58.9753 64.9035 58.9929 64.9271C59.0104 64.9507 59.0231 64.9775 59.0302 65.006C59.0373 65.0344 59.0387 65.064 59.0343 65.093C59.0075 65.3256 58.932 65.55 58.8127 65.7518C58.6934 65.9535 58.533 66.1281 58.3417 66.2643C57.9103 66.5381 57.4056 66.6753 56.8943 66.6577Z" fill="#263238"/>
<path d="M52.9077 63.2722C52.8764 63.2724 52.8455 63.2658 52.8171 63.2528C52.7888 63.2398 52.7636 63.2208 52.7434 63.197C52.7226 63.1765 52.7061 63.152 52.6948 63.1251C52.6835 63.0982 52.6777 63.0693 52.6777 63.0401C52.6777 63.0109 52.6835 62.9821 52.6948 62.9551C52.7061 62.9282 52.7226 62.9038 52.7434 62.8832C52.7434 62.8832 54.0754 61.7163 54.2175 60.629C54.2273 60.5715 54.2592 60.52 54.3064 60.4854C54.3536 60.4507 54.4124 60.4357 54.4706 60.4434C54.4994 60.4477 54.5272 60.4576 54.5522 60.4726C54.5772 60.4877 54.599 60.5074 54.6163 60.5308C54.6336 60.5542 54.6461 60.5808 54.6531 60.609C54.6601 60.6373 54.6615 60.6666 54.657 60.6953C54.4706 61.9418 53.0942 63.1617 53.0364 63.2147C53.0017 63.2485 52.9561 63.2688 52.9077 63.2722Z" fill="#263238"/>
<path d="M49.1554 60.7039H49.1154C49.0576 60.6931 49.0062 60.6603 48.9722 60.6124C48.9382 60.5646 48.9243 60.5054 48.9334 60.4475C48.9334 60.421 49.4218 57.5789 49.5106 56.9955C49.515 56.9665 49.525 56.9386 49.5402 56.9135C49.5554 56.8883 49.5754 56.8664 49.5991 56.8489C49.6229 56.8315 49.6498 56.8189 49.6784 56.8118C49.707 56.8047 49.7367 56.8033 49.7659 56.8076C49.795 56.812 49.823 56.822 49.8483 56.8372C49.8736 56.8523 49.8956 56.8722 49.9131 56.8958C49.9306 56.9194 49.9433 56.9462 49.9504 56.9747C49.9575 57.0032 49.959 57.0328 49.9546 57.0618C49.8658 57.6497 49.3818 60.4961 49.3774 60.5227C49.3679 60.5741 49.3404 60.6206 49.2998 60.6538C49.2591 60.687 49.2079 60.7047 49.1554 60.7039Z" fill="#263238"/>
<path d="M45.4878 69.1594C48.1459 69.1594 50.3007 66.8164 50.3007 63.9262C50.3007 61.0359 48.1459 58.6929 45.4878 58.6929C42.8296 58.6929 40.6748 61.0359 40.6748 63.9262C40.6748 66.8164 42.8296 69.1594 45.4878 69.1594Z" fill="#FF725E"/>
<path opacity="0.3" d="M47.5704 63.9261C47.5771 63.8142 47.5771 63.702 47.5704 63.5901C47.5108 63.0139 47.2412 62.4793 46.8125 62.0876C46.3838 61.6958 45.8257 61.474 45.2439 61.4641C44.9704 61.4594 44.6991 61.5126 44.4479 61.6204C44.1967 61.7281 43.9714 61.8878 43.787 62.0889C43.6027 62.2901 43.4634 62.5279 43.3785 62.7868C43.2936 63.0456 43.2651 63.3195 43.2947 63.5901C43.3021 63.7042 43.3229 63.8169 43.3569 63.9261H40.462C40.3912 63.2887 40.4577 62.6437 40.6571 62.0339C40.8564 61.4241 41.1839 60.8637 41.6179 60.3898C42.0519 59.916 42.5823 59.5396 43.1739 59.2859C43.7654 59.0321 44.4045 58.9068 45.0485 58.9182C46.4179 58.9434 47.7308 59.4666 48.7393 60.3891C49.7478 61.3117 50.3823 62.5698 50.523 63.9261H47.5704Z" fill="black"/>
<path opacity="0.7" d="M47.5659 63.5902C47.5726 63.7021 47.5726 63.8142 47.5659 63.9261C47.534 64.4181 47.3126 64.8789 46.9478 65.2124C46.583 65.5459 46.1031 65.7263 45.6079 65.7162C45.086 65.7065 44.5818 65.5259 44.1733 65.2023C43.7648 64.8788 43.4747 64.4302 43.3479 63.9261C43.314 63.817 43.2931 63.7042 43.2858 63.5902C43.2561 63.3195 43.2847 63.0456 43.3696 62.7868C43.4544 62.528 43.5937 62.2901 43.7781 62.089C43.9625 61.8879 44.1877 61.7282 44.4389 61.6204C44.6901 61.5127 44.9615 61.4594 45.2349 61.4642C45.8176 61.473 46.3767 61.6943 46.8063 62.0862C47.2359 62.478 47.5062 63.0132 47.5659 63.5902Z" fill="black"/>
<path opacity="0.7" d="M48.725 61.504C48.7489 61.7246 48.7255 61.9478 48.6562 62.1587C48.5868 62.3696 48.4732 62.5634 48.3229 62.7273C48.1726 62.8912 47.989 63.0213 47.7842 63.1091C47.5795 63.1969 47.3583 63.2404 47.1355 63.2366C46.6621 63.2272 46.2086 63.0459 45.8602 62.7268C45.5118 62.4077 45.2927 61.9728 45.244 61.504C45.2193 61.2832 45.2422 61.0597 45.3113 60.8485C45.3803 60.6372 45.4939 60.4431 45.6444 60.2791C45.7949 60.1151 45.9788 59.9849 46.1839 59.8973C46.3889 59.8098 46.6104 59.7668 46.8335 59.7713C47.3071 59.7797 47.7612 59.9607 48.1098 60.28C48.4584 60.5993 48.6772 61.0348 48.725 61.504Z" fill="white"/>
<path d="M41.8519 52.3237H40.1025V52.7657H41.8519V52.3237Z" fill="#FF725E"/>
<path d="M49.3685 52.3237H43.6631V52.7657H49.3685V52.3237Z" fill="#FF725E"/>
<path d="M122.544 84.7095L122.695 84.8907L122.899 85.125C123.046 85.2797 123.188 85.4432 123.343 85.5935C123.65 85.9118 123.983 86.2212 124.32 86.535C124.994 87.154 125.701 87.7368 126.438 88.2809C127.188 88.8378 127.979 89.3461 128.769 89.85C129.213 90.0887 129.577 90.3406 129.994 90.5704L130.958 91.1008C131.098 91.1623 131.255 91.1717 131.402 91.1274C131.713 91.0345 133.497 89.2754 134.066 88.6212C135.327 87.1847 137.236 85.293 138.266 83.6841L139.416 85.262C138.689 87.2332 137.724 89.1092 136.543 90.8489C135.908 91.7894 135.146 92.6386 134.279 93.3727C133.758 93.8093 133.171 94.16 132.538 94.4114C131.737 94.7298 130.857 94.7961 130.016 94.6015C129.799 94.5488 129.587 94.4778 129.382 94.3893L128.982 94.2169L128.263 93.8899C127.779 93.6777 127.313 93.4213 126.842 93.1871C125.901 92.6872 124.988 92.1369 124.107 91.5384C123.219 90.9304 122.366 90.2722 121.554 89.5671C121.132 89.2002 120.755 88.829 120.368 88.4267C120.177 88.2278 119.982 88.0201 119.796 87.8035L119.52 87.4676C119.418 87.3438 119.343 87.251 119.205 87.061L122.544 84.7095Z" fill="#FFB573"/>
<path d="M138.084 83.9271L140.144 79.5425L142.111 83.052C142.111 83.052 140.819 85.2619 139.416 85.2619L138.084 83.9271Z" fill="#FFB573"/>
<path d="M142.48 77.7217L144.558 80.3825L142.129 83.0478L140.162 79.5427L142.48 77.7217Z" fill="#FFB573"/>
<path d="M141.756 84.2587H145.028C145.121 84.2581 145.209 84.2233 145.277 84.1613C145.346 84.0992 145.388 84.0143 145.397 83.9228L146.076 76.1127C146.081 76.0616 146.075 76.0101 146.059 75.9614C146.043 75.9127 146.016 75.868 145.982 75.8301C145.947 75.7922 145.905 75.762 145.857 75.7413C145.81 75.7207 145.759 75.7102 145.708 75.7105H142.44C142.347 75.7112 142.258 75.7466 142.189 75.8095C142.121 75.8725 142.079 75.9585 142.071 76.0508L141.383 83.8565C141.379 83.9078 141.385 83.9594 141.402 84.0081C141.419 84.0568 141.446 84.1015 141.481 84.1393C141.516 84.1771 141.558 84.2073 141.606 84.2278C141.653 84.2484 141.704 84.2589 141.756 84.2587Z" fill="#FF725E"/>
<path opacity="0.3" d="M141.792 83.4762H145.069L145.681 76.4971H142.405L141.792 83.4762Z" fill="white"/>
<path d="M141.579 82.4863L142.16 82.1902C142.456 82.0404 142.73 81.8499 142.973 81.6244L143.079 81.2399C143.017 81.1375 142.924 81.0577 142.813 81.0123C142.702 80.967 142.579 80.9584 142.462 80.988L141.978 81.1206L139.576 81.3018L139.519 82.3095L140.22 83.388H140.46C140.724 83.3973 140.983 83.3112 141.189 83.1455C141.394 82.9798 141.533 82.7457 141.579 82.4863Z" fill="#FFB573"/>
<path d="M118.353 80.4441C120.018 80.1435 131.761 90.2786 131.761 90.2786L128.28 95.3615C128.28 95.3615 115.44 86.4597 115.848 84.3116C116.244 82.0529 115.928 80.8861 118.353 80.4441Z" fill="#263238"/>
<path opacity="0.2" d="M119.836 83.6841L119.707 88.9881C121.039 90.0179 125.852 93.691 125.852 93.691L119.836 83.6841Z" fill="black"/>
<path d="M110.525 185.777L114.464 186.162L115.716 177.07L111.773 176.685L110.525 185.777Z" fill="#FFB573"/>
<path d="M71.751 132.428L70.7432 136.247L79.2635 139.902L81.0306 136.026L71.751 132.428Z" fill="#FFB573"/>
<path d="M117.283 186.966C117.622 187.008 117.965 186.933 118.255 186.754C118.318 186.7 118.367 186.631 118.398 186.555C118.429 186.478 118.441 186.395 118.433 186.312C118.433 186.261 118.419 186.21 118.392 186.166C118.366 186.121 118.328 186.085 118.282 186.06C117.807 185.777 116.2 186.538 116.018 186.622C116 186.63 115.986 186.643 115.976 186.66C115.967 186.676 115.962 186.695 115.964 186.714C115.967 186.734 115.975 186.752 115.989 186.767C116.003 186.781 116.02 186.79 116.04 186.794C116.448 186.889 116.864 186.947 117.283 186.966ZM117.998 186.175C118.06 186.171 118.122 186.184 118.175 186.215C118.194 186.225 118.21 186.239 118.221 186.257C118.232 186.275 118.238 186.296 118.238 186.317C118.242 186.372 118.234 186.428 118.213 186.479C118.192 186.53 118.16 186.576 118.118 186.613C117.873 186.821 117.23 186.838 116.342 186.67C116.865 186.41 117.43 186.241 118.011 186.171L117.998 186.175Z" fill="#FF725E"/>
<path d="M116.058 186.776H116.094C116.573 186.577 117.536 185.755 117.474 185.304C117.457 185.226 117.413 185.156 117.35 185.106C117.287 185.056 117.209 185.03 117.128 185.03C117.036 185.013 116.94 185.016 116.849 185.039C116.758 185.062 116.673 185.104 116.6 185.163C116.089 185.556 115.969 186.622 115.96 186.661C115.956 186.678 115.956 186.694 115.96 186.711C115.964 186.727 115.971 186.742 115.983 186.754C115.993 186.763 116.005 186.769 116.018 186.773C116.031 186.777 116.045 186.778 116.058 186.776ZM117.039 185.198H117.093C117.266 185.225 117.275 185.291 117.275 185.313C117.315 185.583 116.657 186.237 116.165 186.498C116.212 186.05 116.402 185.629 116.706 185.296C116.805 185.225 116.928 185.195 117.048 185.212L117.039 185.198Z" fill="#FF725E"/>
<path d="M114.268 184.579L110.717 184.73C110.64 184.73 110.566 184.759 110.51 184.811C110.453 184.862 110.418 184.932 110.41 185.008L109.558 189.945C109.553 190.029 109.565 190.113 109.593 190.193C109.621 190.272 109.665 190.345 109.721 190.407C109.778 190.47 109.846 190.521 109.922 190.557C109.999 190.593 110.082 190.613 110.166 190.617H110.237C111.787 190.538 112.532 190.423 114.495 190.356C115.698 190.317 119.379 190.75 121.022 190.378C122.665 190.007 122.354 188.385 121.648 188.398C119.366 188.442 116.733 186.962 115.432 185.229C115.205 185.083 114.517 184.566 114.268 184.579Z" fill="#263238"/>
<path d="M72.5544 136.746L74.3659 133.683C74.407 133.618 74.422 133.54 74.408 133.465C74.394 133.39 74.3521 133.322 74.2905 133.276L70.5964 129.886C70.4591 129.79 70.2894 129.751 70.1235 129.777C69.9575 129.804 69.8086 129.893 69.7084 130.028L69.6684 130.09C68.8959 131.416 68.5895 132.114 67.5816 133.789C66.96 134.819 64.5891 137.679 64.0296 139.239C63.4702 140.799 64.9887 141.449 65.3616 140.839C66.5649 138.903 69.2422 137.506 71.4178 137.338C71.6265 137.259 72.4301 136.963 72.5544 136.746Z" fill="#263238"/>
<path opacity="0.2" d="M115.715 177.07L115.072 181.76L111.129 181.375L111.768 176.69L115.715 177.07Z" fill="black"/>
<path opacity="0.2" d="M83.65 136.972L81.8296 141.06L76.3418 138.647L77.7404 134.753L83.65 136.972Z" fill="black"/>
<path d="M120.87 85.1074C123.121 88.9174 120.369 92.1308 118.069 103.517L103.23 103.556C103.47 97.4215 103.443 92.4623 100.815 80.3912C100.746 80.0938 100.747 79.7849 100.815 79.4875C100.884 79.1902 101.019 78.9121 101.211 78.674C101.402 78.436 101.646 78.2442 101.922 78.1129C102.199 77.9817 102.502 77.9144 102.808 77.916C104.034 77.916 105.574 77.9558 107.142 78.1149C109.614 78.3162 112.069 78.6869 114.49 79.2244C115.803 79.5396 117.093 79.9412 118.353 80.4266C119.116 80.683 120.036 82.7515 120.87 85.1074Z" fill="#263238"/>
<path d="M118.619 104.286C118.619 104.286 126.953 128.273 126.753 139.809C126.638 146.417 126.136 158.731 124.134 167.39C122.5 174.462 115.84 178.971 115.84 178.971L110.512 178.657C110.512 178.657 107.626 167.872 108.128 163.58C109.127 155.036 112.088 148.618 111.729 140.773C111.16 127.928 107.342 104.087 107.342 104.087L118.619 104.286Z" fill="#FF725E"/>
<path d="M109.442 180.04L116.968 180.482L117.652 178.232L109.242 177.459L109.442 180.04Z" fill="#263238"/>
<path opacity="0.2" d="M110.393 152.746C110.393 152.746 110.393 152.702 110.437 152.707C115.166 153.149 118.429 146.373 117.652 137.095L115.143 113.448L110.393 152.746Z" fill="black"/>
<path d="M114.881 104.087C114.881 104.087 121.505 146.267 107.732 151.014C100.464 153.755 94.3503 150.784 87.1087 147.593C82.9217 145.75 77.6914 140.76 77.6914 140.76L79.7027 135.31C83.3201 134.336 87.1053 134.146 90.8027 134.753C97.8623 135.84 98.1598 137.847 100.668 136.331C105.943 123.354 96.8678 113.095 103.035 104.065L114.881 104.087Z" fill="#FF725E"/>
<path d="M80.0979 134.275L77.4072 141.343L79.3875 142.85L82.5843 134.439L80.0979 134.275Z" fill="#263238"/>
<path d="M78.9876 96.1615C78.3171 97.1472 74.9161 96.4798 74.9161 96.4798L74.1924 92.2852L78.3704 93.9515L78.9876 96.1615Z" fill="#FFB573"/>
<path d="M75.0367 92.0688L75.685 96.427L73.1764 96.7982C73.0404 96.8106 72.9047 96.7722 72.7956 96.6905C72.6865 96.6088 72.6117 96.4897 72.5859 96.3562L71.6224 93.2622C71.606 93.1903 71.6181 93.1148 71.6561 93.0514C71.6941 92.988 71.7552 92.9417 71.8266 92.9219L75.0367 92.0688Z" fill="#FFB573"/>
<path d="M73.9134 94.0448L75.3431 94.2967L76.6973 93.2845L76.1734 92.9132C75.8183 92.6616 75.5686 92.2887 75.4718 91.8657C75.3711 91.4226 75.3102 90.9714 75.2898 90.5176V90.3673C75.2727 90.234 75.2123 90.11 75.1176 90.0142C75.023 89.9184 74.8995 89.8561 74.7659 89.8369L74.4107 90.0977C74.1887 90.5795 74.3485 91.1408 74.3219 91.5165L74.2642 92.2458L73.6914 92.4933L73.9134 94.0448Z" fill="#FFB573"/>
<path d="M101.53 79.5601L93.1292 91.0521L77.7002 94.0842V96.6036C77.7002 96.6036 92.2012 97.6732 95.4602 95.7859C98.7192 93.8985 104.185 82.4507 104.185 82.4507L101.53 79.5601Z" fill="#FFB573"/>
<path d="M101.432 57.4602C97.9069 56.2845 93.8177 58.4636 92.206 61.7962C90.5943 65.1289 91.1581 69.2174 92.9741 72.444C93.5202 73.4208 94.1729 74.3402 94.6213 75.3612C95.1197 76.3734 95.2287 77.5321 94.9277 78.6188C94.5636 79.6751 94.1907 80.3514 92.8764 80.1834C92.8764 80.1834 92.8764 79.4586 93.3781 79.547C93.3781 79.547 92.3125 80.1348 91.8952 79.7503C92.3791 80.4928 93.6712 80.2232 94.0841 79.4365C94.7013 78.2652 93.5646 76.6784 92.2326 76.6916C90.9006 76.7049 89.8173 78.0486 89.8617 79.3702C89.9172 80.0312 90.1535 80.6644 90.5448 81.2012C90.9361 81.7381 91.4676 82.158 92.0817 82.4156C91.7218 82.4746 91.3524 82.4134 91.0311 82.2415C90.7098 82.0696 90.4548 81.7966 90.3057 81.4652C90.9095 83.0388 92.8809 83.7327 94.5459 83.4233C96.2109 83.1139 97.6183 82.0531 98.9237 80.979C100.7 79.5293 102.516 77.695 102.476 75.4275C102.436 73.7347 101.343 72.2805 100.424 70.8528C99.5053 69.4252 98.7017 67.6837 99.2878 66.0969C99.7806 64.7488 101.122 63.9355 102.303 63.1134C103.155 62.5255 104.887 61.2128 104.682 59.9708C104.474 58.7862 102.431 57.7917 101.432 57.4602Z" fill="#263238"/>
<path d="M93.4887 96.7984L91.1621 90.6679L91.6949 90.7121C92.126 90.7481 92.5583 90.6597 92.9402 90.4574C93.3221 90.2552 93.6374 89.9477 93.8483 89.5717C95.6243 86.4247 100.211 78.4378 101.503 78.04C103.345 77.4963 105.241 78.9637 105.943 81.134C106.471 82.7296 101.059 89.5717 98.5636 93.4613C96.348 96.9045 93.4887 96.7984 93.4887 96.7984Z" fill="#263238"/>
<path d="M70.7962 138.762V138.81C70.8289 138.895 70.8827 138.971 70.9526 139.03C71.0224 139.088 71.1061 139.129 71.1958 139.146C71.2496 139.163 71.3069 139.166 71.3621 139.154C71.4174 139.143 71.4686 139.117 71.511 139.08C71.884 138.74 71.6442 137.312 71.622 137.171C71.6196 137.152 71.6114 137.135 71.5987 137.122C71.5859 137.108 71.5693 137.099 71.551 137.096C71.5337 137.093 71.5162 137.096 71.5 137.102C71.4837 137.108 71.4692 137.118 71.4578 137.131C71.1558 137.555 70.6763 138.311 70.7962 138.762ZM71.48 137.436C71.5599 138.002 71.5954 138.762 71.3867 138.947C71.365 138.959 71.3405 138.966 71.3157 138.966C71.2908 138.966 71.2664 138.959 71.2446 138.947C71.185 138.936 71.1291 138.91 71.0825 138.872C71.0359 138.833 71 138.783 70.9782 138.726C70.8983 138.488 71.067 138.002 71.48 137.427V137.436Z" fill="#FF725E"/>
<path d="M71.4847 137.356C71.6001 137.833 72.053 138.647 72.4526 138.744C72.5254 138.758 72.6011 138.748 72.6672 138.714C72.7333 138.681 72.786 138.626 72.8167 138.558C72.8515 138.495 72.8719 138.425 72.8765 138.353C72.8811 138.282 72.8698 138.21 72.8433 138.143C72.6613 137.595 71.6135 137.144 71.5691 137.122C71.5547 137.114 71.5387 137.11 71.5224 137.11C71.5062 137.11 71.4901 137.114 71.4758 137.122C71.4628 137.132 71.4527 137.146 71.4464 137.161C71.4402 137.177 71.4381 137.194 71.4403 137.21C71.4512 137.26 71.4661 137.309 71.4847 137.356ZM72.6924 138.24C72.7014 138.279 72.7026 138.319 72.6957 138.359C72.6888 138.398 72.6741 138.436 72.6524 138.47C72.5947 138.576 72.537 138.576 72.4926 138.567C72.2217 138.514 71.8088 137.847 71.6756 137.382C72.0175 137.555 72.5636 137.877 72.6791 138.213C72.676 138.222 72.676 138.231 72.6791 138.24H72.6924Z" fill="#FF725E"/>
<path d="M103.177 102.809L102.764 104.246C102.711 104.356 102.84 104.471 103.026 104.467H118.344C118.491 104.467 118.61 104.392 118.619 104.303L118.761 102.867C118.761 102.769 118.646 102.681 118.486 102.685H103.435C103.384 102.682 103.334 102.691 103.289 102.713C103.244 102.734 103.205 102.768 103.177 102.809Z" fill="#FF725E"/>
<path opacity="0.5" d="M103.177 102.809L102.764 104.246C102.711 104.356 102.84 104.471 103.026 104.467H118.344C118.491 104.467 118.61 104.392 118.619 104.303L118.761 102.867C118.761 102.769 118.646 102.681 118.486 102.685H103.435C103.384 102.682 103.334 102.691 103.289 102.713C103.244 102.734 103.205 102.768 103.177 102.809Z" fill="white"/>
<path d="M106.117 104.599H105.673C105.588 104.599 105.517 104.555 105.526 104.502L105.726 102.632C105.726 102.579 105.81 102.535 105.899 102.535H106.343C106.427 102.535 106.494 102.579 106.49 102.637L106.29 104.502C106.263 104.555 106.183 104.604 106.117 104.599Z" fill="#FF725E"/>
<path d="M117.159 104.599H116.715C116.635 104.599 116.564 104.555 116.573 104.502L116.773 102.637C116.773 102.579 116.853 102.535 116.937 102.535H117.381C117.465 102.535 117.537 102.579 117.528 102.632L117.328 104.498C117.319 104.555 117.248 104.599 117.159 104.599Z" fill="#FF725E"/>
<path d="M112.092 104.59H111.648C111.564 104.59 111.493 104.546 111.502 104.493L111.702 102.628C111.702 102.571 111.786 102.526 111.87 102.526H112.314C112.399 102.526 112.465 102.571 112.461 102.624L112.257 104.489C112.257 104.546 112.181 104.59 112.092 104.59Z" fill="#FF725E"/>
<path d="M107.834 70.0703C108.305 72.4792 108.767 76.8285 107.124 78.1368C107.124 78.1368 107.781 80.6076 112.172 81.2662C117.021 81.991 114.477 79.2418 114.477 79.2418C111.835 78.2031 111.901 76.3025 112.354 74.5522L107.834 70.0703Z" fill="#FFB573"/>
<path d="M107.142 78.1148C109.485 78.2627 111.814 78.5848 114.108 79.0784L117.429 80.0641C118.02 81.2486 117.052 83.684 114.273 84.1481C114.273 84.1481 107.271 85.1073 105.206 77.9292L107.142 78.1148Z" fill="#FFB573"/>
<path opacity="0.2" d="M109.668 71.9048L112.332 74.5568C112.22 74.9674 112.147 75.3877 112.115 75.8121C111.102 75.5159 109.477 74.4065 109.366 73.3457C109.367 72.85 109.47 72.3597 109.668 71.9048Z" fill="black"/>
<path d="M104.869 67.0294C106.058 70.7687 106.476 72.3776 108.913 73.8495C112.545 76.0595 116.905 73.7964 116.861 69.7831C116.825 66.1675 114.894 60.6602 110.769 60.0591C109.863 59.9238 108.936 60.0217 108.078 60.3436C107.22 60.6655 106.46 61.2005 105.868 61.8979C105.277 62.5952 104.874 63.4316 104.699 64.3275C104.524 65.2234 104.583 66.149 104.869 67.0161V67.0294Z" fill="#FFB573"/>
<path d="M113.833 66.4463C114.253 67.1026 114.763 67.6976 115.347 68.2143C115.21 68.3617 115.043 68.4775 114.857 68.5539C114.67 68.6302 114.469 68.6652 114.268 68.6563L113.833 66.4463Z" fill="#ED893E"/>
<path d="M113.411 70.6539C113.561 70.6374 113.71 70.6078 113.855 70.5655C113.866 70.5629 113.877 70.5581 113.886 70.5513C113.896 70.5446 113.904 70.536 113.91 70.5262C113.916 70.5163 113.921 70.5054 113.923 70.4939C113.924 70.4824 113.924 70.4707 113.921 70.4594C113.915 70.4362 113.9 70.4163 113.879 70.4039C113.859 70.3916 113.834 70.3877 113.81 70.3931C113.431 70.4971 113.033 70.5113 112.648 70.4345C112.262 70.3578 111.9 70.1922 111.59 69.9511C111.572 69.933 111.547 69.9229 111.522 69.9229C111.496 69.9229 111.471 69.933 111.453 69.9511C111.444 69.9597 111.437 69.97 111.432 69.9814C111.427 69.9928 111.425 70.005 111.425 70.0174C111.425 70.0297 111.427 70.042 111.432 70.0533C111.437 70.0647 111.444 70.075 111.453 70.0837C111.726 70.3021 112.039 70.4649 112.375 70.5628C112.711 70.6606 113.063 70.6916 113.411 70.6539Z" fill="#263238"/>
<path d="M103.576 59.5642C103.087 59.8792 102.681 60.3066 102.392 60.8104C102.103 61.3141 101.94 61.8796 101.916 62.4593C101.896 62.6809 101.931 62.9041 102.018 63.109C102.062 63.2104 102.131 63.2985 102.22 63.3645C102.309 63.4304 102.414 63.4719 102.524 63.4847C102.861 63.4847 103.11 63.1841 103.297 62.9012L104.158 61.5753C104.513 61.1445 104.811 60.6707 105.046 60.1653C105.334 59.2945 104.105 59.2282 103.576 59.5642Z" fill="#FF725E"/>
<path d="M103.999 60.4436C101.641 63.1575 100.585 70.6671 107.493 72.7621C108.648 71.8516 106.783 70.1941 105.992 68.0991C105.473 66.7289 108.106 64.1697 109.131 63.1177C110.157 62.0658 111.103 60.5497 112.55 60.7928C112.918 60.9151 113.313 60.9258 113.687 60.8237C114.837 60.3066 114.277 59.6215 113.687 59.1441C112.781 58.4768 111.703 58.0812 110.579 58.0038C109.366 57.8616 108.137 58.0087 106.993 58.4329C105.849 58.8572 104.823 59.5464 103.999 60.4436Z" fill="#263238"/>
<path d="M111.666 59.5332C114.441 61.836 110.778 61.8935 108.838 63.3521C106.978 64.7532 108.283 67.0472 105.135 68.1124C102.564 68.8594 101.969 68.4085 101.259 67.9135C102.139 67.7618 102.944 67.3246 103.549 66.6698C104.154 66.015 104.524 65.1796 104.602 64.2935C104.82 62.6139 108.496 56.8635 111.666 59.5332Z" fill="#263238"/>
<path d="M104.452 70.1722C104.886 70.7957 105.55 71.2242 106.299 71.3656C107.293 71.538 107.675 70.6319 107.333 69.7479C107.009 68.9523 106.108 67.9048 105.144 68.1302C104.813 68.2155 104.529 68.4282 104.355 68.7215C104.181 69.0149 104.131 69.3649 104.216 69.6949C104.262 69.8682 104.342 70.0306 104.452 70.1722Z" fill="#FFB573"/>
<path d="M111.191 59.7677C111.728 61.129 113.278 60.9478 114.423 62.3711C115.129 63.2551 116.514 60.5279 114.627 59.4539C112.74 58.3798 110.347 57.6373 111.191 59.7677Z" fill="#263238"/>
<path d="M109.557 65.5133C109.596 65.5175 109.636 65.5091 109.671 65.4892C109.705 65.4693 109.732 65.439 109.748 65.4028C110.112 64.5983 111.204 64.395 111.213 64.395C111.262 64.3844 111.305 64.3555 111.333 64.3144C111.361 64.2733 111.372 64.2231 111.364 64.174C111.354 64.1261 111.326 64.0839 111.285 64.0566C111.245 64.0293 111.195 64.019 111.147 64.0282C111.089 64.0282 109.846 64.2889 109.402 65.2613C109.382 65.3066 109.38 65.3577 109.398 65.4039C109.415 65.4501 109.45 65.4877 109.495 65.5089H109.557V65.5133Z" fill="#263238"/>
<path d="M115.329 63.8871C115.362 63.8894 115.394 63.8828 115.423 63.868C115.452 63.8532 115.477 63.8307 115.494 63.8031C115.508 63.7832 115.518 63.7607 115.523 63.7369C115.528 63.7131 115.528 63.6885 115.524 63.6646C115.519 63.6406 115.51 63.6179 115.496 63.5976C115.483 63.5774 115.465 63.5601 115.445 63.5467C115.199 63.3771 114.916 63.2689 114.619 63.2312C114.322 63.1935 114.021 63.2275 113.74 63.3302C113.716 63.3392 113.695 63.353 113.677 63.3707C113.66 63.3883 113.646 63.4094 113.637 63.4327C113.627 63.4559 113.623 63.4808 113.624 63.5057C113.625 63.5307 113.631 63.5552 113.642 63.5777C113.662 63.6227 113.698 63.6582 113.744 63.6764C113.79 63.6947 113.841 63.6941 113.886 63.6749C114.107 63.5981 114.343 63.5749 114.575 63.6071C114.807 63.6394 115.027 63.7263 115.218 63.8605C115.253 63.8773 115.291 63.8863 115.329 63.8871Z" fill="#263238"/>
<path d="M133.582 88.082L130.98 89.5539L128.276 95.3441C128.276 95.3441 130.887 96.9972 132.947 95.6579C135.007 94.3187 133.582 88.082 133.582 88.082Z" fill="#FF725E"/>
<path opacity="0.5" d="M133.582 88.082L130.98 89.5539L128.276 95.3441C128.276 95.3441 130.887 96.9972 132.947 95.6579C135.007 94.3187 133.582 88.082 133.582 88.082Z" fill="white"/>
<path d="M88.0858 89.8721L91.1627 90.7561L94.0798 96.7629C94.0798 96.7629 91.7355 98.9242 89.1958 96.8601C87.2955 95.2954 88.0858 89.8721 88.0858 89.8721Z" fill="#FF725E"/>
<g opacity="0.5">
<path opacity="0.5" d="M88.0858 89.8721L91.1627 90.7561L94.0798 96.7629C94.0798 96.7629 91.7355 98.9242 89.1958 96.8601C87.2955 95.2954 88.0858 89.8721 88.0858 89.8721Z" fill="white"/>
</g>
<path d="M115.151 65.3852C115.365 65.3454 115.595 65.5841 115.644 65.9112C115.693 66.2383 115.573 66.5388 115.36 66.5742C115.147 66.6095 114.916 66.3753 114.867 66.0482C114.818 65.7211 114.938 65.4161 115.151 65.3852Z" fill="#263238"/>
<path d="M115.809 65.0625L115.059 65.4294C115.511 65.7476 115.809 65.0625 115.809 65.0625Z" fill="#263238"/>
<path d="M111.444 66.1454C111.657 66.1057 111.888 66.3443 111.937 66.6714C111.986 66.9985 111.866 67.2991 111.653 67.3344C111.44 67.3698 111.209 67.1355 111.16 66.8084C111.111 66.4814 111.222 66.1852 111.444 66.1454Z" fill="#263238"/>
<path d="M112.092 65.8228L111.342 66.1896C111.795 66.5078 112.092 65.8228 112.092 65.8228Z" fill="#263238"/>
<path d="M92.645 83.0564C92.227 83.0588 91.8124 82.9808 91.424 82.8266C90.0476 82.2652 89.4083 80.842 89.648 78.9149C89.6558 78.8569 89.6863 78.8043 89.7329 78.7687C89.7795 78.7331 89.8384 78.7173 89.8967 78.7248C89.9258 78.7281 89.9539 78.7371 89.9794 78.7514C90.0049 78.7658 90.0272 78.785 90.045 78.8082C90.0629 78.8313 90.0758 78.8577 90.0831 78.8859C90.0904 78.9141 90.092 78.9435 90.0876 78.9723C89.8567 80.6829 90.3984 81.9382 91.575 82.4155C92.2579 82.6482 92.9972 82.6598 93.6871 82.4486C94.377 82.2374 94.9821 81.8143 95.4156 81.2398C96.53 79.7635 96.166 77.6684 94.4299 75.4938C89.8834 69.8141 90.1853 66.7952 90.8291 64.4084C91.7615 60.9432 94.4921 56.974 102.218 57.7387C102.277 57.7445 102.331 57.7734 102.368 57.819C102.406 57.8646 102.423 57.9231 102.417 57.9818C102.412 58.0404 102.383 58.0943 102.337 58.1316C102.291 58.1689 102.232 58.1865 102.173 58.1807C94.7629 57.4469 92.1433 61.2305 91.2553 64.5278C90.616 66.9146 90.3673 69.7036 94.7762 75.2242C97.4402 78.5524 96.3613 80.7315 95.7708 81.5094C95.4013 81.9859 94.928 82.3727 94.3866 82.6407C93.8451 82.9086 93.2497 83.0508 92.645 83.0564Z" fill="#263238"/>
</svg>
