<svg width="181" height="248" viewBox="0 0 181 248" fill="none" xmlns="http://www.w3.org/2000/svg">
<mask id="mask0_2_574" style="mask-type:alpha" maskUnits="userSpaceOnUse" x="0" y="203" width="156" height="45">
<path d="M3.50997 247.406C-0.860273 247.406 -1.17035 244.653 2.81343 241.253L40.2245 209.518C44.2151 206.113 51.012 203.341 55.4069 203.329H88.313L95.6289 228.565C97.0602 233.465 100.152 236.273 103.473 236.273C103.743 236.273 104.012 236.255 104.284 236.218L108.104 235.691C109.292 235.538 110.497 235.021 111.652 234.111L150.8 203.329H152.262C152.269 203.329 152.276 203.329 152.285 203.329C156.651 203.329 156.967 206.079 152.986 209.478L115.573 241.213C111.582 244.619 104.781 247.394 100.39 247.403L3.53694 247.406C3.52795 247.406 3.51896 247.406 3.50997 247.406Z" fill="white"/>
</mask>
<g mask="url(#mask0_2_574)">
<path fill-rule="evenodd" clip-rule="evenodd" d="M3.50997 247.406C-0.860273 247.406 -1.17035 244.653 2.81343 241.253L40.2245 209.518C44.2151 206.113 51.012 203.341 55.4069 203.329H88.313L95.6289 228.565C97.0602 233.465 100.152 236.273 103.473 236.273C103.743 236.273 104.012 236.255 104.284 236.218L108.104 235.691C109.292 235.538 110.497 235.021 111.652 234.111L150.8 203.329H152.262C152.269 203.329 152.276 203.329 152.285 203.329C156.651 203.329 156.967 206.079 152.986 209.478L115.573 241.213C111.582 244.619 104.781 247.394 100.39 247.403L3.53694 247.406C3.52795 247.406 3.51896 247.406 3.50997 247.406Z" fill="url(#paint0_linear_2_574)"/>
</g>
<mask id="mask1_2_574" style="mask-type:alpha" maskUnits="userSpaceOnUse" x="45" y="2" width="64" height="235">
<path d="M103.473 236.273C100.152 236.273 97.0604 233.465 95.6292 228.565L46.3229 58.525C44.2648 51.4841 46.3791 42.8291 51.0392 39.1632L95.2022 4.43303C96.3527 3.52956 97.548 3.01198 98.7299 2.84966L102.586 2.31982C102.076 2.39026 101.563 2.52808 101.051 2.73328C100.817 2.74859 100.038 3.02116 98.8894 3.91851C97.5368 4.97512 95.5528 6.52787 93.0272 8.50326C87.9784 12.454 80.7636 18.0984 72.1062 24.873C67.7764 28.2602 63.0871 31.9292 58.1282 35.8096C56.8902 36.7957 55.6251 37.7237 54.3624 38.7956C53.1064 39.8982 52.0211 41.3958 51.1808 43.1354C49.5158 46.6206 48.808 51.0614 49.381 55.3338C49.6843 57.5144 50.3831 59.4285 50.9336 61.456C51.5111 63.465 52.0953 65.4894 52.6817 67.5261C53.8546 71.5994 55.0432 75.7217 56.2408 79.8776C58.6338 88.1865 61.0672 96.6302 63.5006 105.074C73.3151 138.799 83.1296 172.528 90.4905 197.822C94.1777 210.468 97.2514 221.006 99.4017 228.384C100.586 232.139 102.633 234.13 104.066 234.938C104.799 235.345 105.394 235.511 105.794 235.609C106.194 235.679 106.401 235.716 106.401 235.716L106.405 235.67C106.711 235.719 107.019 235.744 107.331 235.744C107.587 235.744 107.846 235.728 108.104 235.692L104.284 236.218C104.012 236.255 103.743 236.273 103.473 236.273Z" fill="white"/>
</mask>
<g mask="url(#mask1_2_574)">
<path fill-rule="evenodd" clip-rule="evenodd" d="M103.473 236.273C100.152 236.273 97.0604 233.465 95.6292 228.565L46.3229 58.525C44.2648 51.4841 46.3791 42.8291 51.0392 39.1632L95.2022 4.43303C96.3527 3.52956 97.548 3.01198 98.7299 2.84966L102.586 2.31982C102.076 2.39026 101.563 2.52808 101.051 2.73328C100.817 2.74859 100.038 3.02116 98.8894 3.91851C97.5368 4.97512 95.5528 6.52787 93.0272 8.50326C87.9784 12.454 80.7636 18.0984 72.1062 24.873C67.7764 28.2602 63.0871 31.9292 58.1282 35.8096C56.8902 36.7957 55.6251 37.7237 54.3624 38.7956C53.1064 39.8982 52.0211 41.3958 51.1808 43.1354C49.5158 46.6206 48.808 51.0614 49.381 55.3338C49.6843 57.5144 50.3831 59.4285 50.9336 61.456C51.5111 63.465 52.0953 65.4894 52.6817 67.5261C53.8546 71.5994 55.0432 75.7217 56.2408 79.8776C58.6338 88.1865 61.0672 96.6302 63.5006 105.074C73.3151 138.799 83.1296 172.528 90.4905 197.822C94.1777 210.468 97.2514 221.006 99.4017 228.384C100.586 232.139 102.633 234.13 104.066 234.938C104.799 235.345 105.394 235.511 105.794 235.609C106.194 235.679 106.401 235.716 106.401 235.716L106.405 235.67C106.711 235.719 107.019 235.744 107.331 235.744C107.587 235.744 107.846 235.728 108.104 235.692L104.284 236.218C104.012 236.255 103.743 236.273 103.473 236.273Z" fill="url(#paint1_linear_2_574)"/>
</g>
<path fill-rule="evenodd" clip-rule="evenodd" d="M54.8966 38.6364L99.0596 3.90631C103.731 0.23117 109.168 2.93851 111.227 9.98253L160.546 180.01C162.596 187.033 160.475 195.715 155.817 199.381L111.651 234.111C106.993 237.777 101.538 235.057 99.4865 228.035L50.178 57.9982C48.1221 50.9542 50.2365 42.3024 54.8966 38.6364Z" fill="#3D3838"/>
<mask id="mask2_2_574" style="mask-type:alpha" maskUnits="userSpaceOnUse" x="51" y="4" width="109" height="230">
<path d="M107.329 233.263C104.641 233.263 102.284 230.908 101.179 227.116L51.8725 57.0858C50.1423 51.1627 51.9084 43.8522 55.8068 40.7835L62.2981 35.6811C62.6082 35.4361 62.9565 35.3106 63.307 35.3106C63.5407 35.3106 63.7766 35.3657 64.0013 35.479L68.8659 37.8985C69.0793 38.0057 69.304 38.0577 69.5265 38.0577C69.8612 38.0577 70.196 37.9383 70.4926 37.7055L90.0071 22.3496C90.5216 21.9422 90.8901 21.2684 91.0249 20.4783L92.2832 13.1984C92.4225 12.3868 92.8022 11.6916 93.3325 11.2751L99.9699 6.05641C101.073 5.18662 102.226 4.74561 103.396 4.74561C106.075 4.74561 108.427 7.10382 109.535 10.8984L110.261 13.4006L62.0105 51.3709L106.104 227.181L106.299 227.028V227.334L159.513 185.456C159.583 190.181 157.853 194.916 154.907 197.234L110.744 231.961C109.647 232.825 108.499 233.263 107.329 233.263Z" fill="white"/>
</mask>
<g mask="url(#mask2_2_574)">
<path fill-rule="evenodd" clip-rule="evenodd" d="M107.329 233.263C104.641 233.263 102.284 230.908 101.179 227.116L51.8725 57.0858C50.1423 51.1627 51.9084 43.8522 55.8068 40.7835L62.2981 35.6811C62.6082 35.4361 62.9565 35.3106 63.307 35.3106C63.5407 35.3106 63.7766 35.3657 64.0013 35.479L68.8659 37.8985C69.0793 38.0057 69.304 38.0577 69.5265 38.0577C69.8612 38.0577 70.196 37.9383 70.4926 37.7055L90.0071 22.3496C90.5216 21.9422 90.8901 21.2684 91.0249 20.4783L92.2832 13.1984C92.4225 12.3868 92.8022 11.6916 93.3325 11.2751L99.9699 6.05641C101.073 5.18662 102.226 4.74561 103.396 4.74561C106.075 4.74561 108.427 7.10382 109.535 10.8984L110.261 13.4006L62.0105 51.3709L106.104 227.181L106.299 227.028V227.334L159.513 185.456C159.583 190.181 157.853 194.916 154.907 197.234L110.744 231.961C109.647 232.825 108.499 233.263 107.329 233.263Z" fill="url(#paint2_linear_2_574)"/>
</g>
<mask id="mask3_2_574" style="mask-type:alpha" maskUnits="userSpaceOnUse" x="49" y="2" width="58" height="234">
<path d="M106.401 235.716C106.401 235.716 106.194 235.679 105.794 235.609C105.394 235.511 104.798 235.346 104.066 234.938C102.632 234.13 100.586 232.139 99.4014 228.384C97.2511 221.006 94.1773 210.468 90.4901 197.822C83.1292 172.528 73.3147 138.8 63.5002 105.074C61.0668 96.6303 58.6334 88.1867 56.2404 79.8778C55.0428 75.7218 53.8542 71.5995 52.6813 67.5262C52.0949 65.4896 51.5107 63.4652 50.9332 61.4561C50.3827 59.4286 49.6839 57.5145 49.3806 55.3339C48.8076 51.0616 49.5154 46.6208 51.1804 43.1355C52.0207 41.3959 53.106 39.8983 54.362 38.7958C55.6248 37.7238 56.8898 36.7959 58.1278 35.8097C63.0868 31.9294 67.7761 28.2603 72.1059 24.8731C80.7632 18.0986 87.9781 12.4542 93.0269 8.50338C95.5524 6.52799 97.5365 4.97524 98.8891 3.91863C100.037 3.02128 100.817 2.74871 101.051 2.7334C100.379 3.00291 99.7115 3.39186 99.0599 3.90638L54.8968 38.6365C50.2367 42.3025 48.1223 50.9544 50.1783 57.9984L99.4868 228.035C100.783 232.479 103.446 235.202 106.405 235.67L106.401 235.716Z" fill="white"/>
</mask>
<g mask="url(#mask3_2_574)">
<path fill-rule="evenodd" clip-rule="evenodd" d="M106.401 235.716C106.401 235.716 106.194 235.679 105.794 235.609C105.394 235.511 104.798 235.346 104.066 234.938C102.632 234.13 100.586 232.139 99.4014 228.384C97.2511 221.006 94.1773 210.468 90.4901 197.822C83.1292 172.528 73.3147 138.8 63.5002 105.074C61.0668 96.6303 58.6334 88.1867 56.2404 79.8778C55.0428 75.7218 53.8542 71.5995 52.6813 67.5262C52.0949 65.4896 51.5107 63.4652 50.9332 61.4561C50.3827 59.4286 49.6839 57.5145 49.3806 55.3339C48.8076 51.0616 49.5154 46.6208 51.1804 43.1355C52.0207 41.3959 53.106 39.8983 54.362 38.7958C55.6248 37.7238 56.8898 36.7959 58.1278 35.8097C63.0868 31.9294 67.7761 28.2603 72.1059 24.8731C80.7632 18.0986 87.9781 12.4542 93.0269 8.50338C95.5524 6.52799 97.5365 4.97524 98.8891 3.91863C100.037 3.02128 100.817 2.74871 101.051 2.7334C100.379 3.00291 99.7115 3.39186 99.0599 3.90638L54.8968 38.6365C50.2367 42.3025 48.1223 50.9544 50.1783 57.9984L99.4868 228.035C100.783 232.479 103.446 235.202 106.405 235.67L106.401 235.716Z" fill="url(#paint3_linear_2_574)"/>
</g>
<path fill-rule="evenodd" clip-rule="evenodd" d="M106.405 235.67C103.446 235.202 100.783 232.479 99.4865 228.035L50.178 57.9984C48.1221 50.9543 50.2365 42.3025 54.8966 38.6365L99.0597 3.90642C99.7113 3.39189 100.379 3.00291 101.05 2.7334C101.057 2.7334 101.064 2.7334 101.068 2.7334C101.102 2.7334 101.12 2.73951 101.122 2.75176C101.122 2.75176 100.929 2.84977 100.552 3.03659C100.176 3.22954 99.6326 3.5542 98.9675 4.10241C97.6171 5.1682 95.6376 6.73321 93.1211 8.72391C88.0835 12.7053 80.8866 18.3926 72.2517 25.2161C67.9332 28.6309 63.2551 32.3275 58.3074 36.2385C57.0806 37.2246 55.7953 38.1832 54.5708 39.2337C53.3642 40.3026 52.3238 41.7512 51.5172 43.4326C49.9196 46.8106 49.2501 51.1167 49.814 55.2206C50.0949 57.2388 50.8072 59.2143 51.3622 61.2233C51.9486 63.2293 52.5373 65.2507 53.1305 67.2843C54.3168 71.3484 55.519 75.4645 56.73 79.6113C59.15 87.911 61.6103 96.3393 64.0707 104.768C73.8246 138.527 83.5806 172.286 90.8966 197.605C94.5523 210.263 97.6014 220.81 99.7337 228.194C100.817 231.857 102.765 233.851 104.149 234.684C104.845 235.134 105.423 235.342 105.809 235.471C106.205 235.572 106.409 235.624 106.409 235.624L106.405 235.67Z" fill="#443E3E"/>
<path fill-rule="evenodd" clip-rule="evenodd" d="M85.3198 20.019C85.1198 19.3421 84.639 19.0451 84.2368 19.3605L73.7483 27.6143C73.3551 27.9236 73.2 28.7229 73.4022 29.3998C73.6022 30.0766 74.083 30.3737 74.4762 30.0644L84.9648 21.8106C85.367 21.4952 85.522 20.6958 85.3198 20.019Z" fill="#191414"/>
<path fill-rule="evenodd" clip-rule="evenodd" d="M71.1667 31.5436C70.8431 30.4502 70.0747 29.9755 69.4388 30.4747C68.8142 30.9647 68.567 32.2418 68.8928 33.3352C69.2119 34.4132 69.9803 34.8879 70.605 34.3948C71.2408 33.8956 71.488 32.6216 71.1667 31.5436Z" fill="#191414"/>
<path fill-rule="evenodd" clip-rule="evenodd" d="M69.8566 34.2633C69.4813 34.2633 69.1106 33.8989 68.9264 33.2833C68.6725 32.4289 68.8657 31.4335 69.3533 31.0477C69.4858 30.9435 69.6274 30.8945 69.7667 30.8945C70.1464 30.8945 70.5171 31.262 70.7036 31.8868C70.953 32.7259 70.7598 33.7213 70.2633 34.1102C70.1329 34.2143 69.9959 34.2633 69.8566 34.2633ZM69.7847 31.5254C69.697 31.5254 69.6094 31.556 69.5263 31.6204C69.2207 31.8623 69.0994 32.484 69.2589 33.0199C69.3735 33.4058 69.6049 33.6324 69.8408 33.6324C69.9262 33.6324 70.0139 33.6018 70.0947 33.5375C70.4071 33.2955 70.5261 32.6708 70.3711 32.144C70.2543 31.7551 70.0228 31.5254 69.7847 31.5254Z" fill="#2C2828"/>
<path fill-rule="evenodd" clip-rule="evenodd" d="M69.8407 33.6324C69.6048 33.6324 69.3734 33.4058 69.2588 33.0199C69.0993 32.484 69.2206 31.8623 69.5262 31.6203C69.6093 31.556 69.697 31.5254 69.7846 31.5254C70.0227 31.5254 70.2542 31.7551 70.371 32.144C70.526 32.6708 70.407 33.2955 70.0946 33.5375C70.0138 33.6018 69.9261 33.6324 69.8407 33.6324ZM69.7149 32.2512L69.6228 32.729L69.9104 32.9066L70.0048 32.4288L69.7149 32.2512Z" fill="#3D3A3A"/>
<path fill-rule="evenodd" clip-rule="evenodd" d="M69.9106 32.9055L69.623 32.7281L69.7152 32.251L70.005 32.4284L69.9106 32.9055Z" fill="#5C5B5B"/>
<path fill-rule="evenodd" clip-rule="evenodd" d="M64.2712 112.005L60.1233 97.6624C59.9526 97.1295 59.7796 96.7651 59.5841 96.4649L59.0156 95.8095C58.7954 95.638 58.5707 95.5492 58.3662 95.5767L58.1124 95.6901L57.4248 96.2352L57.6787 96.1219C57.8832 96.0943 58.1079 96.1801 58.3281 96.3546L58.8965 97.007C59.092 97.3102 59.265 97.6746 59.3931 98.0758L63.5859 112.547C63.8914 113.588 63.7971 114.513 63.3994 114.828L64.0869 114.283C64.4846 113.968 64.579 113.043 64.2712 112.005Z" fill="#3D3838"/>
<mask id="mask4_2_574" style="mask-type:alpha" maskUnits="userSpaceOnUse" x="57" y="96" width="7" height="19">
<path d="M63.5861 112.547L59.436 98.2074C59.1933 97.3866 58.7664 96.7006 58.3283 96.3545C58.1081 96.18 57.8834 96.0942 57.6789 96.1218C57.0722 96.2167 56.87 97.2733 57.234 98.5106L61.3841 112.85C61.6267 113.674 62.0537 114.36 62.4918 114.703C62.712 114.877 62.9367 114.963 63.1412 114.939C63.7478 114.859 63.9501 113.787 63.5861 112.547Z" fill="white"/>
</mask>
<g mask="url(#mask4_2_574)">
<path fill-rule="evenodd" clip-rule="evenodd" d="M63.5861 112.547L59.436 98.2074C59.1933 97.3866 58.7664 96.7006 58.3283 96.3545C58.1081 96.18 57.8834 96.0942 57.6789 96.1218C57.0722 96.2167 56.87 97.2733 57.234 98.5106L61.3841 112.85C61.6267 113.674 62.0537 114.36 62.4918 114.703C62.712 114.877 62.9367 114.963 63.1412 114.939C63.7478 114.859 63.9501 113.787 63.5861 112.547Z" fill="url(#paint4_linear_2_574)"/>
</g>
<path fill-rule="evenodd" clip-rule="evenodd" d="M58.8965 97.0069L59.5841 96.4648C59.7796 96.765 59.9526 97.1294 60.0807 97.5306L59.3931 98.0757C59.265 97.6745 59.092 97.3101 58.8965 97.0069Z" fill="#4B4444"/>
<path fill-rule="evenodd" clip-rule="evenodd" d="M57.8649 89.8957L53.7036 75.5474L53.6542 75.3881C53.5284 74.9991 53.3598 74.6439 53.1688 74.3468L52.6071 73.7006C52.3869 73.5291 52.1622 73.4403 51.9578 73.4678L51.7061 73.5812L51.0186 74.1232L51.2725 74.013C51.4747 73.9854 51.6994 74.0712 51.9196 74.2457L52.4813 74.8919C52.6723 75.186 52.8408 75.5412 52.9689 75.9332L53.0161 76.0894L57.1774 90.4378C57.4829 91.476 57.3818 92.3917 56.9841 92.7072L57.6717 92.1651C58.0694 91.8496 58.1682 90.9339 57.8649 89.8957Z" fill="#3D3838"/>
<mask id="mask5_2_574" style="mask-type:alpha" maskUnits="userSpaceOnUse" x="50" y="74" width="8" height="19">
<path d="M57.1774 90.4378L53.0161 76.0894C52.7824 75.2747 52.3578 74.5887 51.9196 74.2456C51.6994 74.0711 51.4748 73.9853 51.2725 74.0129C50.6636 74.1078 50.4637 75.1798 50.8164 76.3926L54.9754 90.741C55.2181 91.5649 55.6405 92.2539 56.0764 92.597C56.2943 92.7685 56.5168 92.8542 56.7212 92.8205C57.3302 92.7409 57.5414 91.6782 57.1774 90.4378Z" fill="white"/>
</mask>
<g mask="url(#mask5_2_574)">
<path fill-rule="evenodd" clip-rule="evenodd" d="M57.1774 90.4378L53.0161 76.0894C52.7824 75.2747 52.3578 74.5887 51.9196 74.2456C51.6994 74.0711 51.4748 73.9853 51.2725 74.0129C50.6636 74.1078 50.4637 75.1798 50.8164 76.3926L54.9754 90.741C55.2181 91.5649 55.6405 92.2539 56.0764 92.597C56.2943 92.7685 56.5168 92.8542 56.7212 92.8205C57.3302 92.7409 57.5414 91.6782 57.1774 90.4378Z" fill="url(#paint5_linear_2_574)"/>
</g>
<path fill-rule="evenodd" clip-rule="evenodd" d="M52.4814 74.8918L53.169 74.3467C53.36 74.6438 53.5285 74.999 53.6566 75.388L52.9691 75.9331C52.841 75.5411 52.6724 75.1889 52.4814 74.8918Z" fill="#4B4444"/>
<path fill-rule="evenodd" clip-rule="evenodd" d="M115.397 24.3618L111.854 12.1481L122.288 3.93408L125.432 16.4633L115.397 24.3618Z" fill="#D894EB"/>
<path fill-rule="evenodd" clip-rule="evenodd" d="M113.804 25.6143L110.261 13.4005L111.854 12.1479L115.397 24.3616L113.804 25.6143Z" fill="#8B459B"/>
<mask id="mask6_2_574" style="mask-type:alpha" maskUnits="userSpaceOnUse" x="62" y="13" width="52" height="215">
<path d="M106.104 227.18L62.0107 51.3707L110.261 13.4004L113.804 25.6141L85.6797 47.7446L106.104 227.18Z" fill="white"/>
</mask>
<g mask="url(#mask6_2_574)">
<path fill-rule="evenodd" clip-rule="evenodd" d="M106.104 227.18L62.0107 51.3707L110.261 13.4004L113.804 25.6141L85.6797 47.7446L106.104 227.18Z" fill="url(#paint6_linear_2_574)"/>
</g>
<path fill-rule="evenodd" clip-rule="evenodd" d="M129.759 33.7241L125.432 16.4632L145.957 0.311035L148.116 19.2778L129.759 33.7241Z" fill="#EDD0F5"/>
<path fill-rule="evenodd" clip-rule="evenodd" d="M120.278 41.1875L115.397 24.3614L125.432 16.4629L129.76 33.7239L120.278 41.1875Z" fill="#E1B0EF"/>
<path fill-rule="evenodd" clip-rule="evenodd" d="M118.685 42.4404L113.805 25.6145L115.398 24.3618L120.278 41.1878L118.685 42.4404Z" fill="#CA97D7"/>
<mask id="mask7_2_574" style="mask-type:alpha" maskUnits="userSpaceOnUse" x="85" y="25" width="34" height="203">
<path d="M106.104 227.181L85.6797 47.7447L113.804 25.6143L118.685 42.4403L106.3 52.1855V227.027L106.104 227.181Z" fill="white"/>
</mask>
<g mask="url(#mask7_2_574)">
<path fill-rule="evenodd" clip-rule="evenodd" d="M106.104 227.181L85.6797 47.7447L113.804 25.6143L118.685 42.4403L106.3 52.1855V227.027L106.104 227.181Z" fill="url(#paint7_linear_2_574)"/>
</g>
<path fill-rule="evenodd" clip-rule="evenodd" d="M161.268 184.074C161.262 183.98 161.255 183.885 161.246 183.787L166.385 179.744L148.117 19.278L166.578 4.75195V179.897L161.268 184.074Z" fill="#F8F7FA"/>
<path fill-rule="evenodd" clip-rule="evenodd" d="M159.514 185.455C159.514 185.354 159.511 185.256 159.507 185.155L161.246 183.786C161.255 183.884 161.262 183.979 161.268 184.074L159.514 185.455Z" fill="#EEECF0"/>
<mask id="mask8_2_574" style="mask-type:alpha" maskUnits="userSpaceOnUse" x="106" y="185" width="54" height="43">
<path d="M106.3 227.334V227.027L159.507 185.155C159.511 185.256 159.513 185.354 159.513 185.455L106.3 227.334Z" fill="white"/>
</mask>
<g mask="url(#mask8_2_574)">
<path fill-rule="evenodd" clip-rule="evenodd" d="M106.3 227.334V227.027L159.507 185.155C159.511 185.256 159.513 185.354 159.513 185.455L106.3 227.334Z" fill="url(#paint8_linear_2_574)"/>
</g>
<path fill-rule="evenodd" clip-rule="evenodd" d="M166.385 179.744L129.76 33.7242L148.117 19.2778L166.385 179.744Z" fill="#F7F4FA"/>
<path fill-rule="evenodd" clip-rule="evenodd" d="M161.245 183.786C161.133 182.5 160.902 181.232 160.547 180.01L120.277 41.1877L129.759 33.7241L166.384 179.744L161.245 183.786Z" fill="#F7F3F9"/>
<path fill-rule="evenodd" clip-rule="evenodd" d="M159.506 185.155C159.464 183.715 159.25 182.282 158.853 180.922L118.685 42.4401L120.278 41.1875L160.547 180.01C160.902 181.232 161.133 182.5 161.246 183.786L159.506 185.155Z" fill="#F6F1F8"/>
<mask id="mask9_2_574" style="mask-type:alpha" maskUnits="userSpaceOnUse" x="106" y="42" width="54" height="186">
<path d="M106.3 227.027V52.1857L118.685 42.4404L158.853 180.923C159.251 182.283 159.464 183.716 159.507 185.155L106.3 227.027Z" fill="white"/>
</mask>
<g mask="url(#mask9_2_574)">
<path fill-rule="evenodd" clip-rule="evenodd" d="M106.3 227.027V52.1857L118.685 42.4404L158.853 180.923C159.251 182.283 159.464 183.716 159.507 185.155L106.3 227.027Z" fill="url(#paint9_linear_2_574)"/>
</g>
<path fill-rule="evenodd" clip-rule="evenodd" d="M166.578 15.2624L106.3 62.6963V47.8977L166.578 0.463867V15.2624Z" fill="#788EFF"/>
<path fill-rule="evenodd" clip-rule="evenodd" d="M154.348 159.316C152.948 158.208 151.009 158.364 148.874 160.045L117.842 184.466C113.602 187.802 110.164 195.905 110.178 202.563C110.185 205.865 111.041 208.186 112.422 209.283L113.667 210.269L155.592 160.302L154.348 159.316Z" fill="#E0DBE1"/>
<path fill-rule="evenodd" clip-rule="evenodd" d="M150.119 161.031C154.359 157.696 157.822 160.367 157.835 167.025C157.851 173.668 154.411 181.787 150.171 185.125L119.139 209.543C114.899 212.882 111.436 210.193 111.423 203.55C111.409 196.892 114.847 188.788 119.089 185.453L150.119 161.031Z" fill="#FFB92C"/>
<path fill-rule="evenodd" clip-rule="evenodd" d="M151.247 167.9L149.544 169.242V170.39L151.247 169.049V167.9ZM146.755 172.583L148.184 171.459V170.311L146.297 171.796L143.616 173.906V175.052L146.755 172.583ZM137.878 179.569L142.324 176.068V174.923L137.878 178.42L136.44 179.554V180.702L137.878 179.569ZM143.23 179.912L145.126 178.42V177.272L141.859 179.842L136.406 184.132V185.281L143.23 179.912ZM133.242 191.176L128.724 194.732V195.881L133.242 192.325V191.176ZM146.418 176.255L149.946 173.477V174.626L146.418 177.401V176.255ZM135.116 185.149L131.869 187.703V188.852L135.116 186.295V185.149ZM131.815 183.192L130.112 184.533V185.682L131.815 184.341V183.192ZM135.085 180.62L133.107 182.175V183.324L135.085 181.768V180.62ZM127.324 187.875L128.753 186.751V185.602L126.865 187.088L124.185 189.198V190.343L127.324 187.875ZM118.446 194.861L122.893 191.363V190.215L118.446 193.712L117.008 194.845V195.994L118.446 194.861ZM123.798 195.204L125.695 193.712V192.564L122.428 195.133L116.975 199.424V200.572L123.798 195.204ZM121.464 200.447L116.945 204V205.148L121.464 201.592V200.447ZM127.324 196.98V195.835L124.569 198.003L122.756 199.427V200.576L127.324 196.98ZM126.987 191.547L130.514 188.769V189.918L126.987 192.692V191.547Z" fill="white"/>
<path fill-rule="evenodd" clip-rule="evenodd" d="M147.926 42.0361C146.526 40.9275 144.589 41.0837 142.452 42.762L117.842 62.1299C113.602 65.4682 110.164 73.5688 110.178 80.23C110.185 83.5285 111.041 85.853 112.422 86.9464L113.667 87.9325L149.171 43.0223L147.926 42.0361Z" fill="#E0DBE1"/>
<path fill-rule="evenodd" clip-rule="evenodd" d="M143.698 43.7481C147.938 40.413 151.4 43.0836 151.414 49.7417C151.429 56.3845 147.989 64.5035 143.749 67.8418L119.139 87.2098C114.899 90.545 111.436 87.856 111.423 81.2162C111.409 74.555 114.847 66.4544 119.089 63.1161L143.698 43.7481Z" fill="#FFB92C"/>
<path fill-rule="evenodd" clip-rule="evenodd" d="M143.616 51.5701V52.7186L145.654 51.1138V49.9653L143.616 51.5701ZM137.878 57.2329L142.324 53.7354V52.5869L137.878 56.0875L136.44 57.2176V58.3661L137.878 57.2329ZM143.23 57.5759L145.126 56.0844V54.936L141.859 57.5055L136.406 61.7993V62.9447L143.23 57.5759ZM135.116 62.813L131.869 65.3672V66.5157L135.116 63.9615V62.813ZM131.815 60.8591L130.112 62.1974V63.3459L131.815 62.0045V60.8591ZM135.085 58.2834L133.107 59.8423V60.9877L135.085 59.4319V58.2834ZM127.324 65.5387L128.753 64.4148V63.2663L126.865 64.7516L124.185 66.8618V68.0103L127.324 65.5387ZM118.446 72.5246L122.893 69.0271V67.8786L118.446 71.3791L117.008 72.5093V73.6577L118.446 72.5246ZM120.931 75.1247V73.9763L116.975 77.0909V78.2363L120.931 75.1247ZM123.947 76.1568L116.945 81.6665V82.8119L123.947 77.3053V76.1568ZM129.631 72.8308V71.6823L125.239 75.14V76.2885L129.631 72.8308ZM122.223 72.9595L130.514 66.4361V67.5815L122.223 74.1049V72.9595Z" fill="white"/>
<path fill-rule="evenodd" clip-rule="evenodd" d="M176.623 109.279C175.223 108.17 173.287 108.327 171.15 110.008L153.085 124.225C148.845 127.563 145.405 135.664 145.418 142.322C145.425 145.623 146.283 147.948 147.665 149.041L148.91 150.027L177.868 110.265L176.623 109.279Z" fill="#E0DBE1"/>
<path fill-rule="evenodd" clip-rule="evenodd" d="M172.395 110.994C176.637 107.656 180.097 110.327 180.111 116.988C180.126 123.628 176.686 131.75 172.447 135.085L154.379 149.305C150.139 152.64 146.677 149.951 146.663 143.308C146.65 136.65 150.09 128.546 154.33 125.211L172.395 110.994Z" fill="#C0B9C8"/>
<path fill-rule="evenodd" clip-rule="evenodd" d="M159.463 128.01L156.174 130.601V131.746L159.463 129.158V128.01ZM160.719 131.575L156.181 135.146V136.294L160.719 132.723V131.575ZM174.288 116.344L170.087 119.652V120.797L174.288 117.49V116.344ZM169.132 129.507L167.02 131.17V132.319L169.132 130.656V129.507ZM162.193 130.417V131.562L164.541 129.716V128.567L162.193 130.417ZM170.28 124.053L165.833 127.55V128.699L170.28 125.198L174.282 122.05V120.904L170.28 124.053ZM160.706 128.178L165.555 124.365L168.795 121.814V120.669L165.555 123.217L160.706 127.033V128.178ZM170.424 129.639L174.284 126.601V125.456L170.424 128.491V129.639Z" fill="white"/>
<path fill-rule="evenodd" clip-rule="evenodd" d="M139.17 114.421C137.77 113.312 135.831 113.468 133.696 115.147L117.842 127.624C113.602 130.962 110.164 139.063 110.178 145.724C110.185 149.022 111.041 151.347 112.422 152.44L113.667 153.427L140.415 115.407L139.17 114.421Z" fill="#E0DBE1"/>
<path fill-rule="evenodd" clip-rule="evenodd" d="M134.941 116.133C139.181 112.798 142.644 115.468 142.657 122.126C142.671 128.769 139.233 136.888 134.991 140.227L119.139 152.704C114.899 156.039 111.436 153.35 111.423 146.71C111.409 140.049 114.847 131.948 119.089 128.61L134.941 116.133Z" fill="#FFB92C"/>
<path fill-rule="evenodd" clip-rule="evenodd" d="M130.625 135.709L128.991 136.996V138.141L130.625 136.858V135.709ZM130.048 131.612L128.425 132.889V134.034L130.048 132.757V131.612ZM131.339 131.74L135.346 128.589V127.443L131.339 130.595V131.74ZM132.272 126.454L135.332 124.047V122.898L132.272 125.306V126.454ZM129.277 128.812L130.98 127.471V126.326L129.277 127.664V128.812ZM128.095 128.595L126.549 129.811L126.208 130.08L123.527 132.187V133.336L126.208 131.226L126.549 130.959L128.095 129.74V128.595ZM115.254 144.401L118.388 141.933L121.934 139.143V137.994L116.822 142.018L115.254 143.253V144.401ZM122.52 142.089L117.155 146.312L115.247 147.813V148.958L117.811 146.94L122.52 143.234V142.089ZM115.267 139.835L117.033 138.447L122.235 134.353V133.204L115.267 138.689V139.835ZM127.987 137.786L123.812 141.072V142.217L127.987 138.934V137.786ZM127.455 133.651L123.228 136.977V138.126L127.455 134.8V133.651Z" fill="white"/>
<path fill-rule="evenodd" clip-rule="evenodd" d="M176.624 54.7737C175.224 53.6651 173.287 53.8243 171.15 55.5027L138.345 81.3205C134.105 84.6557 130.665 92.7594 130.679 99.4175C130.686 102.719 131.544 105.04 132.926 106.137L134.17 107.123L177.869 55.7599L176.624 54.7737Z" fill="#E0DBE1"/>
<path fill-rule="evenodd" clip-rule="evenodd" d="M172.394 56.4884C176.637 53.1532 180.097 55.8238 180.11 62.4819C180.126 69.1247 176.686 77.2437 172.446 80.582L139.639 106.397C135.399 109.735 131.936 107.046 131.923 100.403C131.909 93.7451 135.349 85.6414 139.589 82.3062L172.394 56.4884Z" fill="#C0B9C8"/>
<path fill-rule="evenodd" clip-rule="evenodd" d="M158.059 76.1504V75.0019L156.082 76.5578V77.7063L158.059 76.1504ZM161.055 72.6468L159.354 73.9851V75.1336L161.055 73.7922V72.6468ZM143.201 86.6675L141.814 87.7578V88.9063L143.201 87.816V86.6675ZM140.52 88.7776L136.916 91.6136V92.759L140.52 89.9231V88.7776ZM158.873 84.6094L160.506 83.3231V82.1777L158.873 83.464V84.6094ZM159.336 78.5454L155.332 81.6968V82.8453L159.336 79.6908V78.5454ZM166.98 78.2299L171.687 74.5242L174.253 72.5059V71.3605L172.345 72.8612L166.98 77.0845V78.2299ZM161.513 82.5329L165.685 79.2498V78.1013L161.513 81.3875V82.5329ZM154.95 77.4214L150.431 80.9771V82.1225L154.95 78.5699V77.4214ZM146.459 84.104L144.571 85.5894V86.7349L146.459 85.2495L149.139 83.1424V81.9939L146.459 84.104ZM153.972 82.7442L149.746 86.0702V87.2157L153.972 83.8897V82.7442ZM164.263 74.6742L160.736 77.452V78.5975L168.822 72.2333V71.0879L164.263 74.6742ZM170.114 71.2166L174.275 67.9426V66.7941L170.114 70.0681V71.2166ZM168.357 68.0467L172.804 64.5492L174.242 63.4161V62.2676L172.804 63.4007L168.357 66.8982V68.0467ZM164.385 70.0252L162.497 71.5105V72.659L163.926 71.535L167.065 69.0635V67.9181L164.385 70.0252Z" fill="white"/>
<defs>
<linearGradient id="paint0_linear_2_574" x1="0.0182701" y1="225.367" x2="155.779" y2="225.367" gradientUnits="userSpaceOnUse">
<stop stop-color="#D7D2D3"/>
<stop offset="1" stop-color="#D0C9CC"/>
</linearGradient>
<linearGradient id="paint1_linear_2_574" x1="77.0776" y1="81.5682" x2="79.606" y2="37.3597" gradientUnits="userSpaceOnUse">
<stop stop-color="#232020"/>
<stop offset="1" stop-color="#312D2D"/>
</linearGradient>
<linearGradient id="paint2_linear_2_574" x1="105.462" y1="-31.9048" x2="104.617" y2="253.997" gradientUnits="userSpaceOnUse">
<stop stop-color="#6B1FF8"/>
<stop offset="1" stop-color="#FF6DC6"/>
</linearGradient>
<linearGradient id="paint3_linear_2_574" x1="77.9031" y1="81.5683" x2="80.4313" y2="37.3614" gradientUnits="userSpaceOnUse">
<stop stop-color="#383333"/>
<stop offset="1" stop-color="#3E3939"/>
</linearGradient>
<linearGradient id="paint4_linear_2_574" x1="57.0543" y1="105.53" x2="63.7674" y2="105.53" gradientUnits="userSpaceOnUse">
<stop stop-color="#232020"/>
<stop offset="1" stop-color="#312D2D"/>
</linearGradient>
<linearGradient id="paint5_linear_2_574" x1="50.6412" y1="83.4182" x2="57.3546" y2="83.4182" gradientUnits="userSpaceOnUse">
<stop stop-color="#232020"/>
<stop offset="1" stop-color="#312D2D"/>
</linearGradient>
<linearGradient id="paint6_linear_2_574" x1="89.8373" y1="-31.9049" x2="88.9919" y2="253.996" gradientUnits="userSpaceOnUse">
<stop stop-color="#9D3AE8"/>
<stop offset="1" stop-color="#D95AD3"/>
</linearGradient>
<linearGradient id="paint7_linear_2_574" x1="102.353" y1="-31.9048" x2="101.507" y2="253.996" gradientUnits="userSpaceOnUse">
<stop stop-color="#CF93ED"/>
<stop offset="1" stop-color="#E09EE8"/>
</linearGradient>
<linearGradient id="paint8_linear_2_574" x1="105.603" y1="125.712" x2="105.317" y2="222.393" gradientUnits="userSpaceOnUse">
<stop stop-color="#F0EBF9"/>
<stop offset="1" stop-color="#F8EEF7"/>
</linearGradient>
<linearGradient id="paint9_linear_2_574" x1="128.689" y1="-31.9046" x2="127.844" y2="253.996" gradientUnits="userSpaceOnUse">
<stop stop-color="#F6F0F8"/>
<stop offset="1" stop-color="#F7F1F8"/>
</linearGradient>
</defs>
</svg>
