<svg width="145" height="277" viewBox="0 0 145 277" fill="none" xmlns="http://www.w3.org/2000/svg">
<mask id="mask0_2_546" style="mask-type:alpha" maskUnits="userSpaceOnUse" x="25" y="239" width="68" height="38">
<path d="M58.8463 276.514C40.2979 276.514 25.2617 268.323 25.2617 258.221C25.2617 248.117 40.2979 239.929 58.8463 239.929C77.3947 239.929 92.4338 248.117 92.4338 258.221C92.4338 268.323 77.3947 276.514 58.8463 276.514Z" fill="white"/>
</mask>
<g mask="url(#mask0_2_546)">
<path fill-rule="evenodd" clip-rule="evenodd" d="M58.8463 276.514C40.2979 276.514 25.2617 268.323 25.2617 258.221C25.2617 248.117 40.2979 239.929 58.8463 239.929C77.3947 239.929 92.4338 248.117 92.4338 258.221C92.4338 268.323 77.3947 276.514 58.8463 276.514Z" fill="url(#paint0_linear_2_546)"/>
</g>
<path fill-rule="evenodd" clip-rule="evenodd" d="M47.81 249.626C46.2276 247.987 46.6744 246.228 45.7095 244.19C44.4373 241.501 43.9477 239.937 42.4649 237.35C42.1461 236.797 41.705 236.261 41.0817 236.057C40.6974 235.928 39.855 236.349 39.4452 236.363C36.1067 236.475 33.1438 239.552 33.8923 243.063C34.5014 245.925 34.8572 246.877 34.8572 253.5L34.8031 254.944L36.7242 257.097L39.3683 255.623C39.3683 255.623 39.3199 259.72 40.686 262.615C47.4855 271.083 51.4019 269.945 54.5725 268.821C59.596 267.044 60.4042 262.667 47.81 249.626Z" fill="#3A312B"/>
<path fill-rule="evenodd" clip-rule="evenodd" d="M28.9634 185.813C21.071 204.267 30.6768 212.717 35.3302 230.176C36.0275 232.794 37.5132 236.033 35.9023 238.664C34.9033 240.303 35.3843 242.288 36.0816 243.918C36.9696 246.002 38.0938 247.996 39.2323 249.962C40.9941 253.011 42.6591 256.247 44.8933 257.921C46.6067 259.206 49.689 258.537 50.8076 257.946C52.982 256.794 52.4128 255.186 51.5191 253.651C50.2042 251.969 48.7043 249.381 47.5117 246.976C46.157 244.237 45.3202 241.301 45.0327 238.276C44.3554 231.119 44.2558 220.921 44.2558 215.109C44.2558 202.291 44.3099 203.987 43.9484 192.744C43.8659 190.226 45.4056 185.158 46.3733 182.926C47.8419 179.538 52.0627 169.027 49.228 166.712C47.2414 165.087 35.4612 172.335 28.0982 173.896C28.0982 173.896 31.9063 178.933 28.9634 185.813Z" fill="#FBBD9E"/>
<path fill-rule="evenodd" clip-rule="evenodd" d="M56.0614 243.778C56.4115 245.433 57.4987 246.844 58.122 248.422C59.2462 251.265 59.1779 257.773 59.1779 257.773L62.0497 258.897L63.7887 257.41L63.7688 254.754C65.6216 256.637 68.6528 259.304 70.4601 260.869C73.0046 263.068 75.2701 263.33 79.0669 263.786C81.4491 264.072 84.0191 264.325 86.1196 263.203C89.1166 261.6 89.2874 258.254 83.6264 255.329C82.0553 254.517 80.3903 253.86 78.9217 252.887C77.0119 251.62 75.512 249.871 74.0406 248.144C71.3737 245.015 68.704 241.886 66.0372 238.76C65.0581 237.611 61.4036 236.78 60.638 236.852C56.6961 237.209 55.5633 241.43 56.0614 243.778Z" fill="#3A312B"/>
<path fill-rule="evenodd" clip-rule="evenodd" d="M61.2359 186.052C60.9257 188.364 59.6107 190.605 58.9077 192.821C56.2864 201.07 58.4353 210.231 60.1999 218.21C60.9997 221.815 61.5718 225.461 61.7483 229.145C61.8336 230.886 61.7796 232.645 61.2815 234.314C60.5159 236.874 57.1061 239.802 59.2408 242.002C63.0461 245.926 64.9274 247.572 69.208 251.007C70.54 252.076 73.1244 254.001 74.7296 254.628C76.3348 255.255 79.5908 253.39 78.4097 252.571C74.3311 249.266 72.7401 246.657 71.7183 242.442C71.317 240.784 71.112 239.079 71.0864 237.377C70.8843 224.048 74.186 210.971 75.3415 197.716C75.6204 194.488 76.4116 191.381 77.6867 188.45L78.0368 187.65C78.2986 187.045 78.5093 186.415 78.6402 185.772C79.4542 181.81 79.7416 178.046 79.7985 172.387C79.8526 166.852 78.7312 162.756 78.3982 162.626C75.2902 161.422 72.8653 174.306 69.5609 174.823C66.9738 175.23 64.1931 175.986 62.2093 177.729C59.5254 180.086 61.6514 182.953 61.2359 186.052Z" fill="#FBBD9E"/>
<path fill-rule="evenodd" clip-rule="evenodd" d="M116.065 88.6205C114.639 87.5757 93.0053 70.9026 92.8545 70.8091C89.9884 59.0109 86.0835 40.0503 84.8454 37.177C83.7382 34.6035 81.8057 32.3489 79.0904 31.4168C76.4521 30.5122 73.6002 30.6112 71.3944 32.2719C67.6033 35.1259 68.3548 41.4745 68.9496 45.4586C70.626 56.7096 77.2433 75.7445 80.7469 79.8523C81.5381 80.7789 109.769 97.5207 110.424 97.8699C114.314 99.9431 119.642 91.2353 116.065 88.6205Z" fill="#B6B0BE"/>
<path fill-rule="evenodd" clip-rule="evenodd" d="M23.8242 175.087C23.8242 182.131 40.5624 184.872 46.5792 184.913C62.697 185.023 75.0806 180.731 82.3184 173.225C83.2035 172.307 83.5905 171.028 83.5023 169.777C82.7339 158.702 82.3354 148.375 82.0081 138.092C81.6381 126.437 79.7198 114.862 76.0141 103.762L75.923 103.49C72.556 105.216 40.4913 91.1608 30.5981 108.851C22.9362 123.36 24.2398 137.776 23.8242 175.087Z" fill="#7D7984"/>
<path fill-rule="evenodd" clip-rule="evenodd" d="M65.7 6.48168C62.3899 1.49682 55.9604 -1.1345 50.2368 1.68925C37.5429 7.95814 42.9591 27.356 43.9268 33.9163C45.3442 43.5011 44.9571 53.2592 43.8898 62.8879L57.0647 61.3042L65.8052 6.91062L65.7 6.48168Z" fill="#724A2F"/>
<path fill-rule="evenodd" clip-rule="evenodd" d="M57.0838 6.36062C52.3392 9.53909 54.8325 13.8037 58.8484 13.8339C61.5152 13.8559 64.8907 11.9807 65.3603 9.25868C65.9068 6.09671 61.4327 3.44611 57.0838 6.36062Z" fill="#B6B0BE"/>
<path fill-rule="evenodd" clip-rule="evenodd" d="M10.0966 140.938C10.4466 140.38 11.995 138.659 12.7976 139.256C14.4768 140.507 13.3071 142.723 13.8677 144.405C13.9731 144.724 14.0869 145.082 14.3715 145.272C16.2528 146.52 16.3097 142.962 16.3865 141.835C16.4605 140.738 17.0127 138.772 16.6085 137.884C14.4796 133.193 12.6353 130.347 13.973 127.925C14.7244 125.558 7.03982 123.834 6.33398 125.624C3.07798 132.055 2.46036 134.672 1.80575 136.336C-0.183713 141.389 0.365537 148.783 1.19661 150.058C1.70892 150.845 2.58838 151.329 3.45361 151.741C3.88053 151.945 4.35018 152.145 4.81979 152.055C5.97533 151.832 6.64985 150.078 6.97716 149.151C7.57485 147.468 8.72472 143.116 10.0966 140.938Z" fill="#FBBD9E"/>
<path fill-rule="evenodd" clip-rule="evenodd" d="M87.8762 72.3074C87.2956 69.2527 85.5481 66.5115 84.8138 63.4898C83.7948 59.294 84.7938 54.925 85.6021 50.688C86.4132 46.4511 87.0024 41.9226 85.2492 37.9606C82.2664 31.2188 77.0722 26.8553 70.711 30.141C63.1431 34.0508 58.4925 37.0725 50.3639 41.6202C46.7834 43.6245 38.8511 47.4326 33.8902 50.996C30.5346 53.41 28.9664 57.5398 29.8686 61.4854C30.4493 64.0314 31.4397 66.5416 32.5554 68.3041C34.932 72.0654 37.0894 76.044 37.9376 80.3717C39.7904 89.808 40.2173 97.2922 33.933 104.873C33.933 119.09 76.3151 117.003 75.9223 105.532C76.3151 99.2168 76.5456 91.6447 80.8206 86.7588C82.2806 85.0898 84.105 83.7316 85.4768 81.9939C87.62 79.2746 88.5137 75.6701 87.8762 72.3074Z" fill="#B6B0BE"/>
<path fill-rule="evenodd" clip-rule="evenodd" d="M69.388 84.1389C70.535 80.1356 72.829 63.0171 73.515 58.7169C74.1895 54.4826 74.8555 50.0752 73.532 45.9867C73.1022 44.6559 72.4704 43.3966 71.8385 42.1401C71.2892 41.0458 70.7143 39.9185 69.758 39.1294C68.2609 37.8921 65.2155 38.2468 63.2488 38.2468C61.0117 38.2468 57.7046 38.2056 55.0377 39.7288C50.9279 42.0714 50.8794 45.3653 51.9268 49.0936C53.3271 54.095 57.1496 60.4216 59.0736 65.379C59.8534 67.3944 64.2308 75.1755 69.388 84.1389Z" fill="#EFEFED"/>
<path fill-rule="evenodd" clip-rule="evenodd" d="M65.9551 41.1226L69.2367 55.0021L75.9223 56.2998C75.9223 56.2998 73.8532 52.1069 71.0411 46.3907C70.1873 44.6557 66.271 41.1226 65.9551 41.1226Z" fill="white"/>
<path fill-rule="evenodd" clip-rule="evenodd" d="M57.1036 32.8135C60.0779 35.6482 69.2112 44.1139 69.2368 44.2624C69.9967 48.6121 71.3828 50.9905 69.2368 55.002L68.4057 58.2849L67.0738 56.22C63.0749 55.6316 57.6074 51.0042 56.2242 49.0933C54.7926 47.1164 53.4605 43.9352 54.1835 41.4744C54.4937 40.4103 55.82 37.3722 56.3181 35.7335C56.7365 34.3505 56.7279 34.29 57.1036 32.8135Z" fill="#F2A883"/>
<path fill-rule="evenodd" clip-rule="evenodd" d="M54.9181 39.4839C53.5377 40.3142 51.9439 41.9943 51.5313 44.0427C51.2552 45.4174 51.7276 48.8296 57.5707 60.4298C58.1513 61.5846 58.7149 62.745 59.2784 63.9053L67.074 56.2203C61.0744 52.6349 52.3679 45.5494 54.9181 39.4839Z" fill="white"/>
<path fill-rule="evenodd" clip-rule="evenodd" d="M53.7279 18.3538C53.4376 19.8798 52.2394 29.3958 55.4413 36.8635C59.924 47.3227 69.8855 50.5863 71.3826 50.9905C73.6225 51.5981 75.6348 49.9732 76.5797 48.197C81.0567 39.7643 86.2395 25.8958 82.3488 19.4866C78.959 13.9024 75.6433 10.7459 70.9841 9.18965C66.8999 7.82314 55.4327 9.43438 53.7279 18.3538Z" fill="#FBBD9E"/>
<path fill-rule="evenodd" clip-rule="evenodd" d="M83.5615 16.0831C82.7845 14.6451 77.6671 7.57888 70.0052 6.0914C63.553 4.84037 59.5456 7.07847 57.3284 8.53296C55.1454 9.9682 53.5999 12.1926 52.7034 14.5901C51.804 16.9877 51.5108 19.5612 51.4625 22.1127C51.4141 24.623 51.2348 27.1691 52.0573 29.5529C53.0137 32.3216 54.3115 35.2252 55.9964 38.0709C56.3835 37.1223 56.1188 35.6431 56.2611 34.634C56.4005 33.6222 56.4802 31.7663 57.9546 31.4418C61.0739 30.7545 60.9003 36.1518 61.3386 37.6915C61.4468 38.0682 61.6061 38.4448 61.8993 38.7088C62.1953 38.9727 62.6536 39.0964 63.0122 38.9177L63.5472 38.3184C64.4665 36.6797 65.1269 34.9447 66.012 33.2867C70.3837 25.0932 83.7179 22.5582 83.7265 26.0143C85.5025 21.9533 84.9475 18.6456 83.5615 16.0831Z" fill="#724A2F"/>
<path fill-rule="evenodd" clip-rule="evenodd" d="M32.1112 52.8274C29.5326 55.5412 13.6995 84.7741 13.0449 87.1827C11.9662 91.153 6.77194 114.856 4.20186 127.315C3.34232 131.472 13.1217 132.47 14.3143 130.199C17.2686 117.084 27.0651 95.9535 27.0651 95.9535C28.8098 92.4012 39.9809 78.189 43.6922 68.453C45.1011 64.7576 45.5167 63.5451 44.8051 59.6683C44.1932 56.3523 42.642 53.5231 39.9268 51.406C37.0379 49.1513 34.5333 50.2786 32.1112 52.8274Z" fill="#B6B0BE"/>
<path fill-rule="evenodd" clip-rule="evenodd" d="M125.613 95.9149C124.637 95.1038 123.717 94.4274 122.832 93.8143C125.718 93.3798 127.648 93.916 128.741 92.368C129.39 91.4469 128.237 90.864 127.104 90.644C125.474 90.3278 123.649 90.4983 121.998 90.5203C120.402 90.5396 118.216 90.9795 116.855 90.0914C114.058 88.2657 108.454 95.486 110.622 97.1549C110.622 97.1549 112.302 98.4527 113.804 99.5553C115.259 100.617 115.788 101.045 116.463 101.56C123.117 106.61 132.825 98.4829 132.825 98.4829C132.825 98.4829 126.367 96.5445 125.613 95.9149Z" fill="#FCBE9F"/>
<path fill-rule="evenodd" clip-rule="evenodd" d="M144.193 91.4141L115.424 100.397L115.782 101.098C115.871 101.274 116.133 101.367 116.551 101.348L133.625 100.6C134.613 100.559 136.152 99.9045 137.069 99.1154L143.957 93.1902C144.483 92.7393 144.671 92.3543 144.549 92.1151L144.193 91.4141Z" fill="#322E2E"/>
<path fill-rule="evenodd" clip-rule="evenodd" d="M143.422 91.1635L126.351 91.9113C125.363 91.9553 123.821 92.6069 122.904 93.396L116.019 99.3213C115.103 100.11 115.208 100.691 116.196 100.649L133.267 99.8987C134.255 99.8575 135.797 99.2031 136.714 98.414L143.599 92.4887C144.515 91.7024 144.41 91.1195 143.422 91.1635Z" fill="#3D3838"/>
<path fill-rule="evenodd" clip-rule="evenodd" d="M125.946 92.4039L116.853 100.182L133.312 99.4564L142.442 91.645L125.946 92.4039Z" fill="#556BDF"/>
<defs>
<linearGradient id="paint0_linear_2_546" x1="25.2617" y1="258.221" x2="92.4318" y2="258.221" gradientUnits="userSpaceOnUse">
<stop stop-color="#D8D3D4"/>
<stop offset="1" stop-color="#D0CACC"/>
</linearGradient>
</defs>
</svg>
