<svg width="206" height="334" viewBox="0 0 206 334" fill="none" xmlns="http://www.w3.org/2000/svg">
<path fill-rule="evenodd" clip-rule="evenodd" d="M124.138 31.231L124.131 33.7668L151.234 47.2521L151.238 44.7132L124.138 31.231Z" fill="#574F5D"/>
<path fill-rule="evenodd" clip-rule="evenodd" d="M92.357 19.9449C89.2838 18.424 86.8013 19.6359 86.8013 22.6747L86.295 176.225C86.2844 179.206 88.7353 182.935 91.8156 184.459L182.275 229.454C185.337 230.978 187.813 229.705 187.816 226.73L188.323 73.1834C188.333 70.1415 185.879 66.4634 182.795 64.9486L92.357 19.9449Z" fill="#1D5A6E"/>
<path fill-rule="evenodd" clip-rule="evenodd" d="M189.494 74.9771C189.508 72.0989 187.166 68.6117 184.255 67.1665L98.5006 24.4988C95.5821 23.0567 93.2473 24.208 93.2262 27.0923L92.748 172.677C92.748 175.504 95.0688 179.045 97.9837 180.488L183.742 223.161C186.664 224.606 189.005 223.395 189.005 220.568L189.494 74.9771Z" fill="#176E8A"/>
<path fill-rule="evenodd" clip-rule="evenodd" d="M140.074 85.884C140.003 84.1753 140.07 82.4938 140.285 80.8668C141.146 74.2529 144.532 70.3203 149.353 70.3203C149.395 70.3203 149.438 70.3203 149.48 70.3234L149.923 71.4535C149.884 71.4504 149.845 71.4504 149.807 71.4504C145.292 71.4504 142.113 75.1952 141.29 81.4909C141.132 82.7119 141.058 83.9632 141.062 85.2327L140.074 85.884Z" fill="#CBE3E4"/>
<path fill-rule="evenodd" clip-rule="evenodd" d="M157.915 72.423L157.64 72.2866V72.0352L154.884 70.6626V70.9141L154.609 70.7777V69.8506L157.915 71.4958V72.423Z" fill="#CBE3E4"/>
<path fill-rule="evenodd" clip-rule="evenodd" d="M154.883 76.1283V70.6626L157.64 72.0351V74.3135L157.277 74.5498V72.3865L156.869 72.1835V74.8194L156.465 75.086L156.469 71.9836L156.057 71.7775V75.3557L155.653 75.6223V71.5776L155.245 71.3746V75.892L154.883 76.1283Z" fill="#CBE3E4"/>
<path fill-rule="evenodd" clip-rule="evenodd" d="M159.947 72.7924V72.5049L160.197 72.629L159.947 72.7924Z" fill="#CBE3E4"/>
<path fill-rule="evenodd" clip-rule="evenodd" d="M160.397 72.4956L153.195 68.9114L164.099 66.4331L166.026 68.7872L165.26 69.2932L164.099 67.8692L156.599 69.5749L161.29 71.9078L160.397 72.4956Z" fill="#CBE3E4"/>
<path fill-rule="evenodd" clip-rule="evenodd" d="M163.393 70.5237C163.383 70.451 163.383 70.3904 163.383 70.345V70.1238C163.383 69.8026 163.509 69.6784 163.703 69.6784C163.815 69.6784 163.949 69.7208 164.093 69.7874V69.4814L164.438 69.6541V69.8359L163.393 70.5237Z" fill="#CBE3E4"/>
<path fill-rule="evenodd" clip-rule="evenodd" d="M171.6 122.517C170.577 122.517 169.42 122.229 168.197 121.62C167.293 121.171 166.424 120.584 165.619 119.896L166.231 119.493C166.853 119.99 167.511 120.417 168.197 120.759C169.28 121.299 170.306 121.553 171.213 121.553C173.432 121.553 174.955 120.029 174.955 117.396C174.955 116.36 174.719 115.263 174.301 114.179L174.909 113.776C175.493 115.136 175.82 116.524 175.82 117.827C175.82 120.799 174.104 122.517 171.6 122.517Z" fill="#CBE3E4"/>
<path fill-rule="evenodd" clip-rule="evenodd" d="M170.931 120.85C170.108 120.85 169.177 120.62 168.196 120.129C167.672 119.872 167.169 119.553 166.684 119.193L167.812 118.451L168.667 118.875V118.048C169.05 118.239 169.437 118.375 169.771 118.375C170.309 118.375 170.703 118.014 170.703 116.954V116.548L173.843 114.476C174.152 115.357 174.321 116.242 174.321 117.081C174.321 119.469 172.942 120.85 170.931 120.85Z" fill="#CBE3E4"/>
<path fill-rule="evenodd" clip-rule="evenodd" d="M165.423 120.28L165.201 120.171L165.363 120.065C165.381 120.084 165.402 120.102 165.423 120.12V120.28Z" fill="#CBE3E4"/>
<path fill-rule="evenodd" clip-rule="evenodd" d="M176.751 132.89L159.17 124.144L162.335 122.059L176.751 129.233V132.89Z" fill="#CBE3E4"/>
<path fill-rule="evenodd" clip-rule="evenodd" d="M119.119 99.6877L97.0195 88.6291L97.1988 85.3843L122.119 97.7123L119.119 99.6877Z" fill="#CBE3E4"/>
<path fill-rule="evenodd" clip-rule="evenodd" d="M113.719 103.247L96.6934 94.7277L96.8727 91.4829L116.69 101.287L113.719 103.247Z" fill="#CBE3E4"/>
<path fill-rule="evenodd" clip-rule="evenodd" d="M108.87 86.9231L99.8821 82.4542L108.87 76.5342V86.9231ZM97.375 67.1572V64.3184L99.8293 65.5393L97.375 67.1572Z" fill="#CBE3E4"/>
<path fill-rule="evenodd" clip-rule="evenodd" d="M122.637 93.7737L111.143 88.0566V75.0379L120.851 68.6421L122.637 69.5298V93.7737Z" fill="#CBE3E4"/>
<path fill-rule="evenodd" clip-rule="evenodd" d="M125.749 95.322L124.908 94.9039V65.97L127.792 64.0703L136.403 68.3543V88.3052L125.749 95.322Z" fill="#CBE3E4"/>
<path fill-rule="evenodd" clip-rule="evenodd" d="M97.8533 57.5256L96.9004 56.0411L109.513 50.627L113.898 56.2743L112.987 56.8712L109.583 52.4872L97.8533 57.5256Z" fill="#CBE3E4"/>
<path fill-rule="evenodd" clip-rule="evenodd" d="M163.244 188.45L158.279 183.469L158.03 183.651L157.608 183.954L157.154 184.275L156.648 184.569C156.3 184.769 155.945 184.996 155.533 185.169C154.746 185.559 153.849 185.914 152.864 186.214L152.112 186.429L151.725 186.535L151.324 186.62C150.786 186.729 150.245 186.859 149.665 186.923L148.796 187.044L147.896 187.123L146.985 187.189L146.043 187.208C145.8 187.208 145.561 187.217 145.319 187.217C145.245 187.217 145.167 187.214 145.09 187.214C144.767 187.201 144.443 187.186 144.116 187.174C143.473 187.162 142.801 187.086 142.14 187.026C140.811 186.892 139.457 186.671 138.114 186.396L137.614 186.299L137.112 186.174C136.774 186.096 136.444 186.014 136.11 185.935L135.596 185.808L135.107 185.668C134.784 185.574 134.464 185.481 134.144 185.39L133.669 185.25L133.184 185.093C132.861 184.984 132.541 184.878 132.221 184.772C131.591 184.572 130.969 184.326 130.371 184.099L129.481 183.76L128.616 183.393C128.05 183.151 127.505 182.926 126.978 182.669C126.454 182.421 125.951 182.193 125.473 181.954C124.995 181.709 124.541 181.475 124.116 181.254C123.69 181.045 123.293 180.809 122.924 180.606C122.558 180.4 122.22 180.212 121.918 180.039C121.31 179.679 120.838 179.385 120.511 179.188C120.188 178.991 120.016 178.888 120.016 178.888C120.016 178.888 120.191 178.973 120.518 179.13C120.842 179.288 121.317 179.527 121.925 179.815C122.227 179.948 122.561 180.097 122.927 180.257C123.289 180.415 123.683 180.6 124.102 180.757C124.52 180.921 124.963 181.1 125.431 181.281C125.898 181.46 126.387 181.621 126.897 181.799C127.41 181.99 127.934 182.142 128.479 182.305L129.309 182.557L130.157 182.775C130.726 182.92 131.317 183.081 131.901 183.19L132.79 183.375L133.24 183.466L133.701 183.539L134.633 183.69L135.104 183.763H135.097H135.111L135.139 183.769L135.199 183.775L135.311 183.787L135.54 183.811L136.461 183.911L136.925 183.963L137.382 183.99C138.174 184.044 138.961 184.075 139.738 184.075C140.164 184.075 140.589 184.066 141.011 184.044C141.598 184.011 142.193 183.996 142.755 183.914L143.606 183.817L144.429 183.678L145.238 183.532L146.015 183.342L146.774 183.145L147.495 182.908C147.984 182.769 148.423 182.569 148.863 182.393L149.19 182.26L149.499 182.108L150.104 181.806C150.885 181.393 151.581 180.948 152.179 180.488L153.005 179.8L153.378 179.473L153.701 179.127L153.821 179L149 174.165L160.755 174.54L163.244 188.45Z" fill="#CBE3E4"/>
<path fill-rule="evenodd" clip-rule="evenodd" d="M163.833 209.567L99.0249 176.667L98.6698 164L99.686 163.33L99.9567 172.904L99.8548 173.053V175.991L100.045 176.088L100.048 176.14L163.844 208.531L164.026 209.146L163.833 209.567ZM97.2597 114.088L97.1367 109.665L97.6571 109.719L98.1845 110.158L98.2795 113.418L97.2597 114.088Z" fill="#CBE3E4"/>
<path fill-rule="evenodd" clip-rule="evenodd" d="M100.425 112.004L98.185 110.159L97.6576 109.719L97.1372 109.665L94.6934 109.407C95.8537 108.583 96.9227 106.877 97.5345 105.384C98.2166 107.402 99.3348 110.016 100.513 111.946L100.425 112.004Z" fill="#CBE3E4"/>
<path fill-rule="evenodd" clip-rule="evenodd" d="M162.914 211.557L163.832 209.567L164.025 209.146L163.842 208.531L162.974 205.631C164.338 207.516 166.543 209.764 168.326 211.327C167.57 211.221 166.736 211.161 165.921 211.161C164.799 211.161 163.716 211.276 162.914 211.557Z" fill="#CBE3E4"/>
<path fill-rule="evenodd" clip-rule="evenodd" d="M101.295 176.709L100.043 176.088L99.8535 175.991V173.053L99.9555 172.904L112.055 155.18L119.218 150.463L117.066 153.614C116.841 153.381 116.566 153.238 116.338 153.238C116.271 153.238 116.211 153.25 116.155 153.274C115.835 153.408 115.814 153.893 116.109 154.359L116.327 154.698L101.295 176.709ZM143.191 171.383L142.344 170.123L141.989 169.399C141.015 167.314 134.872 154.871 129.372 143.773L131.155 142.598C132.614 145.546 134.418 149.19 136.222 152.835C136.968 154.35 137.716 155.862 138.437 157.328L137.562 157.649C137.231 157.768 137.196 158.246 137.481 158.713L138.075 159.279L138.592 159.343L139.306 159.083C140.245 160.988 141.117 162.764 141.866 164.294C142.319 165.212 142.724 166.039 143.072 166.754C143.648 165.893 144.485 164.712 145.565 163.236C147.492 160.594 150.217 156.968 153.666 152.46C159.535 144.788 165.541 137.111 165.6 137.035C165.734 136.865 165.931 136.784 166.159 136.784C166.536 136.784 166.993 137.005 167.387 137.423C168.02 138.09 168.245 138.995 167.889 139.45C163.136 145.524 157.102 153.323 152.358 159.604L151.173 158.898C151.019 158.807 150.871 158.764 150.744 158.764C150.509 158.764 150.34 158.91 150.312 159.173C150.27 159.582 150.586 160.125 151.018 160.379L151.539 160.688C147.875 165.557 145.129 169.332 144.612 170.365C144.64 170.735 144.496 170.977 144.109 171.098L143.191 171.383ZM144.352 169.459L144.552 170.044L144.352 169.459Z" fill="#CBE3E4"/>
<path fill-rule="evenodd" clip-rule="evenodd" d="M144.554 170.043L144.354 169.459L144.554 170.043Z" fill="#CBE3E4"/>
<path fill-rule="evenodd" clip-rule="evenodd" d="M119.747 158.925L119.212 158.867L118.636 158.328L116.329 154.699L116.111 154.359C115.816 153.893 115.837 153.408 116.157 153.275C116.213 153.25 116.273 153.238 116.339 153.238C116.568 153.238 116.842 153.381 117.067 153.614C117.141 153.69 117.208 153.775 117.268 153.868L119.792 157.84C120.088 158.304 120.067 158.792 119.747 158.925Z" fill="#CBE3E4"/>
<path fill-rule="evenodd" clip-rule="evenodd" d="M122.925 165.075L121.159 162.3C120.864 161.836 120.882 161.348 121.202 161.215C121.258 161.191 121.321 161.179 121.384 161.179C121.69 161.179 122.07 161.427 122.316 161.812L123.044 162.957L123.856 162.66C123.906 162.642 123.962 162.633 124.018 162.633C124.335 162.633 124.725 162.897 124.964 163.291C125.249 163.76 125.214 164.236 124.887 164.357L122.925 165.075Z" fill="#CBE3E4"/>
<path fill-rule="evenodd" clip-rule="evenodd" d="M127.63 163.354L127.113 163.291L126.519 162.724C126.234 162.258 126.269 161.779 126.596 161.658L129.339 160.658C129.388 160.637 129.444 160.628 129.504 160.628C129.817 160.628 130.207 160.891 130.45 161.288C130.735 161.755 130.7 162.233 130.369 162.352L127.63 163.354ZM133.112 161.349L132.595 161.285L132.001 160.719C131.716 160.252 131.751 159.773 132.078 159.655L134.821 158.649C134.873 158.631 134.926 158.622 134.986 158.622C135.299 158.622 135.689 158.886 135.932 159.282C136.217 159.749 136.182 160.228 135.851 160.346L133.112 161.349ZM138.594 159.343L138.077 159.279L137.483 158.713C137.198 158.246 137.233 157.768 137.563 157.649L138.439 157.328L140.303 156.647C140.355 156.625 140.412 156.616 140.468 156.616C140.781 156.616 141.175 156.88 141.414 157.277C141.699 157.743 141.663 158.222 141.336 158.34L139.307 159.082L138.594 159.343Z" fill="#CBE3E4"/>
<path fill-rule="evenodd" clip-rule="evenodd" d="M147.126 157.947C146.996 157.947 146.852 157.901 146.697 157.81L145.206 156.925L144.074 157.338L143.56 157.274L142.966 156.707C142.681 156.241 142.716 155.762 143.043 155.644L144.686 155.041L146.852 156.329C147.284 156.586 147.601 157.125 147.558 157.537C147.53 157.801 147.358 157.947 147.126 157.947Z" fill="#CBE3E4"/>
<path fill-rule="evenodd" clip-rule="evenodd" d="M164.409 168.223C164.304 168.223 164.184 168.193 164.061 168.133L163.984 168.09L159.662 165.521C159.23 165.263 158.913 164.721 158.955 164.312C158.983 164.048 159.152 163.903 159.384 163.903C159.514 163.903 159.662 163.945 159.813 164.036L164.135 166.605C164.567 166.863 164.884 167.405 164.841 167.814C164.813 168.078 164.645 168.223 164.409 168.223ZM155.77 163.085C155.661 163.085 155.545 163.055 155.418 162.991L155.341 162.952L151.54 160.689L151.019 160.379C150.587 160.125 150.27 159.583 150.312 159.174C150.34 158.91 150.509 158.765 150.745 158.765C150.871 158.765 151.019 158.807 151.174 158.898L152.359 159.604L155.492 161.467C155.928 161.725 156.241 162.267 156.202 162.676C156.174 162.94 156.002 163.085 155.77 163.085Z" fill="#CBE3E4"/>
<path fill-rule="evenodd" clip-rule="evenodd" d="M170.559 171.88C170.453 171.88 170.334 171.85 170.207 171.786L170.13 171.744L168.301 170.659C167.872 170.401 167.552 169.859 167.598 169.45C167.623 169.187 167.792 169.038 168.027 169.038C168.154 169.038 168.301 169.084 168.456 169.174L170.285 170.262C170.717 170.52 171.033 171.059 170.991 171.471C170.963 171.735 170.791 171.88 170.559 171.88Z" fill="#CBE3E4"/>
<path fill-rule="evenodd" clip-rule="evenodd" d="M151.238 44.7131L124.149 31.2308L124.131 33.7667L151.234 47.252L151.238 44.7131ZM129.026 217.738C129.008 219.322 130.316 221.216 131.86 221.979L142.25 227.151C143.85 227.942 145.151 227.357 145.162 225.77L145.197 215.487C145.208 213.908 143.892 212.009 142.3 211.215L131.913 206.049C130.372 205.283 129.057 205.87 129.047 207.461L129.026 217.738ZM89.0354 173.74C89.0354 176.567 91.3526 180.109 94.2711 181.548L180.025 224.221C182.947 225.667 185.293 224.455 185.293 221.631L185.782 76.0375C185.792 73.1592 183.454 69.6751 180.542 68.2299L94.7845 25.5592C91.8695 24.12 89.5347 25.2713 89.5136 28.1526L89.0354 173.74ZM180.324 50.406C187.519 53.9901 193.429 62.8097 193.405 69.9265L192.832 245.063C192.8 252.243 186.84 255.113 179.656 251.537L94.4645 209.155C87.221 205.543 81.3629 196.802 81.377 189.631L81.9607 14.4886C81.9747 7.3687 87.882 4.41473 95.129 8.02011L180.324 50.406Z" fill="#D0CBBF"/>
<path fill-rule="evenodd" clip-rule="evenodd" d="M98.3956 0.939622C99.89 0.200368 101.715 -0.0147424 103.751 0.348825C105.01 0.576055 106.346 1.02747 107.714 1.71522L192.912 44.0981C195.205 45.2313 197.35 46.8976 199.238 48.876C203.275 53.1116 206.021 58.7621 206 63.6187L205.43 238.758C205.406 242.312 203.943 244.818 201.584 245.993L188.985 252.304C191.337 251.123 192.8 248.617 192.832 245.063L193.405 69.9266C193.419 65.07 190.676 59.4195 186.639 55.1839C184.762 53.2146 182.606 51.5392 180.324 50.406L95.1185 8.02012C93.7366 7.3354 92.4109 6.88999 91.1627 6.6567C89.1162 6.28405 87.2807 6.50827 85.7969 7.24752L98.3956 0.939622Z" fill="#F4EFE1"/>
<path fill-rule="evenodd" clip-rule="evenodd" d="M89.3121 89.4167L89.3649 72.4319L93.0851 69.9839L93.0288 86.9687L89.3086 89.4167" fill="#367888"/>
<path fill-rule="evenodd" clip-rule="evenodd" d="M93.0293 86.9691L93.0856 69.9845L97.3754 67.1577V81.2096L99.8825 82.4548L93.0293 86.9691ZM108.87 76.5347V70.036L99.8297 65.5399L112.988 56.8718L117.516 62.704L131.441 56.8142L132.854 59.035L134.497 54.5753L129.081 53.1028L130.495 55.3266L117.45 60.8498L113.898 56.2749L132.236 44.1924L146.891 51.488L127.791 64.0704L124.908 62.6374V65.9701L120.85 68.6423L111.142 63.8129V75.038L108.87 76.5347Z" fill="#36889C"/>
<path fill-rule="evenodd" clip-rule="evenodd" d="M99.8821 82.4546L97.375 81.2094V67.1574L99.8293 65.5396L108.87 70.0357V76.5345L99.8821 82.4546Z" fill="#D5E8EA"/>
<path fill-rule="evenodd" clip-rule="evenodd" d="M111.143 75.0377V63.8125L120.851 68.6419L111.143 75.0377Z" fill="#D5E8EA"/>
<path fill-rule="evenodd" clip-rule="evenodd" d="M124.908 65.97V62.6372L127.792 64.0703L124.908 65.97Z" fill="#D5E8EA"/>
<path fill-rule="evenodd" clip-rule="evenodd" d="M117.517 62.7035L112.988 56.8713L113.899 56.2744L117.45 60.8493L130.496 55.3262L131.442 56.8137L117.517 62.7035Z" fill="#D5E8EA"/>
<path fill-rule="evenodd" clip-rule="evenodd" d="M132.855 59.0348L131.441 56.814L129.082 53.1025L134.497 54.575L132.855 59.0348Z" fill="#D5E8EA"/>
<path fill-rule="evenodd" clip-rule="evenodd" d="M89.3086 89.4172L89.3438 79.6705L89.3121 89.4172H89.3086ZM146.891 51.488L132.235 44.1924L146.891 51.488Z" fill="#D9D5CA"/>
<path fill-rule="evenodd" clip-rule="evenodd" d="M89.0449 170.338L89.2137 119.39L92.9304 116.939L92.7651 167.89L89.0449 170.338Z" fill="#367888"/>
<path fill-rule="evenodd" clip-rule="evenodd" d="M92.7656 258.782L92.9309 207.831L97.2594 204.98L98.6694 254.892L92.7656 258.782ZM99.6856 254.222L98.2791 204.31L100.424 202.896L100.681 203.108C100.624 203.02 100.568 202.929 100.512 202.838L113.719 194.14L138.044 206.31L138.396 202.92L116.69 192.179L119.12 190.58L138.371 200.211L138.727 196.821L122.119 188.604L125.748 186.214L136.402 191.513V179.197L140.073 176.776C140.207 179.855 140.798 183.021 141.831 186.138C143.03 189.747 144.852 193.334 147.12 196.573L145.917 197.594L150.953 200.663L148.924 195.033L147.728 196.054C145.608 193.007 143.906 189.631 142.777 186.235C141.659 182.869 141.082 179.433 141.061 176.125L154.884 167.021L154.88 171.911L154.609 171.777V172.704L157.915 174.346V173.419L157.64 173.283V165.206L159.947 163.685V164.327L160.221 164.463L160.218 174.568L159.947 174.431V175.358L163.252 177.004V176.076L162.978 175.94V165.836L163.252 165.969V165.042L160.197 163.521L160.397 163.388L175 170.656L166.027 159.68L172.757 155.247L180.542 159.122C183.453 160.567 185.792 164.051 185.781 166.93L185.679 197.575L174.909 204.668C173.622 201.65 171.097 198.781 168.196 197.339C166.973 196.73 165.816 196.442 164.789 196.442C162.289 196.442 160.57 198.16 160.57 201.132C160.57 204.423 162.676 208.273 165.619 210.788L165.362 210.958C164.378 210.097 163.492 209.094 162.739 208.016L152.718 203.029V204.853L165.2 211.064L162.335 212.951L147.661 205.653V209.31L159.17 215.036L131.156 233.49C129.282 229.709 127.977 227.079 127.977 227.079L126.736 224.576L112.056 246.072L99.6856 254.222ZM111.289 236.189C111.226 236.189 111.163 236.198 111.106 236.223C110.786 236.359 110.769 236.844 111.064 237.307L113.589 241.279L114.166 241.819L114.7 241.876C115.02 241.74 115.038 241.255 114.742 240.791L112.218 236.819C111.975 236.438 111.595 236.189 111.289 236.189ZM106.243 228.245C106.177 228.245 106.117 228.257 106.061 228.282C105.741 228.418 105.72 228.903 106.015 229.366L108.54 233.338L109.116 233.878L109.654 233.935C109.971 233.799 109.992 233.314 109.696 232.848L107.172 228.879C106.929 228.497 106.549 228.245 106.243 228.245ZM101.194 220.304C101.131 220.304 101.068 220.317 101.011 220.341C100.695 220.474 100.674 220.962 100.969 221.425L103.494 225.394L104.07 225.934L104.605 225.991C104.925 225.858 104.942 225.373 104.647 224.907L102.126 220.938C101.88 220.553 101.5 220.304 101.194 220.304ZM128.294 206.698V213.315L134.943 216.62V210.006L128.294 206.698ZM117.706 201.429V208.046L124.356 211.355V204.738L117.706 201.429ZM154.216 201.699V203.523L162.479 207.634C161.955 206.834 161.505 205.995 161.15 205.15L154.216 201.699ZM152.718 198.875V200.699L161.02 204.832C160.742 204.12 160.534 203.405 160.401 202.699L152.718 198.875ZM153.632 197.254V199.078L160.355 202.423C160.278 201.944 160.235 201.469 160.235 201.008L160.25 200.548L153.632 197.254ZM153.094 194.912V196.733L160.271 200.302C160.327 199.699 160.461 199.154 160.657 198.672L153.094 194.912ZM153.094 192.834V194.658L160.749 198.463C160.995 197.933 161.329 197.488 161.733 197.13L153.094 192.834ZM152.718 190.568V192.392L161.923 196.972C162.489 196.536 163.175 196.257 163.949 196.158L152.718 190.568ZM164.638 196.112C164.891 196.112 165.155 196.127 165.422 196.164V194.812L152.718 188.492V190.316L164.381 196.118C164.465 196.112 164.55 196.112 164.638 196.112ZM152.718 186.414V188.238L165.422 194.558V192.734L152.718 186.414ZM149.553 176.328V179.985L178.643 194.455V190.798L149.553 176.328ZM151.361 173.513V174.359L176.836 187.029V186.187L151.361 173.513ZM152.363 172.926V173.768L175.834 185.444V184.599L152.363 172.926ZM153.196 172.25V173.095L175 183.942V183.096L153.196 172.25ZM170.623 179.742V180.673L173.928 182.315V181.388L173.654 181.251V171.147L173.928 171.283V170.353L170.623 168.711V169.638L170.897 169.775V179.879L170.623 179.742ZM165.285 177.088V178.015L168.59 179.661V178.731L168.316 178.597V168.49L168.59 168.626V167.699L165.285 166.054V166.981L165.559 167.118V177.225L165.285 177.088ZM166.231 210.385C163.456 208.167 161.435 204.598 161.435 201.563C161.435 198.927 162.957 197.403 165.176 197.403C166.083 197.403 167.11 197.66 168.196 198.2C170.886 199.539 173.214 202.262 174.301 205.071L173.843 205.368C172.915 202.714 170.735 200.093 168.196 198.827C167.212 198.339 166.28 198.106 165.457 198.106C163.446 198.106 162.067 199.487 162.067 201.878C162.067 204.726 164.03 208.095 166.684 210.085L166.231 210.385ZM167.813 209.343L167.7 209.285V208.446C166.874 208.01 166.579 207.786 165.921 207.252V205.974C166.326 206.204 167.324 206.771 168.267 207.237C168.467 207.337 168.65 207.407 168.787 207.407C168.942 207.407 169.04 207.319 169.04 207.086V206.795C169.04 206.431 168.928 206.159 168.428 205.91L167.644 205.519C165.826 204.616 165.686 203.065 165.686 202.511V201.884C165.689 200.975 166.048 200.629 166.589 200.629C166.909 200.629 167.289 200.748 167.7 200.938V200.072L168.668 200.554V201.429C169.381 201.82 169.926 202.202 170.429 202.608V203.895C169.817 203.538 168.727 202.95 168.224 202.699C167.943 202.556 167.729 202.459 167.584 202.459C167.426 202.459 167.349 202.571 167.349 202.862V203.111C167.349 203.547 167.532 203.811 168.07 204.077L168.882 204.483C170.39 205.232 170.703 206.613 170.703 207.425V207.44L167.813 209.343ZM173.291 180.712L172.88 180.506L172.884 171.041L173.295 171.247L173.291 180.712ZM172.479 180.306L172.068 180.103L172.071 170.638L172.479 170.841V180.306ZM171.667 179.903L171.255 179.697L171.259 170.232L171.67 170.438L171.667 179.903ZM167.954 178.055L167.542 177.849L167.546 168.387L167.954 168.59V178.055ZM167.141 177.652L166.73 177.446L166.734 167.981L167.141 168.187V177.652ZM166.329 177.246L165.918 177.043L165.921 167.578L166.329 167.781V177.246ZM162.616 175.398L162.205 175.195L162.208 165.73L162.616 165.936V175.398ZM161.804 174.995L161.392 174.792L161.396 165.327L161.807 165.53L161.804 174.995ZM160.991 174.592L160.58 174.386L160.584 164.921L160.995 165.127L160.991 174.592ZM157.278 172.744L156.867 172.538L156.87 165.712L157.278 165.442V172.744ZM156.466 172.338L156.058 172.135V166.248L156.466 165.978V172.338ZM155.654 171.935L155.242 171.732L155.246 166.784L155.654 166.515V171.935ZM171.596 167.933L161.29 162.8L163.393 161.416C163.432 161.667 163.572 162.055 164.075 162.303L164.353 162.443L164.567 162.755V162.858L164.293 162.912C163.959 162.746 163.608 162.546 163.463 162.464V162.915L164.093 163.339V163.636L164.437 163.806V163.515C164.571 163.582 164.708 163.63 164.828 163.63C165.018 163.63 165.158 163.503 165.158 163.127V162.979C165.158 162.691 165.046 162.2 164.511 161.937L164.223 161.791L163.97 161.449V161.361L164.279 161.303L165.06 161.728V161.27L164.437 160.855V160.728L165.26 160.186L171.596 167.933Z" fill="#36889C"/>
<path fill-rule="evenodd" clip-rule="evenodd" d="M147.119 196.572C144.851 193.333 143.029 189.746 141.83 186.138C140.797 183.02 140.206 179.854 140.072 176.776L141.06 176.125C141.081 179.433 141.658 182.869 142.776 186.235C143.905 189.631 145.607 193.006 147.727 196.054L147.119 196.572Z" fill="#D5E8EA"/>
<path fill-rule="evenodd" clip-rule="evenodd" d="M150.953 200.662L145.918 197.593L147.121 196.572L147.729 196.054L148.924 195.033L150.953 200.662Z" fill="#D5E8EA"/>
<path fill-rule="evenodd" clip-rule="evenodd" d="M157.915 83.4541L154.609 81.8119V80.8848L154.88 81.0181V81.1575L157.64 82.53V82.3906L157.915 82.527V83.4541Z" fill="#D5E8EA"/>
<path fill-rule="evenodd" clip-rule="evenodd" d="M157.641 82.53L154.881 81.1576V81.0182L154.884 76.1283L155.247 75.8919L155.243 80.8395L155.654 81.0424V75.6223L156.059 75.3557V81.2424L156.467 81.4454V75.086L156.871 74.8194L156.868 81.6454L157.279 81.8514V74.5498L157.641 74.3135V82.53Z" fill="#D5E8EA"/>
<path fill-rule="evenodd" clip-rule="evenodd" d="M163.253 75.0774L162.978 74.9441V74.6896L160.222 73.3171V73.5716L159.947 73.4353V72.793L160.197 72.6294L163.253 74.1503V75.0774Z" fill="#D5E8EA"/>
<path fill-rule="evenodd" clip-rule="evenodd" d="M163.253 86.1112L159.947 84.4661V83.5391L160.218 83.6754V83.8117L162.978 85.1841V85.0478L163.253 85.1841V86.1112Z" fill="#D5E8EA"/>
<path fill-rule="evenodd" clip-rule="evenodd" d="M162.979 85.1844L160.219 83.812V83.6756L160.222 73.5714V73.3169L162.979 74.6894V85.1844ZM162.209 74.8379L162.205 84.3028L162.617 84.5058V75.0439L162.209 74.8379ZM161.397 74.4349L161.393 83.8998L161.805 84.1028L161.808 74.6379L161.397 74.4349ZM160.584 74.0289L160.581 83.4939L160.992 83.6999L160.996 74.2349L160.584 74.0289Z" fill="#D5E8EA"/>
<path fill-rule="evenodd" clip-rule="evenodd" d="M168.59 77.7343L168.316 77.5979V77.3464L165.559 75.9741V76.2255L165.285 76.0892V75.1621L168.59 76.8072V77.7343Z" fill="#D5E8EA"/>
<path fill-rule="evenodd" clip-rule="evenodd" d="M168.59 88.7686L165.285 87.1234V86.1963L165.559 86.3326V86.469L168.316 87.8414V87.7051L168.59 87.8384V88.7686Z" fill="#D5E8EA"/>
<path fill-rule="evenodd" clip-rule="evenodd" d="M168.315 87.8416L165.559 86.4691V75.9741L168.315 77.3466V87.8416ZM167.545 77.495L167.542 86.9569L167.953 87.1629V77.698L167.545 77.495ZM166.733 77.0891L166.73 86.5539L167.141 86.76V77.2951L166.733 77.0891ZM165.921 76.6861L165.917 86.151L166.329 86.354V76.8891L165.921 76.6861Z" fill="#D5E8EA"/>
<path fill-rule="evenodd" clip-rule="evenodd" d="M173.928 80.3915L173.654 80.2552V80.0007L170.897 78.6282V78.8827L170.623 78.7464V77.8193L173.928 79.4614V80.3915Z" fill="#D5E8EA"/>
<path fill-rule="evenodd" clip-rule="evenodd" d="M173.928 91.4224L170.623 89.7802V88.8501L170.897 88.9864V89.1258L173.654 90.4983V90.3589L173.928 90.4953V91.4224Z" fill="#D5E8EA"/>
<path fill-rule="evenodd" clip-rule="evenodd" d="M173.653 90.4984L170.896 89.1259V78.6279L173.653 80.0004V90.4984ZM172.883 80.1489L172.88 89.6138L173.291 89.8198L173.294 80.3549L172.883 80.1489ZM172.071 79.7459L172.067 89.2108L172.479 89.4138V79.9489L172.071 79.7459ZM171.259 79.3399L171.255 88.8048L171.667 89.0108L171.67 79.5459L171.259 79.3399Z" fill="#D5E8EA"/>
<path fill-rule="evenodd" clip-rule="evenodd" d="M175 79.7643L160.396 72.496L161.29 71.9082L171.596 77.0406L165.259 69.2936L166.026 68.7876L175 79.7643Z" fill="#D5E8EA"/>
<path fill-rule="evenodd" clip-rule="evenodd" d="M164.437 72.9141L164.092 72.7444V72.4475L163.463 72.0234V71.5719C163.607 71.6537 163.959 71.8537 164.293 72.0203L164.567 71.9658V71.8628L164.352 71.5507L164.075 71.4113C163.572 71.1629 163.431 70.7751 163.393 70.5236L164.437 69.8359V69.9632L165.059 70.3783V70.8357L164.279 70.4115L163.969 70.4691V70.557L164.222 70.8993L164.511 71.0447C165.045 71.3083 165.158 71.7992 165.158 72.087V72.2354C165.158 72.6111 165.017 72.7383 164.827 72.7383C164.708 72.7383 164.571 72.6899 164.437 72.6232V72.9141Z" fill="#D5E8EA"/>
<path fill-rule="evenodd" clip-rule="evenodd" d="M175 93.0497L153.195 82.2032V81.3579L175 92.2044V93.0497Z" fill="#D5E8EA"/>
<path fill-rule="evenodd" clip-rule="evenodd" d="M175.834 94.552L152.363 82.8755V82.0332L175.834 93.7067V94.552Z" fill="#D5E8EA"/>
<path fill-rule="evenodd" clip-rule="evenodd" d="M176.837 96.1368L151.361 83.4664V82.6211L176.837 95.2946V96.1368Z" fill="#D5E8EA"/>
<path fill-rule="evenodd" clip-rule="evenodd" d="M165.62 119.896C162.677 117.381 160.57 113.531 160.57 110.24C160.57 107.268 162.29 105.55 164.79 105.55C165.817 105.55 166.973 105.838 168.197 106.447C171.098 107.889 173.623 110.758 174.91 113.776L174.301 114.179C173.215 111.37 170.887 108.647 168.197 107.308C167.111 106.768 166.084 106.511 165.177 106.511C162.958 106.511 161.435 108.035 161.435 110.671C161.435 113.706 163.457 117.275 166.231 119.493L165.62 119.896Z" fill="#D5E8EA"/>
<path fill-rule="evenodd" clip-rule="evenodd" d="M166.683 119.193C164.029 117.202 162.066 113.833 162.066 110.985C162.066 108.595 163.445 107.213 165.456 107.213C166.279 107.213 167.211 107.447 168.195 107.934C170.734 109.201 172.914 111.822 173.842 114.476L170.702 116.548V116.533C170.702 115.721 170.389 114.339 168.881 113.591L168.069 113.185C167.531 112.918 167.348 112.655 167.348 112.218V111.97C167.348 111.679 167.425 111.567 167.583 111.567C167.728 111.567 167.942 111.664 168.223 111.806C168.726 112.058 169.816 112.646 170.428 113.003V111.716C169.925 111.31 169.38 110.928 168.666 110.537V109.661L167.699 109.18V110.046C167.288 109.855 166.908 109.737 166.588 109.737C166.047 109.737 165.688 110.083 165.685 110.991V111.619C165.685 112.173 165.825 113.724 167.643 114.627L168.427 115.018C168.927 115.266 169.039 115.539 169.039 115.903V116.193C169.039 116.427 168.941 116.515 168.786 116.515C168.649 116.515 168.466 116.445 168.266 116.345C167.323 115.878 166.325 115.312 165.92 115.082V116.36C166.578 116.893 166.873 117.118 167.699 117.554V118.393L167.812 118.451L166.683 119.193Z" fill="#D5E8EA"/>
<path fill-rule="evenodd" clip-rule="evenodd" d="M161.924 106.08L152.719 101.5V99.6758L163.95 105.265C163.176 105.365 162.49 105.644 161.924 106.08Z" fill="#D5E8EA"/>
<path fill-rule="evenodd" clip-rule="evenodd" d="M165.201 120.172L152.719 113.961V112.137L162.74 117.124C163.493 118.202 164.379 119.205 165.363 120.066L165.201 120.172Z" fill="#D5E8EA"/>
<path fill-rule="evenodd" clip-rule="evenodd" d="M160.749 107.571L153.094 103.766V101.942L161.733 106.238C161.329 106.596 160.995 107.041 160.749 107.571Z" fill="#D5E8EA"/>
<path fill-rule="evenodd" clip-rule="evenodd" d="M160.356 111.531L153.633 108.186V106.362L160.25 109.656L160.236 110.116C160.236 110.577 160.278 111.052 160.356 111.531Z" fill="#D5E8EA"/>
<path fill-rule="evenodd" clip-rule="evenodd" d="M160.27 109.41L153.094 105.841V104.02L160.657 107.78C160.46 108.262 160.327 108.807 160.27 109.41Z" fill="#D5E8EA"/>
<path fill-rule="evenodd" clip-rule="evenodd" d="M161.021 113.939L152.719 109.807V107.983L160.402 111.806C160.535 112.512 160.743 113.227 161.021 113.939Z" fill="#D5E8EA"/>
<path fill-rule="evenodd" clip-rule="evenodd" d="M162.48 116.742L154.217 112.631V110.807L161.151 114.257C161.506 115.103 161.956 115.942 162.48 116.742Z" fill="#D5E8EA"/>
<path fill-rule="evenodd" clip-rule="evenodd" d="M165.423 105.271C165.156 105.235 164.892 105.22 164.639 105.22C164.551 105.22 164.467 105.22 164.382 105.226L152.719 99.424V97.6001L165.423 103.92V105.271Z" fill="#D5E8EA"/>
<path fill-rule="evenodd" clip-rule="evenodd" d="M165.423 103.666L152.719 97.3458V95.522L165.423 101.842V103.666Z" fill="#D5E8EA"/>
<path fill-rule="evenodd" clip-rule="evenodd" d="M178.643 103.562L149.553 89.0924V85.4355L178.643 99.9056V103.562Z" fill="#D5E8EA"/>
<path fill-rule="evenodd" clip-rule="evenodd" d="M159.171 124.144L147.662 118.418V114.761L162.336 122.059L159.171 124.144Z" fill="#D5E8EA"/>
<path fill-rule="evenodd" clip-rule="evenodd" d="M138.371 109.319L119.119 99.6878L122.118 97.7124L138.726 105.929L138.371 109.319Z" fill="#D5E8EA"/>
<path fill-rule="evenodd" clip-rule="evenodd" d="M138.044 115.418L113.719 103.248L116.69 101.288L138.396 112.028L138.044 115.418Z" fill="#D5E8EA"/>
<path fill-rule="evenodd" clip-rule="evenodd" d="M136.402 100.621L125.748 95.3216L136.402 88.3047V100.621Z" fill="#D5E8EA"/>
<path fill-rule="evenodd" clip-rule="evenodd" d="M119.219 150.463L127.025 139.032C127.781 140.559 128.572 142.152 129.374 143.773L119.219 150.463Z" fill="#36889C"/>
<path fill-rule="evenodd" clip-rule="evenodd" d="M124.356 120.463L117.707 117.154V110.537L124.356 113.846V120.463Z" fill="#D5E8EA"/>
<path fill-rule="evenodd" clip-rule="evenodd" d="M134.942 125.728L128.293 122.423V115.806L134.942 119.114V125.728Z" fill="#D5E8EA"/>
<path fill-rule="evenodd" clip-rule="evenodd" d="M98.6698 164L97.2598 114.088L98.2795 113.418L99.686 163.33L98.6698 164Z" fill="#D5E8EA"/>
<path fill-rule="evenodd" clip-rule="evenodd" d="M100.681 112.215L100.424 112.003L100.512 111.946C100.568 112.037 100.624 112.127 100.681 112.215Z" fill="#D5E8EA"/>
<path fill-rule="evenodd" clip-rule="evenodd" d="M112.057 155.18L126.737 133.684L127.978 136.187C127.978 136.187 129.283 138.816 131.157 142.598L129.374 143.773C128.572 142.152 127.781 140.559 127.025 139.032L119.219 150.463L112.057 155.18Z" fill="#D5E8EA"/>
<path fill-rule="evenodd" clip-rule="evenodd" d="M114.7 150.984L114.165 150.926L113.589 150.387L111.064 146.415C110.769 145.951 110.786 145.467 111.106 145.33C111.162 145.306 111.226 145.297 111.289 145.297C111.595 145.297 111.975 145.545 112.217 145.927L114.742 149.899C115.037 150.363 115.02 150.847 114.7 150.984ZM109.654 143.043L109.116 142.985L108.539 142.446L106.015 138.474C105.719 138.01 105.74 137.526 106.06 137.389C106.117 137.365 106.176 137.353 106.243 137.353C106.549 137.353 106.929 137.604 107.171 137.986L109.696 141.955C109.991 142.422 109.97 142.907 109.654 143.043ZM104.605 135.099L104.07 135.041L103.493 134.502L100.969 130.533C100.673 130.07 100.694 129.582 101.011 129.448C101.067 129.424 101.13 129.412 101.194 129.412C101.5 129.412 101.879 129.661 102.126 130.045L104.647 134.014C104.942 134.481 104.924 134.966 104.605 135.099Z" fill="#D5E8EA"/>
<path fill-rule="evenodd" clip-rule="evenodd" d="M185.68 106.683L185.782 76.0376C185.793 73.1594 183.454 69.6752 180.543 68.23L172.758 64.355L180.543 68.227C183.454 69.6752 185.793 73.1594 185.782 76.0376L185.68 106.68" fill="#D9D5CA"/>
<path fill-rule="evenodd" clip-rule="evenodd" d="M197.87 82.7214L204.73 79.3251V74.0957L197.855 77.4921L197.87 82.7214Z" fill="#F9F4E8"/>
<path fill-rule="evenodd" clip-rule="evenodd" d="M197.856 77.4919L204.73 74.0956L202.346 72.917L195.482 76.3194L197.856 77.4919Z" fill="#FEFBF6"/>
<path fill-rule="evenodd" clip-rule="evenodd" d="M195.482 76.3193L195.493 81.5487L197.87 82.7212L197.856 77.4918L195.482 76.3193Z" fill="#D0CBBF"/>
<path fill-rule="evenodd" clip-rule="evenodd" d="M197.87 94.2825L204.73 90.8861V85.6567L197.855 89.0531L197.87 94.2825Z" fill="#F9F4E8"/>
<path fill-rule="evenodd" clip-rule="evenodd" d="M197.856 89.0531L204.73 85.6567L202.346 84.4751L195.482 87.8806L197.856 89.0531Z" fill="#FEFBF6"/>
<path fill-rule="evenodd" clip-rule="evenodd" d="M195.482 87.8809L195.493 93.1102L197.87 94.2827L197.856 89.0533L195.482 87.8809Z" fill="#D0CBBF"/>
<path fill-rule="evenodd" clip-rule="evenodd" d="M126.008 14.1823C125.962 14.7882 125.47 15.3911 124.58 15.8334C122.615 16.8029 119.457 16.8029 117.491 15.8334C117.024 15.6123 116.676 15.3305 116.44 15.0487C115.666 14.1217 116.018 13.0522 117.491 12.3069C119.457 11.3404 122.615 11.3404 124.58 12.3069C125.61 12.8128 126.103 13.4976 126.008 14.1823Z" fill="#574F5D"/>
<path fill-rule="evenodd" clip-rule="evenodd" d="M126.009 14.1825C125.963 14.7884 125.471 15.3913 124.582 15.8337C122.616 16.8032 119.458 16.8032 117.493 15.8337C117.025 15.6125 116.677 15.3307 116.441 15.049C116.466 14.4643 116.955 13.8583 117.89 13.3948C119.835 12.4283 123.017 12.4283 124.954 13.3948C125.425 13.619 125.774 13.9008 126.009 14.1825Z" fill="#1B1B1D"/>
<path fill-rule="evenodd" clip-rule="evenodd" d="M115.618 10.6684C115.442 10.9956 115.055 11.3289 114.528 11.6046C112.78 12.5196 109.854 12.4953 108.068 11.5742L101.176 8.08399C100.702 7.83555 100.339 7.54167 100.139 7.22355C99.5483 6.39339 99.8894 5.45719 101.201 4.7967C102.973 3.90292 105.849 3.90595 107.685 4.8482L114.506 8.38088C115.769 9.01107 116.152 9.88971 115.618 10.6684Z" fill="#574F5D"/>
<path fill-rule="evenodd" clip-rule="evenodd" d="M115.617 10.668C115.441 10.9952 115.055 11.3285 114.527 11.6042C112.78 12.5192 109.854 12.4949 108.068 11.5739L101.176 8.08372C100.701 7.83529 100.339 7.54142 100.139 7.2233C100.314 6.85671 100.701 6.52342 101.25 6.24772C103.022 5.35396 105.898 5.35701 107.737 6.29622L114.555 9.82883C115.058 10.0803 115.417 10.3529 115.617 10.668Z" fill="#1B1B1D"/>
<path fill-rule="evenodd" clip-rule="evenodd" d="M26.608 203.523C25.7922 202.344 25.4336 200.963 24.6038 199.802L23.3098 198.478C23.3098 198.478 20.8836 182.075 19.9307 175.192L20.4511 169.102L8.08789 167.86L8.22503 175.071C8.21448 178.552 16.6641 198.336 16.6641 198.336C16.6957 198.981 16.759 199.587 16.8258 200.042C16.9735 200.835 17.0719 201.478 17.1634 202.296C17.2056 202.962 17.4587 204.004 17.6627 204.65C18.2147 206.183 18.5453 207.092 19.0797 208.646L19.5369 209.328L19.9236 209.203L19.9166 209.167C20.2014 208.491 19.899 206.41 20.0537 205.595C20.2295 206.986 20.5003 208.222 20.9328 209.558C21.0558 209.879 21.3512 210.491 21.9033 210.255C22.3674 210.085 22.3358 209.488 22.2795 209.179C22.2127 208.497 22.1318 207.837 22.051 207.177C22.2268 208.231 22.4764 209.24 22.9019 210.206L23.475 210.533C24.3576 210.412 24.013 208.461 23.9005 207.964C23.6614 206.901 23.3836 205.843 23.141 204.744C23.4786 206.025 23.9321 207.252 24.4666 208.47C24.6002 208.734 24.8218 209.27 25.2613 209.209C26.1579 209.067 25.198 205.877 25.0397 205.262C24.8991 204.713 24.7409 204.186 24.6214 203.656C25.1629 204.695 25.8942 205.974 27.4097 205.516L27.7051 205.334C27.8282 204.895 26.8541 203.862 26.608 203.523Z" fill="#F8D2B8"/>
<path fill-rule="evenodd" clip-rule="evenodd" d="M10.7837 171.905C12.8126 172.701 14.7676 172.801 16.9723 172.553C18.632 172.365 20.1088 171.965 21.4591 171.387C22.0146 164.273 22.1904 156.595 20.8718 153.051C20.0983 150.969 18.1784 148.715 15.5272 148.506C15.0279 148.467 14.5004 148.5 13.9484 148.621C11.378 149.188 10.0664 151.287 9.40888 154.178C9.05374 155.744 7.99183 162.934 7.79492 170.278C8.54388 170.847 9.77805 171.511 10.7837 171.905Z" fill="#C8CFD3"/>
<path fill-rule="evenodd" clip-rule="evenodd" d="M8.85679 211.436C9.444 219.504 14.2155 231.856 14.7359 239.921C11.4483 246.302 13.7408 255.388 14.8414 261.463C15.3126 264.053 16.1424 266.586 16.9934 269.101C17.4259 270.379 17.8584 271.658 18.2803 272.939C18.6038 273.921 18.6495 274.724 18.864 275.706C19.0117 276.372 19.7747 276.833 20.5518 276.936C21.3254 277.036 22.1131 276.851 22.862 276.648C25.7032 275.869 28.4107 274.763 31.1076 273.664C31.6667 273.433 32.2433 273.197 32.6547 272.8C33.0661 272.403 33.2806 271.8 33.0029 271.325C32.7075 270.813 33.2877 270.343 32.6407 270.219C30.9001 269.888 25.0808 271.488 25.0808 269.41C26.1497 263.559 26.1849 254.903 27.6406 249.332C28.1153 247.596 33.998 227.393 34.3496 224.118C34.8173 220.152 35.2462 216.183 35.422 212.199C35.408 211.921 35.4291 211.615 35.4467 211.336C35.4818 210.557 35.5381 209.782 35.5979 209.006C33.1154 202.465 8.09727 200.971 8.85679 211.436Z" fill="#F8D2B8"/>
<path fill-rule="evenodd" clip-rule="evenodd" d="M8.85679 211.436C9.444 219.504 14.2155 231.856 14.7359 239.921L14.5988 240.206C19.0434 241.93 26.4873 240.739 25.6328 245.644C23.9731 253.37 23.9731 260.808 23.9731 268.531C24.0997 269.182 24.606 269.664 25.2741 269.955L25.0808 269.41C26.1497 263.559 26.1849 254.903 27.6406 249.332C28.1153 247.596 33.998 227.393 34.3496 224.118C34.8173 220.152 35.2462 216.183 35.422 212.199C35.408 211.921 35.4291 211.615 35.4467 211.336C35.4818 210.557 35.5381 209.782 35.5979 209.006C33.1154 202.465 8.09727 200.971 8.85679 211.436Z" fill="#EFBE9F"/>
<path fill-rule="evenodd" clip-rule="evenodd" d="M17.9088 278.242L17.9862 278.378C18.5031 279.236 19.4735 279.942 20.5917 280.014C21.0418 280.045 21.4884 279.972 21.9314 279.899C22.4061 279.823 22.8808 279.745 23.3274 279.587C23.788 279.423 24.21 279.151 24.6284 278.918C25.0855 278.666 25.3844 278.242 25.7712 277.918C26.8577 277 28.3978 276.624 29.8887 276.36C31.3761 276.094 32.9232 275.897 34.2383 275.236C34.8572 274.921 39.14 272.964 39.7518 270.919C39.9803 270.159 34.4352 268.001 33.4753 268.377C32.002 268.956 27.2796 270.228 26.4217 270.555C28.229 270.665 33.8867 270.104 34.0976 270.246C34.4844 270.504 34.3578 271.043 34.066 271.383C33.7566 271.74 33.3171 271.998 32.874 272.231C30.4689 273.491 27.7227 274.161 24.9659 274.564C23.9919 274.703 23.025 274.924 22.0299 274.912C21.6361 274.906 18.8617 274.667 18.2077 272.725C17.5326 273.394 17.3533 274.667 17.3497 275.558C17.3462 276.473 17.4587 277.415 17.9088 278.242Z" fill="#743155"/>
<path fill-rule="evenodd" clip-rule="evenodd" d="M47.3605 274.988C45.0398 275.778 41.9736 276.045 41.3407 273.567C38.5875 262.802 41.724 260.239 42.2444 249.323C42.3323 247.511 49.2101 229.048 46.0138 212.884L21.3262 214.363C21.8677 226.818 24.8073 235.947 28.4571 242.836C22.1595 258.336 32.2406 270.452 33.9812 275.594C34.0796 276.345 31.875 278.626 33.8441 280.323C34.6001 280.974 56.3797 277.866 53.1131 275.051C52.227 274.288 49.3613 274.306 47.3605 274.988Z" fill="#F8D2B8"/>
<path fill-rule="evenodd" clip-rule="evenodd" d="M40.2436 243.357C42.2338 253.371 33.9355 264.526 41.2387 273.682L41.4673 273.945L41.3407 273.567C38.5875 262.802 41.724 260.239 42.2444 249.323C42.3323 247.511 49.2101 229.048 46.0138 212.884L21.3262 214.363C21.822 225.797 24.3431 234.429 27.5746 241.094C32.325 242.77 39.3329 239.958 40.2436 243.357Z" fill="#EFBE9F"/>
<path fill-rule="evenodd" clip-rule="evenodd" d="M32.5176 281.744L32.5703 281.887C32.9536 282.796 33.8045 283.605 34.9051 283.804C35.3447 283.883 35.8018 283.865 36.2483 283.844C36.7301 283.82 37.2153 283.795 37.6794 283.689C38.1612 283.58 38.6218 283.359 39.0719 283.174C39.5642 282.974 39.9264 282.59 40.3589 282.311C41.5755 281.526 43.1613 281.329 44.6768 281.235C46.1958 281.141 47.757 281.12 49.16 280.611C49.8246 280.372 54.3676 278.917 55.2853 276.957C55.6264 276.23 55.4893 275.33 55.1236 274.615C54.6981 273.782 53.6081 273.319 52.5532 273.258C51.4984 273.194 50.461 273.464 49.4483 273.728C47.9012 274.134 46.7619 274.54 45.2148 274.942C44.7542 275.064 44.3076 275.224 43.411 275.454C45.1831 275.767 47.2261 275.364 49.0334 275.442L49.7824 275.651C50.127 275.948 49.9195 276.472 49.5785 276.772C49.2163 277.094 48.7416 277.3 48.2669 277.481C45.6895 278.457 42.8659 278.808 40.0705 278.896C39.086 278.927 34.0929 279.805 33.562 276.621C32.7884 277.209 32.5071 278.139 32.3699 279.017C32.2258 279.926 32.1941 280.872 32.5176 281.744Z" fill="#743155"/>
<path fill-rule="evenodd" clip-rule="evenodd" d="M13.5371 185.901L13.603 185.938L13.6273 185.913L13.5371 185.901Z" fill="#1B3344"/>
<path fill-rule="evenodd" clip-rule="evenodd" d="M51.1863 227.836C50.7678 222.152 49.5829 216.52 49.2805 210.827C49.0062 205.568 49.5161 202.023 44.4738 192.385C42.6699 188.941 41.0032 185.965 36.302 185.111C30.7322 184.102 22.9262 182.608 17.708 185.275C14.9337 186.689 13.4463 189.456 11.8324 191.752C5.79846 200.332 6.59664 210.833 6.48763 225.382C6.46302 228.663 6.30833 233.29 12.3493 236.304C14.3816 237.316 16.9872 237.156 19.2552 237.643C33.6894 240.743 38.8161 238.837 45.402 235.995C50.476 233.805 51.5168 232.269 51.1863 227.836Z" fill="#EA8FA5"/>
<path fill-rule="evenodd" clip-rule="evenodd" d="M17.413 200.241C25.6023 197.89 37.3958 199.878 46.517 196.63C45.9649 195.351 45.2934 193.949 44.4741 192.385C42.6702 188.941 41.0035 185.965 36.3023 185.111C30.7325 184.102 22.9265 182.608 17.7084 185.275C14.934 186.689 13.4466 189.456 11.8327 191.752C5.79879 200.332 6.59697 210.833 6.48796 225.382C6.46335 228.427 6.33326 232.635 11.1505 235.632C11.1118 235.226 11.0908 234.82 11.0908 234.411C11.0908 222.525 4.19188 204.204 17.413 200.241Z" fill="#E5728E"/>
<path fill-rule="evenodd" clip-rule="evenodd" d="M43.0451 165.554C48.6851 151.781 44.8981 153.699 33.734 148.303L21.5889 146.452C10.4248 145.149 8.03021 155.056 9.48946 160.982C10.038 163.215 14.4755 177.47 13.6281 188.947C13.1956 194.77 36.9655 195.985 42.7427 191.007C44.7786 189.252 42.4051 167.117 43.0451 165.554Z" fill="#F4F4F1"/>
<path fill-rule="evenodd" clip-rule="evenodd" d="M16.1598 177.667C16.5607 174.661 17.3483 171.798 19.2014 169.208C20.4321 167.484 22.475 166.251 23.7654 164.588C28.864 158.004 28.0658 153.472 27.2395 147.312L21.5889 146.452C10.4248 145.149 8.03021 155.056 9.48946 160.982C10.038 163.215 14.4755 177.47 13.6281 188.947C13.5191 190.392 14.908 191.552 17.1409 192.403C15.9664 187.465 15.5445 182.287 16.1598 177.667Z" fill="#E5E5E0"/>
<path fill-rule="evenodd" clip-rule="evenodd" d="M43.0464 165.554C46.3446 157.498 46.4185 154.81 43.6758 152.887C40.3354 152.456 36.9563 153.635 35.7537 156.228C33.0919 161.385 35.7537 166.545 37.7474 171.704C40.0787 177.436 40.7432 184.029 37.7474 189.189C36.7136 191.419 34.8711 192.873 32.6348 193.97C36.9562 193.621 40.8347 192.655 42.744 191.007C44.7799 189.252 42.4064 167.117 43.0464 165.554Z" fill="#ECEDED"/>
<path fill-rule="evenodd" clip-rule="evenodd" d="M0 166.22L0.692673 166.139L0 166.22Z" fill="#DBCDC5"/>
<path fill-rule="evenodd" clip-rule="evenodd" d="M43.4571 129.237C43.4571 147.797 36.3894 142.571 35.1658 145.921C34.9829 146.394 35.0357 146.355 35.4611 149.906C35.4506 152.338 22.4967 151.136 23.0734 147.703C23.2773 146.546 23.9806 142.568 23.9806 142.568C23.9806 142.568 24.944 135.923 24.6205 133.839C23.6043 127.264 28.4427 127.061 32.6938 124.232C36.959 121.393 43.4571 122.577 43.4571 129.237Z" fill="#F8D2B8"/>
<path fill-rule="evenodd" clip-rule="evenodd" d="M22.7926 142.028C23.9775 142.704 25.0219 143.068 25.9396 143.216C27.2688 143.195 28.4889 143.307 29.7794 142.995C31.1577 142.665 32.3955 142.692 33.6086 141.91C36.1192 140.28 36.0031 138.084 36.7802 136.969C38.1234 135.033 40.9435 135.414 42.7016 132.706C43.6897 131.179 44.2558 129.449 44.3366 127.701C44.3859 126.692 44.2487 124.589 43.8408 123.686C43.3802 122.659 42.4062 122.062 41.506 121.341C36.9525 117.687 29.0831 116.573 23.6294 119.442C19.0196 121.859 16.727 124.289 16.0132 126.704L15.8866 127.11C13.4499 133.73 22.3987 141.744 22.7926 142.028Z" fill="#D92936"/>
<path fill-rule="evenodd" clip-rule="evenodd" d="M41.5065 121.341C36.953 117.687 29.0836 116.573 23.6299 119.442C19.0201 121.859 16.7275 124.289 16.0137 126.704L15.8871 127.11C15.1769 129.043 15.4371 131.091 16.172 133.036C17.7016 133.269 19.1995 133.179 20.4196 132.279C27.2235 127.81 34.351 123.344 43.0959 124.741C43.4757 124.829 43.8378 124.935 44.186 125.059C44.1051 124.513 43.989 124.02 43.8413 123.686C43.3807 122.659 42.4067 122.062 41.5065 121.341Z" fill="#A42F30"/>
<path fill-rule="evenodd" clip-rule="evenodd" d="M20.4195 132.278C19.1993 133.178 17.7014 133.269 16.1719 133.036C17.9511 137.747 22.5152 141.828 22.793 142.028C23.9779 142.704 25.0223 143.067 25.94 143.216C27.2692 143.195 28.4893 143.307 29.7798 142.995C31.1581 142.664 32.3959 142.692 33.609 141.91C36.1196 140.28 36.0035 138.083 36.7806 136.968C38.1238 135.032 40.9439 135.414 42.702 132.706C43.6901 131.179 44.2562 129.449 44.337 127.701C44.3687 127.064 44.323 125.989 44.1858 125.059C43.8377 124.934 43.4756 124.828 43.0958 124.74C34.3509 123.344 27.2234 127.81 20.4195 132.278Z" fill="#812124"/>
<path fill-rule="evenodd" clip-rule="evenodd" d="M35.0779 137.744C36.1046 139.144 37.1947 139.865 38.2917 139.513C39.3782 139.159 39.6771 138.011 38.9984 136.462C38.3163 134.917 36.3683 134.081 35.2818 134.435C34.2023 134.787 33.9034 136.168 35.0779 137.744Z" fill="#F8D2B8"/>
<path fill-rule="evenodd" clip-rule="evenodd" d="M36.0842 137.308C36.5272 137.914 37.0019 138.226 37.4766 138.074C37.9478 137.92 38.0778 137.423 37.786 136.75C37.4871 136.081 36.6432 135.717 36.172 135.872C35.7009 136.023 35.5743 136.623 36.0842 137.308Z" fill="#EFBE9F"/>
<path fill-rule="evenodd" clip-rule="evenodd" d="M20.2965 124.077C19.0693 121.811 14.7971 124.262 12.8772 126.44C10.0361 129.661 8.88625 133.924 8.22519 137.844C7.59226 141.604 7.57824 145.482 8.25336 149.245C8.7386 151.944 10.2154 154.402 10.2084 157.204C10.2049 158.68 10.4299 160.125 9.6739 161.479C8.27794 163.982 6.00646 165.769 2.66602 166.087C3.68925 165.766 4.78628 166.472 5.806 166.739C7.56412 167.202 9.17105 167.378 10.9819 167.49C12.8561 167.605 14.7232 168.069 16.5869 167.535C19.2416 166.781 21.4745 164.242 23.0533 162.388C25.4584 159.561 25.7995 156.256 25.6905 152.863C25.6131 150.433 25.3212 147.194 23.549 145.264C21.6151 143.152 20.6094 140.201 19.9167 137.62C19.5862 136.384 19.1221 135.084 19.0271 133.815C18.9674 133.036 19.0834 132.254 18.9814 131.476C18.6755 129.17 21.6608 126.589 20.2965 124.077Z" fill="#A42F30"/>
<path fill-rule="evenodd" clip-rule="evenodd" d="M2.66602 166.086L3.29189 166.008L2.66602 166.086Z" fill="#812124"/>
<path fill-rule="evenodd" clip-rule="evenodd" d="M25.6897 152.863C25.6123 150.433 25.3204 147.194 23.5482 145.264C21.6143 143.152 20.6086 140.202 19.9159 137.62C19.5854 136.384 19.1213 135.084 19.0264 133.815C18.9666 133.036 19.0826 132.255 18.9806 131.476C18.6747 129.17 21.66 126.589 20.2957 124.077V124.074C14.6416 128.052 16.5474 136.378 18.4532 141.038C21.7795 149.636 24.4414 161.101 14.1282 165.4C11.3996 166.654 8.27363 166.621 5.01758 166.475L5.80522 166.739C7.56334 167.202 9.17027 167.378 10.9811 167.49C12.8553 167.605 14.7225 168.069 16.5861 167.536C19.2408 166.781 21.4737 164.242 23.0525 162.388C25.4576 159.561 25.7987 156.256 25.6897 152.863Z" fill="#812124"/>
<path fill-rule="evenodd" clip-rule="evenodd" d="M61.0463 206.11C60.0794 205.019 59.5379 203.683 58.5568 202.614L57.0941 201.426C57.0941 201.426 52.4737 185.378 50.5996 178.636L50.2971 172.538H37.8496L38.9572 179.685C39.4179 183.145 50.4729 201.95 50.4729 201.95C50.589 202.59 50.7367 203.186 50.8633 203.632C51.1164 204.404 51.3028 205.032 51.5032 205.834C51.6333 206.492 52.0271 207.504 52.3155 208.125C53.0679 209.591 53.5215 210.461 54.2635 211.951L54.805 212.582L55.1742 212.418L55.1636 212.385C55.3535 211.685 54.7733 209.649 54.8155 208.822C55.1777 210.185 55.6137 211.385 56.2255 212.673C56.3873 212.976 56.7671 213.554 57.284 213.266C57.72 213.051 57.6074 212.464 57.509 212.161C57.3543 211.491 57.1855 210.843 57.0132 210.194C57.3296 211.224 57.7129 212.2 58.2685 213.118L58.8803 213.388C59.7383 213.179 59.137 211.273 58.9577 210.791C58.5779 209.758 58.1595 208.737 57.7657 207.667C58.279 208.907 58.8944 210.082 59.5871 211.236C59.7524 211.488 60.0477 211.997 60.4767 211.891C61.3487 211.661 59.9633 208.588 59.7242 207.992C59.5132 207.464 59.2812 206.955 59.0913 206.44C59.7699 207.419 60.6665 208.616 62.1117 208.01L62.379 207.801C62.4423 207.349 61.3382 206.419 61.0463 206.11Z" fill="#F8D2B8"/>
<path fill-rule="evenodd" clip-rule="evenodd" d="M41.0729 176.288C43.1932 176.876 45.1482 176.779 47.3072 176.309C48.9282 175.958 50.3452 175.413 51.604 174.704C51.1996 167.581 50.3417 159.94 48.5554 156.553C47.5041 154.559 45.2959 152.514 42.6341 152.572C42.1313 152.584 41.6143 152.668 41.0834 152.844C38.6044 153.665 37.5847 155.877 37.321 158.816C37.1769 160.406 37.0924 167.656 37.8836 174.97C38.7064 175.461 40.0215 175.997 41.0729 176.288Z" fill="#C8CFD3"/>
<path fill-rule="evenodd" clip-rule="evenodd" d="M48.2146 239.897L51.9137 241.773C51.7343 243.897 51.5515 246.024 51.6253 248.15C51.6851 249.893 51.9207 251.635 51.8082 253.374C51.6957 255.113 53.2323 255.71 52.0051 257.094C49.6527 255.507 48.6436 253.51 47.5395 251.253C46.7026 249.541 45.6864 247.82 45.6512 245.963C45.6125 243.782 46.9347 241.779 48.2146 239.897Z" fill="#F8D2B8"/>
<path fill-rule="evenodd" clip-rule="evenodd" d="M52.1852 239.361C51.9707 240.501 51.1866 244.754 50.3603 245.669C49.5375 246.584 46.2709 246.509 45.0578 246.009C44.1225 245.618 42.6668 194.788 44.4741 189.583C45.2336 187.42 46.3975 185.305 48.1697 183.617C49.0382 182.784 49.9102 182.127 51.0741 181.633C52.456 181.091 53.8766 180.676 55.364 180.373C54.9983 180.457 54.4497 181.127 54.2669 181.357C53.9469 181.7 53.7781 182.009 53.7957 182.442C53.7676 183.172 53.5003 183.923 53.5566 184.666C53.6128 185.584 53.9258 186.559 54.077 187.462C54.1227 195.927 54.0172 204.426 53.8027 212.885C53.7359 215.13 53.6656 217.378 53.5706 219.62C53.5425 220.35 53.5074 221.104 53.3315 221.844C53.9117 223.155 53.9047 224.673 53.7851 226.128C53.4863 230.551 53.0643 234.983 52.1852 239.361Z" fill="#312E35"/>
<path fill-rule="evenodd" clip-rule="evenodd" d="M75.9609 176.825L75.9433 177.446L75.8308 182.93C75.8308 182.93 75.2928 183.669 74.3153 184.429L74.2836 184.42L73.7984 184.375C69.1604 183.948 63.3973 183.09 63.4078 180.157L63.3164 180.063L63.559 175.895L64.1252 175.934L72.4657 176.564L75.9609 176.825Z" fill="#F8D2B8"/>
<path fill-rule="evenodd" clip-rule="evenodd" d="M61.9063 179.43C61.1995 180.024 61.509 185.541 61.5934 186.389C61.8184 188.656 62.2579 185.456 64.6982 186.323C67.1385 187.192 69.9022 187.135 72.4867 186.683C73.9459 186.429 74.5929 186.289 75.6197 185.365C76.6464 184.438 76.65 180.703 75.7428 180.636C74.8391 180.566 72.7117 180.684 71.8045 180.73C69.642 180.836 67.4549 180.515 65.4471 179.812C64.009 179.306 63.4569 178.118 61.9063 179.43Z" fill="#FBFAFB"/>
<path fill-rule="evenodd" clip-rule="evenodd" d="M50.5872 310.426C50.5872 310.426 49.7749 316.347 52.1203 318.052C52.7813 318.528 55.1829 318.346 57.8447 317.386C59.5923 316.756 61.3645 315.456 63.1121 314.959C68.2493 313.496 69.2338 311.199 70.9392 308.206C74.5715 301.84 66.4314 304.794 61.2274 307.409C55.7912 310.151 50.5872 310.426 50.5872 310.426Z" fill="#464644"/>
<path fill-rule="evenodd" clip-rule="evenodd" d="M69.0838 267.156C68.6302 270.528 67.8214 273.876 67.1955 277.227C66.8193 279.154 66.953 280.614 66.5486 282.544C65.768 286.395 65.9649 304.376 65.9649 310.527C65.9649 311.772 50.3879 315.771 49.9624 313.938C49.5299 312.169 48.5172 297.362 49.2662 292.021C49.8358 287.961 51.0313 249.405 50.7289 246.86C50.2472 242.739 50.6867 235.822 54.7304 233.647C60.8417 230.387 68.5282 237.634 70.1914 240.803C72.6141 245.336 71.0669 251.935 69.0838 267.156Z" fill="#1B1B1D"/>
<path fill-rule="evenodd" clip-rule="evenodd" d="M69.7806 318.507C69.7806 318.507 67.2594 324.015 69.0176 326.23C69.5134 326.845 71.8833 327.257 74.728 326.981C76.5986 326.799 78.6873 325.978 80.5157 325.924C85.8956 325.766 87.5201 323.794 90.0413 321.325C95.4071 316.077 86.7008 316.937 80.9166 318.192C74.8757 319.507 69.7806 318.507 69.7806 318.507Z" fill="#464644"/>
<path fill-rule="evenodd" clip-rule="evenodd" d="M87.64 267.29L87.6364 267.308C82.7805 300.817 84.5351 296.339 84.412 320.173C84.398 322.116 83.8424 321.752 76.933 322.664C75.4526 322.858 73.9512 323.055 72.4673 322.894C67.9806 322.418 67.33 319.528 67.221 316.401C67.221 312.996 66.0325 273.861 76.3985 273.81C78.1566 273.8 86.2897 268.229 87.64 267.29Z" fill="#252427"/>
<path fill-rule="evenodd" clip-rule="evenodd" d="M88.6966 244.651C88.2747 253.183 88.2219 261.366 87.6382 267.289L87.6347 267.308C86.9033 274.73 85.7781 274.994 83.5453 279.39C81.9806 282.474 82.1845 284.747 80.1662 286.268C78.6085 287.443 76.2315 287.416 74.4734 286.507C72.7223 285.598 70.384 292.878 69.737 291.136C69.2236 289.718 68.9142 283.253 68.8333 281.747C68.0245 267.014 60.7108 257.291 62.2966 245.23C62.3775 244.603 88.6966 244.651 88.6966 244.651Z" fill="#252427"/>
<path fill-rule="evenodd" clip-rule="evenodd" d="M92.8528 192.688C92.8528 192.688 92.4378 194.985 91.8787 198.284L91.7768 198.893C90.961 203.771 89.892 210.534 89.3857 215.436C89.2169 217.047 89.1114 218.462 89.0903 219.538C89.0095 224.84 89.9413 239.528 90.2472 244.167C90.307 245.078 89.7936 245.945 88.897 246.421C87.9652 246.918 87.065 247.324 86.1648 247.663C84.6282 248.235 83.0951 248.605 81.3792 248.866C80.1872 249.044 78.9108 249.169 77.4937 249.266C72.1455 249.626 66.421 249.49 61.1326 248.681C57.1909 248.081 53.5445 246.887 50.5557 244.821C49.863 244.339 49.4411 243.621 49.434 242.849V242.84C49.2934 237.822 52.3701 223.967 52.3842 218.571C52.4123 209.319 48.5304 193.773 48.7941 188.61C49.0297 184.275 50.8335 179.018 61.7585 180.218L76.1505 183.048C79.1394 184.493 91.6607 186.423 92.8528 192.688Z" fill="#252427"/>
<path fill-rule="evenodd" clip-rule="evenodd" d="M55.3414 209.652C53.738 200.899 46.6738 186.15 56.8006 180.148C50.2533 180.845 48.991 185.038 48.7941 188.61C48.5304 193.773 52.4123 209.319 52.3842 218.571C52.3701 223.967 49.2934 237.822 49.434 242.839V242.849C49.4411 243.621 49.863 244.339 50.5557 244.821C51.3856 245.397 52.2752 245.896 53.1999 246.342C53.1367 245.999 53.0839 245.654 53.0417 245.306C51.3188 233.42 57.641 222.031 55.3414 209.652Z" fill="#1B1B1D"/>
<path fill-rule="evenodd" clip-rule="evenodd" d="M83.5036 188.852C76.0315 197.766 76.0316 208.164 78.9079 218.565C81.2813 227.436 86.1127 235.365 90.2056 243.49C89.861 238.243 89.0136 224.606 89.0909 219.54C89.112 218.462 89.2175 217.047 89.3863 215.435C89.8926 210.533 90.9616 203.771 91.7774 198.893L91.8793 198.284C92.4384 194.984 92.8533 192.688 92.8533 192.688C92.4665 190.643 90.8667 189.061 88.7921 187.807C86.5452 187.737 84.3721 187.731 83.5036 188.852Z" fill="#1B1B1D"/>
<path fill-rule="evenodd" clip-rule="evenodd" d="M80.2296 173.189C79.3962 174.955 77.8667 176.558 75.9433 177.446C75.2365 177.77 74.4735 178 73.6718 178.106L73.2288 178.152C72.4728 178.203 71.6851 178.139 71.01 177.84C69.6773 177.249 64.8425 177.991 64.3537 176.77C64.2482 176.506 64.1709 176.228 64.1252 175.934C63.5872 172.768 66.1224 168.032 66.7026 165.057C67.2511 162.255 69.2062 159.758 71.6851 157.874C73.7703 156.283 76.2457 155.077 78.9005 154.353L80.2402 155.744L81.3302 156.883C80.7992 159.588 81.1403 162.352 81.3021 165.09C81.4673 167.826 81.4357 170.653 80.2296 173.189Z" fill="#F8D2B8"/>
<path fill-rule="evenodd" clip-rule="evenodd" d="M81.3032 165.09C81.1415 162.351 80.8004 159.588 81.3313 156.883L80.2413 155.744L79.8229 157.519C80.9938 161.797 81.0113 166.305 79.8686 170.589C79.4361 172.228 78.7961 173.892 77.4635 175.122C76.1343 176.349 73.9683 177.037 72.168 176.379L72.4669 176.564C73.033 176.955 73.4268 177.5 73.673 178.106C73.8769 178.6 73.9894 179.136 74.014 179.66C74.0316 179.991 74.0211 180.321 74 180.654C74.538 180.563 75.1005 180.572 75.642 180.648L75.8776 180.697L75.9444 177.446C77.8678 176.558 79.3939 174.955 80.2307 173.189C81.4368 170.653 81.465 167.826 81.3032 165.09Z" fill="#F8D2B8"/>
<path fill-rule="evenodd" clip-rule="evenodd" d="M83.1105 156.222C82.8503 157.883 81.2117 157.768 80.1955 159.195C79.0246 160.843 78.9648 162.3 77.7939 163.945C77.3685 164.545 75.656 170.189 73.6904 169.205C70.7931 167.76 74.0984 174.47 68.7853 176.879C67.8676 177.297 65.378 176.94 64.3548 176.77C63.7606 176.673 63.307 176.27 62.8991 175.882L62.8182 175.807C61.3203 174.416 55.8209 169.926 54.6218 167.651C53.581 165.666 53.3384 163.145 53.3841 160.928C53.4228 158.873 54.8785 156.995 56.176 155.341C57.4946 153.659 59.193 152.26 61.2746 151.293C64.8049 149.657 69.5905 149.345 73.6904 149.815C74.2355 149.875 74.7735 149.954 75.2939 150.042C76.2151 150.202 77.1399 150.417 78.0576 150.663C78.4444 150.829 78.8347 151.008 79.2321 151.196C83.1386 153.059 83.0788 154.989 83.1105 155.129C83.1105 155.129 83.1562 155.938 83.1105 156.222Z" fill="#A17765"/>
<path fill-rule="evenodd" clip-rule="evenodd" d="M73.4329 168.89C74.5933 170.178 74.639 171.82 73.5314 172.562C72.4237 173.301 70.5883 172.856 69.4279 171.568C68.2676 170.281 68.2218 168.636 69.3295 167.896C70.4336 167.154 72.2725 167.599 73.4329 168.89Z" fill="#F8D2B8"/>
<path fill-rule="evenodd" clip-rule="evenodd" d="M74.84 181.781C75.7191 181.945 76.577 182.157 77.4139 182.448C77.9659 182.642 78.5848 183.39 78.5918 183.902C75.2162 184.526 69.01 183.366 65.6063 182.866C62.6808 182.442 59.8291 180.842 59.3896 180.206C58.2292 178.536 65.3285 180.345 66.0669 180.524C68.9221 181.206 71.9637 181.239 74.84 181.781Z" fill="#252427"/>
<path fill-rule="evenodd" clip-rule="evenodd" d="M62.8181 175.807C61.3202 174.416 55.8208 169.926 54.6217 167.651C53.6512 165.805 53.377 163.497 53.377 161.4C53.377 161.243 53.3805 161.085 53.384 160.928C53.4227 158.873 54.8784 156.995 56.1759 155.341C57.4945 153.659 59.1928 152.26 61.2745 151.293C63.8343 150.105 67.0552 149.618 70.1987 149.618C71.3872 149.618 72.5616 149.687 73.6903 149.815C70.3428 150.024 66.9673 150.215 63.9609 151.357C59.1893 153.175 55.884 157.428 55.4515 161.912C55.0225 166.39 57.3433 170.947 61.2674 173.913C61.8687 174.367 62.5403 174.831 62.7653 175.494L62.8181 175.807Z" fill="#AD8471"/>
<path fill-rule="evenodd" clip-rule="evenodd" d="M99.3023 245.269C100.6 245.118 101.897 244.99 103.191 244.854C103.469 246.851 103.645 248.117 103.645 248.117L105.069 249.602C105.983 250.895 106.37 252.437 107.267 253.752C107.537 254.131 108.61 255.285 108.466 255.776L108.139 255.979C106.447 256.476 105.646 255.046 105.055 253.886C105.181 254.479 105.354 255.067 105.505 255.673C105.674 256.361 106.714 259.918 105.716 260.069C105.224 260.133 104.981 259.536 104.837 259.242C104.257 257.882 103.761 256.512 103.395 255.088C103.659 256.309 103.958 257.491 104.214 258.676C104.334 259.23 104.696 261.402 103.715 261.53L103.079 261.163C102.615 260.084 102.347 258.96 102.161 257.785C102.245 258.521 102.33 259.254 102.397 260.015C102.456 260.36 102.484 261.024 101.971 261.208C101.352 261.466 101.029 260.784 100.895 260.427C100.427 258.936 100.139 257.558 99.9563 256.009C99.7734 256.918 100.093 259.236 99.7699 259.984L99.7769 260.024L99.3444 260.16C99.0596 259.981 98.9155 259.684 98.8451 259.4C98.265 257.667 97.9028 256.655 97.305 254.943C97.0835 254.225 96.8092 253.061 96.7706 252.322C96.6791 251.41 96.5736 250.695 96.4189 249.814C96.3486 249.308 96.2818 248.632 96.2537 247.914C96.2537 247.914 95.9442 247.172 95.4414 245.945C96.7143 245.681 97.9907 245.421 99.3023 245.269Z" fill="#F8D2B8"/>
<path fill-rule="evenodd" clip-rule="evenodd" d="M83.5498 190.716C85.0864 188.725 87.8748 187.641 89.9951 188.707C91.2574 189.34 92.5127 191.016 92.8538 192.34L99.6859 218.901C100.421 222.219 103.955 238.54 105.776 247.229C102.766 250.023 99.6648 251.353 95.0585 251.083C91.7743 243.627 87.6357 234.78 86.1905 231.926C84.464 228.512 83.5428 224.864 82.8571 221.152L82.9204 220.943L81.0146 213.451C80.0195 205.616 78.6727 197.49 83.5498 190.716Z" fill="#312E35"/>
<path fill-rule="evenodd" clip-rule="evenodd" d="M128.149 198.523C126.943 192.782 115.455 195.327 114.861 201.626C114.077 209.963 114.042 214.305 115.68 221.704C117.867 230.02 115.424 246.472 121.268 244.502C128.184 242.173 128.652 200.932 128.149 198.523Z" fill="#F8D2B8"/>
<path fill-rule="evenodd" clip-rule="evenodd" d="M113.671 190.64C111.466 193.779 113.706 205.219 113.477 212.999C120.355 217.617 127.222 214.375 130.644 211.612C130.992 206.428 130.162 197.196 129.634 190.994C129.072 184.38 117.373 185.371 113.671 190.64Z" fill="#1F76A2"/>
<path fill-rule="evenodd" clip-rule="evenodd" d="M147.105 330.683C143.617 331.947 139.383 334.628 135.645 332.553C132.917 331.038 134.264 327.414 135.593 324.875C136.855 322.524 138.223 320.858 141.247 320.061C142.136 319.825 143.807 319.522 144.542 320.152C147.221 322.445 152.928 322.13 156.539 322.048C157.647 322.021 158.779 321.961 159.848 322.209C162.865 322.903 163.765 325.845 159.345 327.917C153.846 330.495 150.568 329.429 147.105 330.683Z" fill="#14181A"/>
<path fill-rule="evenodd" clip-rule="evenodd" d="M120.294 317.262C120.294 317.262 117.379 322.954 119.285 325.293C119.816 325.945 122.457 326.411 125.621 326.166C127.7 326.011 130.027 325.19 132.07 325.166C138.055 325.087 141.944 322.758 144.788 320.225C150.847 314.847 141.167 315.601 134.718 316.81C127.981 318.08 120.294 317.262 120.294 317.262Z" fill="#14181A"/>
<path fill-rule="evenodd" clip-rule="evenodd" d="M134.004 317.592L139.89 251.041C140.534 246.484 137.552 242.109 132.27 241.558C126.986 241 117.013 240.47 116.17 245.006C113.782 257.867 123.782 263.093 120.326 277.581C118.03 287.201 119.028 312.117 119.545 316.256C120.062 320.394 131.792 320.943 134.004 317.592Z" fill="#363844"/>
<path fill-rule="evenodd" clip-rule="evenodd" d="M132.27 241.558C126.985 241 117.013 240.47 116.169 245.006C115.765 247.193 115.716 249.159 115.898 250.986C117.526 251.25 119.024 252.053 119.854 253.243C121.707 258.23 128.381 267.059 128.722 269.413C131.553 286.249 132.439 303.089 130.079 319.546C131.862 319.231 133.349 318.583 134.004 317.592L139.89 251.041C140.533 246.484 137.551 242.109 132.27 241.558Z" fill="#272A38"/>
<path fill-rule="evenodd" clip-rule="evenodd" d="M150.517 322.482C151.896 314.926 151.657 303.098 152.096 292.373C152.462 283.489 153.988 256.64 153.988 256.64C153.977 252.056 153.584 236.665 148.693 236.671C143.819 236.683 121.881 236.892 121.885 246.315C121.885 252.277 120.197 254.159 127.286 263.13C132.008 269.104 133.864 280.278 133.291 288.079C132.219 302.661 133.502 322.458 133.499 322.585C133.984 326.615 150.095 324.8 150.517 322.482Z" fill="#574F5D"/>
<path fill-rule="evenodd" clip-rule="evenodd" d="M148.695 236.671C143.818 236.683 121.88 236.892 121.883 246.312C121.883 248.42 121.672 250.02 121.715 251.601C130.224 255.328 139.88 255.528 149.535 254.419C150.217 254.419 150.899 255.888 151.24 256.77C151.582 260.594 150.558 264.708 150.558 268.529C149.897 287.067 153.407 306.43 147.077 324.212C149.011 323.757 150.397 323.139 150.516 322.482C151.895 314.926 151.655 303.098 152.095 292.372C152.461 283.489 153.987 256.64 153.987 256.64C153.976 252.053 153.582 236.665 148.695 236.671Z" fill="#363844"/>
<path fill-rule="evenodd" clip-rule="evenodd" d="M152.5 222.465C151.8 229.603 154.951 242.77 154.307 247.82C153.674 252.765 116.293 253.459 114.683 246.509C113.41 241.016 118.364 229.233 117.721 224.079C116.356 213.154 114.563 198.496 114.69 193.534C114.742 191.783 115.077 189.634 116.719 188.277C118.98 186.408 123.301 185.669 129.001 186.241L140.098 187.614C142.813 188.962 154.902 190.452 156.108 196.454C156.108 196.454 154.979 198.836 154.55 202.014C153.91 206.74 152.598 221.438 152.5 222.465Z" fill="#2A8CC0"/>
<path fill-rule="evenodd" clip-rule="evenodd" d="M154.546 202.014C154.978 198.836 156.107 196.455 156.107 196.455C155.622 194.046 153.385 192.364 150.702 191.125C139.278 190.219 140.055 203.432 141.827 213.233C146.789 221.135 151.24 232.078 150.217 242.661C149.964 248.142 143.828 250.35 137.471 251.611C146.135 251.438 154.018 250.069 154.307 247.821C154.95 242.77 151.799 229.603 152.499 222.465C152.598 221.438 153.909 206.74 154.546 202.014Z" fill="#1F76A2"/>
<path fill-rule="evenodd" clip-rule="evenodd" d="M146.27 178.018L146.062 178.03C145.398 176.737 140.581 176.725 138.953 176.694C136.073 176.643 133.179 176.591 130.324 176.918L129.789 178.936L129.694 178.942C129.385 180.251 129.125 181.796 129.41 183.105C129.392 184.429 129.276 185.756 128.717 186.983C128.08 188.389 127.926 189.758 129.955 190.625C135.317 192.915 141.787 192.482 143.105 190.664C144.016 189.413 142.233 187.565 143.07 184.441C143.809 181.696 146.312 179.033 146.119 178.179L146.27 178.018Z" fill="#F8D2B8"/>
<path fill-rule="evenodd" clip-rule="evenodd" d="M150.636 168.553C151.205 174.949 151.117 181.512 147.14 184.232C145.861 185.108 144.064 185.229 142.228 184.974C141.863 184.926 141.493 184.859 141.128 184.784C139.074 184.347 137.091 183.532 135.871 182.881C134.081 181.918 131.964 176.173 131.423 174.204C129.714 167.963 135.164 167.408 139.728 164.375C144.306 161.337 150.066 162.167 150.636 168.553Z" fill="#F8D2B8"/>
<path fill-rule="evenodd" clip-rule="evenodd" d="M146.203 159.243C144.199 158.031 141.491 157.322 139.128 156.825C138.059 156.601 136.973 156.447 135.883 156.395C128.291 157.352 126.603 161.421 126.603 161.421C126.603 161.421 111.979 168.014 127.451 182.951C128.217 183.69 128.618 184.517 128.815 185.317C129.553 185.635 135.222 185.705 136.252 185.087C137.261 184.478 137.961 183.551 138.488 182.587C139.016 181.627 139.392 180.606 139.916 179.642C140.229 179.063 140.605 178.491 141.171 178.079C142.078 177.412 143.379 177.221 144.209 176.485C144.993 175.785 145.19 174.737 145.155 173.761C145.13 173.137 145.032 172.51 144.993 171.883L145.025 171.565C145.151 170.526 145.531 169.483 146.474 168.784C147.968 167.684 149.624 167.875 150.799 166.142C151.917 164.497 150.556 161.885 146.203 159.243Z" fill="#776756"/>
<path fill-rule="evenodd" clip-rule="evenodd" d="M146.202 159.243C144.198 158.031 141.49 157.322 139.127 156.825C138.058 156.601 136.972 156.447 135.882 156.395C128.29 157.352 126.602 161.421 126.602 161.421C126.602 161.421 118.033 165.284 120.952 173.795C125.991 167.975 135.597 167.817 143.051 170.05C143.804 170.247 144.504 170.529 145.151 170.883C145.348 170.083 145.738 169.329 146.473 168.784C147.967 167.684 149.623 167.875 150.798 166.142C151.916 164.497 150.555 161.885 146.202 159.243Z" fill="#776756"/>
<path fill-rule="evenodd" clip-rule="evenodd" d="M120.951 173.795C121.848 176.403 123.82 179.445 127.449 182.95C128.216 183.69 128.617 184.517 128.813 185.317C129.552 185.635 135.22 185.704 136.25 185.086C138.325 183.835 138.94 181.442 139.914 179.642C140.227 179.063 140.604 178.491 141.17 178.079C142.077 177.412 143.378 177.221 144.208 176.485C144.992 175.785 145.189 174.737 145.154 173.764C145.129 173.137 145.03 172.51 144.992 171.883L145.023 171.565L145.15 170.883C144.503 170.529 143.803 170.247 143.051 170.05C135.596 167.817 125.99 167.974 120.951 173.795Z" fill="#695A4A"/>
<path fill-rule="evenodd" clip-rule="evenodd" d="M143.659 176.843C144.538 178.236 144.282 179.821 143.086 180.384C141.887 180.945 140.203 180.272 139.32 178.876C138.441 177.482 138.694 175.897 139.893 175.334C141.089 174.773 142.777 175.449 143.659 176.843Z" fill="#F8D2B8"/>
<path fill-rule="evenodd" clip-rule="evenodd" d="M175.731 258.898C175.253 257.374 173.365 254.414 171.558 252.825C171.016 252.351 170.169 252.037 169.69 251.542C169.458 251.3 169.174 250.99 168.861 250.663C166.902 245.841 162.915 231.211 160.886 221.479C160.474 219.054 158.632 214.652 158.157 210.324C153.013 213.373 149.922 212.868 144.078 210.324C147.162 229.99 162.647 253.237 162.647 253.237C162.883 253.711 163.129 254.189 163.143 254.697C163.154 255.201 162.781 256.224 163.46 257.544C164.173 258.935 164.402 258.489 164.588 260.654C164.676 261.711 165.06 262.929 166.09 263.28C166.554 263.437 168.105 263.495 168.593 263.488C169.648 263.474 169.546 263.809 170.144 263.965C170.686 264.109 171.241 263.778 171.8 263.802C172.732 263.846 173.752 265.091 174.655 264.477C175.239 264.081 176.572 261.575 175.731 258.898Z" fill="#F8D2B8"/>
</svg>
