<svg width="229" height="243" viewBox="0 0 229 243" fill="none" xmlns="http://www.w3.org/2000/svg">
<path d="M10.2753 212.791L0.0224609 226.118L17.2873 238.418C18.4284 236.779 11.9413 227.232 11.9413 227.232L18.8792 218.952L10.2753 212.791Z" fill="#455A64"/>
<path d="M7.18255 222.72C6.97952 222.65 6.7563 222.653 6.55606 222.731C6.35582 222.809 6.19279 222.955 6.0985 223.141C6.01831 223.333 6.01794 223.548 6.09746 223.741C6.17699 223.934 6.33041 224.09 6.52641 224.179C6.74153 224.251 6.97706 224.245 7.18771 224.161C7.39836 224.078 7.56925 223.922 7.66751 223.725C7.73055 223.516 7.70631 223.291 7.5999 223.099C7.49348 222.906 7.31319 222.761 7.09696 222.693" fill="white"/>
<path d="M0 226.15L1.08975 224.719L17.2192 237.15C17.2192 237.15 17.7327 238.024 17.2192 238.477L0 226.15Z" fill="#263238"/>
<path d="M12.3177 227.352C12.255 227.434 11.8042 227.171 11.1766 227.133C10.549 227.095 10.0755 227.281 10.0355 227.193C9.99558 227.106 10.4748 226.729 11.2166 226.784C11.9583 226.838 12.3634 227.292 12.3177 227.352Z" fill="#263238"/>
<path d="M13.5452 229.362C13.4995 229.455 13.0317 229.329 12.4783 229.466C11.9248 229.602 11.5654 229.908 11.4798 229.843C11.3942 229.777 11.7023 229.296 12.3927 229.127C13.083 228.958 13.6022 229.285 13.5452 229.362Z" fill="#263238"/>
<path d="M12.9577 232.169C12.8665 232.131 13.0661 231.623 13.6253 231.356C14.1844 231.088 14.715 231.175 14.6979 231.268C14.6808 231.361 14.2529 231.421 13.8022 231.667C13.3514 231.913 13.049 232.219 12.9577 232.169Z" fill="#263238"/>
<path d="M13.6537 225.298C13.5567 225.348 13.26 224.96 12.7579 224.654C12.2558 224.348 11.7766 224.222 11.7823 224.108C11.788 223.993 12.3528 223.971 12.9576 224.343C13.5624 224.714 13.745 225.266 13.6537 225.298Z" fill="#263238"/>
<path d="M52.0176 157.004C52.3257 158.676 52.8164 172.893 53.1302 180.392C53.444 187.891 52.6623 191.577 51.7665 193.26C50.8708 194.942 17.0885 218.772 14.5153 224.479L5.95703 217.876C5.95703 217.876 18.5091 196.307 23.8609 192.386C29.2127 188.464 39.5111 184.865 39.5111 184.865L36.5842 143.798L50.614 143.066L52.0176 157.004Z" fill="#263238"/>
<path d="M20.62 225.97L20.4717 242.503L41.9871 242.787C41.8902 240.821 30.8158 236.719 30.8158 236.719L31.3863 226.118L20.62 225.97Z" fill="#455A64"/>
<path d="M24.1736 235.763C23.966 235.821 23.7878 235.949 23.6731 236.125C23.5584 236.3 23.5152 236.509 23.5517 236.713C23.6047 236.914 23.7357 237.088 23.918 237.2C24.1004 237.312 24.3204 237.352 24.5331 237.314C24.7523 237.252 24.9399 237.114 25.0598 236.928C25.1798 236.741 25.2239 236.519 25.1835 236.304C25.107 236.099 24.9506 235.932 24.7472 235.836C24.5438 235.74 24.3095 235.724 24.0938 235.79" fill="white"/>
<path d="M20.4658 242.563V240.788L41.1483 241.815C41.1483 241.815 42.0954 242.235 41.9756 242.88L20.4658 242.563Z" fill="#263238"/>
<path d="M31.1469 236.643C31.1469 236.746 30.6163 236.785 30.0971 237.101C29.5779 237.418 29.2926 237.833 29.1956 237.795C29.0986 237.757 29.2641 237.172 29.9031 236.801C30.5421 236.43 31.1925 236.55 31.1469 236.643Z" fill="#263238"/>
<path d="M33.4283 237.587C33.4283 237.686 32.989 237.849 32.6295 238.27C32.2701 238.691 32.156 239.144 32.059 239.133C31.962 239.122 31.8935 238.559 32.3557 238.041C32.8178 237.522 33.4283 237.473 33.4283 237.587Z" fill="#263238"/>
<path d="M34.6555 240.171C34.5586 240.171 34.4216 239.685 34.6955 239.139C34.9694 238.592 35.4714 238.379 35.5114 238.461C35.5513 238.543 35.2489 238.838 35.0264 239.291C34.8039 239.745 34.7582 240.16 34.6555 240.171Z" fill="#263238"/>
<path d="M31.0097 234.212C30.9641 234.305 30.4848 234.158 29.8686 234.212C29.2524 234.267 28.8074 234.414 28.7275 234.327C28.6476 234.239 29.1212 233.89 29.823 233.863C30.5248 233.835 31.0611 234.136 31.0097 234.212Z" fill="#263238"/>
<path d="M53.5687 141.367C53.5687 142.334 55.2062 166.808 46.8477 184.515C46.8477 184.515 43.955 190.053 43.4243 192.473C42.8937 194.893 32.0818 235.026 32.0818 235.026L19.5867 234.589C19.5867 234.589 17.5898 214.484 19.5867 202.845C21.5837 191.206 25.2922 192.571 25.2922 185.056C25.2922 177.541 23.4265 161.958 23.4265 161.958C23.4265 161.958 20.6993 157.703 19.7693 149.451C19.0105 142.749 22.3083 135.567 22.3083 135.567L25.5661 130.045L53.1294 128.663L53.5687 141.367Z" fill="#263238"/>
<path d="M53.5687 141.367C53.5687 141.367 53.5687 141.083 53.5687 140.531C53.5687 139.98 53.5345 139.161 53.5117 138.085C53.4603 135.927 53.3747 132.748 53.272 128.641V128.581H53.2036L25.6403 129.925H25.5832L25.549 129.974C24.5391 131.689 23.4265 133.562 22.2854 135.496C21.4367 137.456 20.7741 139.485 20.3056 141.558C19.788 143.742 19.5561 145.978 19.6152 148.216C19.7889 150.553 20.1707 152.872 20.7563 155.147C21.3213 157.536 22.2094 159.844 23.398 162.013V161.958C23.8716 166.032 24.3109 170.254 24.6817 174.602C24.8643 176.787 25.0241 178.971 25.1382 181.216C25.1952 182.309 25.2409 183.456 25.2466 184.586C25.2466 185.132 25.2466 185.717 25.2123 186.279C25.1717 186.843 25.0994 187.405 24.9955 187.962C24.762 189.083 24.3482 190.162 23.7689 191.162C23.1983 192.183 22.6278 193.194 22.0572 194.259C21.0239 196.42 20.2709 198.695 19.8149 201.032C18.8222 205.729 18.6225 210.611 18.5654 215.533C18.5654 222.027 18.8849 228.406 19.4441 234.572V234.703H19.5753L32.0704 235.14H32.1902L32.2187 235.026C35.8417 221.584 39.2194 209.022 42.1976 197.727L43.276 193.549C43.4643 192.855 43.5841 192.167 43.8066 191.512C44.0291 190.856 44.2802 190.206 44.5426 189.573C45.0789 188.306 45.6837 187.077 46.2543 185.881L46.6993 184.99C46.8573 184.699 46.9983 184.4 47.1215 184.095C47.3782 183.488 47.635 182.893 47.8917 182.298C49.6661 177.893 50.9865 173.332 51.8342 168.681C53.0562 162.056 53.6861 155.343 53.7171 148.615C53.7513 143.907 53.5516 141.351 53.5516 141.351C53.5516 141.351 53.5516 141.509 53.5516 141.82C53.5516 142.132 53.5516 142.607 53.5858 143.219C53.6201 144.448 53.6429 146.261 53.5858 148.615C53.5331 155.337 52.8976 162.043 51.6859 168.665C50.8186 173.301 49.481 177.845 47.692 182.232L46.9275 184.018C46.802 184.324 46.6593 184.613 46.5053 184.908C46.3512 185.203 46.2029 185.504 46.0546 185.804C45.484 187 44.8792 188.229 44.3429 189.502C44.0748 190.141 43.818 190.791 43.5955 191.457C43.373 192.123 43.2417 192.828 43.0592 193.505C42.6997 194.882 42.3403 196.269 41.9694 197.683C38.9398 208.967 35.5678 221.53 31.9563 234.971L32.1046 234.867L19.6095 234.425L19.7579 234.556C19.1873 228.401 18.8564 222.027 18.8792 215.543C18.9363 210.628 19.136 205.767 20.123 201.103C20.5776 198.788 21.3228 196.534 22.3425 194.39C22.856 193.336 23.4836 192.336 24.0541 191.299C24.6296 190.272 25.0375 189.167 25.2637 188.022C25.3719 187.453 25.4462 186.878 25.4862 186.301C25.4862 185.755 25.5433 185.154 25.5204 184.592C25.5204 183.456 25.4691 182.325 25.412 181.205C25.2979 178.966 25.1325 176.759 24.9442 174.586C24.5638 170.216 24.1321 165.998 23.649 161.931V161.898C22.46 159.757 21.5681 157.476 20.996 155.114C20.4136 152.855 20.0319 150.553 19.8549 148.233C19.7934 146.015 20.0196 143.799 20.5281 141.635C20.9879 139.582 21.6351 137.571 22.4623 135.627L25.7144 130.099L25.6231 130.154L53.1865 128.729L53.1123 128.668C53.2492 132.77 53.3519 135.949 53.4204 138.106C53.4603 139.199 53.4888 139.996 53.5117 140.553C53.5345 141.11 53.5687 141.367 53.5687 141.367Z" fill="#455A64"/>
<path d="M44.6061 91.2498C44.6061 91.2498 37.189 89.9936 37.8794 99.1312C38.313 104.593 39.9904 113.965 40.9204 119.946C41.2399 122.016 41.9474 125.719 44.8058 127.893L65.2886 141.46L71.7529 134.059L53.4611 117.384L50.6083 100.89L44.6061 91.2498Z" fill="#455A64"/>
<path d="M45.4782 58.3154C46.6539 59.2217 47.5841 60.3858 48.1899 61.7093C48.7958 63.0327 49.0594 64.4765 48.9586 65.9182C48.8445 67.3164 48.4394 68.9058 49.3922 69.9709C50.345 71.0359 52.1708 70.9977 53.0723 72.0791C54.1278 73.3572 53.2434 75.2579 53.6428 76.8472C53.8464 77.5896 54.3192 78.2385 54.9767 78.6777C55.6342 79.117 56.4335 79.3181 57.2316 79.245C55.3591 80.7117 53.1009 81.6566 50.7045 81.9758L48.8331 79.742C49.5292 80.5285 49.3409 81.7792 48.6733 82.5821C47.9482 83.3294 47.0131 83.8604 45.9803 84.1114C43.5224 84.8353 40.923 85.0064 38.3847 84.6113C35.8464 84.2163 33.4375 83.2658 31.3457 81.8338" fill="#263238"/>
<path d="M18.0747 70.6426C18.4398 69.5503 19.056 68.5836 19.3013 67.4857C19.8262 65.1208 18.6224 62.4554 19.8205 60.3253C20.6764 58.8124 22.4907 58.0696 24.2138 57.5617C25.9368 57.0537 27.774 56.6277 29.0578 55.4207C29.9935 54.5359 30.5298 53.3124 31.4655 52.4276C32.8006 51.1605 34.7747 50.729 36.6461 50.6198C38.5785 50.441 40.5263 50.7439 42.3002 51.4991C43.1811 51.8838 43.9551 52.4615 44.5597 53.1854C45.1642 53.9093 45.5825 54.7592 45.7806 55.6665C45.9289 56.5513 45.8148 57.4852 46.1115 58.3427C46.431 59.2822 47.2013 60.014 47.6805 60.8934C48.1605 61.8377 48.2994 62.9079 48.0753 63.936C47.8512 64.9641 47.2769 65.8918 46.4424 66.5736L33.2171 82.9262C30.4385 83.9312 23.706 82.7186 21.5607 80.7415C19.4154 78.7643 17.1561 73.3462 18.0747 70.6426Z" fill="#263238"/>
<path d="M46.095 64.4982C45.5245 60.7842 42.5975 56.3984 38.7463 57.0756L26.8561 60.8989C25.715 61.1064 26.5251 62.9361 26.6392 64.0667L29.2238 89.7371C29.2238 89.7371 27.6149 90.8294 27.0443 90.6219C27.0118 90.611 26.9766 90.6101 26.9436 90.6193C26.9105 90.6285 26.8813 90.6473 26.86 90.6731C26.8386 90.699 26.8262 90.7306 26.8245 90.7635C26.8228 90.7964 26.8318 90.829 26.8503 90.8567C28.2938 92.8503 35.0206 101.518 41.9871 98.8582C43.539 98.2629 41.8216 93.5821 41.9871 91.8508L41.7817 87.4213C41.6276 85.1601 41.5534 84.2316 41.5534 84.2534C41.5534 84.2753 46.4716 83.0955 47.0022 76.7981C47.2704 73.6794 46.6998 68.6218 46.095 64.4982Z" fill="#FFBF9D"/>
<path d="M45.2676 70.211C45.2852 70.4189 45.2177 70.6252 45.0793 70.7863C44.9408 70.9473 44.7424 71.0505 44.5258 71.0739C44.4204 71.0901 44.3126 71.0859 44.2088 71.0616C44.1051 71.0372 44.0075 70.9932 43.9219 70.932C43.8362 70.8709 43.7643 70.794 43.7102 70.7058C43.6562 70.6176 43.6212 70.5199 43.6073 70.4185C43.5896 70.2106 43.6571 70.0043 43.7955 69.8432C43.934 69.6822 44.1325 69.579 44.349 69.5556C44.4544 69.5394 44.5622 69.5436 44.666 69.5679C44.7697 69.5923 44.8673 69.6363 44.9529 69.6975C45.0386 69.7586 45.1106 69.8355 45.1646 69.9237C45.2186 70.0119 45.2537 70.1096 45.2676 70.211Z" fill="#263238"/>
<path d="M37.1662 70.6973C37.1854 70.9046 37.1192 71.1109 36.9817 71.2722C36.8442 71.4334 36.6462 71.5368 36.4301 71.5602C36.3248 71.5757 36.2172 71.5709 36.1138 71.5462C36.0104 71.5215 35.9131 71.4774 35.8276 71.4165C35.7422 71.3555 35.6702 71.2788 35.616 71.191C35.5617 71.1032 35.5262 71.0059 35.5116 70.9048C35.4939 70.6969 35.5614 70.4906 35.6998 70.3295C35.8383 70.1685 36.0368 70.0653 36.2533 70.0419C36.3584 70.0257 36.4659 70.0299 36.5693 70.0544C36.6727 70.0788 36.7699 70.1229 36.855 70.1841C36.9402 70.2452 37.0117 70.3222 37.0651 70.4104C37.1186 70.4985 37.153 70.5961 37.1662 70.6973Z" fill="#263238"/>
<path d="M45.5638 67.5787C45.4725 67.7262 44.6966 67.2565 43.7267 67.393C42.7567 67.5296 42.1348 68.1632 42.015 68.0485C41.8952 67.9338 42.015 67.7426 42.2946 67.4531C42.6456 67.0759 43.1256 66.8307 43.6484 66.7617C44.1713 66.6926 44.7027 66.8041 45.1473 67.0763C45.4668 67.2893 45.6095 67.5132 45.5638 67.5787Z" fill="#263238"/>
<path d="M36.8522 68.2722C36.7381 68.4087 35.9792 67.8789 34.9351 67.9226C33.891 67.9663 33.1493 68.5289 33.0295 68.4033C32.9097 68.2776 33.0809 68.1083 33.4061 67.8571C33.833 67.5198 34.3648 67.3276 34.918 67.3109C35.4686 67.2902 36.0107 67.4459 36.4585 67.7533C36.7837 67.9772 36.9035 68.2066 36.8522 68.2722Z" fill="#263238"/>
<path d="M40.1208 74.1545C40.5814 73.9745 41.0648 73.8533 41.5585 73.7941C41.7811 73.7558 41.9979 73.6957 42.0207 73.5428C42.0237 73.3145 41.9518 73.091 41.8153 72.9038C41.5585 72.3904 41.2904 71.8497 41.0051 71.2653C39.864 68.9549 39.0367 67.0542 39.1337 67.0105C39.2307 66.9668 40.2292 68.802 41.3588 71.1069C41.6327 71.6804 41.8952 72.1992 42.1405 72.7454C42.3074 72.9988 42.3742 73.301 42.3288 73.5974C42.3026 73.6773 42.2577 73.7504 42.1973 73.811C42.137 73.8716 42.0629 73.9182 41.9807 73.947C41.8571 73.9875 41.7287 74.0132 41.5985 74.0235C41.1131 74.1229 40.617 74.1669 40.1208 74.1545Z" fill="#263238"/>
<path d="M41.5535 84.2641C38.4982 84.5326 35.4249 83.9843 32.6758 82.6802C32.6758 82.6802 35.2147 86.8857 41.6677 85.8262L41.5535 84.2641Z" fill="#FF9A6C"/>
<path d="M37.3878 76.6559C37.4895 76.44 37.6465 76.2522 37.8442 76.1098C38.0861 75.9996 38.3608 75.9745 38.6201 76.0388C39.0055 76.0926 39.362 76.2651 39.6357 76.5303C39.7701 76.6641 39.8647 76.8298 39.9098 77.0103C39.955 77.1908 39.949 77.3796 39.8925 77.5571C39.7898 77.9176 39.2306 78.1033 38.8484 78.1798C38.4524 78.2351 38.0486 78.1559 37.7073 77.9558C37.5588 77.8911 37.4292 77.7925 37.3297 77.6688C37.2303 77.545 37.164 77.3998 37.1367 77.2458C37.162 77.0308 37.2489 76.8267 37.3878 76.6559Z" fill="#FF9A6C"/>
<path d="M37.5707 75.4492C37.7134 75.4492 37.7932 76.3613 38.6776 76.9621C39.5619 77.5629 40.5889 77.3827 40.606 77.5083C40.6232 77.6339 40.3949 77.7049 39.9556 77.7486C39.3856 77.7986 38.8155 77.6535 38.3467 77.339C37.8943 77.0402 37.5828 76.5831 37.4794 76.0664C37.4224 75.6895 37.5023 75.4492 37.5707 75.4492Z" fill="#263238"/>
<path d="M36.7713 64.9132C36.6971 65.148 35.7957 65.1043 34.7516 65.3064C33.7074 65.5085 32.8801 65.8526 32.7261 65.6396C32.6576 65.5467 32.7832 65.3173 33.1084 65.0661C33.544 64.7554 34.0483 64.5446 34.5825 64.4499C35.1166 64.3552 35.6664 64.3791 36.1893 64.5199C36.5887 64.6291 36.7998 64.7985 36.7713 64.9132Z" fill="#263238"/>
<path d="M45.011 64.4492C44.8455 64.6567 44.1266 64.5093 43.2993 64.5639C42.472 64.6185 41.7417 64.8097 41.5592 64.6185C41.4793 64.5257 41.5592 64.3181 41.873 64.1106C42.2856 63.8503 42.7655 63.7047 43.2594 63.69C43.7502 63.6562 44.2409 63.7566 44.6744 63.9795C44.9711 64.1433 45.0852 64.34 45.011 64.4492Z" fill="#263238"/>
<path d="M24.2252 61.7947C24.7957 60.9099 25.9026 60.4566 26.9296 60.0797C31.3649 58.4403 35.9886 57.3126 40.7027 56.7207C41.2732 57.6437 40.7483 58.9054 39.864 59.5772C38.9796 60.249 37.8385 60.5166 36.783 60.8935C35.7275 61.2704 34.6377 61.8602 34.1984 62.8597C33.7591 63.8592 34.1299 65.1755 33.7191 66.257C33.0174 68.1249 30.2958 68.7257 29.6169 70.5882C29.092 72.0028 29.9478 73.5047 30.1874 74.9904C30.297 75.7443 30.2373 76.512 30.0124 77.2421C29.7874 77.9723 29.4023 78.6481 28.8829 79.2244C28.3634 79.8008 27.7215 80.2645 27 80.5845C26.2784 80.9045 25.4939 81.0735 24.6987 81.0802C24.3792 75.7313 24.0578 70.3861 23.7345 65.0445C23.6375 63.9302 23.5919 62.7287 24.2252 61.7947Z" fill="#263238"/>
<path d="M12.9747 75.3015C13.859 74.5423 14.9659 73.8869 15.3139 72.8055C15.8274 71.227 14.5037 69.3755 15.3596 67.939C16.1355 66.6282 18.4234 66.6992 19.148 65.3611C19.7186 64.3124 19.0624 63.3894 19.2736 62.4718C19.4847 61.5542 20.854 60.7513 21.8239 60.8606L29.4351 71.44C30.1425 74.9902 30.8557 76.9018 30.0627 78.9555C29.5381 80.0612 29.1421 81.2188 28.8816 82.4073C28.7105 83.6089 29.0357 84.9689 30.057 85.6844C25.4926 86.0285 21.2248 83.7454 17.2766 81.5334L13.1173 79.1958C12.662 78.9872 12.2694 78.6715 11.9762 78.2782C11.3543 77.306 12.096 76.0552 12.9747 75.3015Z" fill="#263238"/>
<path d="M17.1787 80.4577C17.338 80.5067 17.5026 80.5378 17.6694 80.5505C18.1454 80.594 18.6256 80.5608 19.0901 80.4522C19.8315 80.2822 20.5138 79.9302 21.0699 79.4308C21.8043 78.7542 22.2651 77.8507 22.3707 76.8802C22.4393 76.3174 22.3889 75.7472 22.2224 75.2034C22.0178 74.6239 21.7339 74.0729 21.378 73.5649C21.0006 73.0492 20.7064 72.4821 20.505 71.8827C20.3981 71.5762 20.3646 71.2506 20.4071 70.9301C20.4496 70.6096 20.5669 70.3023 20.7504 70.0311C21.1612 69.4849 21.9314 69.3702 22.6503 69.0972C23.0386 68.9636 23.3763 68.722 23.6202 68.4035C23.8448 68.0629 23.9544 67.6643 23.934 67.262C23.8354 66.4908 23.6615 65.7301 23.4148 64.9899C23.3272 64.6306 23.3272 64.2568 23.4148 63.8975C23.5153 63.5352 23.7481 63.2194 24.071 63.0073C24.7652 62.6241 25.5518 62.4208 26.3532 62.4174C27.1825 62.3912 27.9914 62.1638 28.7038 61.7565C29.3971 61.352 29.9599 60.7716 30.3299 60.0798C30.6336 59.4155 30.8261 58.7095 30.9005 57.9879C30.9796 57.3199 31.1287 56.6611 31.3455 56.0217C31.5858 55.4401 31.9512 54.9135 32.4181 54.476C33.2792 53.6937 34.391 53.2126 35.5733 53.1105C36.5591 53.0298 37.5485 53.2193 38.426 53.6567C39.086 53.98 39.681 54.4127 40.1833 54.9348C40.6031 55.3904 40.9668 55.8907 41.2674 56.4258C41.2674 56.4258 41.2674 56.3876 41.2274 56.3111C41.1806 56.2027 41.1273 56.0969 41.0677 55.9943C40.8498 55.5979 40.5836 55.2275 40.2746 54.8911C39.7727 54.348 39.1738 53.8949 38.5059 53.5529C37.6191 53.0863 36.6115 52.8722 35.6018 52.9358C34.3627 53.0226 33.1925 53.5143 32.2869 54.3285C31.788 54.7898 31.3987 55.3487 31.1458 55.967C30.9196 56.6184 30.7628 57.29 30.6779 57.9715C30.5988 58.6695 30.4063 59.3513 30.1074 59.9924C29.7595 60.637 29.2348 61.1789 28.5897 61.5599C27.9099 61.9416 27.1409 62.1538 26.3532 62.1771C25.4946 62.1753 24.6513 62.3941 23.9112 62.8106C23.5409 63.0518 23.2736 63.4124 23.1581 63.8265C23.0581 64.2306 23.0581 64.6514 23.1581 65.0554C23.3997 65.7817 23.5716 66.5276 23.6716 67.2838C23.6951 67.6351 23.6033 67.9845 23.4091 68.2834C23.1887 68.5604 22.8896 68.7709 22.5476 68.8896C22.211 69.0262 21.8458 69.119 21.4921 69.261C21.1237 69.3941 20.7989 69.6184 20.5507 69.911C20.3492 70.2126 20.2201 70.5532 20.1727 70.9083C20.1253 71.2634 20.1609 71.6242 20.2768 71.9646C20.4904 72.5833 20.798 73.1685 21.1897 73.7014C21.5372 74.1844 21.8155 74.7097 22.017 75.2635C22.1786 75.78 22.2329 76.3218 22.1767 76.8583C22.0832 77.7924 21.6513 78.6658 20.9558 79.3271C20.4234 79.8206 19.767 80.1742 19.0501 80.3539C18.4396 80.5065 17.8035 80.5418 17.1787 80.4577Z" fill="#455A64"/>
<path d="M11.0973 72.9368C11.0227 73.044 10.9722 73.1649 10.949 73.2918C10.8731 73.6664 10.9421 74.0546 11.143 74.3842C11.2822 74.6194 11.4777 74.8197 11.7135 74.9686C12.0075 75.1388 12.3457 75.2259 12.6892 75.2198C13.1066 75.2111 13.5135 75.0929 13.8656 74.8781C14.2176 74.6634 14.5015 74.3603 14.6861 74.0018C14.9031 73.5905 15.0146 73.1355 15.0113 72.6746C14.9975 72.1794 14.8892 71.6907 14.6918 71.2327C14.3324 70.2878 13.6705 69.3648 13.6591 68.2615C13.6375 67.9899 13.6734 67.7168 13.7646 67.4588C13.8558 67.2007 14.0003 66.9629 14.1897 66.7595C14.6523 66.3939 15.2467 66.2173 15.8443 66.268C16.5093 66.3145 17.1777 66.2479 17.8184 66.0713C18.1542 65.9405 18.4379 65.711 18.6286 65.4159C18.8123 65.1226 18.9271 64.7946 18.9652 64.4547C18.9981 63.8024 18.9425 63.1488 18.7998 62.5103C18.6976 61.9109 18.7346 61.2974 18.9082 60.7133C19.2316 59.5984 19.9891 58.6445 21.0249 58.048C22.0082 57.5686 23.0997 57.3284 24.2029 57.3489C25.1834 57.351 26.1579 57.2035 27.0899 56.9119C27.8476 56.6458 28.5421 56.2372 29.1324 55.7103C29.5845 55.3105 29.9695 54.8463 30.2736 54.334C30.5412 53.9091 30.7249 53.4407 30.8156 52.9521C30.6457 53.4133 30.4338 53.8592 30.1823 54.2848C29.4635 55.4332 28.3563 56.312 27.0442 56.7754C26.1201 57.046 25.1579 57.1787 24.1915 57.1686C23.0561 57.138 21.9307 57.3783 20.9165 57.8677C19.8273 58.4792 19.0232 59.4658 18.6685 60.6259C18.486 61.242 18.4451 61.8886 18.5487 62.5212C18.6823 63.1389 18.7378 63.7697 18.7142 64.4C18.7007 64.6997 18.6015 64.9901 18.4275 65.2396C18.2534 65.489 18.0112 65.6879 17.7271 65.8146C17.1175 65.9803 16.4819 66.0413 15.85 65.9949C15.1883 65.9395 14.5304 66.1357 14.0186 66.5411C13.8096 66.7689 13.6512 67.035 13.5531 67.3233C13.455 67.6115 13.4193 67.9159 13.448 68.2178C13.4732 68.7849 13.6147 69.3416 13.8645 69.8563C14.087 70.3479 14.3324 70.8067 14.5206 71.2655C14.7121 71.7004 14.8203 72.1648 14.8402 72.6364C14.848 73.0671 14.7503 73.4936 14.5549 73.8817C14.3893 74.2165 14.1311 74.5015 13.8082 74.7056C13.4853 74.9098 13.1101 75.0253 12.7234 75.0396C12.4062 75.0505 12.0921 74.9767 11.8162 74.8266C11.58 74.6946 11.3835 74.5065 11.2457 74.2804C11.0457 73.9765 10.9629 73.6152 11.0118 73.259C11.0403 73.0624 11.1145 72.9423 11.0973 72.9368Z" fill="#263238"/>
<path d="M59.1548 75.5418C59.2905 75.9112 59.2905 76.3139 59.1548 76.6833C59.0795 76.8954 58.9552 77.0885 58.7912 77.2483C58.6273 77.4081 58.4278 77.5305 58.2076 77.6063C57.9141 77.6892 57.6022 77.6922 57.307 77.615C57.0118 77.5379 56.7448 77.3836 56.5359 77.1694C56.2963 76.9172 56.157 76.5924 56.1423 76.2518C56.1313 75.8804 56.1912 75.5102 56.3191 75.1595C56.5588 74.4221 57.0551 73.6192 56.981 72.6525C56.9449 72.1624 56.8025 71.6848 56.5628 71.2503C56.3231 70.8158 55.9914 70.434 55.5888 70.1292C55.1673 69.8061 54.685 69.5632 54.1682 69.4137C53.6401 69.2736 53.0956 69.1983 52.5478 69.1897C52.0169 69.1855 51.4877 69.1325 50.9674 69.0313C50.4817 68.9355 50.0471 68.6781 49.7407 68.3049C49.4693 67.9219 49.317 67.4731 49.3014 67.0105C49.276 66.5597 49.3144 66.1078 49.4155 65.6669C49.6659 64.8351 49.804 63.9761 49.8263 63.1108C49.7803 62.3425 49.4963 61.6047 49.0104 60.9916C48.5995 60.5051 48.0962 60.0974 47.5269 59.79C47.111 59.5544 46.7126 59.2916 46.3345 59.0035C46.0244 58.7493 45.772 58.4371 45.5928 58.0859C45.5928 58.0859 45.5928 58.0859 45.5928 58.1624C45.6153 58.2363 45.6459 58.3077 45.6841 58.3754C45.8264 58.6409 46.02 58.8781 46.2546 59.0745C46.6244 59.3827 47.0194 59.6621 47.4357 59.9102C47.98 60.2201 48.4597 60.6238 48.8506 61.1008C49.3029 61.6886 49.5612 62.3923 49.5923 63.1217C49.5585 63.9675 49.4147 64.8059 49.1644 65.6177C49.054 66.0796 49.0099 66.5536 49.0332 67.0269C49.0545 67.5366 49.2244 68.0304 49.5239 68.4524C49.864 68.8737 50.3492 69.166 50.8932 69.2771C51.4285 69.3823 51.9729 69.439 52.5193 69.4464C53.0474 69.4531 53.5725 69.5228 54.0826 69.654C54.5667 69.798 55.0192 70.0257 55.4177 70.3258C55.7927 70.6088 56.1024 70.9631 56.3272 71.3664C56.5521 71.7696 56.6873 72.2131 56.7242 72.6689C56.8041 73.5482 56.3477 74.3074 56.0966 75.0994C55.9648 75.4793 55.9067 75.8792 55.9254 76.2791C55.9503 76.6608 56.1138 77.0221 56.3876 77.3005C56.622 77.5355 56.9207 77.7026 57.2496 77.7828C57.5785 77.863 57.9244 77.8529 58.2476 77.7538C58.4837 77.6661 58.6958 77.5281 58.8679 77.3502C59.0399 77.1722 59.1673 76.9591 59.2403 76.727C59.3438 76.4423 59.3596 76.1352 59.286 75.8422C59.2612 75.7354 59.2168 75.6337 59.1548 75.5418Z" fill="#263238"/>
<path d="M53.7006 118.324V112.283C54.4081 108.891 54.0715 104.872 52.4226 101.775C51.2264 99.7787 49.9041 97.8544 48.463 96.0126L42.1869 88.2077C38.7294 90.6163 33.3149 88.874 28.6706 87.2573C28.6706 87.2573 24.1062 89.6878 21.9495 91.9708C19.7072 94.374 27.3754 124.441 27.3754 124.441C23.9008 131.094 19.4163 137.003 18.7373 143.066L55.0243 144.404L53.4838 128.477L53.7006 118.324Z" fill="#455A64"/>
<path d="M53.1979 128.647C53.1618 128.421 53.1523 128.192 53.1694 127.964C53.1694 127.467 53.1694 126.872 53.1694 126.112C53.1979 124.474 53.2321 122.36 53.2721 120.006C53.312 117.652 53.3862 115.462 53.4661 113.9C53.506 113.119 53.5459 112.485 53.5802 112.048C53.5841 111.822 53.6148 111.596 53.6714 111.376C53.6945 111.602 53.6945 111.829 53.6714 112.054C53.6714 112.551 53.6714 113.146 53.6714 113.905C53.6429 115.544 53.603 117.658 53.563 120.012C53.5231 122.366 53.4546 124.556 53.3748 126.118C53.3348 126.899 53.2949 127.532 53.2549 127.969C53.2639 128.196 53.2447 128.424 53.1979 128.647Z" fill="#263238"/>
<path d="M69.7725 134.141C69.7725 134.141 73.3099 134.327 75.478 135.638C77.6461 136.948 81.1835 138.991 82.6384 141.52C83.306 142.683 81.406 142.929 80.4646 142.257C79.5232 141.586 78.0911 140.307 77.3779 140.155L76.6647 139.996C77.3158 141.407 78.0414 142.785 78.8385 144.125C79.5745 145.218 80.2136 147.031 77.9998 147.113C77.9998 147.113 76.5107 148.97 75.0044 147.593C75.0044 147.593 73.8291 149.281 71.9349 146.944C71.9349 146.944 70.828 148.282 70.3716 147.768C69.9151 147.255 68.4032 146.446 67.9638 144.775C67.3047 142.83 66.5429 140.917 65.6816 139.046L69.7725 134.141Z" fill="#FFBF9D"/>
<path d="M148.971 87.2026C149.364 87.2026 165.562 85.5641 165.562 85.5641C165.562 85.5641 166.937 79.2612 166.863 77.6227C166.789 75.9841 165.636 65.1425 165.636 65.1425L171.701 62.4116C171.701 62.4116 179.809 88.5845 178.04 90.7582C176.271 92.932 172.945 94.8819 172.66 94.8928C172.375 94.9037 156.964 101.447 146.243 98.0443C135.523 94.6416 148.971 87.2026 148.971 87.2026Z" fill="#FFBF9D"/>
<path d="M134.775 101.332C137.16 103.599 141.268 105.483 148.126 103.845C161.683 100.6 171.844 97.8368 175.884 95.7613C179.923 93.6858 178.348 84.4117 178.691 83.9912C179.712 82.724 178.588 80.0041 177.133 79.578C172.985 78.3765 165.768 78.8516 165.403 79.2121C163.274 81.3531 165.214 83.9529 165.214 83.9529L147.339 86.1977C145.141 86.0991 142.939 86.2328 140.772 86.5964" fill="#455A64"/>
<path d="M140.772 86.5962L141.2 86.5089C141.485 86.4597 141.907 86.3887 142.466 86.3232C144.084 86.1282 145.716 86.0624 147.344 86.1265L165.214 83.8326L165.129 84.0237C164.542 83.197 164.253 82.2092 164.307 81.2109C164.356 80.6946 164.532 80.1967 164.82 79.7581C164.965 79.5378 165.13 79.3295 165.311 79.1355C165.383 79.0848 165.461 79.0444 165.545 79.0153L165.75 78.9661C165.887 78.9334 166.019 78.9224 166.15 78.8951C168.364 78.6508 170.597 78.6069 172.82 78.7641C173.986 78.8321 175.146 78.9855 176.289 79.2229C176.574 79.2829 176.859 79.3649 177.156 79.4359C177.46 79.5288 177.739 79.6855 177.972 79.8946C178.425 80.3073 178.771 80.8162 178.981 81.3803C179.208 81.9452 179.288 82.5542 179.215 83.1553C179.163 83.4681 179.041 83.7663 178.856 84.0292C178.805 84.0838 178.81 84.2313 178.805 84.3733V84.8102C178.845 85.9845 178.902 87.1807 178.867 88.3823C178.876 90.088 178.585 91.783 178.006 93.3962C177.708 94.2043 177.197 94.925 176.522 95.488C176.173 95.7495 175.789 95.9661 175.381 96.1325C175.005 96.3237 174.605 96.4711 174.24 96.6459C172.677 97.2849 171.108 97.8093 169.562 98.2845C168.016 98.7596 166.498 99.2184 164.997 99.639C159.029 101.278 153.586 102.605 149.056 103.692C147.974 103.966 146.877 104.182 145.77 104.342C144.778 104.474 143.776 104.525 142.774 104.494C141.166 104.462 139.579 104.131 138.102 103.522C137.175 103.131 136.31 102.616 135.534 101.993C135.261 101.781 135.005 101.549 134.77 101.299C134.77 101.299 135.032 101.54 135.574 101.949C136.36 102.55 137.228 103.046 138.153 103.424C139.622 104.004 141.191 104.314 142.78 104.336C143.771 104.359 144.761 104.3 145.741 104.161C146.841 103.995 147.93 103.773 149.005 103.495C153.569 102.403 158.967 101.059 164.917 99.3877C166.407 98.9672 167.924 98.5193 169.482 98.0277C171.039 97.5362 172.586 97.0173 174.132 96.3892C174.508 96.2199 174.902 96.0724 175.273 95.8813C175.654 95.7207 176.012 95.5152 176.34 95.2695C176.977 94.7398 177.459 94.0602 177.738 93.2979C178.3 91.706 178.579 90.0352 178.565 88.3549C178.599 87.1588 178.565 85.9736 178.502 84.7939V84.346C178.502 84.2695 178.502 84.1931 178.502 84.1111C178.498 84.0676 178.498 84.0236 178.502 83.9801C178.515 83.9463 178.53 83.9135 178.548 83.8817L178.576 83.8381C178.737 83.6141 178.842 83.3583 178.885 83.0898C178.951 82.5344 178.875 81.9718 178.662 81.4513C178.47 80.9297 178.154 80.4583 177.738 80.0749C177.536 79.8935 177.294 79.7573 177.03 79.6762C176.745 79.6052 176.46 79.5287 176.18 79.4632C175.053 79.2292 173.908 79.0777 172.757 79.0098C170.557 78.8489 168.347 78.8891 166.156 79.13C166.024 79.13 165.893 79.1628 165.768 79.1955L165.585 79.2338C165.545 79.2487 165.507 79.2669 165.471 79.2884C165.299 79.4677 165.144 79.6615 165.009 79.8673C164.737 80.2692 164.573 80.7286 164.529 81.2055C164.48 82.1442 164.748 83.0731 165.294 83.8544L165.408 84.0237H165.208L147.327 86.2085C145.708 86.1298 144.084 86.1736 142.472 86.3395C141.901 86.3942 141.485 86.4542 141.2 86.4925C140.914 86.5307 140.772 86.5962 140.772 86.5962Z" fill="#263238"/>
<path d="M220.73 8.19743L228.999 20.1443L97.6166 103.484C96.1029 104.444 94.2528 104.789 92.4733 104.443C90.6937 104.098 89.1304 103.089 88.1274 101.64L87.4183 100.616C86.4153 99.167 86.0547 97.3959 86.4158 95.6924C86.7769 93.9888 87.8301 92.4924 89.3438 91.5322L220.727 8.19287L220.73 8.19743Z" fill="#FF725E"/>
<path d="M196.011 0L214.397 28.14C214.486 28.2762 214.546 28.4278 214.574 28.5863C214.602 28.7447 214.597 28.9069 214.559 29.0634C214.522 29.22 214.452 29.3679 214.355 29.4988C214.257 29.6296 214.134 29.7408 213.992 29.826L206.484 34.3211C206.342 34.4063 206.183 34.4639 206.018 34.4905C205.852 34.5171 205.683 34.5122 205.52 34.4761C205.356 34.44 205.201 34.3735 205.065 34.2802C204.928 34.187 204.812 34.0689 204.723 33.9327L186.336 5.79271L196.011 0Z" fill="#FF725E"/>
<path d="M197.888 39.0707L182.907 19.5901C182.301 18.8031 181.144 18.6348 180.322 19.2142L174.11 23.592C173.288 24.1714 173.112 25.2792 173.717 26.0662L188.698 45.5468C189.304 46.3338 190.461 46.5022 191.283 45.9228L197.495 41.5449C198.317 40.9655 198.493 39.8577 197.888 39.0707Z" fill="#FF725E"/>
<path d="M220.792 19.5862C220.832 19.6517 193.805 34.1255 160.439 51.909C127.073 69.6925 99.9609 84.057 99.9609 83.986C99.9609 83.915 126.942 69.4468 160.319 51.6578C193.697 33.8687 220.752 19.5152 220.792 19.5862Z" fill="#263238"/>
<path d="M36.601 128.576C46.7568 146.053 68.1696 153.154 84.4303 144.497C100.691 135.84 105.655 114.648 95.499 97.1923C85.3432 79.7365 63.9361 72.6143 47.6697 81.2712C31.4033 89.9281 26.4509 111.12 36.601 128.576ZM86.6897 101.889C93.8044 114.124 90.3298 128.963 78.9302 135.032C67.5306 141.1 52.5308 136.124 45.416 123.879C38.3013 111.633 41.7759 96.8045 53.1698 90.731C64.5637 84.6575 79.5749 89.6551 86.6897 101.889Z" fill="#FF725E"/>
<path d="M123.307 80.0312H107.857C105.802 80.0312 104.137 81.6256 104.137 83.5923V84.2587C104.137 86.2254 105.802 87.8197 107.857 87.8197H123.307C125.362 87.8197 127.027 86.2254 127.027 84.2587V83.5923C127.027 81.6256 125.362 80.0312 123.307 80.0312Z" fill="#FF725E"/>
<path d="M137.742 72.3413H122.291C120.237 72.3413 118.571 73.9357 118.571 75.9024V76.5687C118.571 78.5355 120.237 80.1298 122.291 80.1298H137.742C139.796 80.1298 141.462 78.5355 141.462 76.5687V75.9024C141.462 73.9357 139.796 72.3413 137.742 72.3413Z" fill="#FF725E"/>
<path d="M115.223 75.3724C115.297 75.3342 117.037 78.2672 119.12 81.9266C121.203 85.586 122.829 88.5681 122.754 88.6063C122.68 88.6446 120.94 85.717 118.858 82.0522C116.775 78.3873 115.149 75.3724 115.223 75.3724Z" fill="#263238"/>
<path d="M108.599 79.8783C108.673 79.8401 110.373 82.642 112.404 86.1266C114.435 89.6112 116.016 92.4786 115.947 92.5169C115.879 92.5551 114.173 89.7532 112.165 86.2959C110.156 82.8386 108.53 79.9165 108.599 79.8783Z" fill="#263238"/>
<path d="M129.743 67.7645C129.817 67.7263 131.592 70.6429 133.709 74.2804C135.825 77.918 137.48 80.9056 137.406 80.9438C137.332 80.982 135.563 78.06 133.446 74.4224C131.329 70.7849 129.675 67.8028 129.743 67.7645Z" fill="#263238"/>
<path d="M122.777 71.7894C122.845 71.7512 124.586 74.6514 126.651 78.2671C128.716 81.8828 130.342 84.8212 130.268 84.8813C130.194 84.9414 128.465 82.0193 126.394 78.4036C124.323 74.788 122.703 71.8277 122.777 71.7894Z" fill="#263238"/>
<path d="M164.159 52.0892C164.824 52.1641 165.493 51.9996 166.038 51.6278C166.582 51.2559 166.963 50.7034 167.105 50.0777C167.248 49.452 167.142 48.798 166.808 48.243C166.474 47.688 165.937 47.2717 165.3 47.0753C165.712 46.6719 165.98 46.1548 166.068 45.5972C166.155 45.0397 166.058 44.4699 165.788 43.9685C165.519 43.4671 165.091 43.0596 164.567 42.8036C164.042 42.5476 163.446 42.456 162.864 42.542C162.84 41.9874 162.667 41.4483 162.361 40.9768C162.055 40.5054 161.626 40.1178 161.117 39.8518C160.609 39.5857 160.036 39.4501 159.457 39.4583C158.877 39.4665 158.309 39.6182 157.809 39.8985C157.156 39.3878 156.344 39.1007 155.502 39.0829C154.659 39.0651 153.834 39.3176 153.159 39.8002C152.591 39.6965 152.004 39.7706 151.484 40.0116C150.964 40.2526 150.539 40.6476 150.272 41.138C150.005 41.6284 149.91 42.1882 150.002 42.7343C150.093 43.2803 150.366 43.7837 150.78 44.1696" fill="#263238"/>
<path d="M152.583 42.3452H153.153C156.03 42.3475 158.8 43.3868 160.913 45.2562C163.025 47.1256 164.325 49.6879 164.553 52.4331C164.981 57.7256 165.38 63.5751 165.335 66.4153C165.226 72.314 159.098 73.1879 159.098 73.1879L159.595 80.2554L144.686 79.7912L143.448 54.1754C142.923 48.0637 146.193 42.6838 152.583 42.3452Z" fill="#FFBF9D"/>
<path d="M159.149 73.1877C156.297 73.1803 153.507 72.3898 151.11 70.9102C151.11 70.9102 153.084 75.3615 159.212 74.8481L159.149 73.1877Z" fill="#FF9A6C"/>
<path d="M161.18 57.977C161.182 58.1959 161.094 58.4066 160.935 58.5638C160.776 58.7211 160.559 58.8124 160.33 58.8181C160.219 58.8255 160.107 58.8117 160.001 58.7775C159.895 58.7432 159.798 58.6892 159.714 58.6186C159.63 58.548 159.562 58.4622 159.513 58.3661C159.464 58.2701 159.435 58.1657 159.429 58.0589C159.429 57.84 159.517 57.6295 159.676 57.4716C159.834 57.3138 160.05 57.2208 160.279 57.2124C160.391 57.205 160.503 57.219 160.609 57.2536C160.715 57.2881 160.813 57.3426 160.897 57.4138C160.981 57.485 161.049 57.5714 161.098 57.6681C161.146 57.7648 161.175 57.8698 161.18 57.977Z" fill="#263238"/>
<path d="M163.224 55.3225C163.115 55.4317 162.448 54.962 161.512 54.962C160.576 54.962 159.874 55.4099 159.772 55.3007C159.669 55.1914 159.834 55.0549 160.137 54.8419C160.546 54.5726 161.032 54.4314 161.529 54.4377C162.02 54.4357 162.498 54.5851 162.893 54.8637C163.178 55.0767 163.275 55.2788 163.224 55.3225Z" fill="#263238"/>
<path d="M152.673 57.5837C152.678 57.8058 152.591 58.0207 152.43 58.1814C152.27 58.342 152.05 58.4354 151.817 58.4412C151.706 58.4486 151.594 58.4348 151.489 58.4005C151.383 58.3663 151.285 58.3123 151.201 58.2417C151.117 58.1711 151.049 58.0852 151 57.9892C150.951 57.8931 150.923 57.7887 150.916 57.682C150.914 57.4626 151.002 57.2513 151.161 57.0932C151.32 56.935 151.537 56.8425 151.766 56.8354C151.877 56.8272 151.989 56.8401 152.094 56.8733C152.2 56.9065 152.298 56.9594 152.382 57.029C152.467 57.0985 152.536 57.1833 152.586 57.2785C152.636 57.3737 152.665 57.4774 152.673 57.5837Z" fill="#263238"/>
<path d="M153.946 55.4646C153.838 55.5738 153.17 55.1041 152.235 55.1041C151.299 55.1041 150.597 55.552 150.494 55.4428C150.392 55.3335 150.557 55.197 150.86 54.984C151.269 54.7147 151.755 54.5735 152.252 54.5798C152.742 54.5778 153.22 54.7272 153.615 55.0058C153.901 55.2188 153.998 55.4154 153.946 55.4646Z" fill="#263238"/>
<path d="M157.347 62.1766C157.845 62.0268 158.36 61.9387 158.882 61.9145C159.121 61.9145 159.35 61.8489 159.395 61.6905C159.415 61.4527 159.36 61.2147 159.235 61.0078L158.528 59.2491C157.547 56.7422 156.816 54.6831 156.942 54.6503C157.067 54.6175 157.929 56.6111 158.91 59.1126C159.144 59.7298 159.372 60.3196 159.589 60.8822C159.737 61.1621 159.779 61.4824 159.709 61.7888C159.673 61.8698 159.619 61.9418 159.549 61.9995C159.48 62.0572 159.398 62.0991 159.31 62.122C159.178 62.1594 159.042 62.1778 158.904 62.1766C158.387 62.2385 157.864 62.2385 157.347 62.1766Z" fill="#263238"/>
<path d="M154.774 51.9907C154.648 52.2201 153.844 51.9907 152.845 51.9361C151.847 51.8815 151.014 52.0617 150.923 51.8214C150.883 51.7067 151.059 51.5046 151.419 51.3189C151.883 51.0996 152.397 50.9981 152.914 51.024C153.426 51.0414 153.924 51.1884 154.357 51.45C154.682 51.663 154.831 51.8869 154.774 51.9907Z" fill="#263238"/>
<path d="M163.28 51.6029C163.081 51.805 162.299 51.6029 161.363 51.6029C160.428 51.6029 159.652 51.7395 159.452 51.521C159.372 51.4172 159.498 51.2097 159.846 51.0185C160.325 50.7779 160.862 50.663 161.403 50.6854C161.941 50.6923 162.467 50.8375 162.927 51.1059C163.257 51.2916 163.366 51.4992 163.28 51.6029Z" fill="#263238"/>
<path d="M163.971 49.7567C163.971 49.7567 162.362 46.07 160.508 45.207C158.265 44.1584 157.296 46.5124 155.156 45.9334C153.016 45.3545 150.877 44.355 148.686 45.9334C146.29 47.6594 147.408 48.8773 147.248 51.4881C146.621 62.0621 144.589 65.0442 144.036 60.0631C143.973 59.5169 142.393 59.08 142.165 56.786C141.868 53.7984 141.759 50.1663 142.467 48.0472C143.037 46.2612 144.127 45.0268 146.039 43.6777C149.062 41.5367 153.205 41.493 156.017 41.7825C158.83 42.072 164.239 45.147 163.971 49.7567Z" fill="#263238"/>
<path d="M144.424 59.8994C144.418 59.6836 144.366 59.4713 144.271 59.2753C144.177 59.0794 144.041 58.9038 143.874 58.7593C143.706 58.6148 143.51 58.5043 143.297 58.4346C143.083 58.3649 142.857 58.3374 142.632 58.3537C141.491 58.4575 140.208 59.0747 140.276 61.3413C140.396 65.3612 144.589 64.4163 144.595 64.2961C144.601 64.176 144.492 61.5816 144.424 59.8994Z" fill="#FFBF9D"/>
<path d="M143.63 62.8106C143.63 62.8106 143.562 62.8652 143.436 62.9198C143.266 62.9947 143.072 63.0044 142.894 62.9471C142.617 62.7902 142.389 62.5651 142.233 62.2952C142.078 62.0253 142.001 61.7205 142.01 61.4124C141.988 61.0693 142.046 60.726 142.181 60.4074C142.217 60.2815 142.285 60.1659 142.378 60.0707C142.472 59.9755 142.588 59.9036 142.717 59.8612C142.801 59.8368 142.891 59.8416 142.971 59.8745C143.052 59.9075 143.117 59.9666 143.157 60.0414C143.214 60.1507 143.191 60.2326 143.214 60.2381C143.237 60.2435 143.299 60.1671 143.259 60.0032C143.237 59.9036 143.176 59.8158 143.088 59.7574C143.031 59.7169 142.965 59.6878 142.895 59.6718C142.826 59.6559 142.754 59.6534 142.683 59.6646C142.511 59.7016 142.352 59.7804 142.221 59.8932C142.09 60.0061 141.992 60.1493 141.936 60.3091C141.766 60.6609 141.69 61.0474 141.713 61.4342C141.764 62.2425 142.221 62.9908 142.854 63.1437C142.967 63.1723 143.086 63.1758 143.2 63.154C143.315 63.1322 143.423 63.0858 143.516 63.0181C143.63 62.9089 143.647 62.8106 143.63 62.8106Z" fill="#FF9A6C"/>
<path d="M144.532 52.1111C145.045 52.5119 145.655 52.784 146.306 52.903C146.633 52.9521 146.967 52.8861 147.247 52.7175C147.527 52.5488 147.734 52.2887 147.829 51.9854C147.881 51.7069 147.829 51.3792 148 51.1662C148.172 50.9532 148.657 50.9914 149.005 51.0296C150.226 51.1552 151.658 49.8663 151.971 48.7302C152.13 48.9481 152.369 49.0999 152.641 49.1547C152.912 49.2095 153.195 49.1632 153.432 49.0251C153.82 48.7982 154.164 48.508 154.448 48.1676C154.613 47.951 154.831 47.7757 155.082 47.6569C155.333 47.538 155.611 47.479 155.891 47.4849C156.187 47.5826 156.493 47.6468 156.804 47.6761C157.375 47.6324 157.626 47.0152 157.711 46.4909C157.797 45.9666 157.865 45.3603 158.333 45.0763C158.813 44.8962 159.344 44.8827 159.834 45.038C160.341 45.1145 160.975 44.9998 161.129 44.5246C161.15 44.3977 161.144 44.2679 161.112 44.1432C161.079 44.0184 161.021 43.9011 160.941 43.7982C160.601 43.3111 160.1 42.9478 159.518 42.7674C158.936 42.587 158.307 42.6 157.734 42.8042C157.532 42.132 157.126 41.5326 156.567 41.0822C156.008 40.6319 155.321 40.3511 154.595 40.2755C153.869 40.1999 153.135 40.3331 152.488 40.6579C151.841 40.9828 151.31 41.4846 150.962 42.0996C150.517 41.71 149.981 41.4291 149.399 41.2807C148.816 41.1324 148.205 41.121 147.617 41.2477C147.03 41.3743 146.482 41.6351 146.023 42.0079C145.563 42.3807 145.204 42.8544 144.977 43.3886C144.463 43.2574 143.92 43.2738 143.416 43.4356C142.912 43.5974 142.469 43.8975 142.142 44.2986C141.815 44.6997 141.618 45.184 141.576 45.6914C141.535 46.1987 141.65 46.7065 141.907 47.1518C141.516 47.3366 141.181 47.6135 140.932 47.9565C140.684 48.2994 140.53 48.6973 140.486 49.1125C140.486 49.9427 141.314 50.7511 142.152 50.5544C141.978 50.8816 141.942 51.2601 142.05 51.6122C142.159 51.9642 142.404 52.2632 142.735 52.4478C143.067 52.6323 143.46 52.6883 143.833 52.6044C144.206 52.5204 144.532 52.3029 144.743 51.9964" fill="#263238"/>
<path d="M158.043 43.9839C158.043 43.9839 158.043 43.9839 158.043 44.0604C158.043 44.1368 158.043 44.1805 158.014 44.2734C157.955 44.5459 157.851 44.8077 157.706 45.0489C157.474 45.4269 157.156 45.7499 156.776 45.9938C156.273 46.3221 155.672 46.4851 155.064 46.4581L155.133 46.3707C155.256 46.7313 155.225 47.124 155.047 47.463C154.859 47.8224 154.617 48.1536 154.328 48.4462C154.188 48.6168 154.03 48.7724 153.855 48.9104C153.544 49.1059 153.172 49.1896 152.803 49.1465C152.434 49.1035 152.093 48.9366 151.841 48.6756L151.995 48.6319C151.936 49.0492 151.786 49.4501 151.555 49.8085C151.324 50.167 151.017 50.4751 150.654 50.7128C150.255 50.9967 149.77 51.1482 149.273 51.1443C148.807 51.1199 148.348 51.0221 147.915 50.8548L148.03 50.8056C147.81 51.292 147.466 51.7182 147.031 52.0455C146.832 52.2084 146.598 52.3269 146.345 52.3921C146.093 52.4573 145.828 52.4676 145.57 52.4223C145.129 52.3305 144.726 52.1171 144.409 51.8085C144.093 51.4999 143.878 51.1096 143.79 50.6855L143.887 50.7292C143.443 50.9493 142.934 51.0186 142.444 50.9258C142.079 50.8591 141.735 50.7113 141.44 50.4943C141.256 50.3566 141.098 50.1904 140.972 50.0028C140.926 49.9376 140.891 49.8657 140.869 49.7898C141.029 50.0409 141.236 50.2613 141.48 50.4397C141.77 50.641 142.107 50.7739 142.461 50.8275C142.927 50.9119 143.409 50.8386 143.825 50.6199L143.904 50.5763V50.6636C143.991 51.0584 144.196 51.4204 144.493 51.7056C144.791 51.9908 145.17 52.1867 145.582 52.2694C145.817 52.3087 146.059 52.2973 146.289 52.2358C146.519 52.1744 146.731 52.0646 146.911 51.9144C147.32 51.6033 147.642 51.1997 147.847 50.7401L147.881 50.6691H147.961C148.374 50.8281 148.812 50.9204 149.256 50.9422C149.716 50.9457 150.165 50.8058 150.534 50.5435C150.876 50.3188 151.165 50.0284 151.383 49.6908C151.601 49.3532 151.744 48.9758 151.801 48.5827V48.3915L151.932 48.539C152.081 48.6959 152.267 48.8157 152.475 48.8881C152.682 48.9604 152.906 48.9831 153.125 48.9541C153.329 48.928 153.524 48.857 153.695 48.7466C153.86 48.6194 154.009 48.4747 154.14 48.3151C154.422 48.0364 154.661 47.72 154.848 47.3757C154.932 47.2223 154.983 47.0545 154.999 46.882C155.014 46.7094 154.994 46.5356 154.939 46.3707L154.905 46.2724H155.013C155.596 46.307 156.175 46.1594 156.662 45.8518C157.036 45.6211 157.352 45.3132 157.586 44.9506C157.797 44.6567 157.951 44.3294 158.043 43.9839Z" fill="#455A64"/>
<path d="M157.335 65.1756C157.3 65.0282 156.279 65.2685 155.332 64.6021C154.385 63.9358 154.231 62.8653 154.088 62.8926C153.946 62.9199 153.946 63.1766 154.048 63.619C154.189 64.1962 154.539 64.7071 155.035 65.0609C155.51 65.3994 156.103 65.5482 156.69 65.476C157.129 65.4105 157.357 65.2412 157.335 65.1756Z" fill="#263238"/>
<path d="M188.978 217.991L193.029 231.203C193.029 231.203 208.434 231.694 209.421 234.07L182.913 242.503L175.713 222.158L188.978 217.991Z" fill="#455A64"/>
<path d="M184.459 232.716C184.231 232.871 184.07 233.102 184.008 233.364C183.946 233.626 183.987 233.901 184.123 234.136C184.276 234.36 184.514 234.52 184.787 234.582C185.059 234.644 185.346 234.604 185.589 234.469C185.832 234.303 186.001 234.058 186.066 233.779C186.13 233.501 186.084 233.209 185.937 232.961C185.751 232.743 185.484 232.601 185.192 232.566C184.899 232.532 184.604 232.607 184.368 232.776" fill="#E0E0E0"/>
<path d="M207.925 233.114C207.925 233.114 209.278 233.229 209.42 234.07L182.912 242.503L182.273 240.422L207.903 233.103" fill="#263238"/>
<path d="M193.411 230.935C193.451 231.061 192.84 231.323 192.327 231.924C191.813 232.524 191.671 233.153 191.534 233.142C191.397 233.131 191.345 232.355 191.962 231.64C192.578 230.924 193.399 230.815 193.411 230.935Z" fill="white"/>
<path d="M196.572 231.148C196.646 231.263 196.161 231.65 195.899 232.311C195.636 232.972 195.71 233.573 195.579 233.606C195.448 233.638 195.123 232.967 195.459 232.147C195.796 231.328 196.532 231.033 196.572 231.148Z" fill="white"/>
<path d="M199.259 233.83C199.151 233.895 198.757 233.333 198.854 232.552C198.951 231.771 199.459 231.301 199.55 231.388C199.641 231.476 199.39 231.935 199.322 232.601C199.253 233.267 199.385 233.764 199.259 233.83Z" fill="white"/>
<path d="M192.139 228.024C192.139 228.155 191.471 228.171 190.758 228.45C190.045 228.728 189.548 229.133 189.446 229.051C189.343 228.969 189.737 228.352 190.587 228.029C191.437 227.707 192.173 227.904 192.139 228.024Z" fill="white"/>
<path d="M127.165 218.105L121.396 230.722C121.396 230.722 132.859 240.553 132.031 243L106.071 233.169L114.213 213.157L127.165 218.105Z" fill="#455A64"/>
<path d="M113.813 226.609C113.534 226.588 113.257 226.666 113.034 226.828C112.811 226.991 112.658 227.226 112.604 227.489C112.572 227.755 112.647 228.023 112.815 228.239C112.982 228.454 113.229 228.6 113.505 228.647C113.802 228.668 114.096 228.584 114.332 228.41C114.567 228.237 114.728 227.987 114.783 227.707C114.783 227.161 114.264 226.538 113.705 226.615" fill="#E0E0E0"/>
<path d="M131.524 241.351C131.524 241.351 132.482 242.274 132.031 242.989L106.071 233.158L106.978 231.175L131.512 241.334" fill="#263238"/>
<path d="M121.863 230.755C121.812 230.875 121.156 230.689 120.368 230.842C119.581 230.995 119.039 231.388 118.942 231.29C118.845 231.192 119.324 230.569 120.277 230.4C121.23 230.23 121.943 230.651 121.863 230.755Z" fill="white"/>
<path d="M124.146 232.863C124.146 232.988 123.495 232.988 122.851 233.338C122.206 233.688 121.864 234.185 121.71 234.135C121.556 234.086 121.789 233.365 122.594 232.945C123.398 232.524 124.191 232.748 124.146 232.863Z" fill="white"/>
<path d="M124.409 236.566C124.283 236.566 124.357 235.878 124.979 235.337C125.601 234.797 126.28 234.753 126.292 234.873C126.303 234.993 125.789 235.212 125.304 235.665C124.82 236.118 124.54 236.604 124.409 236.566Z" fill="white"/>
<path d="M122.851 227.756C122.754 227.844 122.241 227.461 121.505 227.21C120.769 226.959 120.124 226.992 120.101 226.866C120.078 226.74 120.791 226.505 121.653 226.779C122.515 227.052 122.954 227.669 122.851 227.756Z" fill="white"/>
<path d="M136.881 148.795L127.786 184.111C127.786 184.111 111.383 210.546 108.604 223.775L123.61 229.422C123.61 229.422 134.525 203.943 137.725 199.268C139.165 197.172 140.821 195.22 142.666 193.44C143.866 192.3 144.727 190.875 145.16 189.311L152.046 164.116L136.881 148.795Z" fill="#263238"/>
<path d="M133.007 143.148C133.007 143.148 134.273 152.608 143.785 156.802L163.822 188.044C163.822 188.044 165.391 198.203 168.387 206.761C171.382 215.32 177.436 231.814 177.436 231.814L193.919 225.916L183.415 191.539L181.703 179.616L165.351 139.745L151.304 131.684L133.007 143.148Z" fill="#263238"/>
<path d="M133.007 143.148L133.309 142.951L134.216 142.372L137.777 140.122L151.276 131.629L151.322 131.602L151.367 131.629L165.426 139.674V139.707L181.812 179.54V179.567C182.354 183.336 182.953 187.372 183.523 191.49C186.376 200.775 189.4 210.71 192.527 220.945C193.033 222.595 193.535 224.233 194.033 225.861L194.073 225.987L193.942 226.03L177.458 231.929L177.316 231.978L177.27 231.842C174.417 223.917 171.656 216.286 169.049 209.05C168.392 207.242 167.748 205.45 167.211 203.659C166.675 201.867 166.19 200.087 165.751 198.328C164.884 194.811 164.187 191.375 163.64 188.044V188.087L143.716 156.835L143.75 156.862C141.341 155.784 139.2 154.223 137.474 152.285C136.209 150.863 135.171 149.269 134.393 147.555C133.912 146.498 133.53 145.401 133.252 144.278C133.155 143.907 133.098 143.617 133.064 143.421C133.03 143.224 133.024 143.126 133.024 143.126C133.024 143.126 133.024 143.224 133.087 143.415C133.149 143.607 133.184 143.896 133.292 144.273C133.587 145.381 133.98 146.463 134.467 147.506C135.255 149.202 136.296 150.779 137.56 152.187C139.292 154.104 141.432 155.646 143.836 156.709L163.914 187.929V187.956C164.484 191.277 165.169 194.707 166.036 198.219C166.475 199.972 166.955 201.747 167.497 203.533C168.039 205.319 168.678 207.1 169.334 208.908C171.953 216.144 174.708 223.775 177.573 231.694L177.384 231.612L193.867 225.713L193.776 225.883C193.282 224.255 192.78 222.617 192.27 220.967L183.278 191.506C182.708 187.388 182.103 183.352 181.566 179.583V179.616L165.243 139.745L165.289 139.794L151.253 131.716H151.339L137.839 140.171L134.245 142.389L133.321 142.962L133.007 143.148Z" fill="#455A64"/>
<path d="M141.833 75.6566C141.833 75.6566 137.029 79.1959 134.695 83.1502C131.9 87.8855 131.597 94.9039 131.512 105.806C131.426 115.888 133.001 118.69 132.396 122.491C131.204 129.914 130.319 154.825 130.319 154.825C130.319 154.825 145.724 149.161 148.714 146.632L151.721 144.131L171 150.232L167.108 127.554L164.438 99.2897L161.015 84.2972L160.444 78.4148L143.887 72.0464L141.833 75.6566Z" fill="#455A64"/>
<path d="M159.822 78.1033C160.022 78.1415 159.349 79.436 158.162 81.3367L158.111 81.4131L158.02 81.3804C156.348 80.7577 154.134 79.9767 151.715 79.1301C148.988 78.1798 146.523 77.295 144.76 76.6068C143.876 76.2627 143.168 75.9732 142.683 75.7602C142.426 75.6648 142.177 75.5479 141.941 75.4106C142.212 75.4684 142.476 75.5526 142.729 75.6619L144.834 76.4211L151.818 78.8625C154.237 79.7091 156.445 80.501 158.094 81.1783L157.957 81.222C159.201 79.3595 159.937 78.1306 159.822 78.1033Z" fill="#263238"/>
<path d="M179.746 66.3279C179.746 66.3279 178.525 64.5091 177.373 62.8324C176.22 61.1556 174.475 60.3309 174.195 59.457C173.915 58.5831 172.381 54.6889 172.135 53.7221C171.922 52.7859 171.823 51.8292 171.839 50.8711C171.839 50.8711 173.1 50.3577 173.704 52.0836C174.069 53.1213 175.233 56.6442 175.484 56.819C175.735 56.9937 176.055 56.737 176.055 56.737C175.537 55.418 175.089 54.0745 174.714 52.7117C174.657 52.0727 174.891 47.8343 174.891 47.8343C175.204 47.774 175.529 47.8229 175.807 47.9721C176.086 48.1214 176.299 48.3612 176.409 48.6481C177.008 49.7405 177.031 52.4714 177.031 52.4714L177.938 55.5191L177.618 52.5042L178.075 46.9604C178.518 47.0209 178.931 47.2107 179.258 47.5039C179.584 47.797 179.809 48.1794 179.9 48.599C180.283 50.0955 179.775 52.1819 180.032 52.6243C180.288 53.0667 180.568 55.743 180.568 55.743C180.568 55.743 180.882 49.2435 181.606 49.0578C182.331 48.8721 182.924 49.5603 182.822 50.8711C182.719 52.1819 182.69 54.9565 183.067 56.1799C183.444 57.4034 187.306 62.1879 186.992 64.2852C186.8 65.5524 186.68 66.8287 186.633 68.1084H180.015L179.746 66.3279Z" fill="#FFBF9D"/>
<path d="M156.531 82.6966C156.901 82.8331 172.711 86.5799 172.711 86.5799C172.711 86.5799 176.243 81.1181 176.762 79.5342C177.282 77.9503 180.06 67.3982 180.06 67.3982L186.741 66.7974C186.741 66.7974 185.03 94.0462 182.61 95.5154C180.191 96.9846 176.334 97.7274 176.083 97.6455C175.832 97.5636 158.995 98.6832 150.123 91.9925C141.251 85.3019 156.531 82.6966 156.531 82.6966Z" fill="#FFBF9D"/>
<g opacity="0.3">
<path opacity="0.3" d="M145.199 97.1212C146.896 98.9598 149.16 100.234 151.664 100.759C155.857 101.644 164.786 103.211 164.786 103.211L164.353 99.0164L144.954 97.0283" fill="black"/>
</g>
<path d="M138.159 91.3538C139.597 94.2594 142.792 97.3617 149.816 98.0663C163.72 99.4427 174.247 100.175 178.794 99.5191C183.341 98.8637 185.15 89.6497 185.64 89.3657C187.055 88.5136 186.964 85.5861 185.743 84.7122C182.274 82.2271 175.319 80.3428 174.851 80.5449C172.084 81.8612 172.986 84.9416 172.986 84.9416L155.356 81.2167C153.325 80.4082 151.207 79.8183 149.04 79.458" fill="#455A64"/>
<path d="M149.04 79.4582C149.04 79.4582 149.188 79.4582 149.473 79.5128C149.759 79.5674 150.186 79.6329 150.734 79.7476C152.324 80.0929 153.882 80.5642 155.39 81.1568L173.009 84.8271L172.86 84.98C172.599 84.0121 172.679 82.9887 173.088 82.0689C173.314 81.5979 173.654 81.1858 174.081 80.8673C174.298 80.7059 174.529 80.5633 174.772 80.4413C174.855 80.4175 174.941 80.4046 175.028 80.4031H175.239C175.382 80.4031 175.508 80.4467 175.644 80.4686C177.812 80.9594 179.927 81.6452 181.96 82.5168C183.032 82.9636 184.068 83.4857 185.059 84.0788C185.304 84.2318 185.549 84.4011 185.795 84.5649C186.048 84.7495 186.255 84.9866 186.399 85.2586C186.678 85.7949 186.822 86.3857 186.822 86.9845C186.836 87.5905 186.695 88.1906 186.411 88.7323C186.253 89.0117 186.031 89.2527 185.76 89.4368C185.692 89.4696 185.646 89.6116 185.589 89.7427L185.441 90.1523C185.064 91.2447 184.688 92.4135 184.231 93.5386C183.633 95.1521 182.758 96.6585 181.641 97.9954C181.236 98.5036 180.72 98.9205 180.128 99.2168C179.537 99.5131 178.885 99.6816 178.218 99.7104C177.79 99.7705 177.362 99.7814 176.94 99.8142C175.228 99.9125 173.585 99.8907 171.959 99.847C170.333 99.8033 168.741 99.7214 167.195 99.6285C160.993 99.2462 155.43 98.7055 150.763 98.2412C149.648 98.1478 148.539 97.9946 147.442 97.7824C146.468 97.5831 145.514 97.3053 144.589 96.9522C143.091 96.395 141.718 95.5681 140.544 94.5163C139.812 93.8451 139.182 93.0784 138.673 92.2387C138.491 91.9506 138.332 91.6493 138.199 91.3375C138.199 91.3375 138.359 91.6489 138.724 92.2114C139.251 93.03 139.89 93.7776 140.624 94.4344C141.796 95.4633 143.164 96.268 144.652 96.8048C145.578 97.1469 146.533 97.4154 147.505 97.6077C148.599 97.8084 149.704 97.9525 150.814 98.0391C155.481 98.4815 161.044 99.0004 167.235 99.3718C168.786 99.4592 170.373 99.5357 171.993 99.5739C173.613 99.6121 175.274 99.634 176.951 99.5411C177.368 99.5029 177.795 99.492 178.212 99.4319C178.628 99.4109 179.038 99.3356 179.433 99.208C180.221 98.917 180.917 98.4352 181.453 97.8097C182.546 96.4986 183.402 95.0218 183.986 93.4403C184.442 92.348 184.813 91.1955 185.19 90.0704L185.35 89.6444C185.35 89.5788 185.407 89.5078 185.441 89.4314C185.462 89.3892 185.486 89.349 185.515 89.3112C185.537 89.2849 185.562 89.2611 185.589 89.2402L185.629 89.2074C185.866 89.0505 186.061 88.8429 186.2 88.6012C186.466 88.0937 186.596 87.5304 186.576 86.9626C186.578 86.4101 186.447 85.8645 186.194 85.3678C186.069 85.1333 185.892 84.9281 185.675 84.767C185.429 84.6086 185.195 84.4393 184.95 84.2918C183.973 83.703 182.951 83.1863 181.892 82.7462C179.881 81.8784 177.79 81.1945 175.644 80.7034C175.513 80.7034 175.382 80.6488 175.256 80.6379H175.068H174.943C174.718 80.7528 174.504 80.8862 174.304 81.0366C173.906 81.3236 173.587 81.6984 173.374 82.129C172.996 82.9929 172.918 83.9503 173.151 84.8599L173.203 85.051L173.003 85.0073L155.413 81.2387C153.918 80.6368 152.377 80.1474 150.803 79.7749C150.232 79.6493 149.838 79.5619 149.553 79.5073C149.268 79.4527 149.04 79.4582 149.04 79.4582Z" fill="#263238"/>
<path d="M178.794 90.2123C178.388 90.1161 178.002 89.9554 177.653 89.7371C176.778 89.2699 175.972 88.6932 175.256 88.0221C174.537 87.3536 173.908 86.6012 173.385 85.7828C173.147 85.4474 172.964 85.079 172.843 84.6904C173.625 85.7936 174.501 86.8331 175.462 87.7982C176.495 88.6966 177.61 89.5045 178.794 90.2123Z" fill="#263238"/>
<path d="M54.6651 135.195C54.6651 135.195 58.2025 135.376 60.3706 136.692C62.5387 138.008 66.0761 140.04 67.531 142.574C68.1985 143.738 66.2986 143.983 65.3629 143.306C64.4272 142.629 62.9837 141.362 62.2705 141.203L61.5573 141.05C62.2076 142.46 62.9331 143.836 63.7311 145.174C64.4671 146.266 65.1061 148.08 62.8981 148.167C62.8981 148.167 61.4033 150.024 59.897 148.648C59.897 148.648 58.7217 150.33 56.8274 147.998C56.8274 147.998 55.7263 149.33 55.2641 148.822C54.802 148.315 53.2957 147.501 52.8564 145.829C52.2009 143.883 51.4391 141.97 50.5742 140.1L54.6651 135.195Z" fill="#FFBF9D"/>
<path d="M24.5623 90.6655C22.749 91.2245 21.184 92.3496 20.1177 93.8607C18.7598 95.8597 18.3433 99.3224 18.7312 101.9C19.5528 107.335 22.1545 116.505 23.6209 122.393C24.1229 124.425 25.1556 128.062 28.1853 129.99L49.8034 142.399L55.5831 134.207L35.8763 118.832L31.9794 97.7604L24.5623 90.6655Z" fill="#455A64"/>
<path d="M20.8252 111.376C20.8548 111.445 20.8777 111.517 20.8937 111.589L21.0762 112.228C21.2303 112.807 21.4471 113.638 21.7324 114.703C22.3029 116.887 23.1131 119.99 24.123 123.851C24.7093 125.954 25.9512 127.837 27.6832 129.247C28.6726 130.006 29.7304 130.678 30.8441 131.257L34.3187 133.267L49.889 142.268L49.6893 142.312L51.7719 139.357L55.469 134.097L55.4976 134.289L35.9676 118.892H35.9334V118.854C34.6439 113.659 33.7082 109.405 33.1149 106.444C32.8239 104.964 32.6185 103.812 32.4872 103.025C32.4302 102.643 32.3845 102.343 32.3503 102.13C32.3161 101.917 32.3104 101.824 32.3104 101.824C32.3414 101.922 32.3661 102.023 32.3845 102.124C32.4245 102.337 32.4815 102.632 32.55 103.014C32.7041 103.795 32.9266 104.948 33.2461 106.423C33.868 109.372 34.8379 113.616 36.1559 118.804L36.1159 118.744L55.6801 134.07L55.7828 134.152L55.7087 134.256L52.0115 139.515L49.929 142.47L49.8548 142.58L49.7293 142.514L34.1818 133.486L30.7128 131.47C29.5918 130.885 28.5265 130.207 27.5292 129.444C25.7672 127.999 24.5106 126.072 23.929 123.922C22.9533 120.05 22.1717 116.92 21.6468 114.752C21.39 113.659 21.1846 112.846 21.042 112.267L20.8765 111.595C20.8541 111.523 20.8369 111.45 20.8252 111.376Z" fill="#263238"/>
<path d="M21.1787 93.5768C21.3129 93.4924 21.4617 93.4314 21.618 93.3965C22.0322 93.2741 22.4557 93.1828 22.8847 93.1234C24.3157 92.9122 25.7801 93.1019 27.101 93.6696C28.3777 94.3068 29.4622 95.2471 30.2505 96.4005C30.4895 96.7491 30.6812 97.1253 30.821 97.5202C30.8823 97.6607 30.917 97.8105 30.9237 97.9626C30.6771 97.4612 30.393 96.9774 30.0736 96.5152C29.2615 95.4388 28.1988 94.5581 26.9698 93.9427C25.6951 93.4019 24.2933 93.1946 22.9075 93.3419C21.8405 93.4238 21.1958 93.6259 21.1787 93.5768Z" fill="#263238"/>
</svg>
