<svg width="46" height="54" viewBox="0 0 46 54" fill="none" xmlns="http://www.w3.org/2000/svg">
<path fill-rule="evenodd" clip-rule="evenodd" d="M44.9879 37.5509C44.782 37.5509 44.5496 37.4779 44.304 37.3238L44.1195 37.2083L44.1671 19.0438C44.1693 17.9955 43.4907 16.719 42.6499 16.193L20.9258 2.58692L20.9286 1.45377C20.9302 0.711444 21.2738 0.283203 21.7728 0.283203C21.9784 0.283203 22.2105 0.356001 22.4559 0.509456L44.3645 14.2313C45.2053 14.7571 45.8841 16.0336 45.8819 17.082L45.8312 36.3808C45.8296 37.1228 45.4865 37.5509 44.9879 37.5509Z" fill="#F2F2FB"/>
<path fill-rule="evenodd" clip-rule="evenodd" d="M43.2737 39.5128C43.068 39.5128 42.8356 39.4398 42.5899 39.2857L42.1585 39.0157L42.1666 35.985L44.1201 37.2084L44.1172 38.3428C44.1156 39.0847 43.7723 39.5128 43.2737 39.5128ZM20.9196 5.1859L19.2129 4.11683L19.2146 3.41569C19.2162 2.67336 19.5598 2.24512 20.0587 2.24512C20.2643 2.24512 20.4965 2.31791 20.7418 2.47154L20.9264 2.58706L20.9196 5.1859Z" fill="#F2F2FB"/>
<path fill-rule="evenodd" clip-rule="evenodd" d="M44.1195 37.2083L42.1659 35.9849L42.2069 20.3914C42.2089 19.3584 41.54 18.1005 40.7116 17.5822L20.9189 5.18575L20.9257 2.58691L42.6499 16.193C43.4906 16.719 44.1693 17.9955 44.1671 19.0438L44.1195 37.2083Z" fill="#E8E8F9"/>
<path fill-rule="evenodd" clip-rule="evenodd" d="M18.4364 3.70501L18.0537 3.9463C18.3264 3.77439 18.7042 3.79848 19.1212 4.0596L19.5038 3.8183C19.087 3.55736 18.7091 3.53309 18.4364 3.70501Z" fill="#F4F4FA"/>
<mask id="mask0_2_11481" style="mask-type:alpha" maskUnits="userSpaceOnUse" x="18" y="3" width="2" height="2">
<path d="M18.4364 3.70501L18.0537 3.9463C18.3264 3.77439 18.7042 3.79848 19.1212 4.05959L19.5038 3.8183C19.087 3.55736 18.7091 3.53309 18.4364 3.70501Z" fill="white"/>
</mask>
<g mask="url(#mask0_2_11481)">
<path fill-rule="evenodd" clip-rule="evenodd" d="M19.1212 4.05959L19.5038 3.8183C19.087 3.55736 18.7091 3.53309 18.4364 3.70501L18.0537 3.9463C18.3264 3.77439 18.7042 3.79848 19.1212 4.05959Z" fill="#FE8786"/>
</g>
<path fill-rule="evenodd" clip-rule="evenodd" d="M41.7197 40.4538L42.1024 40.2127C42.3714 40.043 42.5384 39.6823 42.5397 39.1694L42.157 39.4107C42.1556 39.9236 41.9888 40.2841 41.7197 40.4538Z" fill="#F4F4FA"/>
<mask id="mask1_2_11481" style="mask-type:alpha" maskUnits="userSpaceOnUse" x="41" y="39" width="2" height="2">
<path d="M41.7197 40.4538L42.1024 40.2127C42.3715 40.043 42.5384 39.6823 42.5397 39.1694L42.157 39.4107C42.1556 39.9236 41.9888 40.2841 41.7197 40.4538Z" fill="white"/>
</mask>
<g mask="url(#mask1_2_11481)">
<path fill-rule="evenodd" clip-rule="evenodd" d="M41.7197 40.4538L42.1024 40.2127C42.3715 40.043 42.5384 39.6823 42.5397 39.1694L42.157 39.4107C42.1556 39.9236 41.9888 40.2841 41.7197 40.4538Z" fill="#D3D3F5"/>
</g>
<path fill-rule="evenodd" clip-rule="evenodd" d="M42.2075 20.3917L42.5902 20.1504L42.5858 21.8411L42.2031 22.0807L42.2075 20.3917Z" fill="#FF6661"/>
<path fill-rule="evenodd" clip-rule="evenodd" d="M42.5852 21.8413L42.5399 39.1695L42.1572 39.4108L42.2026 22.0809L42.5852 21.8413Z" fill="#D3D3F5"/>
<path fill-rule="evenodd" clip-rule="evenodd" d="M40.7121 17.5817L41.0948 17.3406L19.5037 3.81836L19.1211 4.05965L40.7121 17.5817Z" fill="#FE8786"/>
<path fill-rule="evenodd" clip-rule="evenodd" d="M42.2074 20.3918L42.5901 20.1505C42.5927 19.1179 41.923 17.8596 41.0946 17.3408L40.7119 17.5819C41.5404 18.1009 42.2101 19.359 42.2074 20.3918Z" fill="#F4F4FA"/>
<mask id="mask2_2_11481" style="mask-type:alpha" maskUnits="userSpaceOnUse" x="40" y="17" width="3" height="4">
<path d="M42.2074 20.3916L42.5901 20.1505C42.5927 19.1179 41.923 17.8596 41.0946 17.3408L40.7119 17.5819C41.5404 18.1009 42.2101 19.359 42.2074 20.3916Z" fill="white"/>
</mask>
<g mask="url(#mask2_2_11481)">
<path fill-rule="evenodd" clip-rule="evenodd" d="M42.2074 20.3918L42.5901 20.1505C42.5927 19.1179 41.923 17.8596 41.0946 17.3408L40.7119 17.5819C41.5404 18.1009 42.2101 19.359 42.2074 20.3918Z" fill="#FF6661"/>
</g>
<path fill-rule="evenodd" clip-rule="evenodd" d="M17.5664 24.0088C17.5631 25.0418 18.2331 26.2987 19.0616 26.8182L40.6526 40.3397C41.4811 40.859 42.1555 40.4433 42.1577 39.4103L42.2076 20.3913C42.2097 19.3583 41.5408 18.1004 40.7123 17.5821L19.1215 4.05942C18.2928 3.54112 17.6186 3.95688 17.6164 4.98989L17.5664 24.0088Z" fill="#F4F4FA"/>
<path fill-rule="evenodd" clip-rule="evenodd" d="M17.6113 6.6803L42.2026 22.0806L42.207 20.3915C42.209 19.3583 41.5401 18.1004 40.7117 17.5821L19.1208 4.05942C18.2922 3.54112 17.6179 3.95688 17.6157 4.98989L17.6113 6.6803Z" fill="#FE4340"/>
<path fill-rule="evenodd" clip-rule="evenodd" d="M39.0802 18.4353C39.08 18.6565 38.937 18.7462 38.7604 18.6356C38.5836 18.525 38.4404 18.2561 38.4404 18.0348C38.4404 17.8135 38.5836 17.7239 38.7604 17.8345C38.937 17.945 39.0802 18.214 39.0802 18.4353Z" fill="#F4F4FA"/>
<path fill-rule="evenodd" clip-rule="evenodd" d="M40.0869 19.0662C40.0869 19.2874 39.9437 19.3771 39.7671 19.2665C39.5905 19.1558 39.4473 18.8868 39.4473 18.6655C39.4473 18.4444 39.5905 18.3548 39.7671 18.4652C39.9437 18.576 40.0869 18.8449 40.0869 19.0662Z" fill="#F4F4FA"/>
<path fill-rule="evenodd" clip-rule="evenodd" d="M41.0947 19.6972C41.0947 19.9183 40.9515 20.008 40.7749 19.8974C40.5983 19.7867 40.4551 19.5177 40.4551 19.2966C40.4551 19.0753 40.5983 18.9856 40.7749 19.0962C40.9515 19.2069 41.0947 19.4759 41.0947 19.6972Z" fill="#F4F4FA"/>
<mask id="mask3_2_11481" style="mask-type:alpha" maskUnits="userSpaceOnUse" x="29" y="15" width="13" height="25">
<path d="M41.0149 39.1454L29.9346 32.206V15.5366L41.0149 22.4761L29.9346 15.5366L29.9347 21.8362L41.0149 28.7755V39.1454ZM32.693 31.5774L32.6932 33.1741L40.4136 38.0092V36.4128L32.693 31.5774ZM32.693 29.3598V30.9564L40.4136 35.7916V34.195L32.693 29.3598ZM32.693 27.142V28.7386L40.4136 33.5738V31.9772L32.693 27.142ZM31.0083 30.6064C30.7999 30.6064 30.6567 30.7875 30.6567 31.1004C30.6567 31.5408 30.9406 32.0757 31.2905 32.2947C31.3918 32.3581 31.4875 32.3882 31.5725 32.3882C31.781 32.3882 31.9242 32.2071 31.9242 31.8942C31.9242 31.4538 31.6405 30.9191 31.2905 30.6999C31.1892 30.6365 31.0932 30.6064 31.0083 30.6064ZM32.693 24.9244V26.5208L40.4136 31.3562V29.7596L32.693 24.9244ZM31.0083 28.3886C30.7999 28.3886 30.6567 28.5698 30.6567 28.8827C30.6567 29.3232 30.9404 29.8577 31.2905 30.077C31.3918 30.1405 31.4875 30.1706 31.5725 30.1706C31.781 30.1706 31.9242 29.9895 31.9242 29.6764C31.9242 29.2362 31.6405 28.7013 31.2905 28.4823C31.1892 28.4187 31.0932 28.3886 31.0083 28.3886ZM31.0085 26.171C30.7999 26.171 30.6567 26.3522 30.6567 26.6651C30.6567 27.1054 30.9404 27.64 31.2905 27.8594C31.3918 27.9228 31.4875 27.9529 31.5725 27.9529C31.781 27.9529 31.9241 27.7717 31.9241 27.4587C31.9241 27.0183 31.6405 26.4838 31.2905 26.2645C31.1892 26.2011 31.0934 26.171 31.0085 26.171ZM31.0085 23.9533C30.7999 23.9533 30.6567 24.1344 30.6567 24.4473C30.6567 24.8877 30.9404 25.4224 31.2905 25.6418C31.3918 25.7052 31.4875 25.7351 31.5723 25.7351C31.7809 25.7351 31.9241 25.554 31.9241 25.2411C31.9241 24.8005 31.6405 24.266 31.2905 24.0468C31.1892 23.9834 31.0934 23.9533 31.0085 23.9533Z" fill="white"/>
</mask>
<g mask="url(#mask3_2_11481)">
<path fill-rule="evenodd" clip-rule="evenodd" d="M29.9346 39.1454H41.0149V15.5366H29.9346V39.1454Z" fill="#FEFEFE"/>
</g>
<path fill-rule="evenodd" clip-rule="evenodd" d="M41.0149 28.7755L29.9347 21.8362L29.9346 15.5366L41.0149 22.4761V28.7755ZM38.6755 25.5828L38.6754 24.9513L38.0698 24.5719C38.2486 24.4806 38.6754 24.2619 38.6754 23.761C38.6754 23.2532 38.4677 22.7602 38.0178 22.4785C37.6027 22.2183 37.3776 22.1209 37.1411 22.0382V22.5643L37.787 22.9688C38.0206 23.1151 38.116 23.2004 38.116 23.4217C38.116 23.6939 37.3978 23.9769 37.1643 24.0264V24.6361L38.6755 25.5828ZM35.8867 21.1798L35.2783 22.6424L35.3763 23.0196L36.3134 23.6064V24.0963L36.8729 24.4466V23.9567L37.046 23.9598V23.4193L36.8729 23.3109V22.5414L36.3913 22.2396L36.3134 22.4743V22.9604L36.0338 22.7853L36.4866 21.5557L35.8867 21.1798ZM33.7362 21.2488C33.6258 21.2488 33.5883 21.4006 33.5883 21.5547V21.7471C33.5883 21.9795 33.6054 22.4074 34.1533 22.7506L34.6004 23.0305C34.7143 23.1019 34.8229 23.1568 34.9117 23.1568C35.0409 23.1568 35.1282 23.0406 35.1282 22.6899V22.4141C35.1282 22.2579 35.1108 21.9349 34.9117 21.7632C34.9364 21.7743 34.9583 21.7793 34.9779 21.7793C35.1064 21.7793 35.1282 21.5629 35.1282 21.4778V21.3182C35.1282 20.8537 34.9437 20.5711 34.6034 20.3582L34.1533 20.0762C34.0303 19.9993 33.9123 19.9458 33.8162 19.9458C33.6803 19.9458 33.5883 20.0526 33.5883 20.3501V20.586C33.5883 20.8073 33.5883 20.9961 33.8016 21.2637C33.7773 21.2534 33.7556 21.2488 33.7362 21.2488ZM31.9905 20.7538V21.3018C32.2154 21.5368 32.253 21.5858 32.5066 21.7482V22.0457L32.8182 22.241V21.9435C32.9175 22.0031 33.0172 22.0452 33.1045 22.045C33.263 22.045 33.3805 21.9064 33.3805 21.4826V21.363C33.3805 21.0728 33.2795 20.5304 32.8412 20.2562L32.6566 20.1405C32.501 20.0429 32.4835 19.9703 32.4835 19.8578V19.8178C32.4835 19.7421 32.4977 19.7112 32.5312 19.7112C32.5651 19.7112 32.6186 19.7428 32.6971 19.792C32.8872 19.9111 33.118 20.0665 33.3025 20.2076V19.6594C33.1498 19.4949 33.0287 19.3792 32.8181 19.2365V18.9243L32.5066 18.7293V19.0413C32.3912 18.9742 32.2832 18.9337 32.1924 18.9337C32.0315 18.9337 31.9242 19.0611 31.9242 19.3951V19.6165C31.9242 19.7869 31.9472 20.4 32.4951 20.7432L32.6681 20.8515C32.7951 20.931 32.8209 21.0017 32.8209 21.1068V21.1649C32.8209 21.2271 32.8058 21.2574 32.7697 21.2574C32.7426 21.2574 32.7039 21.2405 32.6509 21.2073C32.3827 21.0393 32.1059 20.8404 31.9905 20.7538ZM34.5224 22.3675C34.5024 22.3675 34.4738 22.3562 34.4331 22.3307L34.2831 22.2369C34.1823 22.1737 34.1477 22.112 34.1477 21.985V21.8398C34.1477 21.7721 34.1546 21.7207 34.199 21.7207C34.2187 21.7207 34.246 21.7309 34.2831 21.7541L34.4388 21.8516C34.5513 21.9221 34.5686 22.0091 34.5686 22.1034V22.2485C34.5686 22.3176 34.5647 22.3675 34.5224 22.3675ZM34.5273 21.3331C34.5072 21.3331 34.4772 21.3206 34.4331 21.2928L34.2831 21.1989C34.185 21.1374 34.1477 21.0959 34.1477 20.9544V20.8455C34.1477 20.7475 34.1647 20.7138 34.1962 20.7138C34.2182 20.7138 34.2475 20.7304 34.2831 20.7526L34.4331 20.8467C34.5023 20.89 34.5686 20.9351 34.5686 21.1092V21.2181C34.5686 21.2892 34.565 21.3331 34.5273 21.3331Z" fill="#5F54AC"/>
<path fill-rule="evenodd" clip-rule="evenodd" d="M40.413 31.3561L32.6924 26.5207V24.9243L40.413 29.7595V31.3561Z" fill="#5F54AC"/>
<path fill-rule="evenodd" clip-rule="evenodd" d="M40.413 33.5739L32.6924 28.7387V27.1421L40.413 31.9773V33.5739Z" fill="#5F54AC"/>
<path fill-rule="evenodd" clip-rule="evenodd" d="M40.413 35.7917L32.6924 30.9565V29.3599L40.413 34.1951V35.7917Z" fill="#5F54AC"/>
<path fill-rule="evenodd" clip-rule="evenodd" d="M40.413 38.009L32.6925 33.1739L32.6924 31.5771L40.413 36.4125V38.009Z" fill="#5F54AC"/>
<path fill-rule="evenodd" clip-rule="evenodd" d="M31.5718 25.735C31.4871 25.735 31.3913 25.705 31.29 25.6417C30.94 25.4222 30.6562 24.8875 30.6562 24.4472C30.6562 24.1343 30.7994 23.9531 31.008 23.9531C31.0929 23.9531 31.1887 23.9832 31.29 24.0466C31.64 24.2658 31.9236 24.8004 31.9236 25.2409C31.9236 25.5538 31.7804 25.735 31.5718 25.735Z" fill="#5F54AC"/>
<path fill-rule="evenodd" clip-rule="evenodd" d="M31.572 32.3883C31.4871 32.3883 31.3913 32.3582 31.29 32.2948C30.9401 32.0757 30.6562 31.5409 30.6562 31.1005C30.6562 30.7876 30.7994 30.6064 31.0079 30.6064C31.0928 30.6064 31.1887 30.6365 31.29 30.6999C31.64 30.9192 31.9238 31.4539 31.9238 31.8942C31.9238 32.2071 31.7806 32.3883 31.572 32.3883Z" fill="#5F54AC"/>
<path fill-rule="evenodd" clip-rule="evenodd" d="M31.572 30.1707C31.4871 30.1707 31.3913 30.1406 31.29 30.077C30.94 29.8578 30.6562 29.3233 30.6562 28.8827C30.6562 28.5698 30.7994 28.3887 31.0079 28.3887C31.0928 28.3887 31.1887 28.4187 31.29 28.4823C31.64 28.7014 31.9238 29.2363 31.9238 29.6765C31.9238 29.9895 31.7806 30.1707 31.572 30.1707Z" fill="#5F54AC"/>
<path fill-rule="evenodd" clip-rule="evenodd" d="M31.572 27.9527C31.4871 27.9527 31.3913 27.9227 31.29 27.8593C30.94 27.6398 30.6562 27.1053 30.6562 26.6649C30.6562 26.352 30.7994 26.1709 31.008 26.1709C31.0929 26.1709 31.1887 26.201 31.29 26.2644C31.64 26.4836 31.9236 27.0182 31.9236 27.4585C31.9236 27.7716 31.7806 27.9527 31.572 27.9527Z" fill="#5F54AC"/>
<path fill-rule="evenodd" clip-rule="evenodd" d="M28.9665 22.4181L18.2949 15.7348V8.01416L28.9665 14.6975V22.4181ZM27.2191 18.7046C26.9579 18.7046 26.7785 18.9316 26.7785 19.3236C26.7785 19.8752 27.1339 20.5449 27.5723 20.8197C27.6993 20.899 27.8191 20.9367 27.9255 20.9367C28.1867 20.9367 28.3661 20.71 28.3661 20.318C28.3661 19.7662 28.0107 19.0963 27.5723 18.8218C27.4455 18.7424 27.3254 18.7046 27.2191 18.7046ZM24.5913 17.059C24.3301 17.059 24.1506 17.2858 24.1506 17.6778C24.1506 18.2294 24.506 18.8993 24.9444 19.1739C25.0714 19.2533 25.1915 19.2909 25.2978 19.2909C25.559 19.2909 25.7383 19.0642 25.7383 18.6722C25.7384 18.1204 25.3829 17.4505 24.9446 17.176C24.8176 17.0966 24.6978 17.059 24.5913 17.059ZM21.9634 15.4132C21.7022 15.4132 21.5228 15.6401 21.5228 16.032C21.5228 16.5838 21.8784 17.2535 22.3168 17.5281C22.4436 17.6075 22.5636 17.6453 22.6701 17.6453C22.9312 17.6453 23.1106 17.4184 23.1106 17.0263C23.1106 16.4747 22.7552 15.8049 22.3168 15.5304C22.1898 15.4508 22.0698 15.4132 21.9634 15.4132ZM27.0779 15.2912V15.6352L27.5353 15.9216L27.224 16.8302L27.5477 17.033L27.9075 15.965L27.8336 15.7645L27.0779 15.2912ZM26.1852 15.8472L26.1835 16.1371C26.3218 16.2849 26.4995 16.3901 26.6787 16.5026C26.7427 16.5426 26.7983 16.5627 26.844 16.5627C26.9351 16.5627 26.9867 16.4831 26.9867 16.3238V16.2664C26.9867 16.116 26.9536 15.9807 26.8547 15.879C26.8632 15.8806 26.8711 15.8812 26.8787 15.8812C26.9566 15.8812 26.9867 15.8045 26.9867 15.6731V15.5959C26.9867 15.3607 26.8626 15.1563 26.6896 15.0441C26.5056 14.9248 26.3125 14.8019 26.1742 14.7766V15.0653L26.5371 15.2925C26.6189 15.3438 26.6849 15.385 26.6849 15.486V15.5036C26.6849 15.5463 26.6762 15.5634 26.6561 15.5634C26.6331 15.5634 26.5949 15.541 26.5371 15.5082L26.281 15.3676V15.6799L26.5371 15.8542C26.6378 15.9231 26.6817 15.9545 26.6817 16.0456V16.0636C26.6817 16.1073 26.6748 16.1266 26.6545 16.1266C26.6318 16.1266 26.5926 16.1025 26.5278 16.0619L26.1852 15.8472ZM25.2672 14.1965V14.4836L25.6193 14.704C25.7466 14.7836 25.7986 14.8299 25.7986 14.9508C25.7986 15.0989 25.4071 15.2532 25.2798 15.2804V15.6128L26.1033 16.1282V15.7842L25.7734 15.5776C25.8708 15.5278 26.1033 15.4084 26.1033 15.1355C26.1033 14.8588 25.9902 14.59 25.745 14.4367C25.5187 14.2947 25.3961 14.2419 25.2672 14.1965ZM19.3358 13.7674C19.0746 13.7674 18.8951 13.9943 18.8951 14.3862C18.8951 14.9379 19.2505 15.6078 19.6889 15.8823C19.8159 15.9617 19.9358 15.9995 20.0423 15.9995C20.3033 15.9995 20.4829 15.7726 20.4828 15.3805C20.4828 14.8289 20.1274 14.1591 19.6889 13.8846C19.5621 13.8051 19.4421 13.7674 19.3358 13.7674ZM19.0264 9.36074C18.9487 9.36074 18.8951 9.42841 18.8951 9.54513V12.5003C18.8951 12.6645 19.001 12.8641 19.1316 12.9459L23.3237 15.5714C23.3615 15.595 23.3971 15.6061 23.4288 15.6061C23.5066 15.6061 23.5602 15.5386 23.5602 15.4219V12.4666C23.5602 12.3024 23.4543 12.103 23.3237 12.0209L19.1316 9.3956C19.0938 9.37202 19.0582 9.36074 19.0264 9.36074ZM24.4281 14.7291V15.0275C24.5506 15.1558 24.5711 15.1825 24.7093 15.271V15.4332L24.8789 15.5395V15.3773C24.9331 15.4098 24.9876 15.4327 25.0352 15.4327C25.1215 15.4327 25.1856 15.3571 25.1856 15.1264V15.0613C25.1856 14.9029 25.1305 14.6075 24.8915 14.4578L24.791 14.3947C24.7063 14.3416 24.6968 14.3023 24.6968 14.2409V14.2192C24.6968 14.1778 24.7047 14.1609 24.7228 14.1609C24.7412 14.1609 24.7704 14.1782 24.8131 14.205C24.9167 14.2698 25.0424 14.3544 25.1431 14.4313V14.1327C25.0598 14.043 24.9938 13.9798 24.8791 13.902V13.732L24.7094 13.6257V13.7957C24.6464 13.7592 24.5875 13.737 24.5379 13.737C24.4503 13.737 24.3918 13.8065 24.3918 13.9887V14.1092C24.3918 14.2021 24.4044 14.5364 24.703 14.7233L24.7973 14.7823C24.8666 14.8257 24.8806 14.8641 24.8806 14.9215V14.9532C24.8806 14.9872 24.8723 15.0036 24.8526 15.0036C24.838 15.0036 24.8168 14.9943 24.7879 14.9762C24.6418 14.8846 24.4909 14.7765 24.4281 14.7291Z" fill="#FEFEFE"/>
<path fill-rule="evenodd" clip-rule="evenodd" d="M23.4282 15.6062C23.3965 15.6062 23.3609 15.5951 23.3231 15.5715L19.131 12.946C19.0004 12.8642 18.8945 12.6646 18.8945 12.5004V9.54523C18.8945 9.42851 18.9481 9.36084 19.0258 9.36084C19.0576 9.36084 19.0932 9.37212 19.131 9.3957L23.3231 12.021C23.4537 12.103 23.5596 12.3025 23.5596 12.4667V15.422C23.5596 15.5387 23.506 15.6062 23.4282 15.6062ZM19.1631 10.7828V11.4197L23.2385 13.9722V13.335L19.1631 10.7828ZM19.1631 12.1682V12.4867L19.9309 12.9674V12.649L19.1631 12.1682ZM22.4939 11.7994V12.1179L23.2385 12.5843V12.2657L22.4939 11.7994Z" fill="#5F54AC"/>
<path fill-rule="evenodd" clip-rule="evenodd" d="M23.2385 13.9721L19.1631 11.4196V10.7827L23.2385 13.3349V13.9721Z" fill="#FEE04C"/>
<path fill-rule="evenodd" clip-rule="evenodd" d="M23.2388 12.5842L22.4941 12.1178V11.7993L23.2388 12.2657V12.5842Z" fill="#FEE04C"/>
<path fill-rule="evenodd" clip-rule="evenodd" d="M19.9309 12.9672L19.1631 12.4865V12.168L19.9309 12.6488V12.9672Z" fill="#FEE04C"/>
<path fill-rule="evenodd" clip-rule="evenodd" d="M24.8787 15.5397L24.709 15.4334V15.2713C24.5709 15.1827 24.5504 15.1561 24.4278 15.0278V14.7294C24.4907 14.7767 24.6416 14.8849 24.7876 14.9765C24.8166 14.9946 24.8377 15.0038 24.8524 15.0038C24.8721 15.0038 24.8804 14.9874 24.8804 14.9534V14.9218C24.8804 14.8644 24.8664 14.8259 24.7971 14.7825L24.7027 14.7236C24.4042 14.5366 24.3916 14.2024 24.3916 14.1094V13.9889C24.3916 13.8068 24.45 13.7372 24.5376 13.7372C24.5873 13.7372 24.6462 13.7594 24.7092 13.796V13.626L24.8789 13.7323V13.9023C24.9935 13.9801 25.0595 14.0433 25.1429 14.133V14.4315C25.0422 14.3546 24.9165 14.27 24.8128 14.2053C24.7702 14.1785 24.741 14.1612 24.7226 14.1612C24.7045 14.1612 24.6966 14.1781 24.6966 14.2195V14.2412C24.6966 14.3025 24.706 14.3418 24.7908 14.395L24.8913 14.458C25.1303 14.6077 25.1854 14.9032 25.1854 15.0616V15.1267C25.1854 15.3574 25.1213 15.4329 25.035 15.4329C24.9874 15.4329 24.9329 15.41 24.8787 15.3776V15.5397Z" fill="#FD6664"/>
<path fill-rule="evenodd" clip-rule="evenodd" d="M26.1026 16.128L25.2792 15.6126V15.2802C25.4065 15.253 25.798 15.0987 25.798 14.9506C25.798 14.8298 25.746 14.7835 25.6187 14.7038L25.2666 14.4834V14.1963C25.3955 14.2417 25.518 14.2945 25.7444 14.4366C25.9895 14.5898 26.1026 14.8586 26.1026 15.1353C26.1026 15.4082 25.8701 15.5277 25.7728 15.5774L26.1026 15.784V16.128Z" fill="#FD6664"/>
<path fill-rule="evenodd" clip-rule="evenodd" d="M26.8437 16.563C26.798 16.563 26.7424 16.5428 26.6784 16.5028C26.4991 16.3904 26.3214 16.2851 26.1831 16.1373L26.1849 15.8475L26.5275 16.0621C26.5922 16.1028 26.6315 16.1269 26.6542 16.1269C26.6745 16.1269 26.6814 16.1075 26.6814 16.0638V16.0459C26.6814 15.9548 26.6375 15.9233 26.5368 15.8545L26.2806 15.6802V15.3678L26.5368 15.5084C26.5946 15.5412 26.6327 15.5636 26.6557 15.5636C26.6759 15.5636 26.6846 15.5465 26.6846 15.5038V15.4862C26.6846 15.3852 26.6185 15.344 26.5368 15.2928L26.1738 15.0655V14.7769C26.3121 14.8021 26.5053 14.925 26.6893 15.0443C26.8623 15.1566 26.9864 15.3609 26.9864 15.5961V15.6733C26.9864 15.8047 26.9563 15.8815 26.8783 15.8815C26.8708 15.8815 26.8629 15.8808 26.8544 15.8792C26.9533 15.9809 26.9864 16.1163 26.9864 16.2666V16.3241C26.9864 16.4833 26.9347 16.563 26.8437 16.563Z" fill="#FD6664"/>
<path fill-rule="evenodd" clip-rule="evenodd" d="M27.5479 17.0329L27.2242 16.83L27.5354 15.9214L27.0781 15.635V15.291L27.8338 15.7644L27.9077 15.9648L27.5479 17.0329Z" fill="#FD6664"/>
<path fill-rule="evenodd" clip-rule="evenodd" d="M20.0417 15.9997C19.9352 15.9997 19.8153 15.9619 19.6883 15.8825C19.2499 15.608 18.8945 14.9381 18.8945 14.3864C18.8945 13.9945 19.074 13.7676 19.3352 13.7676C19.4415 13.7676 19.5615 13.8053 19.6883 13.8848C20.1268 14.1592 20.4822 14.8291 20.4822 15.3807C20.4823 15.7728 20.3027 15.9997 20.0417 15.9997Z" fill="#C4C4EE"/>
<path fill-rule="evenodd" clip-rule="evenodd" d="M22.6698 17.6452C22.5633 17.6452 22.4432 17.6074 22.3164 17.528C21.878 17.2534 21.5225 16.5837 21.5225 16.0319C21.5225 15.64 21.7019 15.4131 21.9631 15.4131C22.0694 15.4131 22.1895 15.4507 22.3164 15.5303C22.7549 15.8048 23.1102 16.4746 23.1102 17.0263C23.1102 17.4183 22.9308 17.6452 22.6698 17.6452Z" fill="#C4C4EE"/>
<path fill-rule="evenodd" clip-rule="evenodd" d="M25.2976 19.291C25.1912 19.291 25.0712 19.2534 24.9442 19.174C24.5058 18.8994 24.1504 18.2295 24.1504 17.6779C24.1504 17.2858 24.3298 17.0591 24.591 17.0591C24.6975 17.0591 24.8174 17.0967 24.9444 17.1761C25.3826 17.4506 25.7382 18.1205 25.738 18.6722C25.738 19.0643 25.5587 19.291 25.2976 19.291Z" fill="#C4C4EE"/>
<path fill-rule="evenodd" clip-rule="evenodd" d="M27.9253 20.9367C27.819 20.9367 27.6991 20.8989 27.5721 20.8196C27.1337 20.5449 26.7783 19.8752 26.7783 19.3235C26.7783 18.9315 26.9578 18.7046 27.2189 18.7046C27.3253 18.7046 27.4453 18.7424 27.5721 18.8218C28.0105 19.0963 28.3659 19.7661 28.3659 20.3179C28.3659 20.7099 28.1865 20.9367 27.9253 20.9367Z" fill="#C4C4EE"/>
<path fill-rule="evenodd" clip-rule="evenodd" d="M28.9665 31.3669L18.2949 24.6834L18.2951 16.9629L28.9666 23.6462L28.9665 31.3669ZM27.2191 27.6534C26.9579 27.6534 26.7785 27.8803 26.7785 28.2721C26.7785 28.8239 27.134 29.4936 27.5724 29.7684C27.6994 29.8479 27.8193 29.8855 27.9256 29.8856C28.1868 29.8856 28.3663 29.6587 28.3663 29.2667C28.3663 28.7149 28.0109 28.0452 27.5724 27.7706C27.4455 27.6911 27.3256 27.6534 27.2191 27.6534ZM24.5914 26.0077C24.3302 26.0077 24.1508 26.2347 24.1508 26.6267C24.1508 27.1783 24.5062 27.848 24.9448 28.1228C25.0716 28.2021 25.1915 28.2398 25.2978 28.2398C25.559 28.2398 25.7386 28.0129 25.7386 27.6209C25.7386 27.0693 25.383 26.3994 24.9448 26.1248C24.8178 26.0453 24.6979 26.0077 24.5914 26.0077ZM21.9637 24.3621C21.7025 24.3621 21.5231 24.5889 21.523 24.9809C21.523 25.5325 21.8785 26.2024 22.3169 26.477C22.4437 26.5564 22.5636 26.594 22.6701 26.594C22.9313 26.594 23.1108 26.3671 23.1108 25.9751C23.1108 25.4235 22.7554 24.7536 22.3169 24.479C22.1901 24.3997 22.0701 24.3621 21.9637 24.3621ZM27.1329 24.9414C27.0497 24.9414 27.0053 25.0203 27.0053 25.1743V25.7587C27.0053 25.9662 27.0918 26.1448 27.2703 26.2565L27.4957 26.3977C27.5466 26.4296 27.5906 26.445 27.6268 26.445C27.7079 26.445 27.7512 26.3678 27.7512 26.2258V25.6241C27.7512 25.4443 27.6963 25.2579 27.4971 25.1331L27.2717 24.992C27.2177 24.9581 27.1712 24.9414 27.1329 24.9414ZM26.1975 25.2821V25.5501C26.3815 25.7051 26.4584 25.755 26.6288 25.8614C26.6789 25.8929 26.7303 25.9125 26.7752 25.9125C26.8508 25.9125 26.9076 25.8567 26.9076 25.7078V25.5453C26.9076 25.3621 26.8363 25.1791 26.677 25.062C26.6591 25.049 26.6082 25.0154 26.5724 24.9964C26.557 24.9882 26.528 24.9742 26.4973 24.9742C26.4927 24.9742 26.488 24.9745 26.4832 24.9752L26.4886 24.8021L26.8651 25.0379V24.7374L26.229 24.3388L26.1987 25.1237L26.4543 25.2838C26.4543 25.2481 26.4615 25.2302 26.4795 25.2302C26.4884 25.2302 26.5001 25.2346 26.5148 25.244L26.5752 25.2818C26.6274 25.3144 26.6411 25.3577 26.6411 25.4146V25.4682C26.6411 25.493 26.6433 25.5304 26.6135 25.5304C26.6016 25.5304 26.5845 25.5245 26.5601 25.5091L26.1975 25.2821ZM25.3813 24.783L25.3799 25.0362C25.5007 25.1656 25.656 25.2577 25.8126 25.3556C25.8687 25.3908 25.9172 25.4083 25.9572 25.4083C26.0368 25.4083 26.0818 25.3385 26.0818 25.1993L26.082 25.1492C26.082 25.0178 26.0532 24.8995 25.9665 24.8107C25.9739 24.812 25.9809 24.8125 25.9875 24.8125C26.0555 24.8125 26.082 24.7456 26.082 24.6305V24.563C26.082 24.3573 25.9735 24.1789 25.8222 24.0806C25.6615 23.9766 25.4925 23.8689 25.3717 23.8469V24.0993L25.689 24.2982C25.7605 24.3428 25.8181 24.3788 25.8181 24.4672V24.4826C25.8181 24.5198 25.8106 24.5349 25.7929 24.5349C25.7728 24.5349 25.7395 24.5154 25.689 24.4865L25.4651 24.3635V24.6367L25.689 24.7891C25.777 24.8493 25.8153 24.8768 25.8153 24.9563V24.9718C25.8153 25.0101 25.8092 25.0268 25.7915 25.0268C25.7717 25.0268 25.7373 25.0058 25.6808 24.9704L25.3813 24.783ZM24.6448 24.3062V24.5672C24.7519 24.6793 24.7699 24.7027 24.8907 24.7799V24.9217L25.0391 25.0145V24.8729C25.0864 24.9012 25.134 24.9214 25.1756 24.9214C25.251 24.9214 25.3071 24.8553 25.3071 24.6536V24.5965C25.3071 24.4581 25.2589 24.1997 25.0502 24.069L24.9623 24.014C24.8879 23.9675 24.8799 23.933 24.8799 23.8795V23.8605C24.8799 23.8243 24.8866 23.8094 24.9025 23.8094C24.9188 23.8094 24.9441 23.8247 24.9815 23.8479C25.0721 23.9048 25.182 23.979 25.2699 24.0459V23.785C25.1971 23.7066 25.1395 23.6512 25.0391 23.5832V23.4347L24.8907 23.3416V23.4902C24.8356 23.4583 24.7842 23.439 24.7409 23.439C24.6642 23.439 24.6132 23.4996 24.6132 23.6587V23.7642C24.6132 23.8453 24.6242 24.1377 24.8852 24.3011L24.9678 24.3527C25.0281 24.3906 25.0405 24.4245 25.0405 24.4745V24.502C25.0405 24.5318 25.0333 24.5461 25.0161 24.5461C25.0032 24.5461 24.9848 24.5381 24.9594 24.5222C24.8317 24.4422 24.6998 24.3474 24.6448 24.3062ZM19.3359 22.7163C19.0747 22.7163 18.8953 22.943 18.8953 23.3352C18.8953 23.8869 19.2507 24.5567 19.6891 24.8312C19.8161 24.9106 19.9361 24.9482 20.0425 24.9484C20.3036 24.9484 20.4829 24.7215 20.4829 24.3294C20.4829 23.7778 20.1275 23.108 19.6891 22.8333C19.5623 22.7539 19.4422 22.7163 19.3359 22.7163ZM19.0265 18.3095C18.9487 18.3095 18.8953 18.3771 18.8953 18.4939V21.449C18.8953 21.6134 19.0011 21.813 19.1317 21.8947L23.3237 24.52C23.3615 24.5437 23.3973 24.5548 23.4291 24.5548C23.5068 24.5548 23.5602 24.4873 23.5602 24.3705L23.5604 21.4155C23.5604 21.2511 23.4545 21.0517 23.3239 20.97L19.1317 18.3445C19.0939 18.3208 19.0582 18.3095 19.0265 18.3095ZM27.3675 24.1056C27.3355 24.1056 27.3231 24.142 27.3231 24.2322C27.3231 24.3488 27.3432 24.418 27.4113 24.4607C27.4532 24.4868 27.5222 24.5325 27.5575 24.5343V24.4545C27.5195 24.4378 27.5181 24.4368 27.4817 24.414C27.4445 24.3906 27.4207 24.3853 27.4207 24.3397L27.4833 24.3788C27.5022 24.3906 27.5182 24.3975 27.531 24.3975C27.5509 24.3975 27.5624 24.3805 27.5624 24.3383C27.5624 24.2267 27.5291 24.1919 27.44 24.1362C27.4091 24.1169 27.3853 24.1056 27.3675 24.1056ZM27.1353 23.955C27.1054 23.955 27.0861 23.9899 27.0861 24.0851C27.0861 24.217 27.1244 24.2809 27.1742 24.3122C27.212 24.3351 27.2596 24.3732 27.2964 24.3732C27.3004 24.3732 27.3042 24.3727 27.3079 24.3717V24.2994C27.3079 24.2994 27.2756 24.2843 27.2292 24.2553C27.1929 24.2326 27.1838 24.2249 27.1838 24.1476C27.1838 24.0967 27.1881 24.0803 27.1994 24.0803C27.2063 24.0803 27.2161 24.0866 27.2292 24.095C27.2741 24.1228 27.3043 24.1457 27.3043 24.1457V24.0733C27.253 24.0152 27.2007 23.9855 27.1742 23.969C27.16 23.9602 27.1468 23.955 27.1353 23.955ZM26.9206 23.9045C26.9269 23.9045 26.9346 23.9077 26.944 23.9137C26.9551 23.9205 26.9606 23.9304 26.9606 23.9571V24.1753L27.0584 24.2363V24.0208C27.0584 23.9497 27.0504 23.8889 26.9809 23.8455C26.9609 23.833 26.9469 23.8288 26.9357 23.8288C26.9242 23.8288 26.9158 23.8334 26.9073 23.838L26.8911 23.7947L26.8095 23.7438V24.0805L26.9073 24.1418V23.9142C26.9103 23.9075 26.9147 23.9045 26.9206 23.9045ZM26.6808 23.9656L26.7 24.0119L26.7786 24.0612V23.8349C26.7786 23.7404 26.7362 23.6917 26.6658 23.6476C26.6157 23.6162 26.5855 23.6016 26.551 23.601V23.6726L26.6496 23.7274C26.6699 23.7401 26.6808 23.7462 26.6808 23.7799V23.7843L26.6294 23.7522C26.6083 23.7389 26.5919 23.7334 26.5793 23.7334C26.5504 23.7334 26.5419 23.7631 26.5419 23.7963V23.8223C26.5419 23.8578 26.5609 23.9255 26.6244 23.9684C26.6384 23.9779 26.6493 23.9814 26.6576 23.9814C26.6713 23.9814 26.6781 23.9723 26.6808 23.9656ZM26.3842 23.3176V23.6943C26.3842 23.7838 26.4078 23.8289 26.4557 23.859L26.5252 23.9024V23.8308L26.5004 23.8021C26.4894 23.7874 26.4818 23.7737 26.4818 23.7302V23.3788L26.3842 23.3176ZM26.2555 23.6992L26.2748 23.7457L26.3533 23.7947V23.5685C26.3533 23.474 26.3111 23.4253 26.2405 23.3812C26.1905 23.3499 26.1603 23.3352 26.1255 23.3344V23.4061L26.2243 23.461C26.2446 23.4738 26.2555 23.48 26.2555 23.5135V23.5179L26.2041 23.4858C26.183 23.4726 26.1666 23.467 26.154 23.467C26.125 23.467 26.1163 23.4965 26.1163 23.5299V23.5558C26.1163 23.5912 26.1356 23.6591 26.1992 23.7021C26.2131 23.7115 26.2239 23.7148 26.2321 23.7148C26.2458 23.7148 26.2526 23.7057 26.2555 23.6992ZM25.8202 22.9967V23.4608L25.9829 23.5629C26.011 23.5805 26.0341 23.5899 26.0522 23.5899C26.0841 23.5899 26.1003 23.5605 26.1003 23.4943C26.1003 23.446 26.0751 23.3874 26.0373 23.3557C26.0434 23.359 26.0491 23.3605 26.0543 23.3605C26.0792 23.3605 26.0911 23.326 26.0911 23.2934C26.0911 23.2146 26.059 23.1462 25.9804 23.0972L25.8202 22.9967ZM25.5248 22.7795V23.1561C25.5248 23.2455 25.5484 23.2906 25.5963 23.3207L25.666 23.3645V23.2927L25.6412 23.264C25.6302 23.2494 25.6225 23.2356 25.6225 23.1919V22.8407L25.5248 22.7795ZM25.3963 23.1613L25.4153 23.2074L25.4941 23.2568V23.0304C25.4941 22.9359 25.4517 22.8872 25.3811 22.8431C25.3312 22.8116 25.301 22.7973 25.2663 22.7963V22.868L25.3651 22.9229C25.3852 22.9354 25.3963 22.9419 25.3963 22.9753V22.9798L25.3449 22.9477C25.3236 22.9343 25.3073 22.9289 25.2948 22.9289C25.2658 22.9289 25.2572 22.9584 25.2572 22.9918V23.0177C25.2572 23.0531 25.2764 23.1211 25.3399 23.164C25.3537 23.1734 25.3646 23.1768 25.3729 23.1768C25.3865 23.1768 25.3934 23.1678 25.3963 23.1613ZM25.1094 22.5845L25.0954 22.6698L25.0576 22.67V22.731L25.0954 22.7546V22.8867C25.0954 22.976 25.1201 23.023 25.1604 23.0485L25.236 23.0956V23.024L25.2113 22.9952C25.2003 22.9808 25.1932 22.9675 25.1932 22.9224V22.8159L25.2381 22.8439V22.759L25.1932 22.7308V22.637L25.1094 22.5845ZM24.8364 22.5215C24.8009 22.5215 24.7869 22.5603 24.7869 22.6502C24.7869 22.7708 24.8183 22.8366 24.9125 22.8957C24.9459 22.9166 24.9711 22.9273 24.99 22.9273C25.0254 22.9273 25.0379 22.889 25.0379 22.8074C25.0379 22.6736 25.006 22.611 24.9125 22.5526C24.8803 22.5324 24.8553 22.5215 24.8364 22.5215ZM24.5577 22.2062V22.3164L24.6503 22.3745V22.7282L24.7482 22.7894V22.4355L24.8439 22.4955V22.3854L24.5577 22.2062ZM27.4559 26.0627C27.4431 26.0627 27.4266 26.0535 27.4078 26.0417L27.35 26.0055C27.3199 25.9867 27.2717 25.9515 27.2717 25.8546V25.393C27.2717 25.3753 27.2701 25.3225 27.3042 25.3225C27.3135 25.3225 27.3253 25.3262 27.3405 25.336L27.4188 25.3847C27.4559 25.4081 27.4848 25.4469 27.4848 25.5263V25.9898C27.4848 26.0445 27.474 26.0627 27.4559 26.0627ZM27.45 24.2801L27.4207 24.2616C27.4201 24.2293 27.4225 24.2182 27.4303 24.2182C27.4344 24.2182 27.4398 24.2211 27.4469 24.2255C27.4642 24.2363 27.4647 24.2461 27.4647 24.2688L27.45 24.2801ZM26.672 23.9041C26.6691 23.9041 26.6655 23.9029 26.6608 23.9C26.6512 23.8937 26.6397 23.8892 26.6397 23.8631V23.8593C26.6397 23.8511 26.6389 23.8381 26.6476 23.8381C26.6494 23.8381 26.6518 23.8388 26.6548 23.8404L26.6808 23.8534V23.8915C26.6808 23.8915 26.6811 23.9041 26.672 23.9041ZM26.2466 23.6375C26.2438 23.6375 26.2402 23.6365 26.2354 23.6334C26.2258 23.6274 26.2142 23.6227 26.2142 23.5967V23.5929C26.2142 23.5846 26.2135 23.5717 26.2221 23.5717C26.2241 23.5717 26.2265 23.5724 26.2295 23.574L26.2555 23.5869V23.6251C26.2555 23.6251 26.2558 23.6375 26.2466 23.6375ZM25.9898 23.4602C25.9867 23.4602 25.9826 23.4586 25.9779 23.4557L25.9179 23.4181V23.3279L25.9779 23.3656C25.9974 23.378 26.0025 23.4032 26.0025 23.4268C26.0025 23.4475 25.9995 23.4602 25.9898 23.4602ZM25.9834 23.2686C25.9804 23.2686 25.9769 23.2674 25.9728 23.2648L25.9179 23.2305V23.1618L25.9728 23.1963C25.9839 23.2033 25.9955 23.2189 25.9955 23.2469C25.9955 23.2599 25.9914 23.2686 25.9834 23.2686ZM25.3874 23.0994C25.3846 23.0994 25.3808 23.0982 25.3759 23.0951C25.3665 23.0892 25.355 23.081 25.355 23.0548C25.355 23.0466 25.3544 23.0336 25.3629 23.0336C25.3648 23.0336 25.3671 23.0343 25.3701 23.0357L25.3963 23.049V23.0871C25.3963 23.0871 25.3966 23.0994 25.3874 23.0994ZM24.9307 22.8127C24.9266 22.8127 24.9208 22.8096 24.9125 22.8043C24.8868 22.7882 24.8847 22.7781 24.8847 22.7115C24.8847 22.658 24.8836 22.6365 24.8951 22.6365C24.8992 22.6365 24.9048 22.639 24.9125 22.6438C24.9407 22.6614 24.9402 22.6734 24.9402 22.7462C24.9402 22.7954 24.9402 22.8127 24.9307 22.8127Z" fill="#FEFEFE"/>
<path fill-rule="evenodd" clip-rule="evenodd" d="M23.4284 24.5549C23.3965 24.5549 23.3608 24.5438 23.323 24.5201L19.131 21.8948C19.0004 21.8131 18.8945 21.6135 18.8945 21.4491V18.494C18.8945 18.3772 18.9479 18.3096 19.0258 18.3096C19.0574 18.3096 19.0932 18.3208 19.131 18.3446L23.3231 20.9701C23.4537 21.0518 23.5596 21.2512 23.5596 21.4156L23.5594 24.3706C23.5594 24.4874 23.506 24.5549 23.4284 24.5549ZM19.1631 19.7317V20.3686L23.2384 22.9208V22.2839L19.1631 19.7317ZM19.1631 21.1171V21.4356L19.9309 21.9165V21.5979L19.1631 21.1171ZM22.4939 20.7483V21.0666L23.2384 21.533V21.2145L22.4939 20.7483Z" fill="#FD6664"/>
<path fill-rule="evenodd" clip-rule="evenodd" d="M23.2383 22.9205L19.1631 20.3683V19.7314L23.2383 22.2836V22.9205Z" fill="#FEE04C"/>
<path fill-rule="evenodd" clip-rule="evenodd" d="M23.2386 21.5328L22.4941 21.0664V20.748L23.2386 21.2142V21.5328Z" fill="#FEE04C"/>
<path fill-rule="evenodd" clip-rule="evenodd" d="M19.9309 21.9166L19.1631 21.4357V21.1172L19.9309 21.5981V21.9166Z" fill="#FEE04C"/>
<path fill-rule="evenodd" clip-rule="evenodd" d="M25.0393 25.0148L24.8909 24.922V24.7801C24.77 24.7029 24.7521 24.6795 24.6449 24.5674V24.3064C24.6999 24.3476 24.8318 24.4425 24.9595 24.5224C24.9849 24.5383 25.0033 24.5464 25.0163 24.5464C25.0334 24.5464 25.0407 24.532 25.0407 24.5023V24.4748C25.0407 24.4247 25.0282 24.3909 24.9679 24.3529L24.8853 24.3013C24.6243 24.138 24.6133 23.8456 24.6133 23.7644V23.659C24.6133 23.4999 24.6643 23.4392 24.741 23.4392C24.7844 23.4392 24.8357 23.4585 24.8909 23.4905V23.3418L25.0393 23.4349V23.5834C25.1396 23.6514 25.1973 23.7068 25.27 23.7852V24.0462C25.1821 23.9792 25.0722 23.905 24.9816 23.8481C24.9443 23.8249 24.9189 23.8097 24.9027 23.8097C24.8868 23.8097 24.88 23.8246 24.88 23.8608V23.8797C24.88 23.9332 24.888 23.9678 24.9624 24.0142L25.0503 24.0693C25.259 24.2 25.3072 24.4584 25.3072 24.5968V24.6539C25.3072 24.8555 25.2511 24.9216 25.1757 24.9216C25.1341 24.9216 25.0865 24.9015 25.0393 24.8731V25.0148Z" fill="#FD6664"/>
<path fill-rule="evenodd" clip-rule="evenodd" d="M25.9567 25.4086C25.9166 25.4086 25.8681 25.3911 25.812 25.3559C25.6554 25.258 25.5001 25.1659 25.3793 25.0365L25.3807 24.7833L25.6802 24.9707C25.7367 25.0061 25.7711 25.0271 25.7909 25.0271C25.8086 25.0271 25.8147 25.0104 25.8147 24.9721V24.9566C25.8147 24.8771 25.7764 24.8496 25.6884 24.7894L25.4645 24.637V24.3638L25.6884 24.4868C25.7389 24.5157 25.7722 24.5352 25.7923 24.5352C25.81 24.5352 25.8175 24.5201 25.8175 24.4829V24.4675C25.8175 24.3791 25.7599 24.3431 25.6884 24.2985L25.3711 24.0996V23.8472C25.4919 23.8692 25.661 23.9769 25.8216 24.0809C25.9729 24.1792 26.0814 24.3576 26.0814 24.5634V24.6309C26.0814 24.7459 26.055 24.8128 25.9869 24.8128C25.9803 24.8128 25.9733 24.8123 25.9659 24.811C26.0526 24.8998 26.0814 25.0181 26.0814 25.1495L26.0813 25.1996C26.0813 25.3388 26.0362 25.4086 25.9567 25.4086Z" fill="#FD6664"/>
<path fill-rule="evenodd" clip-rule="evenodd" d="M26.7749 25.9126C26.73 25.9126 26.6787 25.8929 26.6286 25.8615C26.4581 25.755 26.3813 25.7051 26.1973 25.5501V25.2822L26.5599 25.5091C26.5843 25.5245 26.6013 25.5305 26.6133 25.5305C26.6431 25.5305 26.6409 25.493 26.6409 25.4683V25.4146C26.6409 25.3577 26.6272 25.3145 26.575 25.2818L26.5145 25.2441C26.4999 25.2347 26.4882 25.2302 26.4793 25.2302C26.4613 25.2302 26.454 25.2482 26.454 25.2839L26.1985 25.1237L26.2288 24.3389L26.8649 24.7374V25.038L26.4884 24.8021L26.483 24.9752C26.4878 24.9746 26.4925 24.9742 26.4971 24.9742C26.5278 24.9742 26.5568 24.9882 26.5722 24.9964C26.608 25.0154 26.6588 25.0491 26.6768 25.0621C26.8361 25.1791 26.9074 25.3621 26.9074 25.5453V25.7078C26.9074 25.8567 26.8506 25.9126 26.7749 25.9126Z" fill="#FD6664"/>
<path fill-rule="evenodd" clip-rule="evenodd" d="M27.6264 26.445C27.5901 26.445 27.5462 26.4297 27.4953 26.3977L27.2699 26.2565C27.0914 26.1448 27.0049 25.9662 27.0049 25.7588V25.1743C27.0049 25.0204 27.0493 24.9414 27.1325 24.9414C27.1708 24.9414 27.2172 24.9582 27.2713 24.992L27.4967 25.1331C27.6958 25.2579 27.7508 25.4443 27.7508 25.6241V26.2258C27.7508 26.3678 27.7075 26.445 27.6264 26.445ZM27.3037 25.3225C27.2697 25.3225 27.2713 25.3753 27.2713 25.3931V25.8546C27.2713 25.9515 27.3195 25.9867 27.3496 26.0055L27.4074 26.0417C27.4261 26.0535 27.4427 26.0628 27.4554 26.0628C27.4735 26.0628 27.4844 26.0445 27.4844 25.9898V25.5263C27.4844 25.4469 27.4554 25.4081 27.4184 25.3847L27.3401 25.336C27.3248 25.3262 27.313 25.3225 27.3037 25.3225Z" fill="#FD6664"/>
<path fill-rule="evenodd" clip-rule="evenodd" d="M24.7481 22.7893L24.6502 22.7281V22.3744L24.5576 22.3163V22.2061L24.8439 22.3853V22.4954L24.7481 22.4354V22.7893Z" fill="#C4C4EE"/>
<path fill-rule="evenodd" clip-rule="evenodd" d="M24.9892 22.9273C24.9703 22.9273 24.9451 22.9166 24.9117 22.8957C24.8175 22.8366 24.7861 22.7708 24.7861 22.6502C24.7861 22.5603 24.8002 22.5215 24.8356 22.5215C24.8545 22.5215 24.8795 22.5324 24.9117 22.5526C25.0053 22.611 25.0371 22.6736 25.0371 22.8074C25.0371 22.8891 25.0246 22.9273 24.9892 22.9273ZM24.8944 22.6365C24.8829 22.6365 24.884 22.658 24.884 22.7115C24.884 22.7782 24.886 22.7882 24.9117 22.8043C24.92 22.8096 24.9259 22.8127 24.93 22.8127C24.9394 22.8127 24.9394 22.7954 24.9394 22.7462C24.9394 22.6734 24.9399 22.6614 24.9117 22.6438C24.904 22.6391 24.8985 22.6365 24.8944 22.6365Z" fill="#C4C4EE"/>
<path fill-rule="evenodd" clip-rule="evenodd" d="M25.2361 23.0956L25.1605 23.0484C25.1202 23.023 25.0954 22.976 25.0954 22.8866V22.7545L25.0576 22.7309V22.6699L25.0954 22.6697L25.1094 22.5845L25.1933 22.6369V22.7308L25.2382 22.7589V22.8439L25.1933 22.8159V22.9223C25.1933 22.9674 25.2003 22.9808 25.2114 22.9951L25.2361 23.024V23.0956Z" fill="#C4C4EE"/>
<path fill-rule="evenodd" clip-rule="evenodd" d="M25.4938 23.2569L25.415 23.2075L25.3959 23.1614C25.3931 23.1679 25.3862 23.177 25.3726 23.177C25.3643 23.177 25.3534 23.1735 25.3395 23.1641C25.2761 23.1212 25.2568 23.0532 25.2568 23.0179V22.9919C25.2568 22.9586 25.2655 22.929 25.2945 22.929C25.3069 22.929 25.3233 22.9345 25.3446 22.9478L25.3959 22.9799V22.9755C25.3959 22.942 25.3849 22.9355 25.3647 22.923L25.266 22.8682V22.7964C25.3006 22.7974 25.3309 22.8118 25.3808 22.8432C25.4514 22.8873 25.4938 22.936 25.4938 23.0305V23.2569ZM25.3625 23.0337C25.354 23.0337 25.3547 23.0467 25.3547 23.0549C25.3547 23.0811 25.3662 23.0893 25.3756 23.0953C25.3805 23.0983 25.3843 23.0995 25.3871 23.0995C25.3963 23.0995 25.3959 23.0872 25.3959 23.0872V23.0491L25.3698 23.0358C25.3668 23.0344 25.3644 23.0337 25.3625 23.0337Z" fill="#C4C4EE"/>
<path fill-rule="evenodd" clip-rule="evenodd" d="M25.6656 23.3647L25.5959 23.321C25.548 23.2909 25.5244 23.2458 25.5244 23.1564V22.7798L25.6221 22.841V23.1921C25.6221 23.2359 25.6298 23.2497 25.6408 23.2642L25.6656 23.293V23.3647Z" fill="#C4C4EE"/>
<path fill-rule="evenodd" clip-rule="evenodd" d="M26.0524 23.5897C26.0342 23.5897 26.0111 23.5803 25.983 23.5627L25.8203 23.4607V22.9966L25.9805 23.0971C26.0591 23.1461 26.0913 23.2145 26.0913 23.2932C26.0913 23.3259 26.0793 23.3604 26.0544 23.3604C26.0492 23.3604 26.0435 23.3589 26.0374 23.3556C26.0752 23.3872 26.1004 23.4458 26.1004 23.4942C26.1004 23.5603 26.0842 23.5897 26.0524 23.5897ZM25.918 23.3278V23.418L25.978 23.4556C25.9827 23.4585 25.9868 23.46 25.99 23.46C25.9996 23.46 26.0026 23.4474 26.0026 23.4267C26.0026 23.4031 25.9975 23.3778 25.978 23.3655L25.918 23.3278ZM25.918 23.1617V23.2304L25.973 23.2647C25.9771 23.2673 25.9805 23.2685 25.9835 23.2685C25.9916 23.2685 25.9956 23.2597 25.9956 23.2468C25.9956 23.2187 25.984 23.2032 25.973 23.1962L25.918 23.1617Z" fill="#C4C4EE"/>
<path fill-rule="evenodd" clip-rule="evenodd" d="M26.3531 23.7948L26.2747 23.7458L26.2553 23.6993C26.2525 23.7058 26.2457 23.7149 26.232 23.7149C26.2238 23.7149 26.2129 23.7116 26.1991 23.7022C26.1354 23.6592 26.1162 23.5913 26.1162 23.5559V23.53C26.1162 23.4966 26.1249 23.4671 26.1539 23.4671C26.1665 23.4671 26.1828 23.4727 26.204 23.4859L26.2553 23.518V23.5136C26.2553 23.4801 26.2444 23.4739 26.2241 23.4611L26.1253 23.4062V23.3345C26.1602 23.3353 26.1904 23.35 26.2403 23.3813C26.3109 23.4254 26.3531 23.4741 26.3531 23.5686V23.7948ZM26.2219 23.5718C26.2134 23.5718 26.214 23.5846 26.214 23.593V23.5968C26.214 23.6228 26.2257 23.6275 26.2353 23.6335C26.24 23.6366 26.2437 23.6376 26.2465 23.6376C26.2556 23.6376 26.2553 23.6252 26.2553 23.6252V23.587L26.2293 23.5741C26.2263 23.5725 26.224 23.5718 26.2219 23.5718Z" fill="#C4C4EE"/>
<path fill-rule="evenodd" clip-rule="evenodd" d="M26.5248 23.9026L26.4553 23.8592C26.4074 23.8292 26.3838 23.784 26.3838 23.6945V23.3179L26.4815 23.379V23.7304C26.4815 23.774 26.489 23.7876 26.5001 23.8023L26.5248 23.831V23.9026Z" fill="#C4C4EE"/>
<path fill-rule="evenodd" clip-rule="evenodd" d="M26.7788 24.0613L26.7002 24.0121L26.6809 23.9657C26.6783 23.9724 26.6715 23.9815 26.6578 23.9815C26.6494 23.9815 26.6386 23.9781 26.6245 23.9685C26.5611 23.9256 26.542 23.8579 26.542 23.8224V23.7964C26.542 23.7632 26.5505 23.7335 26.5795 23.7335C26.5921 23.7335 26.6085 23.739 26.6296 23.7523L26.6809 23.7844V23.78C26.6809 23.7463 26.6701 23.7402 26.6497 23.7275L26.5511 23.6727V23.6011C26.5856 23.6018 26.6159 23.6163 26.666 23.6477C26.7364 23.6918 26.7788 23.7405 26.7788 23.835V24.0613ZM26.6477 23.8383C26.639 23.8383 26.6398 23.8513 26.6398 23.8595V23.8632C26.6398 23.8894 26.6513 23.8938 26.6609 23.9001C26.6657 23.903 26.6693 23.9042 26.6721 23.9042C26.6813 23.9042 26.6809 23.8916 26.6809 23.8916V23.8535L26.6549 23.8405C26.652 23.8389 26.6496 23.8383 26.6477 23.8383Z" fill="#C4C4EE"/>
<path fill-rule="evenodd" clip-rule="evenodd" d="M27.0585 24.2366L26.9606 24.1756V23.9574C26.9606 23.9307 26.9551 23.9208 26.9441 23.914C26.9347 23.908 26.9269 23.9048 26.9206 23.9048C26.9148 23.9048 26.9104 23.9078 26.9074 23.9145V24.1421L26.8096 24.0808V23.7441L26.8912 23.7951L26.9074 23.8383C26.9159 23.8337 26.9243 23.8291 26.9358 23.8291C26.9469 23.8291 26.961 23.8333 26.981 23.8458C27.0504 23.8892 27.0585 23.9501 27.0585 24.0211V24.2366Z" fill="#C4C4EE"/>
<path fill-rule="evenodd" clip-rule="evenodd" d="M27.2962 24.3732C27.2594 24.3732 27.2118 24.3351 27.174 24.3122C27.1242 24.281 27.0859 24.217 27.0859 24.0851C27.0859 23.9899 27.1052 23.9551 27.1351 23.9551C27.1466 23.9551 27.1598 23.9602 27.174 23.9691C27.2005 23.9855 27.2528 24.0152 27.3041 24.0733V24.1458C27.3041 24.1458 27.2739 24.1229 27.229 24.095C27.2159 24.0867 27.2061 24.0803 27.1992 24.0803C27.1879 24.0803 27.1836 24.0967 27.1836 24.1477C27.1836 24.2249 27.1927 24.2326 27.229 24.2553C27.2754 24.2844 27.3077 24.2994 27.3077 24.2994V24.3717C27.304 24.3727 27.3002 24.3732 27.2962 24.3732Z" fill="#C4C4EE"/>
<path fill-rule="evenodd" clip-rule="evenodd" d="M27.5567 24.5342C27.5214 24.5323 27.4524 24.4867 27.4105 24.4606C27.3424 24.4178 27.3223 24.3486 27.3223 24.2321C27.3223 24.1419 27.3347 24.1055 27.3667 24.1055C27.3845 24.1055 27.4083 24.1167 27.4392 24.1361C27.5283 24.1918 27.5616 24.2266 27.5616 24.3382C27.5616 24.3804 27.5501 24.3973 27.5302 24.3973C27.5174 24.3973 27.5014 24.3905 27.4825 24.3787L27.4199 24.3396C27.4199 24.3852 27.4437 24.3905 27.4809 24.4139C27.5173 24.4366 27.5187 24.4377 27.5567 24.4544V24.5342ZM27.4295 24.2181C27.4217 24.2181 27.4193 24.2292 27.4199 24.2615L27.4492 24.2799L27.4639 24.2687C27.4639 24.2459 27.4634 24.2362 27.4461 24.2254C27.439 24.221 27.4336 24.2181 27.4295 24.2181Z" fill="#C4C4EE"/>
<path fill-rule="evenodd" clip-rule="evenodd" d="M20.0417 24.9484C19.9354 24.9483 19.8153 24.9107 19.6883 24.8312C19.2499 24.5567 18.8945 23.8869 18.8945 23.3353C18.8945 22.9431 19.074 22.7163 19.3352 22.7163C19.4415 22.7163 19.5615 22.7539 19.6883 22.8334C20.1268 23.108 20.4822 23.7779 20.4822 24.3295C20.4822 24.7215 20.3029 24.9484 20.0417 24.9484Z" fill="#C4C4EE"/>
<path fill-rule="evenodd" clip-rule="evenodd" d="M22.6696 26.5942C22.5631 26.5942 22.4432 26.5567 22.3164 26.4772C21.878 26.2026 21.5225 25.5327 21.5225 24.9811C21.5226 24.5891 21.7021 24.3623 21.9632 24.3623C22.0696 24.3623 22.1896 24.3999 22.3164 24.4792C22.7549 24.7538 23.1102 25.4237 23.1102 25.9753C23.1102 26.3673 22.9308 26.5942 22.6696 26.5942Z" fill="#C4C4EE"/>
<path fill-rule="evenodd" clip-rule="evenodd" d="M25.2974 28.2399C25.1911 28.2399 25.0712 28.2022 24.9444 28.1229C24.5058 27.8481 24.1504 27.1784 24.1504 26.6268C24.1504 26.2348 24.3298 26.0078 24.591 26.0078C24.6975 26.0078 24.8174 26.0454 24.9444 26.1249C25.3826 26.3995 25.7382 27.0694 25.7382 27.621C25.7382 28.013 25.5586 28.2399 25.2974 28.2399Z" fill="#C4C4EE"/>
<path fill-rule="evenodd" clip-rule="evenodd" d="M27.9255 29.8856C27.8191 29.8854 27.6993 29.8478 27.5723 29.7684C27.1339 29.4936 26.7783 28.8239 26.7783 28.2721C26.7783 27.8803 26.9577 27.6533 27.2189 27.6533C27.3254 27.6533 27.4453 27.6911 27.5723 27.7705C28.0107 28.0452 28.3661 28.7149 28.3661 29.2667C28.3661 29.6587 28.1867 29.8856 27.9255 29.8856Z" fill="#C4C4EE"/>
<path fill-rule="evenodd" clip-rule="evenodd" d="M32.8178 22.2407L32.5062 22.0454V21.7479C32.2526 21.5855 32.215 21.5365 31.9902 21.3015V20.7535C32.1055 20.8401 32.3823 21.039 32.6505 21.207C32.7035 21.2402 32.7422 21.2571 32.7693 21.2571C32.8054 21.2571 32.8205 21.2268 32.8205 21.1646V21.1065C32.8205 21.0014 32.7947 20.9307 32.6677 20.8512L32.4947 20.7429C31.9468 20.3998 31.9238 19.7866 31.9238 19.6162V19.3948C31.9238 19.0609 32.0311 18.9334 32.192 18.9334C32.2828 18.9334 32.3908 18.9739 32.5062 19.041V18.729L32.8177 18.924V19.2362C33.0283 19.3789 33.1494 19.4946 33.3021 19.6591V20.2073C33.1176 20.0662 32.8868 19.9109 32.6967 19.7917C32.6182 19.7425 32.5647 19.7109 32.5308 19.7109C32.4973 19.7109 32.4831 19.7418 32.4831 19.8175V19.8575C32.4831 19.97 32.5006 20.0426 32.6562 20.1402L32.8408 20.2559C33.2791 20.5301 33.3801 21.0725 33.3801 21.3627V21.4823C33.3801 21.9061 33.2625 22.0447 33.1041 22.0447C33.0168 22.0449 32.9171 22.0028 32.8178 21.9432V22.2407Z" fill="#FEFEFE"/>
<path fill-rule="evenodd" clip-rule="evenodd" d="M34.9113 23.1567C34.8225 23.1567 34.7139 23.1019 34.6 23.0305L34.153 22.7505C33.6051 22.4074 33.5879 21.9795 33.5879 21.7471V21.5547C33.5879 21.4006 33.6254 21.2488 33.7358 21.2488C33.7552 21.2488 33.7769 21.2534 33.8012 21.2637C33.5879 20.9961 33.5879 20.8072 33.5879 20.5859V20.3501C33.5879 20.0526 33.6799 19.9458 33.8158 19.9458C33.9119 19.9458 34.0299 19.9993 34.153 20.0762L34.603 20.3581C34.9433 20.5711 35.1278 20.8537 35.1278 21.3182V21.4778C35.1278 21.5629 35.106 21.7792 34.9775 21.7792C34.958 21.7792 34.9361 21.7743 34.9113 21.7632C35.1105 21.9349 35.1278 22.2579 35.1278 22.4141V22.6899C35.1278 23.0405 35.0405 23.1567 34.9113 23.1567ZM34.1986 21.7206C34.1542 21.7206 34.1473 21.7721 34.1473 21.8397V21.985C34.1473 22.1119 34.182 22.1736 34.2828 22.2369L34.4327 22.3307C34.4734 22.3561 34.5021 22.3674 34.5221 22.3674C34.5643 22.3674 34.5682 22.3175 34.5682 22.2485V22.1034C34.5682 22.0091 34.5509 21.9221 34.4384 21.8515L34.2828 21.7541C34.2456 21.7309 34.2183 21.7206 34.1986 21.7206ZM34.1958 20.7138C34.1643 20.7138 34.1473 20.7474 34.1473 20.8455V20.9544C34.1473 21.0959 34.1846 21.1374 34.2828 21.1989L34.4327 21.2927C34.4769 21.3206 34.5068 21.3331 34.527 21.3331C34.5646 21.3331 34.5682 21.2891 34.5682 21.218V21.1092C34.5682 20.9351 34.5019 20.8899 34.4327 20.8467L34.2828 20.7526C34.2472 20.7303 34.2179 20.7138 34.1958 20.7138Z" fill="#FEFEFE"/>
<path fill-rule="evenodd" clip-rule="evenodd" d="M36.8729 24.4465L36.3135 24.0962V23.6063L35.3763 23.0194L35.2783 22.6423L35.8867 21.1797L36.4866 21.5556L36.0339 22.7852L36.3135 22.9603V22.4741L36.3913 22.2395L36.8729 22.5413V23.3108L37.046 23.4191V23.9597L36.8729 23.9566V24.4465Z" fill="#FEFEFE"/>
<path fill-rule="evenodd" clip-rule="evenodd" d="M38.675 25.5828L37.1638 24.6361V24.0263C37.3972 23.9768 38.1154 23.6938 38.1154 23.4216C38.1154 23.2003 38.0201 23.115 37.7865 22.9687L37.1406 22.5642V22.0381C37.3771 22.1208 37.6022 22.2182 38.0173 22.4785C38.4672 22.7601 38.6748 23.2531 38.6748 23.761C38.6748 24.2618 38.2481 24.4806 38.0693 24.5718L38.6748 24.9512L38.675 25.5828Z" fill="#FEFEFE"/>
<path fill-rule="evenodd" clip-rule="evenodd" d="M8.26465 15.7084L14.1495 11.9987C14.2932 11.9081 14.4923 11.9211 14.7122 12.0588L8.82752 15.7684C8.6076 15.6307 8.40848 15.6179 8.26465 15.7084Z" fill="#FE4340"/>
<mask id="mask4_2_11481" style="mask-type:alpha" maskUnits="userSpaceOnUse" x="8" y="11" width="7" height="5">
<path d="M8.26465 15.7084L14.1495 11.9987C14.2932 11.9081 14.4923 11.9211 14.7122 12.0588L8.82752 15.7684C8.6076 15.6307 8.40848 15.6179 8.26465 15.7084Z" fill="white"/>
</mask>
<g mask="url(#mask4_2_11481)">
<path fill-rule="evenodd" clip-rule="evenodd" d="M8.26465 15.7084L14.1495 11.9987C14.2908 11.9096 14.4858 11.9206 14.7017 12.0523L8.81696 15.7619C8.60114 15.6303 8.40611 15.6192 8.26465 15.7084Z" fill="#FE4340"/>
<path fill-rule="evenodd" clip-rule="evenodd" d="M8.81738 15.7618L14.7021 12.0522L14.7126 12.0587L8.82794 15.7683L8.81738 15.7618Z" fill="#FE4340"/>
</g>
<path fill-rule="evenodd" clip-rule="evenodd" d="M30.8818 40.9764L24.9971 44.686C26.0922 43.9956 26.7739 42.5322 26.7793 40.4583L32.6639 36.7485C32.6586 38.8226 31.9771 40.286 30.8818 40.9764Z" fill="#E5322B"/>
<mask id="mask5_2_11481" style="mask-type:alpha" maskUnits="userSpaceOnUse" x="24" y="36" width="9" height="9">
<path d="M30.8818 40.9764L24.9971 44.686C26.0922 43.9956 26.7739 42.5322 26.7793 40.4581L32.6639 36.7485C32.6586 38.8226 31.9769 40.286 30.8818 40.9764Z" fill="white"/>
</mask>
<g mask="url(#mask5_2_11481)">
<path fill-rule="evenodd" clip-rule="evenodd" d="M26.7793 40.4583L32.6639 36.7485C32.6586 38.8226 31.9771 40.286 30.8818 40.9764L24.9971 44.686C26.0922 43.9956 26.7739 42.5322 26.7793 40.4583Z" fill="#E5322B"/>
</g>
<path fill-rule="evenodd" clip-rule="evenodd" d="M26.8119 28.0192L32.6966 24.3096L32.664 36.7485L26.7793 40.4583L26.8119 28.0192Z" fill="#E5322B"/>
<path fill-rule="evenodd" clip-rule="evenodd" d="M8.82715 15.7687L14.7118 12.0591L31.9077 22.8285L26.0228 26.5381L8.82715 15.7687Z" fill="#FF6661"/>
<path fill-rule="evenodd" clip-rule="evenodd" d="M26.0234 26.5382L31.9083 22.8286C32.3453 23.1024 32.6978 23.7646 32.6964 24.3095L26.8117 28.0191C26.8132 27.4742 26.4606 26.812 26.0234 26.5382Z" fill="#FE4340"/>
<mask id="mask6_2_11481" style="mask-type:alpha" maskUnits="userSpaceOnUse" x="26" y="22" width="7" height="7">
<path d="M26.0234 26.5382L31.9081 22.8286C32.3453 23.1024 32.6978 23.7646 32.6964 24.3095L26.8117 28.0191C26.8132 27.4742 26.4606 26.812 26.0234 26.5382Z" fill="white"/>
</mask>
<g mask="url(#mask6_2_11481)">
<path fill-rule="evenodd" clip-rule="evenodd" d="M26.0234 26.5382L31.9083 22.8286C32.0027 22.8877 32.0932 22.9652 32.177 23.0554L26.2925 26.7652C26.2085 26.6748 26.118 26.5975 26.0234 26.5382Z" fill="#FE4340"/>
<path fill-rule="evenodd" clip-rule="evenodd" d="M26.293 26.7649L32.1775 23.0552C32.4817 23.3829 32.698 23.8823 32.6969 24.3093L26.8122 28.0189C26.8131 27.5919 26.597 27.0927 26.293 26.7649Z" fill="#FE4340"/>
</g>
<path fill-rule="evenodd" clip-rule="evenodd" d="M26.0235 26.5381C26.4606 26.8119 26.8132 27.4741 26.8118 28.019L26.7792 40.4582C26.7683 44.6332 24.0174 46.3337 20.6679 44.2359L14.0735 40.106C10.7241 38.0082 7.99099 32.8734 8.00199 28.6981L8.03447 16.2592C8.03589 15.7144 8.39066 15.495 8.82781 15.7687L26.0235 26.5381Z" fill="#FE4340"/>
<path fill-rule="evenodd" clip-rule="evenodd" d="M14.2216 15.5897C13.4833 16.0519 12.2754 16.0519 11.5372 15.5897C10.7988 15.1273 10.7988 14.3708 11.5372 13.9083C12.2754 13.4459 13.4833 13.4459 14.2216 13.9083C14.9598 14.3708 14.9598 15.1273 14.2216 15.5897Z" fill="#E5322B"/>
<path fill-rule="evenodd" clip-rule="evenodd" d="M28.6287 24.5661C27.8905 25.0285 26.6825 25.0285 25.9443 24.5661C25.2061 24.1038 25.2061 23.3473 25.9443 22.8849C26.6825 22.4225 27.8905 22.4225 28.6287 22.8849C29.3669 23.3473 29.3669 24.1038 28.6287 24.5661Z" fill="#E5322B"/>
<path fill-rule="evenodd" clip-rule="evenodd" d="M11.1329 6.71886L11.1605 14.6452C11.1615 14.9211 11.3283 15.1952 11.6616 15.4045C12.3283 15.8226 13.4055 15.8184 14.0694 15.3947C14.4023 15.1827 14.5672 14.9041 14.5653 14.6276L14.5377 6.70502C14.533 5.32272 14.8906 4.30168 15.5198 3.90454C16.1488 3.50723 17.1438 3.6735 18.2502 4.36063L20.1305 5.52744C23.0763 7.35644 25.5749 12.0119 25.5877 15.6936L25.6152 23.62C25.6162 23.8956 25.7838 24.1708 26.1171 24.3794C26.5444 24.6474 27.1413 24.7417 27.6895 24.6631C27.9953 24.6194 28.2865 24.5214 28.5241 24.3695C28.6139 24.3121 28.6914 24.2507 28.7562 24.1858C28.934 24.0081 29.0216 23.8054 29.0199 23.6034L28.9932 15.6798C28.9851 13.2711 28.2401 10.5645 26.8954 8.06066C25.5519 5.55769 23.7496 3.51885 21.822 2.32247L19.9416 1.15464C18.8791 0.495361 17.8209 0.113772 16.7977 0.021152C15.712 -0.0760822 14.6775 0.163158 13.8063 0.713241C12.9351 1.26349 12.2336 2.12134 11.7763 3.19314C11.3445 4.20478 11.1284 5.39073 11.1329 6.71886Z" fill="#DADAF9"/>
<path fill-rule="evenodd" clip-rule="evenodd" d="M14.5807 4.33958C14.7723 4.21843 14.9985 4.15058 15.2509 4.13281C14.791 4.62599 14.5343 5.5351 14.5384 6.70533L14.5658 14.6278C14.568 14.9046 14.4027 15.1821 14.0699 15.3947C13.9371 15.4793 13.7872 15.5466 13.628 15.5977L13.5987 7.14006C13.594 5.75777 13.9519 4.73689 14.5807 4.33958Z" fill="#BFBEED"/>
<path fill-rule="evenodd" clip-rule="evenodd" d="M13.5781 1.18119C14.1723 0.99903 14.8097 0.934606 15.4663 0.993733C16.4903 1.08533 17.5475 1.46709 18.611 2.12637L20.4914 3.29403C22.4191 4.49075 24.2205 6.52942 25.5649 9.03324C26.9095 11.5362 27.6537 14.2429 27.662 16.6525L27.6897 24.663C27.9955 24.6192 28.2868 24.5213 28.5243 24.3694C28.6141 24.312 28.6916 24.2506 28.7564 24.1857L28.7285 16.1694C28.7203 13.7598 27.9752 11.0541 26.6317 8.55015C25.287 6.04615 23.485 4.00851 21.5572 2.81196L19.6769 1.64413C18.6143 0.983822 17.5562 0.603087 16.533 0.510467C15.4616 0.414258 14.4413 0.646663 13.5781 1.18119Z" fill="#F4F4FA"/>
<path fill-rule="evenodd" clip-rule="evenodd" d="M15.1387 29.1287C15.1349 28.0682 15.8199 27.6355 16.6687 28.1623C17.5172 28.6892 18.2081 29.9763 18.2119 31.0368C18.2142 31.7359 17.9165 32.1597 17.4712 32.2183L17.4814 35.2377L15.901 34.2565L15.8906 31.2373C15.4429 30.6238 15.1411 29.8278 15.1387 29.1287Z" fill="#19121B"/>
<path fill-rule="evenodd" clip-rule="evenodd" d="M4.87259 51.8637C4.93703 51.7041 5.46634 51.5516 5.62167 51.4956C6.01629 51.3531 6.421 51.3249 6.82633 51.2446C6.90857 51.2282 6.99458 51.2136 7.07445 51.2405C7.27562 51.309 7.35344 51.6887 7.3076 51.8785C7.27515 52.0129 7.17921 52.1197 7.07114 52.194C6.9092 52.3054 6.68817 52.3866 6.49646 52.3963C6.29103 52.4068 6.09868 52.4546 5.92272 52.5749C5.69492 52.7306 5.52668 52.903 5.245 52.8936C4.96223 52.8842 4.74704 52.6737 4.76579 52.3579C4.77256 52.2448 4.80139 52.1347 4.83006 52.0257C4.84818 51.9573 4.85668 51.9033 4.87259 51.8637Z" fill="#19121B"/>
<path fill-rule="evenodd" clip-rule="evenodd" d="M3.94227 51.8633C3.95518 51.8437 3.96747 51.8233 3.97913 51.8027C4.09838 51.5894 4.2816 51.472 4.47174 51.3355C4.54247 51.2845 4.61793 51.2317 4.70268 51.2261C4.89598 51.2129 5.03209 51.4561 5.0146 51.6654C5.00641 51.7625 4.97648 51.8558 4.96325 51.9522C4.93804 52.1349 4.95899 52.3917 5.10534 52.5136C5.30179 52.6773 5.57858 52.7743 5.79266 52.9167C5.87616 52.9722 5.96091 53.032 6.01431 53.121C6.14003 53.3309 5.99289 53.6757 5.82008 53.7996C5.71342 53.8762 5.57621 53.8861 5.45003 53.8632C5.26067 53.8289 5.04627 53.7294 4.8974 53.5975C4.73813 53.4565 4.56563 53.3529 4.36036 53.3147C4.00827 53.2497 3.57505 53.2111 3.4777 52.7442C3.4517 52.6195 3.48494 52.4871 3.54386 52.3763C3.64831 52.1802 3.82159 52.045 3.94227 51.8633Z" fill="#262028"/>
<path fill-rule="evenodd" clip-rule="evenodd" d="M5.23568 42.1606C5.39132 42.3313 5.97861 42.0172 5.98665 41.9336C6.685 41.3463 6.60213 43.6914 6.40143 44.6234C6.29384 45.1258 6.32204 45.6487 6.25792 46.159C6.18624 46.7275 6.07581 47.2904 5.92741 47.8413C5.89559 47.9603 5.85952 48.0833 5.78091 48.1735C5.61928 48.3598 5.34548 48.3419 5.11264 48.3005C4.911 48.2648 4.68525 48.2031 4.58617 48.0093C4.52473 47.8899 4.52662 47.746 4.52756 47.6096C4.52977 47.2499 4.53182 46.8781 4.46565 46.5245C4.39523 46.1475 4.32466 45.7702 4.25424 45.393C4.19249 45.0629 4.13089 44.7324 4.10017 44.3973C4.04472 43.7918 4.09151 43.1809 4.17768 42.5813C4.22305 42.2663 4.12648 41.6766 4.53859 41.613C4.91116 41.5556 5.13218 42.0469 5.23568 42.1606Z" fill="#19121B"/>
<path fill-rule="evenodd" clip-rule="evenodd" d="M6.06738 46.8348L6.18317 46.3081C6.13686 46.4819 6.09873 46.6577 6.06738 46.8348Z" fill="#F7736A"/>
<path fill-rule="evenodd" clip-rule="evenodd" d="M5.84378 47.6425C5.72405 47.4631 5.42789 47.4725 5.3288 47.5202C5.25097 47.5576 4.68401 47.2049 4.51734 47.0688C4.52994 47.0791 4.50757 47.2281 4.50631 47.2505C4.50253 47.3127 4.49906 47.3754 4.49607 47.4378C4.48977 47.561 4.48457 47.6844 4.48047 47.8079C4.47228 48.0494 4.4685 48.2909 4.47008 48.5325C4.47181 48.7789 4.47906 49.0253 4.49292 49.2714C4.50521 49.491 4.53955 49.7125 4.52269 49.9307C4.51403 50.0426 4.54191 50.1636 4.55467 50.2747C4.56917 50.3998 4.5835 50.5248 4.59799 50.6499C4.62667 50.9001 4.6555 51.1503 4.68432 51.4005C4.68826 51.4355 4.69236 51.4707 4.69645 51.5056C4.71835 51.6968 4.72702 52.0056 4.86171 52.1476C5.00081 52.2942 5.23475 52.3472 5.42048 52.3115C5.57739 52.2814 5.72247 52.1879 5.82487 52.056C5.94097 51.9061 5.92538 51.6799 5.9268 51.4919C5.93215 50.7024 5.88143 49.9136 5.88048 49.1241C5.87985 48.5154 5.90978 47.9024 6.01596 47.306L5.84378 47.6425Z" fill="#19121B"/>
<path fill-rule="evenodd" clip-rule="evenodd" d="M6.31408 42.3251C6.38088 42.2875 6.7243 42.1007 6.72147 41.9995C6.71942 41.9317 6.88845 41.8751 6.93209 41.876C7.0107 41.8777 7.0901 41.9325 7.15358 41.9819C7.31017 42.1033 7.42549 42.2897 7.49685 42.4895C7.59452 42.7637 7.61799 43.0647 7.63327 43.3608C7.67849 44.2433 7.65722 45.1303 7.57105 46.0089C7.52741 46.4527 7.46723 46.8939 7.39051 47.3315C7.35223 47.5504 7.30986 47.7683 7.26338 47.985C7.21864 48.1933 7.17879 48.2584 7.01763 48.3685C6.67169 48.6046 6.04832 48.5734 5.80099 48.1485C5.53445 47.6916 5.64519 46.9797 5.56012 46.4658C5.43662 45.7185 4.97819 45.1707 4.76757 44.4611C4.61271 43.9403 4.63382 43.4486 4.7148 42.9175C4.75308 42.6663 4.8246 42.0662 5.06043 41.9194C5.12297 41.8804 5.54721 41.7757 5.89016 42.1453C6.09054 42.3611 6.06723 42.4628 6.31408 42.3251Z" fill="#262028"/>
<path fill-rule="evenodd" clip-rule="evenodd" d="M3.98825 39.7917C3.98494 39.6623 3.97706 39.5326 3.95517 39.3975C3.85387 38.771 3.6809 38.1594 3.60828 37.5271C3.55188 37.0363 3.51124 36.4242 3.8701 36.045C3.9287 35.9832 3.99581 35.9319 4.06686 35.8883C4.76426 35.4611 5.43142 35.9813 6.08519 36.2367C6.51463 36.4046 6.92658 36.6247 7.31112 36.8914C7.44502 36.9842 7.58208 37.0478 7.67219 37.1923C7.78467 37.3726 7.77128 37.5037 7.75363 37.7086C7.73315 37.9485 7.71504 38.1886 7.69913 38.4289C7.66731 38.9094 7.64462 39.3908 7.63107 39.8723C7.60398 40.8355 7.61327 41.7999 7.65927 42.7622C7.67376 43.0662 7.70921 43.3729 7.71331 43.6771C7.71598 43.8938 7.58082 43.997 7.39351 44.0502C6.86735 44.1997 6.25706 44.2491 5.71514 44.2366C5.15164 44.224 4.57822 44.0915 4.10514 43.7591C3.98415 43.674 4.04291 43.5385 4.05394 43.3962C4.06717 43.2243 4.0771 43.0522 4.08372 42.8799C4.09679 42.5448 4.09758 42.2092 4.08592 41.8741C4.07726 41.6219 4.02228 41.3787 4.01156 41.133C3.99865 40.8358 4.00621 40.5369 3.9955 40.2394C3.98982 40.0851 3.99203 39.9385 3.98825 39.7917Z" fill="#35353F"/>
<path fill-rule="evenodd" clip-rule="evenodd" d="M6.91797 48.6704C6.72798 48.9946 6.54036 49.3201 6.35526 49.6475C6.20906 49.9064 6.06445 50.1665 5.92219 50.4283C5.81287 50.6298 5.70495 50.8323 5.59862 51.0356C5.46219 51.2969 5.3253 51.5596 5.18525 51.8161C5.08112 52.0068 5.00267 52.2814 4.79756 52.3766C4.61608 52.4608 4.34339 52.3229 4.19877 52.2129C4.08471 52.1261 3.87 51.9567 3.81864 51.8113C3.76681 51.665 3.84668 51.44 3.89221 51.3029C4.01288 50.9384 4.16774 50.5886 4.32826 50.2427C4.59796 49.6614 4.8842 49.0893 5.18667 48.5272C5.47527 47.9908 5.70527 47.4352 5.96615 46.8828C5.99482 46.8221 6.06004 46.7792 6.1199 46.7725C6.19725 46.764 7.15017 47.9783 7.19948 48.1868C7.19948 48.1868 7.15238 48.2699 6.91797 48.6704Z" fill="#262028"/>
<path fill-rule="evenodd" clip-rule="evenodd" d="M6.25985 35.6206C6.28506 35.4331 6.41565 35.4767 6.34949 35.3067C6.29341 35.1623 6.20834 35.0295 6.09413 34.9338C5.98007 34.8379 5.83577 34.7814 5.69163 34.7899C5.642 34.793 5.60876 34.8237 5.55961 34.8239C5.42366 34.8244 5.28676 34.7962 5.15113 34.8176C5.01596 34.839 4.89104 34.8495 4.89104 35.0148C4.89119 35.2354 4.90049 35.4475 4.83559 35.6643C4.80077 35.7802 4.74815 35.8918 4.7387 36.0131C4.72059 36.2518 4.88111 36.4743 5.07992 36.5786C5.3241 36.7067 5.60041 36.695 5.86035 36.6541C5.99078 36.6336 6.17431 36.6052 6.25103 36.4704C6.30853 36.3689 6.2838 36.2358 6.27151 36.1244C6.25292 35.956 6.23701 35.7898 6.25985 35.6206Z" fill="#F9D5C3"/>
<mask id="mask7_2_11481" style="mask-type:alpha" maskUnits="userSpaceOnUse" x="5" y="32" width="2" height="2">
<path d="M5.96673 32.8032L5.40039 33.1602C5.44056 33.135 5.49586 33.1385 5.55682 33.1766L6.12316 32.8196C6.06251 32.7815 6.00706 32.7781 5.96673 32.8032Z" fill="white"/>
</mask>
<g mask="url(#mask7_2_11481)">
<path fill-rule="evenodd" clip-rule="evenodd" d="M5.55682 33.1766L6.12316 32.8196C6.06251 32.7815 6.00706 32.7781 5.96673 32.8032L5.40039 33.1602C5.44056 33.135 5.49586 33.1385 5.55682 33.1766Z" fill="#7F89A6"/>
</g>
<path fill-rule="evenodd" clip-rule="evenodd" d="M6.84325 33.2242C6.92533 33.3325 6.9896 33.4545 7.00929 33.5976C7.05309 33.9164 6.93494 34.2439 6.99858 34.56C7.06049 34.8664 6.93935 35.5622 6.38231 35.7405C6.10063 35.8307 5.54454 35.7251 5.36574 35.632C5.12566 35.5072 4.96702 35.255 4.82508 35.0106C3.66185 33.0068 6.05416 32.1828 6.84325 33.2242Z" fill="#F9D5C3"/>
<path fill-rule="evenodd" clip-rule="evenodd" d="M4.30246 34.1116C4.33806 34.4394 4.40423 34.7629 4.43305 35.0913C4.48158 35.6447 4.42612 36.2211 4.60745 36.7409C4.71299 37.0441 4.89936 37.3123 5.13534 37.5104C5.13534 37.5355 5.33541 37.7124 5.35762 37.7346C5.46097 37.8377 5.56431 37.9407 5.66765 38.0439C5.69506 38.0713 5.72641 38.1005 5.7639 38.1005C5.80218 38.1003 5.83401 38.0694 5.86094 38.0396C6.13411 37.7384 6.32882 37.3619 6.4717 36.9687C6.4717 36.9475 6.49124 36.9142 6.49833 36.894C6.50684 36.8691 6.51534 36.8441 6.52369 36.819C6.5407 36.7676 6.55693 36.7158 6.57268 36.6638C6.65318 36.3969 6.7173 36.1247 6.77953 35.8521C6.84333 35.5732 6.92068 35.2973 6.9922 35.0204C7.01063 34.9486 7.02938 34.8765 7.03568 34.8024C7.0393 34.761 7.03899 34.719 7.03268 34.678C7.02969 34.6576 7.02512 34.6375 7.01882 34.618L7.00905 34.578C6.9451 34.6214 6.88208 34.6674 6.81907 34.7128C6.70202 34.7972 6.52983 34.7762 6.43311 34.6653C6.17475 34.3699 6.52416 34.0501 6.79229 34.0228C6.88334 34.0136 6.9859 34.018 7.05222 33.9498C7.10105 33.8996 7.11618 33.8225 7.1239 33.7501C7.17462 33.277 7.04009 32.878 6.72029 32.5586C6.61979 32.4583 6.50841 32.3678 6.38286 32.3088C6.27258 32.2577 6.15349 32.2321 6.03502 32.214C5.38677 32.114 4.62682 32.3373 4.3765 33.0662C4.2667 33.3861 4.26449 33.7383 4.29899 34.0776L4.30246 34.1116Z" fill="#35353F"/>
<path fill-rule="evenodd" clip-rule="evenodd" d="M6.87055 36.6106C6.6322 36.7109 6.41732 36.8427 6.33745 37.1139C6.26372 37.3649 6.25663 37.621 6.37967 37.8577C6.50774 38.1036 6.75492 38.2716 7.01469 38.2894C7.25713 38.3063 7.49107 38.2014 7.71493 38.0987C8.34223 37.8105 8.97016 37.5693 9.54595 37.1648C9.78588 36.9949 10.0277 36.7738 10.0809 36.4686C10.1169 36.2623 10.0542 36.0392 9.91852 35.89C9.58959 35.5275 9.30776 35.7693 9.25199 35.7898C7.49359 36.4266 6.83226 36.6268 6.87055 36.6106Z" fill="#35353F"/>
<path fill-rule="evenodd" clip-rule="evenodd" d="M14.9518 30.4438L15.5429 30.0713L15.5374 32.1886L14.9463 32.5611L14.9518 30.4438Z" fill="#FFB700"/>
<path fill-rule="evenodd" clip-rule="evenodd" d="M14.4287 30.1168L15.0198 29.7441L15.5425 30.0716L14.9514 30.4441L14.4287 30.1168Z" fill="#FFDE38"/>
<path fill-rule="evenodd" clip-rule="evenodd" d="M14.952 30.4439L14.9465 32.5612L14.4238 32.234L14.4293 30.1167L14.952 30.4439Z" fill="#FFC400"/>
<path fill-rule="evenodd" clip-rule="evenodd" d="M14.0475 31.6891L14.6386 31.3164L14.6331 33.4337L14.042 33.8064L14.0475 31.6891Z" fill="#FFB700"/>
<path fill-rule="evenodd" clip-rule="evenodd" d="M13.5244 31.3615L14.1155 30.9888L14.6382 31.3162L14.0471 31.6889L13.5244 31.3615Z" fill="#FFDE38"/>
<path fill-rule="evenodd" clip-rule="evenodd" d="M14.0468 31.6892L14.0413 33.8065L13.5186 33.4791L13.5241 31.3618L14.0468 31.6892Z" fill="#FFC400"/>
<path fill-rule="evenodd" clip-rule="evenodd" d="M15.271 30.0382L3.81934 37.2572C3.91307 37.1981 4.04272 37.2063 4.18592 37.296L15.6374 30.0771C15.4944 29.9874 15.3647 29.9792 15.271 30.0382Z" fill="#FFC400"/>
<mask id="mask8_2_11481" style="mask-type:alpha" maskUnits="userSpaceOnUse" x="3" y="30" width="13" height="8">
<path d="M15.271 30.0382L3.81934 37.2572C3.91307 37.1981 4.04272 37.2065 4.18592 37.296L15.6374 30.0771C15.4944 29.9874 15.3647 29.9792 15.271 30.0382Z" fill="white"/>
</mask>
<g mask="url(#mask8_2_11481)">
<path fill-rule="evenodd" clip-rule="evenodd" d="M4.18627 37.2958L15.6378 30.0769L15.6351 30.0752L4.18359 37.2941L4.18627 37.2958Z" fill="#FFC400"/>
<path fill-rule="evenodd" clip-rule="evenodd" d="M4.18324 37.2943L15.6347 30.0754C15.4928 29.9874 15.3641 29.9795 15.271 30.0382L3.81934 37.2572C3.91244 37.1985 4.0413 37.2063 4.18324 37.2943Z" fill="#FFC400"/>
</g>
<path fill-rule="evenodd" clip-rule="evenodd" d="M4.54945 38.6208L16.0011 31.4017C16.0936 31.3434 16.1509 31.2195 16.1514 31.0435C16.1523 30.6881 15.9222 30.2557 15.637 30.0771L4.18555 37.2961C4.47053 37.4746 4.70068 37.907 4.69974 38.2624C4.69942 38.4384 4.64192 38.5623 4.54945 38.6208Z" fill="#FFB700"/>
<mask id="mask9_2_11481" style="mask-type:alpha" maskUnits="userSpaceOnUse" x="4" y="30" width="13" height="9">
<path d="M4.54945 38.6208L16.0011 31.4017C16.0936 31.3434 16.1509 31.2195 16.1514 31.0435C16.1523 30.6881 15.9222 30.2557 15.637 30.0771L4.18555 37.2961C4.47053 37.4746 4.70068 37.907 4.69974 38.2624C4.69942 38.4384 4.64192 38.5623 4.54945 38.6208Z" fill="white"/>
</mask>
<g mask="url(#mask9_2_11481)">
<path fill-rule="evenodd" clip-rule="evenodd" d="M4.5498 38.621L16.0014 31.4019C16.056 31.3675 16.0982 31.3105 16.1238 31.2334L4.67221 38.4523C4.64669 38.5294 4.60431 38.5865 4.5498 38.621Z" fill="#FFB700"/>
<path fill-rule="evenodd" clip-rule="evenodd" d="M4.67188 38.4519L16.1235 31.233C16.1413 31.1792 16.1512 31.1156 16.1514 31.0433V31.0327L4.69976 38.2516V38.2622C4.6996 38.3345 4.68983 38.3981 4.67188 38.4519Z" fill="#FFB700"/>
<path fill-rule="evenodd" clip-rule="evenodd" d="M4.69957 38.2518L16.1512 31.0329C16.1503 30.9433 16.1348 30.849 16.1077 30.7554L4.65625 37.9743C4.68335 38.0679 4.69863 38.1622 4.69957 38.2518Z" fill="#FFB700"/>
<path fill-rule="evenodd" clip-rule="evenodd" d="M4.65668 37.9743L16.1082 30.7554C16.074 30.6365 16.0207 30.5184 15.9544 30.4121L4.50293 37.631C4.56925 37.7373 4.62234 37.8554 4.65668 37.9743Z" fill="#FFC400"/>
<path fill-rule="evenodd" clip-rule="evenodd" d="M4.50245 37.6311L15.9539 30.4121C15.9101 30.3417 15.8607 30.2766 15.8069 30.2197L4.35547 37.4386C4.40903 37.4955 4.45865 37.5607 4.50245 37.6311Z" fill="#FFDE38"/>
<path fill-rule="evenodd" clip-rule="evenodd" d="M4.35568 37.4386L15.8072 30.2197C15.7541 30.1629 15.6967 30.1146 15.637 30.0771L4.18555 37.2961C4.24509 37.3335 4.30244 37.3818 4.35568 37.4386Z" fill="#FFDE38"/>
</g>
<path fill-rule="evenodd" clip-rule="evenodd" d="M4.18613 37.2959C3.90163 37.1176 3.67005 37.2608 3.66895 37.6163C3.66816 37.9709 3.89832 38.4032 4.18267 38.5814C4.46781 38.76 4.69954 38.6168 4.70033 38.2622C4.70127 37.9068 4.47111 37.4744 4.18613 37.2959Z" fill="#8A781E"/>
<path fill-rule="evenodd" clip-rule="evenodd" d="M2.45886 40.5934L1.45095 39.958C1.55508 40.0236 1.61967 40.1631 1.62014 40.3616C1.62109 40.7608 1.3621 41.2475 1.04199 41.448L2.0499 42.0833C2.37001 41.8829 2.62915 41.396 2.62805 40.997C2.62758 40.7984 2.56299 40.659 2.45886 40.5934Z" fill="#FFDE38"/>
<mask id="mask10_2_11481" style="mask-type:alpha" maskUnits="userSpaceOnUse" x="1" y="39" width="2" height="4">
<path d="M2.45886 40.5935L1.45095 39.958C1.55508 40.0238 1.61967 40.1632 1.62014 40.3618C1.62109 40.761 1.3621 41.2477 1.04199 41.4481L2.0499 42.0835C2.37001 41.883 2.62915 41.3962 2.62805 40.9972C2.62758 40.7986 2.56299 40.6592 2.45886 40.5935Z" fill="white"/>
</mask>
<g mask="url(#mask10_2_11481)">
<path fill-rule="evenodd" clip-rule="evenodd" d="M2.45838 40.5934L1.45048 39.958C1.55461 40.0236 1.6192 40.1631 1.61967 40.3616C1.62046 40.6745 1.46135 41.0414 1.23828 41.2819L2.24619 41.9174C2.46925 41.6768 2.62836 41.3099 2.62758 40.997C2.6271 40.7984 2.56252 40.659 2.45838 40.5934Z" fill="#FFDE38"/>
<path fill-rule="evenodd" clip-rule="evenodd" d="M2.24666 41.9177L1.23875 41.2822C1.17731 41.3485 1.11099 41.4051 1.04199 41.4483L2.0499 42.0837C2.1189 42.0404 2.18522 41.9839 2.24666 41.9177Z" fill="#FFC400"/>
</g>
<path fill-rule="evenodd" clip-rule="evenodd" d="M0.62793 41.4923L1.63583 42.1275C1.74138 42.1942 1.88757 42.1848 2.0492 42.0836L1.0413 41.4482C0.879827 41.5494 0.733478 41.5588 0.62793 41.4923Z" fill="#FFDE38"/>
<mask id="mask11_2_11481" style="mask-type:alpha" maskUnits="userSpaceOnUse" x="0" y="41" width="3" height="2">
<path d="M0.62793 41.4923L1.63583 42.1275C1.74138 42.1942 1.88757 42.1848 2.0492 42.0836L1.0413 41.4482C0.879827 41.5494 0.733478 41.5588 0.62793 41.4923Z" fill="white"/>
</mask>
<g mask="url(#mask11_2_11481)">
<path fill-rule="evenodd" clip-rule="evenodd" d="M2.04898 42.0836L1.04108 41.4482L1.0332 41.453L2.04111 42.0884L2.04898 42.0836Z" fill="#FFC400"/>
<path fill-rule="evenodd" clip-rule="evenodd" d="M2.04133 42.0885L1.03342 41.4531C0.875101 41.5498 0.731745 41.5577 0.62793 41.4924L1.63583 42.1276C1.73965 42.1932 1.883 42.1852 2.04133 42.0885Z" fill="#FFC400"/>
</g>
<path fill-rule="evenodd" clip-rule="evenodd" d="M4.76258 35.6985L3.75467 35.0629C3.48954 34.8992 3.34114 34.8074 3.07617 34.6436L4.08408 35.2789C4.34921 35.4428 4.4976 35.5346 4.76258 35.6985Z" fill="#FFDE38"/>
<mask id="mask12_2_11481" style="mask-type:alpha" maskUnits="userSpaceOnUse" x="3" y="34" width="2" height="2">
<path d="M4.76258 35.6985L3.75467 35.0629C3.48954 34.8992 3.34114 34.8074 3.07617 34.6436L4.08408 35.2789C4.34921 35.4428 4.4976 35.5346 4.76258 35.6985Z" fill="white"/>
</mask>
<g mask="url(#mask12_2_11481)">
<path fill-rule="evenodd" clip-rule="evenodd" d="M4.76258 35.6985L3.75467 35.0629C3.48954 34.8992 3.34114 34.8074 3.07617 34.6436L4.08408 35.2789C4.34921 35.4428 4.4976 35.5346 4.76258 35.6985Z" fill="#FFDE38"/>
</g>
<path fill-rule="evenodd" clip-rule="evenodd" d="M1.0079 38.0496L0 37.4141L0.0113425 41.7799L1.0194 42.4152L1.0079 38.0496Z" fill="#FFC400"/>
<path fill-rule="evenodd" clip-rule="evenodd" d="M4.08366 35.2789L3.07575 34.6436L0.673828 36.1479L1.68173 36.7832L4.08366 35.2789Z" fill="#FFDE38"/>
<path fill-rule="evenodd" clip-rule="evenodd" d="M1.68199 36.7833L0.674089 36.1479C0.410849 36.6427 0.26324 36.9197 0 37.4144L1.0079 38.0499C1.2713 37.555 1.41875 37.278 1.68199 36.7833Z" fill="#FFDE38"/>
<mask id="mask13_2_11481" style="mask-type:alpha" maskUnits="userSpaceOnUse" x="0" y="36" width="2" height="3">
<path d="M1.68199 36.7833L0.674089 36.1479C0.410849 36.6427 0.26324 36.9197 0 37.4144L1.0079 38.0499C1.2713 37.555 1.41875 37.278 1.68199 36.7833Z" fill="white"/>
</mask>
<g mask="url(#mask13_2_11481)">
<path fill-rule="evenodd" clip-rule="evenodd" d="M1.68199 36.7833L0.674089 36.1479C0.410849 36.6427 0.26324 36.9197 0 37.4144L1.0079 38.0499C1.2713 37.555 1.41875 37.278 1.68199 36.7833Z" fill="#FFC400"/>
</g>
<path fill-rule="evenodd" clip-rule="evenodd" d="M2.04959 42.0833C2.3697 41.8829 2.62884 41.396 2.62774 40.997C2.62679 40.5971 2.36591 40.4367 2.04581 40.6373C1.72491 40.8381 1.46592 41.3243 1.46702 41.724C1.46797 42.1232 1.72869 42.2843 2.04959 42.0833ZM4.08383 35.2788C4.34896 35.4427 4.49735 35.5345 4.76233 35.6983L4.77367 40.064L4.09974 41.3313L1.69765 42.8356L1.01931 42.4154L1.00781 38.0497C1.27121 37.5548 1.41866 37.2778 1.6819 36.7831L4.08383 35.2788Z" fill="#FFB700"/>
<path fill-rule="evenodd" clip-rule="evenodd" d="M15.5401 29.6367L14.9065 29.2373L14.4736 29.5083L15.1072 29.9079L15.5401 29.6367Z" fill="#FFDE38"/>
<path fill-rule="evenodd" clip-rule="evenodd" d="M14.8065 28.9469L14.1729 28.5474L14.1736 28.858L14.8072 29.2576L14.8065 28.9469Z" fill="#FFC400"/>
<path fill-rule="evenodd" clip-rule="evenodd" d="M15.1045 28.7602L14.4709 28.3608L14.1729 28.5475L14.8065 28.947L15.1045 28.7602Z" fill="#FFDE38"/>
<path fill-rule="evenodd" clip-rule="evenodd" d="M14.8072 29.2574L14.1736 28.8579L13.832 29.0719L14.4656 29.4712L14.8072 29.2574Z" fill="#FFDE38"/>
<path fill-rule="evenodd" clip-rule="evenodd" d="M13.791 29.8935L13.1574 29.4941L12.8154 29.7083L13.449 30.1076L13.791 29.8935Z" fill="#FFDE38"/>
<path fill-rule="evenodd" clip-rule="evenodd" d="M14.4638 28.9179L13.8302 28.5186L13.1562 28.9406L13.7899 29.34L14.4638 28.9179Z" fill="#FFDE38"/>
<path fill-rule="evenodd" clip-rule="evenodd" d="M13.7899 29.3403L13.1562 28.9409L13.1577 29.4942L13.7913 29.8936L13.7899 29.3403Z" fill="#FFC400"/>
<path fill-rule="evenodd" clip-rule="evenodd" d="M13.4482 29.797L12.8146 29.3975L12.5391 29.5701L13.1727 29.9696L13.4482 29.797Z" fill="#FFDE38"/>
<path fill-rule="evenodd" clip-rule="evenodd" d="M13.7898 29.3402L13.7912 29.8936L13.4492 30.1077L13.4484 29.7972L13.1729 29.9698L13.1785 32.1511L15.5425 30.6708L15.5398 29.6369L15.1069 29.9081L15.1039 28.7603L14.8059 28.947L14.8066 29.2577L14.4651 29.4715L14.4637 28.9182L13.7898 29.3402Z" fill="#FFB700"/>
<path fill-rule="evenodd" clip-rule="evenodd" d="M13.1727 29.9698L12.5391 29.5703L12.5447 31.7518L13.1783 32.1512L13.1727 29.9698Z" fill="#FFC400"/>
<path fill-rule="evenodd" clip-rule="evenodd" d="M11.7313 30.9116L12.3223 30.5391L12.3167 32.6563L11.7256 33.0289L11.7313 30.9116Z" fill="#FFB700"/>
<path fill-rule="evenodd" clip-rule="evenodd" d="M11.209 30.5846L11.8001 30.2119L12.3229 30.5393L11.7318 30.9119L11.209 30.5846Z" fill="#FFDE38"/>
<path fill-rule="evenodd" clip-rule="evenodd" d="M11.7313 30.9117L11.7257 33.029L11.2031 32.7018L11.2085 30.5845L11.7313 30.9117Z" fill="#FFC400"/>
<path fill-rule="evenodd" clip-rule="evenodd" d="M11.1314 33.3402C11.0989 33.3752 11.0285 33.4116 11.0086 33.3448C10.9756 33.233 11.0108 33.1045 10.9647 32.9984C10.9483 32.9606 10.914 32.9247 10.8762 32.9328C10.8314 32.9425 10.8163 33.0028 10.8111 33.0521C10.7982 33.1703 10.7887 33.2906 10.7512 33.4025C10.7232 33.4863 10.68 33.563 10.6419 33.642C10.5962 33.737 10.5578 33.8431 10.5519 33.9506C10.5449 34.0808 10.5236 34.2088 10.4844 34.3323C10.4609 34.4062 10.4311 34.4832 10.4467 34.5593C10.4633 34.6391 10.5255 34.697 10.5868 34.7443C10.637 34.7831 10.6931 34.8202 10.7545 34.8192C10.8089 34.8183 10.8598 34.7869 10.8982 34.7452C10.9366 34.7035 10.9645 34.6519 10.9919 34.601C11.0502 34.4928 11.1047 34.381 11.169 34.2771C11.2323 34.1749 11.3087 34.0835 11.3782 33.9863C11.4847 33.8371 11.598 33.6396 11.5466 33.4444C11.5159 33.3285 11.4627 33.2212 11.394 33.1266C11.3332 33.0428 11.2706 32.954 11.1663 32.9427C11.1399 32.9396 11.1074 32.9454 11.097 32.9721C11.0863 32.9994 11.1057 33.0283 11.121 33.0529C11.1737 33.137 11.2038 33.2592 11.1314 33.3402Z" fill="#19121B"/>
<path fill-rule="evenodd" clip-rule="evenodd" d="M10.8994 34.1412L10.9241 34.1567C10.9968 34.2035 11.0692 34.2647 11.093 34.3525C11.1163 34.4388 11.087 34.5272 11.0538 34.6055C11.0198 34.6856 10.9936 34.7709 10.9602 34.8524C10.8882 35.0281 10.8139 35.2025 10.7397 35.3772C10.691 35.4918 10.6422 35.6067 10.5903 35.7193C10.4377 36.0493 10.2565 36.3608 10.0497 36.6489C9.96964 36.7607 9.84046 36.9487 9.71569 37.0027C9.59219 37.0561 9.46616 36.995 9.35321 36.9088C9.15125 36.7552 8.99686 36.5177 9.02475 36.2487C9.05279 35.9787 9.19788 35.7794 9.33414 35.5744C9.48963 35.3403 9.65205 35.1113 9.82093 34.8884C9.90536 34.777 9.99122 34.6673 10.0788 34.559C10.1601 34.4585 10.2381 34.35 10.3211 34.2533C10.3649 34.2023 10.4099 34.1523 10.4542 34.1019C10.4807 34.072 10.513 34.033 10.5489 34.0161C10.5851 33.9988 10.6214 34.0161 10.6574 34.0282C10.7416 34.0564 10.8227 34.0943 10.8994 34.1412Z" fill="#35353F"/>
<path fill-rule="evenodd" clip-rule="evenodd" d="M20.2406 17.4544L20.55 17.2593L20.541 21.5632L20.2314 21.7584L20.2406 17.4544Z" fill="#E5E3E8"/>
<path fill-rule="evenodd" clip-rule="evenodd" d="M6.06641 8.57731L6.3758 8.38232L20.5503 17.2595L20.2409 17.4547L6.06641 8.57731Z" fill="#E5E3E8"/>
<path fill-rule="evenodd" clip-rule="evenodd" d="M20.2411 17.4545L20.2319 21.7584L6.05762 12.8811L6.0666 8.57715L20.2411 17.4545Z" fill="#F9F7FC"/>
<path fill-rule="evenodd" clip-rule="evenodd" d="M8.22211 12.1265L7.68917 11.7926C7.99841 11.896 8.22888 11.6933 8.22888 11.2784C8.22888 10.7948 7.91602 10.2071 7.53006 9.96532C7.1441 9.72369 6.83124 9.91952 6.83124 10.403C6.83124 10.8179 7.06171 11.3095 7.37095 11.5934L6.83785 11.2594C6.63495 11.1325 6.46875 11.2364 6.46875 11.4908V12.58L8.59121 13.9092V12.82C8.59121 12.5657 8.42517 12.2537 8.22211 12.1265Z" fill="#231869"/>
<path fill-rule="evenodd" clip-rule="evenodd" d="M15.6722 22.7047L15.9818 22.5098L15.9726 26.8137L15.6631 27.0087L15.6722 22.7047Z" fill="#E5E3E8"/>
<path fill-rule="evenodd" clip-rule="evenodd" d="M1.49805 13.8273L1.8076 13.6323L15.9821 22.5095L15.6725 22.7045L1.49805 13.8273Z" fill="#E5E3E8"/>
<path fill-rule="evenodd" clip-rule="evenodd" d="M15.6727 22.7043L15.6636 27.0083L1.48926 18.1311L1.49824 13.8271L15.6727 22.7043Z" fill="#F9F7FC"/>
<path fill-rule="evenodd" clip-rule="evenodd" d="M3.74995 16.9212L3.92245 17.3296L3.49743 17.5746L3.24931 17.0344L3.74995 16.9212ZM3.23655 17.2006L3.71624 17.9699L3.53949 18.1543L3.02199 17.4823L3.23655 17.2006ZM3.22395 16.1071L3.48073 16.9317L3.11037 16.8791L2.94228 16.0464L3.22395 16.1071ZM2.70661 16.7737L3.08941 17.1399L2.8832 17.7223L2.60122 17.435L2.70661 16.7737ZM2.39941 16.1599L2.98418 16.4258L3.00529 16.9343L2.39941 16.5286V16.1599Z" fill="#231869"/>
<path fill-rule="evenodd" clip-rule="evenodd" d="M5.50875 18.0222L5.68125 18.4306L5.25622 18.6757L5.0081 18.1355L5.50875 18.0222ZM4.9955 18.3016L5.47503 19.071L5.29828 19.2553L4.78078 18.5834L4.9955 18.3016ZM4.9829 17.2081L5.23952 18.0328L4.86931 17.98L4.70091 17.1475L4.9829 17.2081ZM4.4654 17.8748L4.8482 18.241L4.64215 18.8233L4.36016 18.5361L4.4654 17.8748ZM4.1582 17.2608L4.74297 17.5268L4.76408 18.0354L4.1582 17.6295V17.2608Z" fill="#231869"/>
<path fill-rule="evenodd" clip-rule="evenodd" d="M7.26753 19.1238L7.43988 19.532L7.01501 19.7773L6.76673 19.2369L7.26753 19.1238ZM6.75413 19.403L7.23366 20.1725L7.05707 20.3567L6.53957 19.685L6.75413 19.403ZM6.74168 18.3095L6.99815 19.1342L6.62794 19.0816L6.4597 18.249L6.74168 18.3095ZM6.22403 18.9761L6.60683 19.3425L6.40078 19.9247L6.11879 19.6375L6.22403 18.9761ZM5.91699 18.3623L6.50176 18.6284L6.52271 19.1368L5.91699 18.7311V18.3623Z" fill="#231869"/>
<path fill-rule="evenodd" clip-rule="evenodd" d="M9.02648 20.2252L9.19882 20.6336L8.7738 20.8788L8.52568 20.3386L9.02648 20.2252ZM8.51308 20.5046L8.99261 21.2739L8.81601 21.4585L8.29836 20.7865L8.51308 20.5046ZM8.50047 19.4111L8.7571 20.2358L8.38689 20.1831L8.21864 19.3506L8.50047 19.4111ZM7.98297 20.0777L8.36578 20.4439L8.15957 21.0263L7.87774 20.739L7.98297 20.0777ZM7.67578 19.4639L8.26071 19.73L8.28166 20.2383L7.67578 19.8327V19.4639Z" fill="#231869"/>
<path fill-rule="evenodd" clip-rule="evenodd" d="M10.7851 21.3269L10.9576 21.7353L10.5326 21.9804L10.2843 21.4402L10.7851 21.3269ZM10.2717 21.6061L10.7514 22.3756L10.5746 22.56L10.0571 21.8881L10.2717 21.6061ZM10.2591 20.5126L10.5159 21.3375L10.1455 21.2847L9.97728 20.4521L10.2591 20.5126ZM9.7416 21.1794L10.1246 21.5456L9.91836 22.1279L9.63653 21.8408L9.7416 21.1794ZM9.43457 20.5654L10.0193 20.8317L10.0404 21.3401L9.43457 20.9344V20.5654Z" fill="#231869"/>
<path fill-rule="evenodd" clip-rule="evenodd" d="M12.5439 22.4285L12.7164 22.8367L12.2914 23.0818L12.0433 22.5418L12.5439 22.4285ZM12.0307 22.7077L12.5102 23.477L12.3334 23.6614L11.8159 22.9897L12.0307 22.7077ZM12.0179 21.6142L12.2747 22.4389L11.9045 22.3863L11.7361 21.5537L12.0179 21.6142ZM11.5006 22.2808L11.8834 22.647L11.6771 23.2294L11.3953 22.9422L11.5006 22.2808ZM11.1934 21.667L11.7781 21.9331L11.7992 22.4416L11.1934 22.0358V21.667Z" fill="#231869"/>
</svg>
